<?plantuml 1.2026.2beta2?>
<svg xmlns="http://www.w3.org/2000/svg" xmlns:xlink="http://www.w3.org/1999/xlink" contentStyleType="text/css" data-diagram-type="ACTIVITY" height="1437px" preserveAspectRatio="none" style="width:501px;height:1437px;background:#FFFFFF;" version="1.1" viewBox="0 0 501 1437" width="501px" zoomAndPan="magnify"><title>Activity diagram for docker_leader</title><defs/><g><g class="title" data-source-line="1"><text fill="#000000" font-family="sans-serif" font-size="14" font-weight="bold" lengthAdjust="spacing" textLength="273.6426" x="112.5723" y="32.9951">Activity diagram for docker_leader</text></g><ellipse cx="218.3936" cy="57.2969" fill="#222222" rx="10" ry="10" style="stroke:#222222;stroke-width:1;"/><rect fill="#F1F1F1" height="33.9688" rx="12.5" ry="12.5" style="stroke:#181818;stroke-width:0.5;" width="134.5566" x="151.1152" y="179.6992"/><text fill="#000000" font-family="sans-serif" font-size="12" lengthAdjust="spacing" textLength="114.5566" x="161.1152" y="200.8379">stop docker_leader</text><polygon fill="#F1F1F1" points="96.5959,131.2969,340.1912,131.2969,352.1912,143.2969,340.1912,155.2969,96.5959,155.2969,84.5959,143.2969,96.5959,131.2969" style="stroke:#181818;stroke-width:0.5;"/><text fill="#000000" font-family="sans-serif" font-size="11" lengthAdjust="spacing" textLength="19.0083" x="222.3936" y="165.5073">yes</text><text fill="#000000" font-family="sans-serif" font-size="11" lengthAdjust="spacing" textLength="243.5952" x="96.5959" y="147.105">self is neither leader nor designated leader?</text><polygon fill="#F1F1F1" points="218.3936,233.668,230.3936,245.668,218.3936,257.668,206.3936,245.668,218.3936,233.668" style="stroke:#181818;stroke-width:0.5;"/><rect fill="#F1F1F1" height="33.9688" rx="12.5" ry="12.5" style="stroke:#181818;stroke-width:0.5;" width="181.6484" x="127.5693" y="277.668"/><text fill="#000000" font-family="sans-serif" font-size="12" lengthAdjust="spacing" textLength="161.6484" x="137.5693" y="298.8066">code := check_for_health()</text><rect fill="#F1F1F1" height="33.9688" rx="12.5" ry="12.5" style="stroke:#181818;stroke-width:0.5;" width="388.8008" x="23.9932" y="428.4414"/><text fill="#000000" font-family="sans-serif" font-size="12" lengthAdjust="spacing" textLength="368.8008" x="33.9932" y="449.5801">force new cluster and generate new join token with cluster id</text><polygon fill="#F1F1F1" points="96.9478,380.0391,339.8394,380.0391,351.8394,392.0391,339.8394,404.0391,96.9478,404.0391,84.9478,392.0391,96.9478,380.0391" style="stroke:#181818;stroke-width:0.5;"/><text fill="#000000" font-family="sans-serif" font-size="11" lengthAdjust="spacing" textLength="19.0083" x="222.3936" y="414.2495">yes</text><text fill="#000000" font-family="sans-serif" font-size="11" lengthAdjust="spacing" textLength="242.8916" x="96.9478" y="395.8472">code remains and self is designated leader?</text><polygon fill="#F1F1F1" points="218.3936,482.4102,230.3936,494.4102,218.3936,506.4102,206.3936,494.4102,218.3936,482.4102" style="stroke:#181818;stroke-width:0.5;"/><polygon fill="#F1F1F1" points="188.917,331.6367,247.8701,331.6367,259.8701,343.6367,247.8701,355.6367,188.917,355.6367,176.917,343.6367,188.917,331.6367" style="stroke:#181818;stroke-width:0.5;"/><text fill="#000000" font-family="sans-serif" font-size="11" lengthAdjust="spacing" textLength="19.0083" x="222.3936" y="365.8472">yes</text><text fill="#000000" font-family="sans-serif" font-size="11" lengthAdjust="spacing" textLength="58.9531" x="188.917" y="347.4448">code == 1</text><polygon fill="#F1F1F1" points="218.3936,526.4102,230.3936,538.4102,218.3936,550.4102,206.3936,538.4102,218.3936,526.4102" style="stroke:#181818;stroke-width:0.5;"/><rect fill="#F1F1F1" height="33.9688" rx="12.5" ry="12.5" style="stroke:#181818;stroke-width:0.5;" width="351.6699" x="42.5586" y="618.8125"/><text fill="#000000" font-family="sans-serif" font-size="12" lengthAdjust="spacing" textLength="331.6699" x="52.5586" y="639.9512">check for designated leader update and second cluster</text><rect fill="#F1F1F1" height="33.9688" rx="12.5" ry="12.5" style="stroke:#181818;stroke-width:0.5;" width="414.7871" x="11" y="721.1836"/><text fill="#000000" font-family="sans-serif" font-size="12" lengthAdjust="spacing" textLength="394.7871" x="21" y="742.3223">demote and remove nodes, leave swarm, and stop docker_leader</text><polygon fill="#F1F1F1" points="166.1409,672.7813,270.6462,672.7813,282.6462,684.7813,270.6462,696.7813,166.1409,696.7813,154.1409,684.7813,166.1409,672.7813" style="stroke:#181818;stroke-width:0.5;"/><text fill="#000000" font-family="sans-serif" font-size="11" lengthAdjust="spacing" textLength="19.0083" x="222.3936" y="706.9917">yes</text><text fill="#000000" font-family="sans-serif" font-size="11" lengthAdjust="spacing" textLength="104.5054" x="166.1409" y="688.5894">found new cluster?</text><polygon fill="#F1F1F1" points="218.3936,779.5547,230.3936,791.5547,218.3936,803.5547,206.3936,791.5547,218.3936,779.5547" style="stroke:#181818;stroke-width:0.5;"/><rect fill="#F1F1F1" height="33.9688" rx="12.5" ry="12.5" style="stroke:#181818;stroke-width:0.5;" width="315.377" x="60.7051" y="915.957"/><text fill="#000000" font-family="sans-serif" font-size="12" lengthAdjust="spacing" textLength="295.377" x="70.7051" y="937.0957">change availability of node and delete .labels file</text><polygon fill="#F1F1F1" points="77.2305,867.5547,359.5566,867.5547,371.5566,879.5547,359.5566,891.5547,77.2305,891.5547,65.2305,879.5547,77.2305,867.5547" style="stroke:#181818;stroke-width:0.5;"/><text fill="#000000" font-family="sans-serif" font-size="11" lengthAdjust="spacing" textLength="19.0083" x="222.3936" y="901.7651">yes</text><text fill="#000000" font-family="sans-serif" font-size="11" lengthAdjust="spacing" textLength="282.3262" x="77.2305" y="883.3628">can add all labels to node with hostname from file?</text><polygon fill="#F1F1F1" points="218.3936,974.3281,230.3936,986.3281,218.3936,998.3281,206.3936,986.3281,218.3936,974.3281" style="stroke:#181818;stroke-width:0.5;"/><polygon fill="#F1F1F1" points="218.3936,823.5547,230.3936,835.5547,218.3936,847.5547,206.3936,835.5547,218.3936,823.5547" style="stroke:#181818;stroke-width:0.5;"/><polygon fill="#F1F1F1" points="133.071,1018.3281,303.7161,1018.3281,315.7161,1030.3281,303.7161,1042.3281,133.071,1042.3281,121.071,1030.3281,133.071,1018.3281" style="stroke:#181818;stroke-width:0.5;"/><text fill="#000000" font-family="sans-serif" font-size="11" lengthAdjust="spacing" textLength="170.645" x="133.071" y="1034.1362">found unprocessed .labels file?</text><text fill="#000000" font-family="sans-serif" font-size="11" lengthAdjust="spacing" textLength="19.0083" x="315.7161" y="1027.7339">yes</text><rect fill="#F1F1F1" height="33.9688" rx="12.5" ry="12.5" style="stroke:#181818;stroke-width:0.5;" width="302.4746" x="67.1563" y="1062.3281"/><text fill="#000000" font-family="sans-serif" font-size="12" lengthAdjust="spacing" textLength="282.4746" x="77.1563" y="1083.4668">deminish patience with unreachable managers</text><rect fill="#F1F1F1" height="33.9688" rx="12.5" ry="12.5" style="stroke:#181818;stroke-width:0.5;" width="398.791" x="18.998" y="1116.2969"/><text fill="#000000" font-family="sans-serif" font-size="12" lengthAdjust="spacing" textLength="378.791" x="28.998" y="1137.4355">demote and remove managers which self has no patience with</text><rect fill="#F1F1F1" height="33.9688" rx="12.5" ry="12.5" style="stroke:#181818;stroke-width:0.5;" width="321.2598" x="57.7637" y="1218.668"/><text fill="#000000" font-family="sans-serif" font-size="12" lengthAdjust="spacing" textLength="301.2598" x="67.7637" y="1239.8066">promote capable and reachable workers until met</text><polygon fill="#F1F1F1" points="140.4241,1170.2656,296.363,1170.2656,308.363,1182.2656,296.363,1194.2656,140.4241,1194.2656,128.4241,1182.2656,140.4241,1170.2656" style="stroke:#181818;stroke-width:0.5;"/><text fill="#000000" font-family="sans-serif" font-size="11" lengthAdjust="spacing" textLength="19.0083" x="222.3936" y="1204.4761">yes</text><text fill="#000000" font-family="sans-serif" font-size="11" lengthAdjust="spacing" textLength="155.939" x="140.4241" y="1186.0737">below ideal manager count?</text><polygon fill="#F1F1F1" points="218.3936,1272.6367,230.3936,1284.6367,218.3936,1296.6367,206.3936,1284.6367,218.3936,1272.6367" style="stroke:#181818;stroke-width:0.5;"/><polygon fill="#F1F1F1" points="156.7817,570.4102,280.0054,570.4102,292.0054,582.4102,280.0054,594.4102,156.7817,594.4102,144.7817,582.4102,156.7817,570.4102" style="stroke:#181818;stroke-width:0.5;"/><text fill="#000000" font-family="sans-serif" font-size="11" lengthAdjust="spacing" textLength="19.0083" x="222.3936" y="604.6206">yes</text><text fill="#000000" font-family="sans-serif" font-size="11" lengthAdjust="spacing" textLength="123.2236" x="156.7817" y="586.2183">self is currently leader</text><polygon fill="#F1F1F1" points="218.3936,1316.6367,230.3936,1328.6367,218.3936,1340.6367,206.3936,1328.6367,218.3936,1316.6367" style="stroke:#181818;stroke-width:0.5;"/><polygon fill="#F1F1F1" points="218.3936,87.2969,230.3936,99.2969,218.3936,111.2969,206.3936,99.2969,218.3936,87.2969" style="stroke:#181818;stroke-width:0.5;"/><polygon fill="#F1F1F1" points="121.5151,1360.6367,315.272,1360.6367,327.272,1372.6367,315.272,1384.6367,121.5151,1384.6367,109.5151,1372.6367,121.5151,1360.6367" style="stroke:#181818;stroke-width:0.5;"/><text fill="#000000" font-family="sans-serif" font-size="11" lengthAdjust="spacing" textLength="193.7568" x="121.5151" y="1376.4448">self is leader or designated leader?</text><text fill="#000000" font-family="sans-serif" font-size="11" lengthAdjust="spacing" textLength="19.0083" x="327.272" y="1370.0425">yes</text><ellipse cx="218.3936" cy="1415.6367" fill="none" rx="11" ry="11" style="stroke:#222222;stroke-width:1;"/><ellipse cx="218.3936" cy="1415.6367" fill="#222222" rx="6" ry="6" style="stroke:#222222;stroke-width:1;"/><line style="stroke:#181818;stroke-width:1;" x1="218.3936" x2="218.3936" y1="155.2969" y2="179.6992"/><polygon fill="#181818" points="214.3936,169.6992,218.3936,179.6992,222.3936,169.6992,218.3936,173.6992" style="stroke:#181818;stroke-width:1;"/><line style="stroke:#181818;stroke-width:1;" x1="352.1912" x2="364.1912" y1="143.2969" y2="143.2969"/><polygon fill="#181818" points="360.1912,186.6836,364.1912,196.6836,368.1912,186.6836,364.1912,190.6836" style="stroke:#181818;stroke-width:1;"/><line style="stroke:#181818;stroke-width:1;" x1="364.1912" x2="364.1912" y1="143.2969" y2="245.668"/><line style="stroke:#181818;stroke-width:1;" x1="364.1912" x2="230.3936" y1="245.668" y2="245.668"/><polygon fill="#181818" points="240.3936,241.668,230.3936,245.668,240.3936,249.668,236.3936,245.668" style="stroke:#181818;stroke-width:1;"/><line style="stroke:#181818;stroke-width:1;" x1="218.3936" x2="218.3936" y1="213.668" y2="233.668"/><polygon fill="#181818" points="214.3936,223.668,218.3936,233.668,222.3936,223.668,218.3936,227.668" style="stroke:#181818;stroke-width:1;"/><line style="stroke:#181818;stroke-width:1;" x1="218.3936" x2="218.3936" y1="257.668" y2="277.668"/><polygon fill="#181818" points="214.3936,267.668,218.3936,277.668,222.3936,267.668,218.3936,271.668" style="stroke:#181818;stroke-width:1;"/><line style="stroke:#181818;stroke-width:1;" x1="218.3936" x2="218.3936" y1="404.0391" y2="428.4414"/><polygon fill="#181818" points="214.3936,418.4414,218.3936,428.4414,222.3936,418.4414,218.3936,422.4414" style="stroke:#181818;stroke-width:1;"/><line style="stroke:#181818;stroke-width:1;" x1="351.8394" x2="422.7939" y1="392.0391" y2="392.0391"/><polygon fill="#181818" points="418.7939,435.4258,422.7939,445.4258,426.7939,435.4258,422.7939,439.4258" style="stroke:#181818;stroke-width:1;"/><line style="stroke:#181818;stroke-width:1;" x1="422.7939" x2="422.7939" y1="392.0391" y2="494.4102"/><line style="stroke:#181818;stroke-width:1;" x1="422.7939" x2="230.3936" y1="494.4102" y2="494.4102"/><polygon fill="#181818" points="240.3936,490.4102,230.3936,494.4102,240.3936,498.4102,236.3936,494.4102" style="stroke:#181818;stroke-width:1;"/><line style="stroke:#181818;stroke-width:1;" x1="218.3936" x2="218.3936" y1="462.4102" y2="482.4102"/><polygon fill="#181818" points="214.3936,472.4102,218.3936,482.4102,222.3936,472.4102,218.3936,476.4102" style="stroke:#181818;stroke-width:1;"/><line style="stroke:#181818;stroke-width:1;" x1="218.3936" x2="218.3936" y1="355.6367" y2="380.0391"/><polygon fill="#181818" points="214.3936,370.0391,218.3936,380.0391,222.3936,370.0391,218.3936,374.0391" style="stroke:#181818;stroke-width:1;"/><line style="stroke:#181818;stroke-width:1;" x1="259.8701" x2="444.7939" y1="343.6367" y2="343.6367"/><polygon fill="#181818" points="440.7939,435.4258,444.7939,445.4258,448.7939,435.4258,444.7939,439.4258" style="stroke:#181818;stroke-width:1;"/><line style="stroke:#181818;stroke-width:1;" x1="444.7939" x2="444.7939" y1="343.6367" y2="538.4102"/><line style="stroke:#181818;stroke-width:1;" x1="444.7939" x2="230.3936" y1="538.4102" y2="538.4102"/><polygon fill="#181818" points="240.3936,534.4102,230.3936,538.4102,240.3936,542.4102,236.3936,538.4102" style="stroke:#181818;stroke-width:1;"/><line style="stroke:#181818;stroke-width:1;" x1="218.3936" x2="218.3936" y1="506.4102" y2="526.4102"/><polygon fill="#181818" points="214.3936,516.4102,218.3936,526.4102,222.3936,516.4102,218.3936,520.4102" style="stroke:#181818;stroke-width:1;"/><line style="stroke:#181818;stroke-width:1;" x1="218.3936" x2="218.3936" y1="311.6367" y2="331.6367"/><polygon fill="#181818" points="214.3936,321.6367,218.3936,331.6367,222.3936,321.6367,218.3936,325.6367" style="stroke:#181818;stroke-width:1;"/><line style="stroke:#181818;stroke-width:1;" x1="218.3936" x2="218.3936" y1="696.7813" y2="721.1836"/><polygon fill="#181818" points="214.3936,711.1836,218.3936,721.1836,222.3936,711.1836,218.3936,715.1836" style="stroke:#181818;stroke-width:1;"/><line style="stroke:#181818;stroke-width:1;" x1="282.6462" x2="435.7871" y1="684.7813" y2="684.7813"/><polygon fill="#181818" points="431.7871,728.168,435.7871,738.168,439.7871,728.168,435.7871,732.168" style="stroke:#181818;stroke-width:1;"/><line style="stroke:#181818;stroke-width:1;" x1="435.7871" x2="435.7871" y1="684.7813" y2="791.5547"/><line style="stroke:#181818;stroke-width:1;" x1="435.7871" x2="230.3936" y1="791.5547" y2="791.5547"/><polygon fill="#181818" points="240.3936,787.5547,230.3936,791.5547,240.3936,795.5547,236.3936,791.5547" style="stroke:#181818;stroke-width:1;"/><line style="stroke:#181818;stroke-width:1;" x1="218.3936" x2="218.3936" y1="755.1523" y2="779.5547"/><polygon fill="#181818" points="214.3936,769.5547,218.3936,779.5547,222.3936,769.5547,218.3936,773.5547" style="stroke:#181818;stroke-width:1;"/><line style="stroke:#181818;stroke-width:1;" x1="218.3936" x2="218.3936" y1="652.7813" y2="672.7813"/><polygon fill="#181818" points="214.3936,662.7813,218.3936,672.7813,222.3936,662.7813,218.3936,666.7813" style="stroke:#181818;stroke-width:1;"/><line style="stroke:#181818;stroke-width:1;" x1="218.3936" x2="218.3936" y1="891.5547" y2="915.957"/><polygon fill="#181818" points="214.3936,905.957,218.3936,915.957,222.3936,905.957,218.3936,909.957" style="stroke:#181818;stroke-width:1;"/><line style="stroke:#181818;stroke-width:1;" x1="371.5566" x2="386.082" y1="879.5547" y2="879.5547"/><polygon fill="#181818" points="382.082,922.9414,386.082,932.9414,390.082,922.9414,386.082,926.9414" style="stroke:#181818;stroke-width:1;"/><line style="stroke:#181818;stroke-width:1;" x1="386.082" x2="386.082" y1="879.5547" y2="986.3281"/><line style="stroke:#181818;stroke-width:1;" x1="386.082" x2="230.3936" y1="986.3281" y2="986.3281"/><polygon fill="#181818" points="240.3936,982.3281,230.3936,986.3281,240.3936,990.3281,236.3936,986.3281" style="stroke:#181818;stroke-width:1;"/><line style="stroke:#181818;stroke-width:1;" x1="218.3936" x2="218.3936" y1="949.9258" y2="974.3281"/><polygon fill="#181818" points="214.3936,964.3281,218.3936,974.3281,222.3936,964.3281,218.3936,968.3281" style="stroke:#181818;stroke-width:1;"/><line style="stroke:#181818;stroke-width:1;" x1="218.3936" x2="218.3936" y1="847.5547" y2="867.5547"/><polygon fill="#181818" points="214.3936,857.5547,218.3936,867.5547,222.3936,857.5547,218.3936,861.5547" style="stroke:#181818;stroke-width:1;"/><line style="stroke:#181818;stroke-width:1;" x1="315.7161" x2="410.082" y1="1030.3281" y2="1030.3281"/><polygon fill="#181818" points="406.082,942.9414,410.082,932.9414,414.082,942.9414,410.082,938.9414" style="stroke:#181818;stroke-width:1;"/><line style="stroke:#181818;stroke-width:1;" x1="410.082" x2="410.082" y1="835.5547" y2="1030.3281"/><line style="stroke:#181818;stroke-width:1;" x1="410.082" x2="230.3936" y1="835.5547" y2="835.5547"/><polygon fill="#181818" points="240.3936,831.5547,230.3936,835.5547,240.3936,839.5547,236.3936,835.5547" style="stroke:#181818;stroke-width:1;"/><line style="stroke:#181818;stroke-width:1;" x1="218.3936" x2="218.3936" y1="998.3281" y2="1018.3281"/><polygon fill="#181818" points="214.3936,1008.3281,218.3936,1018.3281,222.3936,1008.3281,218.3936,1012.3281" style="stroke:#181818;stroke-width:1;"/><line style="stroke:#181818;stroke-width:1;" x1="218.3936" x2="218.3936" y1="803.5547" y2="823.5547"/><polygon fill="#181818" points="214.3936,813.5547,218.3936,823.5547,222.3936,813.5547,218.3936,817.5547" style="stroke:#181818;stroke-width:1;"/><line style="stroke:#181818;stroke-width:1;" x1="218.3936" x2="218.3936" y1="1042.3281" y2="1062.3281"/><polygon fill="#181818" points="214.3936,1052.3281,218.3936,1062.3281,222.3936,1052.3281,218.3936,1056.3281" style="stroke:#181818;stroke-width:1;"/><line style="stroke:#181818;stroke-width:1;" x1="218.3936" x2="218.3936" y1="1096.2969" y2="1116.2969"/><polygon fill="#181818" points="214.3936,1106.2969,218.3936,1116.2969,222.3936,1106.2969,218.3936,1110.2969" style="stroke:#181818;stroke-width:1;"/><line style="stroke:#181818;stroke-width:1;" x1="218.3936" x2="218.3936" y1="1194.2656" y2="1218.668"/><polygon fill="#181818" points="214.3936,1208.668,218.3936,1218.668,222.3936,1208.668,218.3936,1212.668" style="stroke:#181818;stroke-width:1;"/><line style="stroke:#181818;stroke-width:1;" x1="308.363" x2="389.0234" y1="1182.2656" y2="1182.2656"/><polygon fill="#181818" points="385.0234,1225.6523,389.0234,1235.6523,393.0234,1225.6523,389.0234,1229.6523" style="stroke:#181818;stroke-width:1;"/><line style="stroke:#181818;stroke-width:1;" x1="389.0234" x2="389.0234" y1="1182.2656" y2="1284.6367"/><line style="stroke:#181818;stroke-width:1;" x1="389.0234" x2="230.3936" y1="1284.6367" y2="1284.6367"/><polygon fill="#181818" points="240.3936,1280.6367,230.3936,1284.6367,240.3936,1288.6367,236.3936,1284.6367" style="stroke:#181818;stroke-width:1;"/><line style="stroke:#181818;stroke-width:1;" x1="218.3936" x2="218.3936" y1="1252.6367" y2="1272.6367"/><polygon fill="#181818" points="214.3936,1262.6367,218.3936,1272.6367,222.3936,1262.6367,218.3936,1266.6367" style="stroke:#181818;stroke-width:1;"/><line style="stroke:#181818;stroke-width:1;" x1="218.3936" x2="218.3936" y1="1150.2656" y2="1170.2656"/><polygon fill="#181818" points="214.3936,1160.2656,218.3936,1170.2656,222.3936,1160.2656,218.3936,1164.2656" style="stroke:#181818;stroke-width:1;"/><line style="stroke:#181818;stroke-width:1;" x1="218.3936" x2="218.3936" y1="594.4102" y2="618.8125"/><polygon fill="#181818" points="214.3936,608.8125,218.3936,618.8125,222.3936,608.8125,218.3936,612.8125" style="stroke:#181818;stroke-width:1;"/><line style="stroke:#181818;stroke-width:1;" x1="292.0054" x2="457.7871" y1="582.4102" y2="582.4102"/><polygon fill="#181818" points="453.7871,957.4258,457.7871,967.4258,461.7871,957.4258,457.7871,961.4258" style="stroke:#181818;stroke-width:1;"/><line style="stroke:#181818;stroke-width:1;" x1="457.7871" x2="457.7871" y1="582.4102" y2="1328.6367"/><line style="stroke:#181818;stroke-width:1;" x1="457.7871" x2="230.3936" y1="1328.6367" y2="1328.6367"/><polygon fill="#181818" points="240.3936,1324.6367,230.3936,1328.6367,240.3936,1332.6367,236.3936,1328.6367" style="stroke:#181818;stroke-width:1;"/><line style="stroke:#181818;stroke-width:1;" x1="218.3936" x2="218.3936" y1="1296.6367" y2="1316.6367"/><polygon fill="#181818" points="214.3936,1306.6367,218.3936,1316.6367,222.3936,1306.6367,218.3936,1310.6367" style="stroke:#181818;stroke-width:1;"/><line style="stroke:#181818;stroke-width:1;" x1="218.3936" x2="218.3936" y1="550.4102" y2="570.4102"/><polygon fill="#181818" points="214.3936,560.4102,218.3936,570.4102,222.3936,560.4102,218.3936,564.4102" style="stroke:#181818;stroke-width:1;"/><line style="stroke:#181818;stroke-width:1;" x1="218.3936" x2="218.3936" y1="111.2969" y2="131.2969"/><polygon fill="#181818" points="214.3936,121.2969,218.3936,131.2969,222.3936,121.2969,218.3936,125.2969" style="stroke:#181818;stroke-width:1;"/><line style="stroke:#181818;stroke-width:1;" x1="327.272" x2="475.7871" y1="1372.6367" y2="1372.6367"/><polygon fill="#181818" points="471.7871,771.7656,475.7871,761.7656,479.7871,771.7656,475.7871,767.7656" style="stroke:#181818;stroke-width:1;"/><line style="stroke:#181818;stroke-width:1;" x1="475.7871" x2="475.7871" y1="99.2969" y2="1372.6367"/><line style="stroke:#181818;stroke-width:1;" x1="475.7871" x2="230.3936" y1="99.2969" y2="99.2969"/><polygon fill="#181818" points="240.3936,95.2969,230.3936,99.2969,240.3936,103.2969,236.3936,99.2969" style="stroke:#181818;stroke-width:1;"/><line style="stroke:#181818;stroke-width:1;" x1="218.3936" x2="218.3936" y1="1340.6367" y2="1360.6367"/><polygon fill="#181818" points="214.3936,1350.6367,218.3936,1360.6367,222.3936,1350.6367,218.3936,1354.6367" style="stroke:#181818;stroke-width:1;"/><line style="stroke:#181818;stroke-width:1;" x1="218.3936" x2="218.3936" y1="67.2969" y2="87.2969"/><polygon fill="#181818" points="214.3936,77.2969,218.3936,87.2969,222.3936,77.2969,218.3936,81.2969" style="stroke:#181818;stroke-width:1;"/><line style="stroke:#181818;stroke-width:1;" x1="218.3936" x2="218.3936" y1="1384.6367" y2="1404.6367"/><polygon fill="#181818" points="214.3936,1394.6367,218.3936,1404.6367,222.3936,1394.6367,218.3936,1398.6367" style="stroke:#181818;stroke-width:1;"/><?plantuml-src ZPJTZk8m38NlUGhV3KYZbUOMX5Rx9CYJk6sMDAaIbugtN-Ulm4n7sgken3x-VEp0XYt17yNcPlWEsc0VS8JE1z1UNIbSBA6ci8kCWNU19aBU0PWEzf5i1oQ28yC31IYHu58kHTCxPDBrrzy7a1W7-pl5W-G372FxwRN8IIx8QTF9ULHU4npFe0PIrui0NGP2oyF-SAhrSyJv31_VjDVRG2CQ5m6TXeRx7snINWegajOMK7QEB7qbZPuS1KdD5t-zSS3-AgcBEB066dtAAgsLSdunJSqXa6Dxhn3V_ScDbqby9OPvqecYjAMy7BLugVmscZvZidzkOVMcyxEaFDriMg1fzBM8-EXlqhLu6jyJX7p41SFuNXWsH_bmG8XG2pn-aetvUrsaTLpe8CMWjJKkmwSXPdC77zdXID05B_jfB6qnPzlGzK9zGoCwngQrzbrHIgoQB4bNlsgHf7IgsG_SWWVB8BVDhjbDmIkAKSRmd2qSCiy7nLlrJOiHCAB3da9fEZbgd8a3JCY6dAgzpIuG2lUd56i9fzqFCsW12KuDPQi7b5VeNrNh9WXpLbXyk3QEvBVW-qLMLTvKamGbVVBcAZGLXLEcB3oDkMfB7sn4ZNXh_ryjRS-WxlCFVnchhsd1_W40?></g></svg>