<?plantuml 1.2026.2beta2?>
<svg xmlns="http://www.w3.org/2000/svg" xmlns:xlink="http://www.w3.org/1999/xlink" contentStyleType="text/css" data-diagram-type="ACTIVITY" height="1684px" preserveAspectRatio="none" style="width:516px;height:1684px;background:#FFFFFF;" version="1.1" viewBox="0 0 516 1684" width="516px" zoomAndPan="magnify"><title>Activity diagram for docker_init</title><defs/><g><g class="title" data-source-line="1"><text fill="#000000" font-family="sans-serif" font-size="14" font-weight="bold" lengthAdjust="spacing" textLength="249.7373" x="132.0054" y="32.9951">Activity diagram for docker_init</text></g><ellipse cx="213.9702" cy="57.2969" fill="#222222" rx="10" ry="10" style="stroke:#222222;stroke-width:1;"/><rect fill="#F1F1F1" height="33.9688" rx="12.5" ry="12.5" style="stroke:#181818;stroke-width:0.5;" width="152.2051" x="137.8677" y="135.6992"/><text fill="#000000" font-family="sans-serif" font-size="12" lengthAdjust="spacing" textLength="132.2051" x="147.8677" y="156.8379">get designated leader</text><polygon fill="#F1F1F1" points="143.6331,189.668,284.3074,189.668,296.3074,201.668,284.3074,213.668,143.6331,213.668,131.6331,201.668,143.6331,189.668" style="stroke:#181818;stroke-width:0.5;"/><text fill="#000000" font-family="sans-serif" font-size="11" lengthAdjust="spacing" textLength="140.6743" x="143.6331" y="205.4761">self is designated leader?</text><text fill="#000000" font-family="sans-serif" font-size="11" lengthAdjust="spacing" textLength="19.0083" x="112.6248" y="199.0737">yes</text><text fill="#000000" font-family="sans-serif" font-size="11" lengthAdjust="spacing" textLength="13.7017" x="296.3074" y="199.0737">no</text><rect fill="#F1F1F1" height="33.9688" rx="12.5" ry="12.5" style="stroke:#181818;stroke-width:0.5;" width="123.9863" x="34.54" y="223.668"/><text fill="#000000" font-family="sans-serif" font-size="12" lengthAdjust="spacing" textLength="103.9863" x="44.54" y="244.8066">add_own_labels()</text><rect fill="#F1F1F1" height="33.9688" rx="12.5" ry="12.5" style="stroke:#181818;stroke-width:0.5;" width="171.0664" x="11" y="277.6367"/><text fill="#000000" font-family="sans-serif" font-size="12" lengthAdjust="spacing" textLength="151.0664" x="21" y="298.7754">generate_worker_token()</text><rect fill="#F1F1F1" height="33.9688" rx="12.5" ry="12.5" style="stroke:#181818;stroke-width:0.5;" width="136.5898" x="28.2383" y="346.6055"/><text fill="#000000" font-family="sans-serif" font-size="12" lengthAdjust="spacing" textLength="116.5898" x="38.2383" y="367.7441">start docker_leader</text><polygon fill="#F1F1F1" points="291.8491,223.668,370.9653,223.668,382.9653,235.668,370.9653,247.668,291.8491,247.668,279.8491,235.668,291.8491,223.668" style="stroke:#181818;stroke-width:0.5;"/><text fill="#000000" font-family="sans-serif" font-size="11" lengthAdjust="spacing" textLength="79.1162" x="291.8491" y="239.4761">no .labels file?</text><text fill="#000000" font-family="sans-serif" font-size="11" lengthAdjust="spacing" textLength="19.0083" x="382.9653" y="233.0737">yes</text><ellipse cx="423.9736" cy="235.668" fill="none" rx="11" ry="11" style="stroke:#222222;stroke-width:1;"/><ellipse cx="423.9736" cy="235.668" fill="#222222" rx="6" ry="6" style="stroke:#222222;stroke-width:1;"/><rect fill="#F1F1F1" height="33.9688" rx="12.5" ry="12.5" style="stroke:#181818;stroke-width:0.5;" width="148.1035" x="257.3555" y="387.668"/><text fill="#000000" font-family="sans-serif" font-size="12" lengthAdjust="spacing" textLength="128.1035" x="267.3555" y="408.8066">get worker join token</text><rect fill="#F1F1F1" height="33.9688" rx="12.5" ry="12.5" style="stroke:#181818;stroke-width:0.5;" width="153.3066" x="254.7539" y="449.1367"/><text fill="#000000" font-family="sans-serif" font-size="12" lengthAdjust="spacing" textLength="133.3066" x="264.7539" y="470.2754">attempt to join swarm</text><polygon fill="#F1F1F1" points="331.4072,315.668,343.4072,327.668,331.4072,339.668,319.4072,327.668,331.4072,315.668" style="stroke:#181818;stroke-width:0.5;"/><polygon fill="#F1F1F1" points="292.6172,503.1055,370.1973,503.1055,382.1973,515.1055,370.1973,527.1055,292.6172,527.1055,280.6172,515.1055,292.6172,503.1055" style="stroke:#181818;stroke-width:0.5;"/><text fill="#000000" font-family="sans-serif" font-size="11" lengthAdjust="spacing" textLength="77.5801" x="292.6172" y="518.9136">not in swarm?</text><text fill="#000000" font-family="sans-serif" font-size="11" lengthAdjust="spacing" textLength="19.0083" x="382.1973" y="512.5112">yes</text><rect fill="#F1F1F1" height="33.9688" rx="12.5" ry="12.5" style="stroke:#181818;stroke-width:0.5;" width="258.6816" x="202.0664" y="591.1055"/><text fill="#000000" font-family="sans-serif" font-size="12" lengthAdjust="spacing" textLength="238.6816" x="212.0664" y="612.2441">provide .labels file to designated leader</text><polygon fill="#F1F1F1" points="331.4072,547.1055,343.4072,559.1055,331.4072,571.1055,319.4072,559.1055,331.4072,547.1055" style="stroke:#181818;stroke-width:0.5;"/><polygon fill="#F1F1F1" points="313.2502,645.0742,349.5642,645.0742,361.5642,657.0742,349.5642,669.0742,313.2502,669.0742,301.2502,657.0742,313.2502,645.0742" style="stroke:#181818;stroke-width:0.5;"/><text fill="#000000" font-family="sans-serif" font-size="11" lengthAdjust="spacing" textLength="36.314" x="313.2502" y="660.8823">failed?</text><text fill="#000000" font-family="sans-serif" font-size="11" lengthAdjust="spacing" textLength="19.0083" x="361.5642" y="654.48">yes</text><polygon fill="#F1F1F1" points="213.9702,675.0742,225.9702,687.0742,213.9702,699.0742,201.9702,687.0742,213.9702,675.0742" style="stroke:#181818;stroke-width:0.5;"/><polygon fill="#F1F1F1" points="150.5698,87.2969,277.3706,87.2969,289.3706,99.2969,277.3706,111.2969,150.5698,111.2969,138.5698,99.2969,150.5698,87.2969" style="stroke:#181818;stroke-width:0.5;"/><text fill="#000000" font-family="sans-serif" font-size="11" lengthAdjust="spacing" textLength="19.0083" x="217.9702" y="121.5073">yes</text><text fill="#000000" font-family="sans-serif" font-size="11" lengthAdjust="spacing" textLength="126.8008" x="150.5698" y="103.105">swarm status inactive?</text><polygon fill="#F1F1F1" points="213.9702,719.0742,225.9702,731.0742,213.9702,743.0742,201.9702,731.0742,213.9702,719.0742" style="stroke:#181818;stroke-width:0.5;"/><rect fill="#F1F1F1" height="33.9688" rx="12.5" ry="12.5" style="stroke:#181818;stroke-width:0.5;" width="171.0664" x="128.437" y="903.8789"/><text fill="#000000" font-family="sans-serif" font-size="12" lengthAdjust="spacing" textLength="151.0664" x="138.437" y="925.0176">generate_worker_token()</text><polygon fill="#F1F1F1" points="162.123,855.4766,265.8174,855.4766,277.8174,867.4766,265.8174,879.4766,162.123,879.4766,150.123,867.4766,162.123,855.4766" style="stroke:#181818;stroke-width:0.5;"/><text fill="#000000" font-family="sans-serif" font-size="11" lengthAdjust="spacing" textLength="19.0083" x="217.9702" y="889.687">yes</text><text fill="#000000" font-family="sans-serif" font-size="11" lengthAdjust="spacing" textLength="103.6943" x="162.123" y="871.2847">no own join token?</text><polygon fill="#F1F1F1" points="213.9702,957.8477,225.9702,969.8477,213.9702,981.8477,201.9702,969.8477,213.9702,957.8477" style="stroke:#181818;stroke-width:0.5;"/><rect fill="#F1F1F1" height="33.9688" rx="12.5" ry="12.5" style="stroke:#181818;stroke-width:0.5;" width="136.5898" x="145.6753" y="1065.25"/><text fill="#000000" font-family="sans-serif" font-size="12" lengthAdjust="spacing" textLength="116.5898" x="155.6753" y="1086.3887">start docker_leader</text><polygon fill="#F1F1F1" points="106.7605,1016.8477,321.1799,1016.8477,333.1799,1028.8477,321.1799,1040.8477,106.7605,1040.8477,94.7605,1028.8477,106.7605,1016.8477" style="stroke:#181818;stroke-width:0.5;"/><text fill="#000000" font-family="sans-serif" font-size="11" lengthAdjust="spacing" textLength="19.0083" x="217.9702" y="1051.0581">yes</text><text fill="#000000" font-family="sans-serif" font-size="11" lengthAdjust="spacing" textLength="214.4194" x="106.7605" y="1032.6558">is leader but docker_leader not active?</text><polygon fill="#F1F1F1" points="213.9702,1119.2188,225.9702,1131.2188,213.9702,1143.2188,201.9702,1131.2188,213.9702,1119.2188" style="stroke:#181818;stroke-width:0.5;"/><polygon fill="#F1F1F1" points="180.1887,807.0742,247.7517,807.0742,259.7517,819.0742,247.7517,831.0742,180.1887,831.0742,168.1887,819.0742,180.1887,807.0742" style="stroke:#181818;stroke-width:0.5;"/><text fill="#000000" font-family="sans-serif" font-size="11" lengthAdjust="spacing" textLength="19.0083" x="217.9702" y="841.2847">yes</text><text fill="#000000" font-family="sans-serif" font-size="11" lengthAdjust="spacing" textLength="67.563" x="180.1887" y="822.8823">is manager?</text><polygon fill="#F1F1F1" points="213.9702,1163.2188,225.9702,1175.2188,213.9702,1187.2188,201.9702,1175.2188,213.9702,1163.2188" style="stroke:#181818;stroke-width:0.5;"/><rect fill="#F1F1F1" height="33.9688" rx="12.5" ry="12.5" style="stroke:#181818;stroke-width:0.5;" width="181.6484" x="123.146" y="1207.2188"/><text fill="#000000" font-family="sans-serif" font-size="12" lengthAdjust="spacing" textLength="161.6484" x="133.146" y="1228.3574">code := check_for_health()</text><rect fill="#F1F1F1" height="33.9688" rx="12.5" ry="12.5" style="stroke:#181818;stroke-width:0.5;" width="235.9238" x="96.0083" y="1261.1875"/><text fill="#000000" font-family="sans-serif" font-size="12" lengthAdjust="spacing" textLength="215.9238" x="106.0083" y="1282.3262">check for designated leader change</text><rect fill="#F1F1F1" height="33.9688" rx="12.5" ry="12.5" style="stroke:#181818;stroke-width:0.5;" width="364.7188" x="31.6108" y="1363.5586"/><text fill="#000000" font-family="sans-serif" font-size="12" lengthAdjust="spacing" textLength="344.7188" x="41.6108" y="1384.6973">get new join token with cluster id from designated leader</text><rect fill="#F1F1F1" height="33.9688" rx="12.5" ry="12.5" style="stroke:#181818;stroke-width:0.5;" width="114.8574" x="156.5415" y="1465.9297"/><text fill="#000000" font-family="sans-serif" font-size="12" lengthAdjust="spacing" textLength="94.8574" x="166.5415" y="1487.0684">join new cluster</text><polygon fill="#F1F1F1" points="127.877,1417.5273,300.0635,1417.5273,312.0635,1429.5273,300.0635,1441.5273,127.877,1441.5273,115.877,1429.5273,127.877,1417.5273" style="stroke:#181818;stroke-width:0.5;"/><text fill="#000000" font-family="sans-serif" font-size="11" lengthAdjust="spacing" textLength="19.0083" x="217.9702" y="1451.7378">yes</text><text fill="#000000" font-family="sans-serif" font-size="11" lengthAdjust="spacing" textLength="172.1865" x="127.877" y="1433.3354">designated in different cluster?</text><polygon fill="#F1F1F1" points="213.9702,1519.8984,225.9702,1531.8984,213.9702,1543.8984,201.9702,1531.8984,213.9702,1519.8984" style="stroke:#181818;stroke-width:0.5;"/><polygon fill="#F1F1F1" points="98.1023,1315.1563,329.8381,1315.1563,341.8381,1327.1563,329.8381,1339.1563,98.1023,1339.1563,86.1023,1327.1563,98.1023,1315.1563" style="stroke:#181818;stroke-width:0.5;"/><text fill="#000000" font-family="sans-serif" font-size="11" lengthAdjust="spacing" textLength="19.0083" x="217.9702" y="1349.3667">yes</text><text fill="#000000" font-family="sans-serif" font-size="11" lengthAdjust="spacing" textLength="231.7358" x="98.1023" y="1330.9644">self not designated leader and code != 0?</text><polygon fill="#F1F1F1" points="213.9702,1563.8984,225.9702,1575.8984,213.9702,1587.8984,201.9702,1575.8984,213.9702,1563.8984" style="stroke:#181818;stroke-width:0.5;"/><polygon fill="#F1F1F1" points="213.9702,763.0742,225.9702,775.0742,213.9702,787.0742,201.9702,775.0742,213.9702,763.0742" style="stroke:#181818;stroke-width:0.5;"/><polygon fill="#F1F1F1" points="105.9146,1607.8984,322.0259,1607.8984,334.0259,1619.8984,322.0259,1631.8984,105.9146,1631.8984,93.9146,1619.8984,105.9146,1607.8984" style="stroke:#181818;stroke-width:0.5;"/><text fill="#000000" font-family="sans-serif" font-size="11" lengthAdjust="spacing" textLength="216.1113" x="105.9146" y="1623.7065">swarm status neither inactive nor error</text><ellipse cx="213.9702" cy="1662.8984" fill="none" rx="11" ry="11" style="stroke:#222222;stroke-width:1;"/><ellipse cx="213.9702" cy="1662.8984" fill="#222222" rx="6" ry="6" style="stroke:#222222;stroke-width:1;"/><line style="stroke:#181818;stroke-width:1;" x1="96.5332" x2="96.5332" y1="257.6367" y2="277.6367"/><polygon fill="#181818" points="92.5332,267.6367,96.5332,277.6367,100.5332,267.6367,96.5332,271.6367" style="stroke:#181818;stroke-width:1;"/><line style="stroke:#181818;stroke-width:1;" x1="96.5332" x2="96.5332" y1="311.6055" y2="346.6055"/><polygon fill="#181818" points="92.5332,336.6055,96.5332,346.6055,100.5332,336.6055,96.5332,340.6055" style="stroke:#181818;stroke-width:1;"/><line style="stroke:#181818;stroke-width:1;" x1="331.4072" x2="331.4072" y1="247.668" y2="315.668"/><polygon fill="#181818" points="327.4072,305.668,331.4072,315.668,335.4072,305.668,331.4072,309.668" style="stroke:#181818;stroke-width:1;"/><line style="stroke:#181818;stroke-width:1;" x1="382.9653" x2="412.9736" y1="235.668" y2="235.668"/><polygon fill="#181818" points="402.9736,231.668,412.9736,235.668,402.9736,239.668,406.9736,235.668" style="stroke:#181818;stroke-width:1;"/><line style="stroke:#181818;stroke-width:1;" x1="331.4072" x2="331.4072" y1="421.6367" y2="449.1367"/><polygon fill="#181818" points="327.4072,439.1367,331.4072,449.1367,335.4072,439.1367,331.4072,443.1367" style="stroke:#181818;stroke-width:1;"/><line style="stroke:#181818;stroke-width:1;" x1="331.4072" x2="331.4072" y1="339.668" y2="387.668"/><polygon fill="#181818" points="327.4072,377.668,331.4072,387.668,335.4072,377.668,331.4072,381.668" style="stroke:#181818;stroke-width:1;"/><line style="stroke:#181818;stroke-width:1;" x1="382.1973" x2="420.0605" y1="515.1055" y2="515.1055"/><polygon fill="#181818" points="416.0605,441.6367,420.0605,431.6367,424.0605,441.6367,420.0605,437.6367" style="stroke:#181818;stroke-width:1;"/><line style="stroke:#181818;stroke-width:1;" x1="420.0605" x2="420.0605" y1="327.668" y2="515.1055"/><line style="stroke:#181818;stroke-width:1;" x1="420.0605" x2="343.4072" y1="327.668" y2="327.668"/><polygon fill="#181818" points="353.4072,323.668,343.4072,327.668,353.4072,331.668,349.4072,327.668" style="stroke:#181818;stroke-width:1;"/><line style="stroke:#181818;stroke-width:1;" x1="331.4072" x2="331.4072" y1="483.1055" y2="503.1055"/><polygon fill="#181818" points="327.4072,493.1055,331.4072,503.1055,335.4072,493.1055,331.4072,497.1055" style="stroke:#181818;stroke-width:1;"/><line style="stroke:#181818;stroke-width:1;" x1="331.4072" x2="331.4072" y1="571.1055" y2="591.1055"/><polygon fill="#181818" points="327.4072,581.1055,331.4072,591.1055,335.4072,581.1055,331.4072,585.1055" style="stroke:#181818;stroke-width:1;"/><line style="stroke:#181818;stroke-width:1;" x1="361.5642" x2="472.748" y1="657.0742" y2="657.0742"/><polygon fill="#181818" points="468.748,618.0898,472.748,608.0898,476.748,618.0898,472.748,614.0898" style="stroke:#181818;stroke-width:1;"/><line style="stroke:#181818;stroke-width:1;" x1="472.748" x2="472.748" y1="559.1055" y2="657.0742"/><line style="stroke:#181818;stroke-width:1;" x1="472.748" x2="343.4072" y1="559.1055" y2="559.1055"/><polygon fill="#181818" points="353.4072,555.1055,343.4072,559.1055,353.4072,563.1055,349.4072,559.1055" style="stroke:#181818;stroke-width:1;"/><line style="stroke:#181818;stroke-width:1;" x1="331.4072" x2="331.4072" y1="625.0742" y2="645.0742"/><polygon fill="#181818" points="327.4072,635.0742,331.4072,645.0742,335.4072,635.0742,331.4072,639.0742" style="stroke:#181818;stroke-width:1;"/><line style="stroke:#181818;stroke-width:1;" x1="331.4072" x2="331.4072" y1="527.1055" y2="547.1055"/><polygon fill="#181818" points="327.4072,537.1055,331.4072,547.1055,335.4072,537.1055,331.4072,541.1055" style="stroke:#181818;stroke-width:1;"/><line style="stroke:#181818;stroke-width:1;" x1="131.6331" x2="96.5332" y1="201.668" y2="201.668"/><line style="stroke:#181818;stroke-width:1;" x1="96.5332" x2="96.5332" y1="201.668" y2="223.668"/><polygon fill="#181818" points="92.5332,213.668,96.5332,223.668,100.5332,213.668,96.5332,217.668" style="stroke:#181818;stroke-width:1;"/><line style="stroke:#181818;stroke-width:1;" x1="296.3074" x2="331.4072" y1="201.668" y2="201.668"/><line style="stroke:#181818;stroke-width:1;" x1="331.4072" x2="331.4072" y1="201.668" y2="223.668"/><polygon fill="#181818" points="327.4072,213.668,331.4072,223.668,335.4072,213.668,331.4072,217.668" style="stroke:#181818;stroke-width:1;"/><line style="stroke:#181818;stroke-width:1;" x1="96.5332" x2="96.5332" y1="380.5742" y2="687.0742"/><line style="stroke:#181818;stroke-width:1;" x1="96.5332" x2="201.9702" y1="687.0742" y2="687.0742"/><polygon fill="#181818" points="191.9702,683.0742,201.9702,687.0742,191.9702,691.0742,195.9702,687.0742" style="stroke:#181818;stroke-width:1;"/><line style="stroke:#181818;stroke-width:1;" x1="331.4072" x2="331.4072" y1="669.0742" y2="687.0742"/><line style="stroke:#181818;stroke-width:1;" x1="331.4072" x2="225.9702" y1="687.0742" y2="687.0742"/><polygon fill="#181818" points="235.9702,683.0742,225.9702,687.0742,235.9702,691.0742,231.9702,687.0742" style="stroke:#181818;stroke-width:1;"/><line style="stroke:#181818;stroke-width:1;" x1="213.9702" x2="213.9702" y1="169.668" y2="189.668"/><polygon fill="#181818" points="209.9702,179.668,213.9702,189.668,217.9702,179.668,213.9702,183.668" style="stroke:#181818;stroke-width:1;"/><line style="stroke:#181818;stroke-width:1;" x1="213.9702" x2="213.9702" y1="111.2969" y2="135.6992"/><polygon fill="#181818" points="209.9702,125.6992,213.9702,135.6992,217.9702,125.6992,213.9702,129.6992" style="stroke:#181818;stroke-width:1;"/><line style="stroke:#181818;stroke-width:1;" x1="289.3706" x2="490.748" y1="99.2969" y2="99.2969"/><polygon fill="#181818" points="486.748,438.1367,490.748,448.1367,494.748,438.1367,490.748,442.1367" style="stroke:#181818;stroke-width:1;"/><line style="stroke:#181818;stroke-width:1;" x1="490.748" x2="490.748" y1="99.2969" y2="731.0742"/><line style="stroke:#181818;stroke-width:1;" x1="490.748" x2="225.9702" y1="731.0742" y2="731.0742"/><polygon fill="#181818" points="235.9702,727.0742,225.9702,731.0742,235.9702,735.0742,231.9702,731.0742" style="stroke:#181818;stroke-width:1;"/><line style="stroke:#181818;stroke-width:1;" x1="213.9702" x2="213.9702" y1="699.0742" y2="719.0742"/><polygon fill="#181818" points="209.9702,709.0742,213.9702,719.0742,217.9702,709.0742,213.9702,713.0742" style="stroke:#181818;stroke-width:1;"/><line style="stroke:#181818;stroke-width:1;" x1="213.9702" x2="213.9702" y1="67.2969" y2="87.2969"/><polygon fill="#181818" points="209.9702,77.2969,213.9702,87.2969,217.9702,77.2969,213.9702,81.2969" style="stroke:#181818;stroke-width:1;"/><line style="stroke:#181818;stroke-width:1;" x1="213.9702" x2="213.9702" y1="879.4766" y2="903.8789"/><polygon fill="#181818" points="209.9702,893.8789,213.9702,903.8789,217.9702,893.8789,213.9702,897.8789" style="stroke:#181818;stroke-width:1;"/><line style="stroke:#181818;stroke-width:1;" x1="277.8174" x2="309.5034" y1="867.4766" y2="867.4766"/><polygon fill="#181818" points="305.5034,910.8633,309.5034,920.8633,313.5034,910.8633,309.5034,914.8633" style="stroke:#181818;stroke-width:1;"/><line style="stroke:#181818;stroke-width:1;" x1="309.5034" x2="309.5034" y1="867.4766" y2="969.8477"/><line style="stroke:#181818;stroke-width:1;" x1="309.5034" x2="225.9702" y1="969.8477" y2="969.8477"/><polygon fill="#181818" points="235.9702,965.8477,225.9702,969.8477,235.9702,973.8477,231.9702,969.8477" style="stroke:#181818;stroke-width:1;"/><line style="stroke:#181818;stroke-width:1;" x1="213.9702" x2="213.9702" y1="937.8477" y2="957.8477"/><polygon fill="#181818" points="209.9702,947.8477,213.9702,957.8477,217.9702,947.8477,213.9702,951.8477" style="stroke:#181818;stroke-width:1;"/><line style="stroke:#181818;stroke-width:1;" x1="213.9702" x2="213.9702" y1="1040.8477" y2="1065.25"/><polygon fill="#181818" points="209.9702,1055.25,213.9702,1065.25,217.9702,1055.25,213.9702,1059.25" style="stroke:#181818;stroke-width:1;"/><line style="stroke:#181818;stroke-width:1;" x1="333.1799" x2="345.1799" y1="1028.8477" y2="1028.8477"/><polygon fill="#181818" points="341.1799,1072.2344,345.1799,1082.2344,349.1799,1072.2344,345.1799,1076.2344" style="stroke:#181818;stroke-width:1;"/><line style="stroke:#181818;stroke-width:1;" x1="345.1799" x2="345.1799" y1="1028.8477" y2="1131.2188"/><line style="stroke:#181818;stroke-width:1;" x1="345.1799" x2="225.9702" y1="1131.2188" y2="1131.2188"/><polygon fill="#181818" points="235.9702,1127.2188,225.9702,1131.2188,235.9702,1135.2188,231.9702,1131.2188" style="stroke:#181818;stroke-width:1;"/><line style="stroke:#181818;stroke-width:1;" x1="213.9702" x2="213.9702" y1="1099.2188" y2="1119.2188"/><polygon fill="#181818" points="209.9702,1109.2188,213.9702,1119.2188,217.9702,1109.2188,213.9702,1113.2188" style="stroke:#181818;stroke-width:1;"/><line style="stroke:#181818;stroke-width:1;" x1="213.9702" x2="213.9702" y1="981.8477" y2="1016.8477"/><polygon fill="#181818" points="209.9702,1006.8477,213.9702,1016.8477,217.9702,1006.8477,213.9702,1010.8477" style="stroke:#181818;stroke-width:1;"/><line style="stroke:#181818;stroke-width:1;" x1="213.9702" x2="213.9702" y1="831.0742" y2="855.4766"/><polygon fill="#181818" points="209.9702,845.4766,213.9702,855.4766,217.9702,845.4766,213.9702,849.4766" style="stroke:#181818;stroke-width:1;"/><line style="stroke:#181818;stroke-width:1;" x1="259.7517" x2="355.1799" y1="819.0742" y2="819.0742"/><polygon fill="#181818" points="351.1799,989.3477,355.1799,999.3477,359.1799,989.3477,355.1799,993.3477" style="stroke:#181818;stroke-width:1;"/><line style="stroke:#181818;stroke-width:1;" x1="355.1799" x2="355.1799" y1="819.0742" y2="1175.2188"/><line style="stroke:#181818;stroke-width:1;" x1="355.1799" x2="225.9702" y1="1175.2188" y2="1175.2188"/><polygon fill="#181818" points="235.9702,1171.2188,225.9702,1175.2188,235.9702,1179.2188,231.9702,1175.2188" style="stroke:#181818;stroke-width:1;"/><line style="stroke:#181818;stroke-width:1;" x1="213.9702" x2="213.9702" y1="1143.2188" y2="1163.2188"/><polygon fill="#181818" points="209.9702,1153.2188,213.9702,1163.2188,217.9702,1153.2188,213.9702,1157.2188" style="stroke:#181818;stroke-width:1;"/><line style="stroke:#181818;stroke-width:1;" x1="213.9702" x2="213.9702" y1="1187.2188" y2="1207.2188"/><polygon fill="#181818" points="209.9702,1197.2188,213.9702,1207.2188,217.9702,1197.2188,213.9702,1201.2188" style="stroke:#181818;stroke-width:1;"/><line style="stroke:#181818;stroke-width:1;" x1="213.9702" x2="213.9702" y1="1241.1875" y2="1261.1875"/><polygon fill="#181818" points="209.9702,1251.1875,213.9702,1261.1875,217.9702,1251.1875,213.9702,1255.1875" style="stroke:#181818;stroke-width:1;"/><line style="stroke:#181818;stroke-width:1;" x1="213.9702" x2="213.9702" y1="1441.5273" y2="1465.9297"/><polygon fill="#181818" points="209.9702,1455.9297,213.9702,1465.9297,217.9702,1455.9297,213.9702,1459.9297" style="stroke:#181818;stroke-width:1;"/><line style="stroke:#181818;stroke-width:1;" x1="312.0635" x2="324.0635" y1="1429.5273" y2="1429.5273"/><polygon fill="#181818" points="320.0635,1472.9141,324.0635,1482.9141,328.0635,1472.9141,324.0635,1476.9141" style="stroke:#181818;stroke-width:1;"/><line style="stroke:#181818;stroke-width:1;" x1="324.0635" x2="324.0635" y1="1429.5273" y2="1531.8984"/><line style="stroke:#181818;stroke-width:1;" x1="324.0635" x2="225.9702" y1="1531.8984" y2="1531.8984"/><polygon fill="#181818" points="235.9702,1527.8984,225.9702,1531.8984,235.9702,1535.8984,231.9702,1531.8984" style="stroke:#181818;stroke-width:1;"/><line style="stroke:#181818;stroke-width:1;" x1="213.9702" x2="213.9702" y1="1499.8984" y2="1519.8984"/><polygon fill="#181818" points="209.9702,1509.8984,213.9702,1519.8984,217.9702,1509.8984,213.9702,1513.8984" style="stroke:#181818;stroke-width:1;"/><line style="stroke:#181818;stroke-width:1;" x1="213.9702" x2="213.9702" y1="1397.5273" y2="1417.5273"/><polygon fill="#181818" points="209.9702,1407.5273,213.9702,1417.5273,217.9702,1407.5273,213.9702,1411.5273" style="stroke:#181818;stroke-width:1;"/><line style="stroke:#181818;stroke-width:1;" x1="213.9702" x2="213.9702" y1="1339.1563" y2="1363.5586"/><polygon fill="#181818" points="209.9702,1353.5586,213.9702,1363.5586,217.9702,1353.5586,213.9702,1357.5586" style="stroke:#181818;stroke-width:1;"/><line style="stroke:#181818;stroke-width:1;" x1="341.8381" x2="406.3296" y1="1327.1563" y2="1327.1563"/><polygon fill="#181818" points="402.3296,1438.4297,406.3296,1448.4297,410.3296,1438.4297,406.3296,1442.4297" style="stroke:#181818;stroke-width:1;"/><line style="stroke:#181818;stroke-width:1;" x1="406.3296" x2="406.3296" y1="1327.1563" y2="1575.8984"/><line style="stroke:#181818;stroke-width:1;" x1="406.3296" x2="225.9702" y1="1575.8984" y2="1575.8984"/><polygon fill="#181818" points="235.9702,1571.8984,225.9702,1575.8984,235.9702,1579.8984,231.9702,1575.8984" style="stroke:#181818;stroke-width:1;"/><line style="stroke:#181818;stroke-width:1;" x1="213.9702" x2="213.9702" y1="1543.8984" y2="1563.8984"/><polygon fill="#181818" points="209.9702,1553.8984,213.9702,1563.8984,217.9702,1553.8984,213.9702,1557.8984" style="stroke:#181818;stroke-width:1;"/><line style="stroke:#181818;stroke-width:1;" x1="213.9702" x2="213.9702" y1="1295.1563" y2="1315.1563"/><polygon fill="#181818" points="209.9702,1305.1563,213.9702,1315.1563,217.9702,1305.1563,213.9702,1309.1563" style="stroke:#181818;stroke-width:1;"/><line style="stroke:#181818;stroke-width:1;" x1="213.9702" x2="213.9702" y1="787.0742" y2="807.0742"/><polygon fill="#181818" points="209.9702,797.0742,213.9702,807.0742,217.9702,797.0742,213.9702,801.0742" style="stroke:#181818;stroke-width:1;"/><line style="stroke:#181818;stroke-width:1;" x1="334.0259" x2="430.3296" y1="1619.8984" y2="1619.8984"/><polygon fill="#181818" points="426.3296,1220.2852,430.3296,1210.2852,434.3296,1220.2852,430.3296,1216.2852" style="stroke:#181818;stroke-width:1;"/><line style="stroke:#181818;stroke-width:1;" x1="430.3296" x2="430.3296" y1="775.0742" y2="1619.8984"/><line style="stroke:#181818;stroke-width:1;" x1="430.3296" x2="225.9702" y1="775.0742" y2="775.0742"/><polygon fill="#181818" points="235.9702,771.0742,225.9702,775.0742,235.9702,779.0742,231.9702,775.0742" style="stroke:#181818;stroke-width:1;"/><line style="stroke:#181818;stroke-width:1;" x1="213.9702" x2="213.9702" y1="1587.8984" y2="1607.8984"/><polygon fill="#181818" points="209.9702,1597.8984,213.9702,1607.8984,217.9702,1597.8984,213.9702,1601.8984" style="stroke:#181818;stroke-width:1;"/><line style="stroke:#181818;stroke-width:1;" x1="213.9702" x2="213.9702" y1="743.0742" y2="763.0742"/><polygon fill="#181818" points="209.9702,753.0742,213.9702,763.0742,217.9702,753.0742,213.9702,757.0742" style="stroke:#181818;stroke-width:1;"/><line style="stroke:#181818;stroke-width:1;" x1="213.9702" x2="213.9702" y1="1631.8984" y2="1651.8984"/><polygon fill="#181818" points="209.9702,1641.8984,213.9702,1651.8984,217.9702,1641.8984,213.9702,1645.8984" style="stroke:#181818;stroke-width:1;"/><?plantuml-src VLD1SeCm3Bpp2lL6BfsUOJATleHHi00t86UC4YQ_hsn34XAQ2pQMjRjQoMAb9_YfnLwiNC5OR3qEq3WFnjL7yfLbAzaew2Mp3UJZX7u0_PVp29OnPDBt3gGZXlnAuou3A5eIC3JQbb78G4zeo9SQYH3KDs37rmlFC0g4nbHkugh70_LZlYlJSKjCNZEhoVaWKjoH-1QDQXVzTsu58CZP9UYWX1ry9cHeR4-l_A2LkbFS4XlRn9sd4w7CyLXgKW6_pZ94AUKIHH4QJgAdAHhjAnzWOEgKEKWHMEAgG-svgrWJdhoxM4ChvG5_q-zdcWPrCMk2L5dwPZUku8zU6f2ntMhDx9ysvw7kBGVVD-jkwqoOjCFX_DH120vjZzkxfjyPbhMedRfNxA7kg3vMEkfLHzXBboGLyJYzW6T7DGMvfTKW1rcl5v4DH9wFFNnjp7MO6gRfmJgOh7HGz-THDDyQQBmR_cjgO7y8AORMrf0dbWLYqwH85tZdIriEhGTczTwPL6DGDxzxBTu3UU_yBWiFvGy0?></g></svg>