<svg xmlns="http://www.w3.org/2000/svg" xmlns:xlink="http://www.w3.org/1999/xlink" contentStyleType="text/css" data-diagram-type="CLASS" height="541px" preserveAspectRatio="none" style="width:1341px;height:541px;background:#FFFFFF;" version="1.1" viewBox="0 0 1341 541" width="1341px" zoomAndPan="magnify"><defs/><g><!--cluster custom_interfaces--><g class="cluster" data-entity="custom_interfaces" data-source-line="2" data-uid="ent0004" id="cluster_custom_interfaces"><path d="M8.5,6 L153.5195,6 A3.75,3.75 0 0 1 156.0195,8.5 L163.0195,28.2969 L1331.5,28.2969 A2.5,2.5 0 0 1 1334,30.7969 L1334,532.17 A2.5,2.5 0 0 1 1331.5,534.67 L8.5,534.67 A2.5,2.5 0 0 1 6,532.17 L6,8.5 A2.5,2.5 0 0 1 8.5,6" fill="none" style="stroke:#000000;stroke-width:1.5;"/><line style="stroke:#000000;stroke-width:1.5;" x1="6" x2="163.0195" y1="28.2969" y2="28.2969"/><text fill="#000000" font-family="sans-serif" font-size="14" font-weight="bold" lengthAdjust="spacing" textLength="144.0195" x="10" y="20.9951">custom_interfaces</text></g><!--cluster msg--><g class="cluster" data-entity="msg" data-source-line="1" data-uid="ent0002" id="cluster_msg"><path d="M32.5,49 L66.4424,49 A3.75,3.75 0 0 1 68.9424,51.5 L75.9424,71.2969 L493.5,71.2969 A2.5,2.5 0 0 1 496,73.7969 L496,367.58 A2.5,2.5 0 0 1 493.5,370.08 L32.5,370.08 A2.5,2.5 0 0 1 30,367.58 L30,51.5 A2.5,2.5 0 0 1 32.5,49" fill="none" style="stroke:#000000;stroke-width:1.5;"/><line style="stroke:#000000;stroke-width:1.5;" x1="30" x2="75.9424" y1="71.2969" y2="71.2969"/><text fill="#000000" font-family="sans-serif" font-size="14" font-weight="bold" lengthAdjust="spacing" textLength="32.9424" x="34" y="63.9951">msg</text></g><!--cluster srv--><g class="cluster" data-entity="srv" data-source-line="38" data-uid="ent0010" id="cluster_srv"><path d="M522.5,49 L547.8633,49 A3.75,3.75 0 0 1 550.3633,51.5 L557.3633,71.2969 L1307.5,71.2969 A2.5,2.5 0 0 1 1310,73.7969 L1310,508.17 A2.5,2.5 0 0 1 1307.5,510.67 L522.5,510.67 A2.5,2.5 0 0 1 520,508.17 L520,51.5 A2.5,2.5 0 0 1 522.5,49" fill="none" style="stroke:#000000;stroke-width:1.5;"/><line style="stroke:#000000;stroke-width:1.5;" x1="520" x2="557.3633" y1="71.2969" y2="71.2969"/><text fill="#000000" font-family="sans-serif" font-size="14" font-weight="bold" lengthAdjust="spacing" textLength="24.3633" x="524" y="63.9951">srv</text></g><!--class RobotBattery--><g class="entity" data-entity="RobotBattery" data-source-line="2" data-uid="ent0003" id="entity_RobotBattery"><rect fill="#F1F1F1" height="80.5938" rx="2.5" ry="2.5" style="stroke:#181818;stroke-width:0.5;" width="125.0508" x="46.47" y="84"/><ellipse cx="61.47" cy="100" fill="#ADD1B2" rx="11" ry="11" style="stroke:#181818;stroke-width:1;"/><path d="M64.4388,105.6406 Q63.8606,105.9375 63.22,106.0781 Q62.5794,106.2344 61.8763,106.2344 Q59.3763,106.2344 58.0481,104.5937 Q56.7356,102.9375 56.7356,99.8125 Q56.7356,96.6875 58.0481,95.0312 Q59.3763,93.375 61.8763,93.375 Q62.5794,93.375 63.22,93.5312 Q63.8763,93.6875 64.4388,93.9844 L64.4388,96.7031 Q63.8138,96.125 63.22,95.8594 Q62.6263,95.5781 62.0013,95.5781 Q60.6575,95.5781 59.97,96.6562 Q59.2825,97.7187 59.2825,99.8125 Q59.2825,101.9062 59.97,102.9844 Q60.6575,104.0469 62.0013,104.0469 Q62.6263,104.0469 63.22,103.7812 Q63.8138,103.5 64.4388,102.9219 L64.4388,105.6406 Z " fill="#000000"/><text fill="#000000" font-family="sans-serif" font-size="14" lengthAdjust="spacing" textLength="93.0508" x="75.47" y="104.8467">RobotBattery</text><line style="stroke:#181818;stroke-width:0.5;" x1="47.47" x2="170.5208" y1="116" y2="116"/><text fill="#000000" font-family="sans-serif" font-size="14" lengthAdjust="spacing" textLength="53.8057" x="52.47" y="132.9951">nid : str</text><text fill="#000000" font-family="sans-serif" font-size="14" lengthAdjust="spacing" textLength="76.6035" x="52.47" y="149.292">data : float</text><line style="stroke:#181818;stroke-width:0.5;" x1="47.47" x2="170.5208" y1="156.5937" y2="156.5937"/></g><!--class RobotCpu--><g class="entity" data-entity="RobotCpu" data-source-line="7" data-uid="ent0005" id="entity_RobotCpu"><rect fill="#F1F1F1" height="80.5938" rx="2.5" ry="2.5" style="stroke:#181818;stroke-width:0.5;" width="100.7695" x="206.62" y="84"/><ellipse cx="221.62" cy="100" fill="#ADD1B2" rx="11" ry="11" style="stroke:#181818;stroke-width:1;"/><path d="M224.5888,105.6406 Q224.0106,105.9375 223.37,106.0781 Q222.7294,106.2344 222.0263,106.2344 Q219.5263,106.2344 218.1981,104.5937 Q216.8856,102.9375 216.8856,99.8125 Q216.8856,96.6875 218.1981,95.0312 Q219.5263,93.375 222.0263,93.375 Q222.7294,93.375 223.37,93.5312 Q224.0263,93.6875 224.5888,93.9844 L224.5888,96.7031 Q223.9638,96.125 223.37,95.8594 Q222.7763,95.5781 222.1513,95.5781 Q220.8075,95.5781 220.12,96.6562 Q219.4325,97.7187 219.4325,99.8125 Q219.4325,101.9062 220.12,102.9844 Q220.8075,104.0469 222.1513,104.0469 Q222.7763,104.0469 223.37,103.7812 Q223.9638,103.5 224.5888,102.9219 L224.5888,105.6406 Z " fill="#000000"/><text fill="#000000" font-family="sans-serif" font-size="14" lengthAdjust="spacing" textLength="68.7695" x="235.62" y="104.8467">RobotCpu</text><line style="stroke:#181818;stroke-width:0.5;" x1="207.62" x2="306.3895" y1="116" y2="116"/><text fill="#000000" font-family="sans-serif" font-size="14" lengthAdjust="spacing" textLength="53.8057" x="212.62" y="132.9951">nid : str</text><text fill="#000000" font-family="sans-serif" font-size="14" lengthAdjust="spacing" textLength="76.6035" x="212.62" y="149.292">data : float</text><line style="stroke:#181818;stroke-width:0.5;" x1="207.62" x2="306.3895" y1="156.5937" y2="156.5937"/></g><!--class RobotActivity--><g class="entity" data-entity="RobotActivity" data-source-line="12" data-uid="ent0006" id="entity_RobotActivity"><rect fill="#F1F1F1" height="80.5938" rx="2.5" ry="2.5" style="stroke:#181818;stroke-width:0.5;" width="125.8369" x="342.08" y="84"/><ellipse cx="357.08" cy="100" fill="#ADD1B2" rx="11" ry="11" style="stroke:#181818;stroke-width:1;"/><path d="M360.0488,105.6406 Q359.4706,105.9375 358.83,106.0781 Q358.1894,106.2344 357.4863,106.2344 Q354.9863,106.2344 353.6581,104.5937 Q352.3456,102.9375 352.3456,99.8125 Q352.3456,96.6875 353.6581,95.0312 Q354.9863,93.375 357.4863,93.375 Q358.1894,93.375 358.83,93.5312 Q359.4863,93.6875 360.0488,93.9844 L360.0488,96.7031 Q359.4238,96.125 358.83,95.8594 Q358.2363,95.5781 357.6113,95.5781 Q356.2675,95.5781 355.58,96.6562 Q354.8925,97.7187 354.8925,99.8125 Q354.8925,101.9062 355.58,102.9844 Q356.2675,104.0469 357.6113,104.0469 Q358.2363,104.0469 358.83,103.7812 Q359.4238,103.5 360.0488,102.9219 L360.0488,105.6406 Z " fill="#000000"/><text fill="#000000" font-family="sans-serif" font-size="14" lengthAdjust="spacing" textLength="93.8369" x="371.08" y="104.8467">RobotActivity</text><line style="stroke:#181818;stroke-width:0.5;" x1="343.08" x2="466.9169" y1="116" y2="116"/><text fill="#000000" font-family="sans-serif" font-size="14" lengthAdjust="spacing" textLength="53.8057" x="348.08" y="132.9951">nid : str</text><text fill="#000000" font-family="sans-serif" font-size="14" lengthAdjust="spacing" textLength="83.7607" x="348.08" y="149.292">activity : str</text><line style="stroke:#181818;stroke-width:0.5;" x1="343.08" x2="466.9169" y1="156.5937" y2="156.5937"/></g><!--class RobotPoint--><g class="entity" data-entity="RobotPoint" data-source-line="17" data-uid="ent0007" id="entity_RobotPoint"><rect fill="#F1F1F1" height="113.1875" rx="2.5" ry="2.5" style="stroke:#181818;stroke-width:0.5;" width="108.4941" x="45.75" y="232.74"/><ellipse cx="60.75" cy="248.74" fill="#ADD1B2" rx="11" ry="11" style="stroke:#181818;stroke-width:1;"/><path d="M63.7188,254.3806 Q63.1406,254.6775 62.5,254.8181 Q61.8594,254.9744 61.1563,254.9744 Q58.6563,254.9744 57.3281,253.3337 Q56.0156,251.6775 56.0156,248.5525 Q56.0156,245.4275 57.3281,243.7712 Q58.6563,242.115 61.1563,242.115 Q61.8594,242.115 62.5,242.2712 Q63.1563,242.4275 63.7188,242.7244 L63.7188,245.4431 Q63.0938,244.865 62.5,244.5994 Q61.9063,244.3181 61.2813,244.3181 Q59.9375,244.3181 59.25,245.3962 Q58.5625,246.4587 58.5625,248.5525 Q58.5625,250.6462 59.25,251.7244 Q59.9375,252.7869 61.2813,252.7869 Q61.9063,252.7869 62.5,252.5212 Q63.0938,252.24 63.7188,251.6619 L63.7188,254.3806 Z " fill="#000000"/><text fill="#000000" font-family="sans-serif" font-size="14" lengthAdjust="spacing" textLength="76.4941" x="74.75" y="253.5867">RobotPoint</text><line style="stroke:#181818;stroke-width:0.5;" x1="46.75" x2="153.2441" y1="264.74" y2="264.74"/><text fill="#000000" font-family="sans-serif" font-size="14" lengthAdjust="spacing" textLength="53.8057" x="51.75" y="281.7351">nid : str</text><text fill="#000000" font-family="sans-serif" font-size="14" lengthAdjust="spacing" textLength="53.3545" x="51.75" y="298.032">x : float</text><text fill="#000000" font-family="sans-serif" font-size="14" lengthAdjust="spacing" textLength="53.3545" x="51.75" y="314.3289">y : float</text><text fill="#000000" font-family="sans-serif" font-size="14" lengthAdjust="spacing" textLength="52.418" x="51.75" y="330.6257">z : float</text><line style="stroke:#181818;stroke-width:0.5;" x1="46.75" x2="153.2441" y1="337.9275" y2="337.9275"/></g><!--class RobotQuaternion--><g class="entity" data-entity="RobotQuaternion" data-source-line="24" data-uid="ent0008" id="entity_RobotQuaternion"><rect fill="#F1F1F1" height="129.4844" rx="2.5" ry="2.5" style="stroke:#181818;stroke-width:0.5;" width="151.7656" x="189.12" y="224.59"/><ellipse cx="204.12" cy="240.59" fill="#ADD1B2" rx="11" ry="11" style="stroke:#181818;stroke-width:1;"/><path d="M207.0888,246.2306 Q206.5106,246.5275 205.87,246.6681 Q205.2294,246.8244 204.5263,246.8244 Q202.0263,246.8244 200.6981,245.1837 Q199.3856,243.5275 199.3856,240.4025 Q199.3856,237.2775 200.6981,235.6212 Q202.0263,233.965 204.5263,233.965 Q205.2294,233.965 205.87,234.1212 Q206.5263,234.2775 207.0888,234.5744 L207.0888,237.2931 Q206.4638,236.715 205.87,236.4494 Q205.2763,236.1681 204.6513,236.1681 Q203.3075,236.1681 202.62,237.2462 Q201.9325,238.3087 201.9325,240.4025 Q201.9325,242.4962 202.62,243.5744 Q203.3075,244.6369 204.6513,244.6369 Q205.2763,244.6369 205.87,244.3712 Q206.4638,244.09 207.0888,243.5119 L207.0888,246.2306 Z " fill="#000000"/><text fill="#000000" font-family="sans-serif" font-size="14" lengthAdjust="spacing" textLength="119.7656" x="218.12" y="245.4367">RobotQuaternion</text><line style="stroke:#181818;stroke-width:0.5;" x1="190.12" x2="339.8856" y1="256.59" y2="256.59"/><text fill="#000000" font-family="sans-serif" font-size="14" lengthAdjust="spacing" textLength="53.8057" x="195.12" y="273.5851">nid : str</text><text fill="#000000" font-family="sans-serif" font-size="14" lengthAdjust="spacing" textLength="53.3545" x="195.12" y="289.882">x : float</text><text fill="#000000" font-family="sans-serif" font-size="14" lengthAdjust="spacing" textLength="53.3545" x="195.12" y="306.1789">y : float</text><text fill="#000000" font-family="sans-serif" font-size="14" lengthAdjust="spacing" textLength="52.418" x="195.12" y="322.4757">z : float</text><text fill="#000000" font-family="sans-serif" font-size="14" lengthAdjust="spacing" textLength="56.5195" x="195.12" y="338.7726">w : float</text><line style="stroke:#181818;stroke-width:0.5;" x1="190.12" x2="339.8856" y1="346.0744" y2="346.0744"/></g><!--class RobotMisc--><g class="entity" data-entity="RobotMisc" data-source-line="32" data-uid="ent0009" id="entity_RobotMisc"><rect fill="#F1F1F1" height="80.5938" rx="2.5" ry="2.5" style="stroke:#181818;stroke-width:0.5;" width="104.1943" x="375.9" y="249.04"/><ellipse cx="390.9" cy="265.04" fill="#ADD1B2" rx="11" ry="11" style="stroke:#181818;stroke-width:1;"/><path d="M393.8688,270.6806 Q393.2906,270.9775 392.65,271.1181 Q392.0094,271.2744 391.3063,271.2744 Q388.8063,271.2744 387.4781,269.6337 Q386.1656,267.9775 386.1656,264.8525 Q386.1656,261.7275 387.4781,260.0712 Q388.8063,258.415 391.3063,258.415 Q392.0094,258.415 392.65,258.5712 Q393.3063,258.7275 393.8688,259.0244 L393.8688,261.7431 Q393.2438,261.165 392.65,260.8994 Q392.0563,260.6181 391.4313,260.6181 Q390.0875,260.6181 389.4,261.6962 Q388.7125,262.7587 388.7125,264.8525 Q388.7125,266.9462 389.4,268.0244 Q390.0875,269.0869 391.4313,269.0869 Q392.0563,269.0869 392.65,268.8212 Q393.2438,268.54 393.8688,267.9619 L393.8688,270.6806 Z " fill="#000000"/><text fill="#000000" font-family="sans-serif" font-size="14" lengthAdjust="spacing" textLength="72.1943" x="404.9" y="269.8867">RobotMisc</text><line style="stroke:#181818;stroke-width:0.5;" x1="376.9" x2="479.0943" y1="281.04" y2="281.04"/><text fill="#000000" font-family="sans-serif" font-size="14" lengthAdjust="spacing" textLength="53.8057" x="381.9" y="298.0351">nid : str</text><text fill="#000000" font-family="sans-serif" font-size="14" lengthAdjust="spacing" textLength="63.6904" x="381.9" y="314.332">data : str</text><line style="stroke:#181818;stroke-width:0.5;" x1="376.9" x2="479.0943" y1="321.6337" y2="321.6337"/></g><!--class SetRobotActivity_Request--><g class="entity" data-entity="SetRobotActivity_Request" data-source-line="39" data-uid="ent0011" id="entity_SetRobotActivity_Request"><rect fill="#F1F1F1" height="80.5938" rx="2.5" ry="2.5" style="stroke:#181818;stroke-width:0.5;" width="213.3232" x="541.34" y="84"/><ellipse cx="556.34" cy="100" fill="#ADD1B2" rx="11" ry="11" style="stroke:#181818;stroke-width:1;"/><path d="M559.3088,105.6406 Q558.7306,105.9375 558.09,106.0781 Q557.4494,106.2344 556.7463,106.2344 Q554.2463,106.2344 552.9181,104.5937 Q551.6056,102.9375 551.6056,99.8125 Q551.6056,96.6875 552.9181,95.0312 Q554.2463,93.375 556.7463,93.375 Q557.4494,93.375 558.09,93.5312 Q558.7463,93.6875 559.3088,93.9844 L559.3088,96.7031 Q558.6838,96.125 558.09,95.8594 Q557.4963,95.5781 556.8713,95.5781 Q555.5275,95.5781 554.84,96.6562 Q554.1525,97.7187 554.1525,99.8125 Q554.1525,101.9062 554.84,102.9844 Q555.5275,104.0469 556.8713,104.0469 Q557.4963,104.0469 558.09,103.7812 Q558.6838,103.5 559.3088,102.9219 L559.3088,105.6406 Z " fill="#000000"/><text fill="#000000" font-family="sans-serif" font-size="14" lengthAdjust="spacing" textLength="181.3232" x="570.34" y="104.8467">SetRobotActivity_Request</text><line style="stroke:#181818;stroke-width:0.5;" x1="542.34" x2="753.6632" y1="116" y2="116"/><text fill="#000000" font-family="sans-serif" font-size="14" lengthAdjust="spacing" textLength="83.7607" x="547.34" y="132.9951">activity : str</text><text fill="#000000" font-family="sans-serif" font-size="14" lengthAdjust="spacing" textLength="78.7979" x="547.34" y="149.292">details : str</text><line style="stroke:#181818;stroke-width:0.5;" x1="542.34" x2="753.6632" y1="156.5937" y2="156.5937"/></g><!--class SetRobotActivity_Response--><g class="entity" data-entity="SetRobotActivity_Response" data-source-line="44" data-uid="ent0012" id="entity_SetRobotActivity_Response"><rect fill="#F1F1F1" height="64.2969" rx="2.5" ry="2.5" style="stroke:#181818;stroke-width:0.5;" width="223.6934" x="536.15" y="422.22"/><ellipse cx="551.15" cy="438.22" fill="#ADD1B2" rx="11" ry="11" style="stroke:#181818;stroke-width:1;"/><path d="M554.1188,443.8606 Q553.5406,444.1575 552.9,444.2981 Q552.2594,444.4544 551.5563,444.4544 Q549.0563,444.4544 547.7281,442.8137 Q546.4156,441.1575 546.4156,438.0325 Q546.4156,434.9075 547.7281,433.2512 Q549.0563,431.595 551.5563,431.595 Q552.2594,431.595 552.9,431.7512 Q553.5563,431.9075 554.1188,432.2044 L554.1188,434.9231 Q553.4938,434.345 552.9,434.0794 Q552.3063,433.7981 551.6813,433.7981 Q550.3375,433.7981 549.65,434.8762 Q548.9625,435.9387 548.9625,438.0325 Q548.9625,440.1262 549.65,441.2044 Q550.3375,442.2669 551.6813,442.2669 Q552.3063,442.2669 552.9,442.0012 Q553.4938,441.72 554.1188,441.1419 L554.1188,443.8606 Z " fill="#000000"/><text fill="#000000" font-family="sans-serif" font-size="14" lengthAdjust="spacing" textLength="191.6934" x="565.15" y="443.0667">SetRobotActivity_Response</text><line style="stroke:#181818;stroke-width:0.5;" x1="537.15" x2="758.8434" y1="454.22" y2="454.22"/><text fill="#000000" font-family="sans-serif" font-size="14" lengthAdjust="spacing" textLength="61.9746" x="542.15" y="471.2151">msg : str</text><line style="stroke:#181818;stroke-width:0.5;" x1="537.15" x2="758.8434" y1="478.5169" y2="478.5169"/></g><!--class RobotServiceInfo_Request--><g class="entity" data-entity="RobotServiceInfo_Request" data-source-line="48" data-uid="ent0013" id="entity_RobotServiceInfo_Request"><rect fill="#F1F1F1" height="64.2969" rx="2.5" ry="2.5" style="stroke:#181818;stroke-width:0.5;" width="215.9688" x="800.02" y="92.15"/><ellipse cx="815.02" cy="108.15" fill="#ADD1B2" rx="11" ry="11" style="stroke:#181818;stroke-width:1;"/><path d="M817.9888,113.7906 Q817.4106,114.0875 816.77,114.2281 Q816.1294,114.3844 815.4263,114.3844 Q812.9263,114.3844 811.5981,112.7437 Q810.2856,111.0875 810.2856,107.9625 Q810.2856,104.8375 811.5981,103.1812 Q812.9263,101.525 815.4263,101.525 Q816.1294,101.525 816.77,101.6812 Q817.4263,101.8375 817.9888,102.1344 L817.9888,104.8531 Q817.3638,104.275 816.77,104.0094 Q816.1763,103.7281 815.5513,103.7281 Q814.2075,103.7281 813.52,104.8062 Q812.8325,105.8687 812.8325,107.9625 Q812.8325,110.0562 813.52,111.1344 Q814.2075,112.1969 815.5513,112.1969 Q816.1763,112.1969 816.77,111.9312 Q817.3638,111.65 817.9888,111.0719 L817.9888,113.7906 Z " fill="#000000"/><text fill="#000000" font-family="sans-serif" font-size="14" lengthAdjust="spacing" textLength="183.9688" x="829.02" y="112.9967">RobotServiceInfo_Request</text><line style="stroke:#181818;stroke-width:0.5;" x1="801.02" x2="1014.9888" y1="124.15" y2="124.15"/><text fill="#000000" font-family="sans-serif" font-size="14" lengthAdjust="spacing" textLength="82.3047" x="806.02" y="141.1451">service : str</text><line style="stroke:#181818;stroke-width:0.5;" x1="801.02" x2="1014.9888" y1="148.4469" y2="148.4469"/></g><!--class RobotServiceInfo_Response--><g class="entity" data-entity="RobotServiceInfo_Response" data-source-line="52" data-uid="ent0014" id="entity_RobotServiceInfo_Response"><rect fill="#F1F1F1" height="80.5938" rx="2.5" ry="2.5" style="stroke:#181818;stroke-width:0.5;" width="226.3389" x="794.83" y="414.08"/><ellipse cx="809.83" cy="430.08" fill="#ADD1B2" rx="11" ry="11" style="stroke:#181818;stroke-width:1;"/><path d="M812.7988,435.7206 Q812.2206,436.0175 811.58,436.1581 Q810.9394,436.3144 810.2363,436.3144 Q807.7363,436.3144 806.4081,434.6737 Q805.0956,433.0175 805.0956,429.8925 Q805.0956,426.7675 806.4081,425.1112 Q807.7363,423.455 810.2363,423.455 Q810.9394,423.455 811.58,423.6112 Q812.2363,423.7675 812.7988,424.0644 L812.7988,426.7831 Q812.1738,426.205 811.58,425.9394 Q810.9863,425.6581 810.3613,425.6581 Q809.0175,425.6581 808.33,426.7362 Q807.6425,427.7987 807.6425,429.8925 Q807.6425,431.9862 808.33,433.0644 Q809.0175,434.1269 810.3613,434.1269 Q810.9863,434.1269 811.58,433.8612 Q812.1738,433.58 812.7988,433.0019 L812.7988,435.7206 Z " fill="#000000"/><text fill="#000000" font-family="sans-serif" font-size="14" lengthAdjust="spacing" textLength="194.3389" x="823.83" y="434.9267">RobotServiceInfo_Response</text><line style="stroke:#181818;stroke-width:0.5;" x1="795.83" x2="1020.1689" y1="446.08" y2="446.08"/><text fill="#000000" font-family="sans-serif" font-size="14" lengthAdjust="spacing" textLength="61.9746" x="800.83" y="463.0751">msg : str</text><text fill="#000000" font-family="sans-serif" font-size="14" lengthAdjust="spacing" textLength="91.6221" x="800.83" y="479.372">services : list</text><line style="stroke:#181818;stroke-width:0.5;" x1="795.83" x2="1020.1689" y1="486.6737" y2="486.6737"/></g><!--class RobotInterfaceInfo_Request--><g class="entity" data-entity="RobotInterfaceInfo_Request" data-source-line="57" data-uid="ent0015" id="entity_RobotInterfaceInfo_Request"><rect fill="#F1F1F1" height="64.2969" rx="2.5" ry="2.5" style="stroke:#181818;stroke-width:0.5;" width="226.9063" x="1061.55" y="92.15"/><ellipse cx="1076.55" cy="108.15" fill="#ADD1B2" rx="11" ry="11" style="stroke:#181818;stroke-width:1;"/><path d="M1079.5188,113.7906 Q1078.9406,114.0875 1078.3,114.2281 Q1077.6594,114.3844 1076.9563,114.3844 Q1074.4563,114.3844 1073.1281,112.7437 Q1071.8156,111.0875 1071.8156,107.9625 Q1071.8156,104.8375 1073.1281,103.1812 Q1074.4563,101.525 1076.9563,101.525 Q1077.6594,101.525 1078.3,101.6812 Q1078.9563,101.8375 1079.5188,102.1344 L1079.5188,104.8531 Q1078.8938,104.275 1078.3,104.0094 Q1077.7063,103.7281 1077.0813,103.7281 Q1075.7375,103.7281 1075.05,104.8062 Q1074.3625,105.8687 1074.3625,107.9625 Q1074.3625,110.0562 1075.05,111.1344 Q1075.7375,112.1969 1077.0813,112.1969 Q1077.7063,112.1969 1078.3,111.9312 Q1078.8938,111.65 1079.5188,111.0719 L1079.5188,113.7906 Z " fill="#000000"/><text fill="#000000" font-family="sans-serif" font-size="14" lengthAdjust="spacing" textLength="194.9063" x="1090.55" y="112.9967">RobotInterfaceInfo_Request</text><line style="stroke:#181818;stroke-width:0.5;" x1="1062.55" x2="1287.4563" y1="124.15" y2="124.15"/><text fill="#000000" font-family="sans-serif" font-size="14" lengthAdjust="spacing" textLength="94.5957" x="1067.55" y="141.1451">interface : str</text><line style="stroke:#181818;stroke-width:0.5;" x1="1062.55" x2="1287.4563" y1="148.4469" y2="148.4469"/></g><!--class RobotInterfaceInfo_Response--><g class="entity" data-entity="RobotInterfaceInfo_Response" data-source-line="61" data-uid="ent0016" id="entity_RobotInterfaceInfo_Response"><rect fill="#F1F1F1" height="80.5938" rx="2.5" ry="2.5" style="stroke:#181818;stroke-width:0.5;" width="237.2764" x="1056.36" y="414.08"/><ellipse cx="1071.36" cy="430.08" fill="#ADD1B2" rx="11" ry="11" style="stroke:#181818;stroke-width:1;"/><path d="M1074.3288,435.7206 Q1073.7506,436.0175 1073.11,436.1581 Q1072.4694,436.3144 1071.7663,436.3144 Q1069.2663,436.3144 1067.9381,434.6737 Q1066.6256,433.0175 1066.6256,429.8925 Q1066.6256,426.7675 1067.9381,425.1112 Q1069.2663,423.455 1071.7663,423.455 Q1072.4694,423.455 1073.11,423.6112 Q1073.7663,423.7675 1074.3288,424.0644 L1074.3288,426.7831 Q1073.7038,426.205 1073.11,425.9394 Q1072.5163,425.6581 1071.8913,425.6581 Q1070.5475,425.6581 1069.86,426.7362 Q1069.1725,427.7987 1069.1725,429.8925 Q1069.1725,431.9862 1069.86,433.0644 Q1070.5475,434.1269 1071.8913,434.1269 Q1072.5163,434.1269 1073.11,433.8612 Q1073.7038,433.58 1074.3288,433.0019 L1074.3288,435.7206 Z " fill="#000000"/><text fill="#000000" font-family="sans-serif" font-size="14" lengthAdjust="spacing" textLength="205.2764" x="1085.36" y="434.9267">RobotInterfaceInfo_Response</text><line style="stroke:#181818;stroke-width:0.5;" x1="1057.36" x2="1292.6364" y1="446.08" y2="446.08"/><text fill="#000000" font-family="sans-serif" font-size="14" lengthAdjust="spacing" textLength="98.0547" x="1062.36" y="463.0751">definition : str</text><text fill="#000000" font-family="sans-serif" font-size="14" lengthAdjust="spacing" textLength="103.9131" x="1062.36" y="479.372">interfaces : list</text><line style="stroke:#181818;stroke-width:0.5;" x1="1057.36" x2="1292.6364" y1="486.6737" y2="486.6737"/></g><!--link SetRobotActivity_Request to SetRobotActivity_Response--><g class="link" data-entity-1="SetRobotActivity_Request" data-entity-2="SetRobotActivity_Response" data-source-line="67" data-uid="lnk17" id="link_SetRobotActivity_Request_SetRobotActivity_Response"><path codeLine="67" d="M648,164.87 C648,230.82 648,361.9 648,421.97" fill="none" id="SetRobotActivity_Request-SetRobotActivity_Response" style="stroke:#181818;stroke-width:1;"/></g><!--link RobotServiceInfo_Request to RobotServiceInfo_Response--><g class="link" data-entity-1="RobotServiceInfo_Request" data-entity-2="RobotServiceInfo_Response" data-source-line="68" data-uid="lnk18" id="link_RobotServiceInfo_Request_RobotServiceInfo_Response"><path codeLine="68" d="M908,156.75 C908,216.82 908,347.71 908,413.68" fill="none" id="RobotServiceInfo_Request-RobotServiceInfo_Response" style="stroke:#181818;stroke-width:1;"/></g><!--link RobotInterfaceInfo_Request to RobotInterfaceInfo_Response--><g class="link" data-entity-1="RobotInterfaceInfo_Request" data-entity-2="RobotInterfaceInfo_Response" data-source-line="69" data-uid="lnk19" id="link_RobotInterfaceInfo_Request_RobotInterfaceInfo_Response"><path codeLine="69" d="M1175,156.75 C1175,216.82 1175,347.71 1175,413.68" fill="none" id="RobotInterfaceInfo_Request-RobotInterfaceInfo_Response" style="stroke:#181818;stroke-width:1;"/></g><!--SRC=[fP91JiD034NtEONLVJW0Eygg2oHe3r2PYLDPf3CXTW85SNScXKcJC1CXMDhMjx-VNQDvmWF1ohIYxhXdgzIKQ4YkZd9OmNi6O2eKWQrxTBf6zVNJEGrWkO1h46tEKO6AFYmhX-eJ7zbKUbktVv7T6EMEDJuIGp6avkfxvnUAIbz7Cm5Ea-XjmSz3Yvw0PMV_rHRWPM787OjPWXMMzRewVK1fkl41TwGJelijFRSa0SyFbduQAN8bCRgHPb8xA_JTpJzFyYWxQZesjB6bctcGhyelbSc1GwFUUiKIGxm9d28s1eP98tFrn4f19LlM_aKkZYvt6NloVPDdoVCyZJbBaknbILZPmkw3CBxS9m00]--></g></svg>