<svg xmlns="http://www.w3.org/2000/svg" xmlns:xlink="http://www.w3.org/1999/xlink" contentStyleType="text/css" data-diagram-type="CLASS" height="685px" preserveAspectRatio="none" style="width:411px;height:685px;background:#FFFFFF;" version="1.1" viewBox="0 0 411 685" width="411px" zoomAndPan="magnify"><defs/><g><!--cluster rclpy--><g class="cluster" data-entity="rclpy" data-source-line="2" data-uid="ent0004" id="cluster_rclpy"><path d="M258.83,6 L298.9794,6 A3.75,3.75 0 0 1 301.4794,8.5 L308.4794,28.2969 L401.83,28.2969 A2.5,2.5 0 0 1 404.33,30.7969 L404.33,169.5 A2.5,2.5 0 0 1 401.83,172 L258.83,172 A2.5,2.5 0 0 1 256.33,169.5 L256.33,8.5 A2.5,2.5 0 0 1 258.83,6" fill="none" style="stroke:#000000;stroke-width:1.5;"/><line style="stroke:#000000;stroke-width:1.5;" x1="256.33" x2="308.4794" y1="28.2969" y2="28.2969"/><text fill="#000000" font-family="sans-serif" font-size="14" font-weight="bold" lengthAdjust="spacing" textLength="39.1494" x="260.33" y="20.9951">rclpy</text></g><!--cluster node--><g class="cluster" data-entity="node" data-source-line="1" data-uid="ent0002" id="cluster_node"><path d="M282.83,49 L322.9316,49 A3.75,3.75 0 0 1 325.4316,51.5 L332.4316,71.2969 L377.83,71.2969 A2.5,2.5 0 0 1 380.33,73.7969 L380.33,145.5 A2.5,2.5 0 0 1 377.83,148 L282.83,148 A2.5,2.5 0 0 1 280.33,145.5 L280.33,51.5 A2.5,2.5 0 0 1 282.83,49" fill="none" style="stroke:#000000;stroke-width:1.5;"/><line style="stroke:#000000;stroke-width:1.5;" x1="280.33" x2="332.4316" y1="71.2969" y2="71.2969"/><text fill="#000000" font-family="sans-serif" font-size="14" font-weight="bold" lengthAdjust="spacing" textLength="39.1016" x="284.33" y="63.9951">node</text></g><!--cluster sw_util--><g class="cluster" data-entity="sw_util" data-source-line="5" data-uid="ent0005" id="cluster_sw_util"><path d="M126.83,196 L182.3534,196 A3.75,3.75 0 0 1 184.8534,198.5 L191.8534,218.2969 L397.83,218.2969 A2.5,2.5 0 0 1 400.33,220.7969 L400.33,520.66 A2.5,2.5 0 0 1 397.83,523.16 L126.83,523.16 A2.5,2.5 0 0 1 124.33,520.66 L124.33,198.5 A2.5,2.5 0 0 1 126.83,196" fill="none" style="stroke:#000000;stroke-width:1.5;"/><line style="stroke:#000000;stroke-width:1.5;" x1="124.33" x2="191.8534" y1="218.2969" y2="218.2969"/><text fill="#000000" font-family="sans-serif" font-size="14" font-weight="bold" lengthAdjust="spacing" textLength="54.5234" x="128.33" y="210.9951">sw_util</text></g><!--cluster data_sink--><g class="cluster" data-entity="data_sink" data-source-line="27" data-uid="ent0010" id="cluster_data_sink"><path d="M169.83,547.16 L245.8476,547.16 A3.75,3.75 0 0 1 248.3476,549.66 L255.3476,569.4569 L354.83,569.4569 A2.5,2.5 0 0 1 357.33,571.9569 L357.33,676.25 A2.5,2.5 0 0 1 354.83,678.75 L169.83,678.75 A2.5,2.5 0 0 1 167.33,676.25 L167.33,549.66 A2.5,2.5 0 0 1 169.83,547.16" fill="none" style="stroke:#000000;stroke-width:1.5;"/><line style="stroke:#000000;stroke-width:1.5;" x1="167.33" x2="255.3476" y1="569.4569" y2="569.4569"/><text fill="#000000" font-family="sans-serif" font-size="14" font-weight="bold" lengthAdjust="spacing" textLength="75.0176" x="171.33" y="562.1551">data_sink</text></g><!--class Node--><g class="entity" data-entity="Node" data-source-line="2" data-uid="ent0003" id="entity_Node"><rect fill="#F1F1F1" height="48" rx="2.5" ry="2.5" style="stroke:#181818;stroke-width:0.5;" width="68.5381" x="296.06" y="84"/><ellipse cx="311.06" cy="100" fill="#ADD1B2" rx="11" ry="11" style="stroke:#181818;stroke-width:1;"/><path d="M314.0288,105.6406 Q313.4506,105.9375 312.81,106.0781 Q312.1694,106.2344 311.4663,106.2344 Q308.9663,106.2344 307.6381,104.5938 Q306.3256,102.9375 306.3256,99.8125 Q306.3256,96.6875 307.6381,95.0313 Q308.9663,93.375 311.4663,93.375 Q312.1694,93.375 312.81,93.5313 Q313.4663,93.6875 314.0288,93.9844 L314.0288,96.7031 Q313.4038,96.125 312.81,95.8594 Q312.2163,95.5781 311.5913,95.5781 Q310.2475,95.5781 309.56,96.6563 Q308.8725,97.7188 308.8725,99.8125 Q308.8725,101.9063 309.56,102.9844 Q310.2475,104.0469 311.5913,104.0469 Q312.2163,104.0469 312.81,103.7813 Q313.4038,103.5 314.0288,102.9219 L314.0288,105.6406 Z " fill="#000000"/><text fill="#000000" font-family="sans-serif" font-size="14" lengthAdjust="spacing" textLength="36.5381" x="325.06" y="104.8467">Node</text><line style="stroke:#181818;stroke-width:0.5;" x1="297.06" x2="363.5981" y1="116" y2="116"/><line style="stroke:#181818;stroke-width:0.5;" x1="297.06" x2="363.5981" y1="124" y2="124"/></g><!--class BaseStatusSub--><g class="entity" data-entity="BaseStatusSub" data-source-line="6" data-uid="ent0006" id="entity_BaseStatusSub"><rect fill="#F1F1F1" height="276.1563" rx="2.5" ry="2.5" style="stroke:#181818;stroke-width:0.5;" width="244.7773" x="139.94" y="231"/><ellipse cx="205.4044" cy="247" fill="#ADD1B2" rx="11" ry="11" style="stroke:#181818;stroke-width:1;"/><path d="M208.3731,252.6406 Q207.795,252.9375 207.1544,253.0781 Q206.5137,253.2344 205.8106,253.2344 Q203.3106,253.2344 201.9825,251.5938 Q200.67,249.9375 200.67,246.8125 Q200.67,243.6875 201.9825,242.0313 Q203.3106,240.375 205.8106,240.375 Q206.5137,240.375 207.1544,240.5313 Q207.8106,240.6875 208.3731,240.9844 L208.3731,243.7031 Q207.7481,243.125 207.1544,242.8594 Q206.5606,242.5781 205.9356,242.5781 Q204.5919,242.5781 203.9044,243.6563 Q203.2169,244.7188 203.2169,246.8125 Q203.2169,248.9063 203.9044,249.9844 Q204.5919,251.0469 205.9356,251.0469 Q206.5606,251.0469 207.1544,250.7813 Q207.7481,250.5 208.3731,249.9219 L208.3731,252.6406 Z " fill="#000000"/><text fill="#000000" font-family="sans-serif" font-size="14" lengthAdjust="spacing" textLength="105.3486" x="225.9044" y="251.8467">BaseStatusSub</text><line style="stroke:#181818;stroke-width:0.5;" x1="140.94" x2="383.7173" y1="263" y2="263"/><text fill="#000000" font-family="sans-serif" font-size="14" lengthAdjust="spacing" textLength="157.3975" x="145.94" y="279.9951">__please_override : str</text><text fill="#000000" font-family="sans-serif" font-size="14" lengthAdjust="spacing" textLength="167.4873" x="145.94" y="296.292">__subscription_dict: dict</text><text fill="#000000" font-family="sans-serif" font-size="14" lengthAdjust="spacing" textLength="232.7773" x="145.94" y="312.5889">__batch_timer : rclpy.timer.Timer</text><text fill="#000000" font-family="sans-serif" font-size="14" lengthAdjust="spacing" textLength="95.8125" x="145.94" y="328.8857">__nodes : dict</text><text fill="#000000" font-family="sans-serif" font-size="14" lengthAdjust="spacing" textLength="98.1504" x="145.94" y="345.1826">__conn : None</text><line style="stroke:#181818;stroke-width:0.5;" x1="140.94" x2="383.7173" y1="352.4844" y2="352.4844"/><text fill="#000000" font-family="sans-serif" font-size="14" lengthAdjust="spacing" textLength="207.9697" x="145.94" y="369.4795">@property subscription_dict()</text><text fill="#000000" font-family="sans-serif" font-size="14" lengthAdjust="spacing" textLength="131.8447" x="145.94" y="385.7764">@property nodes()</text><text fill="#000000" font-family="sans-serif" font-size="14" lengthAdjust="spacing" textLength="123.6211" x="145.94" y="402.0732">@property conn()</text><text fill="#000000" font-family="sans-serif" font-size="14" lengthAdjust="spacing" textLength="4.4502" x="145.94" y="418.3701"> </text><text fill="#000000" font-family="sans-serif" font-size="14" lengthAdjust="spacing" textLength="135.0303" x="145.94" y="434.667">connect_db() : bool</text><text fill="#000000" font-family="sans-serif" font-size="14" lengthAdjust="spacing" textLength="190.4629" x="145.94" y="450.9639">subscription_callback(msg)</text><text fill="#000000" font-family="sans-serif" font-size="14" lengthAdjust="spacing" textLength="111.3711" x="145.94" y="467.2607">forward_batch()</text><text fill="#000000" font-family="sans-serif" font-size="14" lengthAdjust="spacing" textLength="159.1611" x="145.94" y="483.5576">batch_timer_callback()</text><text fill="#000000" font-family="sans-serif" font-size="14" lengthAdjust="spacing" textLength="177.6045" x="145.94" y="499.8545">check_nid(nid : int) : bool</text></g><!--class RobotStatusSub--><g class="entity" data-entity="RobotStatusSub" data-source-line="28" data-uid="ent0011" id="entity_RobotStatusSub"><rect fill="#F1F1F1" height="80.5938" rx="2.5" ry="2.5" style="stroke:#181818;stroke-width:0.5;" width="157.2568" x="183.7" y="582.16"/><ellipse cx="204.4441" cy="598.16" fill="#ADD1B2" rx="11" ry="11" style="stroke:#181818;stroke-width:1;"/><path d="M207.4128,603.8006 Q206.8347,604.0975 206.1941,604.2381 Q205.5535,604.3944 204.8503,604.3944 Q202.3503,604.3944 201.0222,602.7538 Q199.7097,601.0975 199.7097,597.9725 Q199.7097,594.8475 201.0222,593.1913 Q202.3503,591.535 204.8503,591.535 Q205.5535,591.535 206.1941,591.6913 Q206.8503,591.8475 207.4128,592.1444 L207.4128,594.8631 Q206.7878,594.285 206.1941,594.0194 Q205.6003,593.7381 204.9753,593.7381 Q203.6316,593.7381 202.9441,594.8163 Q202.2566,595.8788 202.2566,597.9725 Q202.2566,600.0663 202.9441,601.1444 Q203.6316,602.2069 204.9753,602.2069 Q205.6003,602.2069 206.1941,601.9413 Q206.7878,601.66 207.4128,601.0819 L207.4128,603.8006 Z " fill="#000000"/><text fill="#000000" font-family="sans-serif" font-size="14" lengthAdjust="spacing" textLength="112.4922" x="219.7206" y="603.0067">RobotStatusSub</text><line style="stroke:#181818;stroke-width:0.5;" x1="184.7" x2="339.9568" y1="614.16" y2="614.16"/><line style="stroke:#181818;stroke-width:0.5;" x1="184.7" x2="339.9568" y1="622.16" y2="622.16"/><text fill="#000000" font-family="sans-serif" font-size="14" lengthAdjust="spacing" textLength="145.2568" x="189.7" y="639.1551">forward_batch_test()</text><text fill="#000000" font-family="sans-serif" font-size="14" lengthAdjust="spacing" textLength="111.3711" x="189.7" y="655.452">forward_batch()</text></g><g class="entity" data-entity="GMN7" data-source-line="25" data-uid="ent0008" id="entity_GMN7"><path d="M6,87.87 L6,128.1356 A0,0 0 0 0 6,128.1356 L129.78,128.1356 L188.66,230.76 L137.78,128.1356 L240.6621,128.1356 A0,0 0 0 0 240.6621,128.1356 L240.6621,97.87 L230.6621,87.87 L6,87.87 A0,0 0 0 0 6,87.87" fill="#FEFFDD" style="stroke:#181818;stroke-width:0.5;"/><path d="M230.6621,87.87 L230.6621,97.87 L240.6621,97.87 L230.6621,87.87" fill="#FEFFDD" style="stroke:#181818;stroke-width:0.5;"/><text fill="#000000" font-family="sans-serif" font-size="13" lengthAdjust="spacing" textLength="213.6621" x="12" y="104.9369">"connect_db returns True if conn</text><text fill="#000000" font-family="sans-serif" font-size="13" lengthAdjust="spacing" textLength="172.5103" x="16.1323" y="120.0697">has a working connection"</text></g><!--reverse link Node to BaseStatusSub--><g class="link" data-entity-1="Node" data-entity-2="BaseStatusSub" data-source-line="34" data-uid="lnk12" id="link_Node_BaseStatusSub"><path codeLine="34" d="M319.6084,149.8598 C313.5584,172.8998 308.38,192.65 298.39,230.71" fill="none" id="Node-backto-BaseStatusSub" style="stroke:#181818;stroke-width:1;"/><polygon fill="none" points="324.18,132.45,313.8052,148.3359,325.4117,151.3836,324.18,132.45" style="stroke:#181818;stroke-width:1;"/></g><!--reverse link BaseStatusSub to RobotStatusSub--><g class="link" data-entity-1="BaseStatusSub" data-entity-2="RobotStatusSub" data-source-line="35" data-uid="lnk13" id="link_BaseStatusSub_RobotStatusSub"><path codeLine="35" d="M262.33,525.53 C262.33,552.7 262.33,561.12 262.33,581.67" fill="none" id="BaseStatusSub-backto-RobotStatusSub" style="stroke:#181818;stroke-width:1;"/><polygon fill="none" points="262.33,507.53,256.33,525.53,268.33,525.53,262.33,507.53" style="stroke:#181818;stroke-width:1;"/></g><!--SRC=[PLBBRi8m4BpdArOvXGFz0DH3rG_WK3XMilnOm8hnMlQc2BNyUsqdY0GEMMbd7pFZJP2wbqU4DceNhc-U3BRmsm1e9rE2RSwRMzE4UrkwY86jc_TyoeGxbZoatQ0g3Y14S9XnGJyOepK86qWSfreQLDBH1hRaXR6QDr3YL5MIzKcmFMFCKwEkchtjIvowYj84Yq5DtcTaInuhKiD7Y1GmyXLUMBlLKqVT-OAMjHDOGybHip2gMsKwHUGgljYlfNCgFrftJiTnza3n8gCPxKtxPbOV4sD9dr3tmblJvI_JMCypjbivYYT6O0f0XwSZRA1zg8I8F4IVO1y717ke1huzd6G22HUAlVN7kwkilPsTsqYM8bdVpm_-HOhu-U8BUu8ntP_trNSLN_uiUFzRhvVIcwMHsh3a-mS0]--></g></svg>