<svg xmlns="http://www.w3.org/2000/svg" xmlns:xlink="http://www.w3.org/1999/xlink" contentStyleType="text/css" data-diagram-type="CLASS" height="971px" preserveAspectRatio="none" style="width:1088px;height:971px;background:#FFFFFF;" version="1.1" viewBox="0 0 1088 971" width="1088px" zoomAndPan="magnify"><defs/><g><!--cluster rclpy--><g class="cluster" data-entity="rclpy" data-source-line="2" data-uid="ent0004" id="cluster_rclpy"><path d="M635.5,47.14 L675.6494,47.14 A3.75,3.75 0 0 1 678.1494,49.64 L685.1494,69.4369 L778.5,69.4369 A2.5,2.5 0 0 1 781,71.9369 L781,210.64 A2.5,2.5 0 0 1 778.5,213.14 L635.5,213.14 A2.5,2.5 0 0 1 633,210.64 L633,49.64 A2.5,2.5 0 0 1 635.5,47.14" fill="none" style="stroke:#000000;stroke-width:1.5;"/><line style="stroke:#000000;stroke-width:1.5;" x1="633" x2="685.1494" y1="69.4369" y2="69.4369"/><text fill="#000000" font-family="sans-serif" font-size="14" font-weight="bold" lengthAdjust="spacing" textLength="39.1494" x="637" y="62.1351">rclpy</text></g><!--cluster node--><g class="cluster" data-entity="node" data-source-line="1" data-uid="ent0002" id="cluster_node"><path d="M659.5,90.14 L699.6016,90.14 A3.75,3.75 0 0 1 702.1016,92.64 L709.1016,112.4369 L754.5,112.4369 A2.5,2.5 0 0 1 757,114.9369 L757,186.64 A2.5,2.5 0 0 1 754.5,189.14 L659.5,189.14 A2.5,2.5 0 0 1 657,186.64 L657,92.64 A2.5,2.5 0 0 1 659.5,90.14" fill="none" style="stroke:#000000;stroke-width:1.5;"/><line style="stroke:#000000;stroke-width:1.5;" x1="657" x2="709.1016" y1="112.4369" y2="112.4369"/><text fill="#000000" font-family="sans-serif" font-size="14" font-weight="bold" lengthAdjust="spacing" textLength="39.1016" x="661" y="105.1351">node</text></g><!--cluster time_util--><g class="cluster" data-entity="time_util" data-source-line="5" data-uid="ent0005" id="cluster_time_util"><path d="M326.5,416.4 L396.3311,416.4 A3.75,3.75 0 0 1 398.8311,418.9 L405.8311,438.6969 L509.5,438.6969 A2.5,2.5 0 0 1 512,441.1969 L512,545.5 A2.5,2.5 0 0 1 509.5,548 L326.5,548 A2.5,2.5 0 0 1 324,545.5 L324,418.9 A2.5,2.5 0 0 1 326.5,416.4" fill="none" style="stroke:#000000;stroke-width:1.5;"/><line style="stroke:#000000;stroke-width:1.5;" x1="324" x2="405.8311" y1="438.6969" y2="438.6969"/><text fill="#000000" font-family="sans-serif" font-size="14" font-weight="bold" lengthAdjust="spacing" textLength="68.8311" x="328" y="431.3951">time_util</text></g><!--cluster robot_util--><g class="cluster" data-entity="robot_util" data-source-line="12" data-uid="ent0007" id="cluster_robot_util"><path d="M538.5,237.14 L615.6113,237.14 A3.75,3.75 0 0 1 618.1113,239.64 L625.1113,259.4369 L1078.5,259.4369 A2.5,2.5 0 0 1 1081,261.9369 L1081,724.76 A2.5,2.5 0 0 1 1078.5,727.26 L538.5,727.26 A2.5,2.5 0 0 1 536,724.76 L536,239.64 A2.5,2.5 0 0 1 538.5,237.14" fill="none" style="stroke:#000000;stroke-width:1.5;"/><line style="stroke:#000000;stroke-width:1.5;" x1="536" x2="625.1113" y1="259.4369" y2="259.4369"/><text fill="#000000" font-family="sans-serif" font-size="14" font-weight="bold" lengthAdjust="spacing" textLength="76.1113" x="540" y="252.1351">robot_util</text></g><!--cluster mock_data--><g class="cluster" data-entity="mock_data" data-source-line="51" data-uid="ent0010" id="cluster_mock_data"><path d="M393.5,751.26 L478.9238,751.26 A3.75,3.75 0 0 1 481.4238,753.76 L488.4238,773.5569 L730.5,773.5569 A2.5,2.5 0 0 1 733,776.0569 L733,961.84 A2.5,2.5 0 0 1 730.5,964.34 L393.5,964.34 A2.5,2.5 0 0 1 391,961.84 L391,753.76 A2.5,2.5 0 0 1 393.5,751.26" fill="none" style="stroke:#000000;stroke-width:1.5;"/><line style="stroke:#000000;stroke-width:1.5;" x1="391" x2="488.4238" y1="773.5569" y2="773.5569"/><text fill="#000000" font-family="sans-serif" font-size="14" font-weight="bold" lengthAdjust="spacing" textLength="84.4238" x="395" y="766.2551">mock_data</text></g><!--cluster mock_position--><g class="cluster" data-entity="mock_position" data-source-line="63" data-uid="ent0012" id="cluster_mock_position"><path d="M8.5,326.77 L122.1631,326.77 A3.75,3.75 0 0 1 124.6631,329.27 L131.6631,349.0669 L297.5,349.0669 A2.5,2.5 0 0 1 300,351.5669 L300,635.13 A2.5,2.5 0 0 1 297.5,637.63 L8.5,637.63 A2.5,2.5 0 0 1 6,635.13 L6,329.27 A2.5,2.5 0 0 1 8.5,326.77" fill="none" style="stroke:#000000;stroke-width:1.5;"/><line style="stroke:#000000;stroke-width:1.5;" x1="6" x2="131.6631" y1="349.0669" y2="349.0669"/><text fill="#000000" font-family="sans-serif" font-size="14" font-weight="bold" lengthAdjust="spacing" textLength="112.6631" x="10" y="341.7651">mock_position</text></g><!--cluster numpy--><g class="cluster" data-entity="numpy" data-source-line="82" data-uid="ent0014" id="cluster_numpy"><path d="M76.5,81.99 L131.1689,81.99 A3.75,3.75 0 0 1 133.6689,84.49 L140.6689,104.2869 L229.5,104.2869 A2.5,2.5 0 0 1 232,106.7869 L232,194.79 A2.5,2.5 0 0 1 229.5,197.29 L76.5,197.29 A2.5,2.5 0 0 1 74,194.79 L74,84.49 A2.5,2.5 0 0 1 76.5,81.99" fill="none" style="stroke:#000000;stroke-width:1.5;"/><line style="stroke:#000000;stroke-width:1.5;" x1="74" x2="140.6689" y1="104.2869" y2="104.2869"/><text fill="#000000" font-family="sans-serif" font-size="14" font-weight="bold" lengthAdjust="spacing" textLength="53.6689" x="78" y="96.9851">numpy</text></g><!--class Node--><g class="entity" data-entity="Node" data-source-line="2" data-uid="ent0003" id="entity_Node"><rect fill="#F1F1F1" height="48" rx="2.5" ry="2.5" style="stroke:#181818;stroke-width:0.5;" width="68.5381" x="672.73" y="125.14"/><ellipse cx="687.73" cy="141.14" fill="#ADD1B2" rx="11" ry="11" style="stroke:#181818;stroke-width:1;"/><path d="M690.6988,146.7806 Q690.1206,147.0775 689.48,147.2181 Q688.8394,147.3744 688.1363,147.3744 Q685.6363,147.3744 684.3081,145.7338 Q682.9956,144.0775 682.9956,140.9525 Q682.9956,137.8275 684.3081,136.1713 Q685.6363,134.515 688.1363,134.515 Q688.8394,134.515 689.48,134.6713 Q690.1363,134.8275 690.6988,135.1244 L690.6988,137.8431 Q690.0738,137.265 689.48,136.9994 Q688.8863,136.7181 688.2613,136.7181 Q686.9175,136.7181 686.23,137.7963 Q685.5425,138.8588 685.5425,140.9525 Q685.5425,143.0463 686.23,144.1244 Q686.9175,145.1869 688.2613,145.1869 Q688.8863,145.1869 689.48,144.9213 Q690.0738,144.64 690.6988,144.0619 L690.6988,146.7806 Z " fill="#000000"/><text fill="#000000" font-family="sans-serif" font-size="14" lengthAdjust="spacing" textLength="36.5381" x="701.73" y="145.9867">Node</text><line style="stroke:#181818;stroke-width:0.5;" x1="673.73" x2="740.2681" y1="157.14" y2="157.14"/><line style="stroke:#181818;stroke-width:0.5;" x1="673.73" x2="740.2681" y1="165.14" y2="165.14"/></g><!--class TimeUtil--><g class="entity" data-entity="TimeUtil" data-source-line="6" data-uid="ent0006" id="entity_TimeUtil"><rect fill="#F1F1F1" height="80.5938" rx="2.5" ry="2.5" style="stroke:#181818;stroke-width:0.5;" width="155.8486" x="340.08" y="451.4"/><ellipse cx="384.6503" cy="467.4" fill="#ADD1B2" rx="11" ry="11" style="stroke:#181818;stroke-width:1;"/><path d="M387.6191,473.0406 Q387.0409,473.3375 386.4003,473.4781 Q385.7597,473.6344 385.0566,473.6344 Q382.5566,473.6344 381.2284,471.9938 Q379.9159,470.3375 379.9159,467.2125 Q379.9159,464.0875 381.2284,462.4313 Q382.5566,460.775 385.0566,460.775 Q385.7597,460.775 386.4003,460.9313 Q387.0566,461.0875 387.6191,461.3844 L387.6191,464.1031 Q386.9941,463.525 386.4003,463.2594 Q385.8066,462.9781 385.1816,462.9781 Q383.8378,462.9781 383.1503,464.0563 Q382.4628,465.1188 382.4628,467.2125 Q382.4628,469.3063 383.1503,470.3844 Q383.8378,471.4469 385.1816,471.4469 Q385.8066,471.4469 386.4003,471.1813 Q386.9941,470.9 387.6191,470.3219 L387.6191,473.0406 Z " fill="#000000"/><text fill="#000000" font-family="sans-serif" font-size="14" lengthAdjust="spacing" textLength="58.208" x="405.1503" y="472.2467">TimeUtil</text><line style="stroke:#181818;stroke-width:0.5;" x1="341.08" x2="494.9286" y1="483.4" y2="483.4"/><line style="stroke:#181818;stroke-width:0.5;" x1="341.08" x2="494.9286" y1="491.4" y2="491.4"/><text fill="#000000" font-family="sans-serif" font-size="14" lengthAdjust="spacing" text-decoration="underline" textLength="143.8486" x="346.08" y="508.3951">get_timestamp(): int</text><text fill="#000000" font-family="sans-serif" font-size="14" lengthAdjust="spacing" text-decoration="underline" textLength="143.7461" x="346.08" y="524.692">get_datetime_f(): str</text></g><!--class BaseStatusPub--><g class="entity" data-entity="BaseStatusPub" data-source-line="13" data-uid="ent0008" id="entity_BaseStatusPub"><rect fill="#F1F1F1" height="439.125" rx="2.5" ry="2.5" style="stroke:#181818;stroke-width:0.5;" width="309.2676" x="552.37" y="272.14"/><ellipse cx="650.3016" cy="288.14" fill="#A9DCDF" rx="11" ry="11" style="stroke:#181818;stroke-width:1;"/><path d="M650.411,283.4838 L649.2548,288.5619 L651.5829,288.5619 L650.411,283.4838 Z M648.9266,281.2494 L651.911,281.2494 L655.2704,293.64 L652.8173,293.64 L652.0516,290.5775 L648.7704,290.5775 L648.0204,293.64 L645.5829,293.64 L648.9266,281.2494 Z " fill="#000000"/><text fill="#000000" font-family="sans-serif" font-size="14" font-style="italic" lengthAdjust="spacing" textLength="104.9043" x="670.8016" y="292.9867">BaseStatusPub</text><line style="stroke:#181818;stroke-width:0.5;" x1="553.37" x2="860.6376" y1="304.14" y2="304.14"/><text fill="#000000" font-family="sans-serif" font-size="14" lengthAdjust="spacing" textLength="67.5186" x="558.37" y="321.1351">__nid : int</text><text fill="#000000" font-family="sans-serif" font-size="14" lengthAdjust="spacing" textLength="75.7832" x="558.37" y="337.432">__mac : int</text><text fill="#000000" font-family="sans-serif" font-size="14" lengthAdjust="spacing" textLength="157.3975" x="558.37" y="353.7289">__please_override : str</text><text fill="#000000" font-family="sans-serif" font-size="14" lengthAdjust="spacing" textLength="151.5049" x="558.37" y="370.0257">__publisher_dict : dict</text><text fill="#000000" font-family="sans-serif" font-size="14" lengthAdjust="spacing" textLength="136.6914" x="558.37" y="386.3226">__service_dict : dict</text><text fill="#000000" font-family="sans-serif" font-size="14" lengthAdjust="spacing" textLength="129.6367" x="558.37" y="402.6195">__action_dict : dict</text><text fill="#000000" font-family="sans-serif" font-size="14" lengthAdjust="spacing" textLength="173.0039" x="558.37" y="418.9164">__allowed_activities : set</text><text fill="#000000" font-family="sans-serif" font-size="14" lengthAdjust="spacing" textLength="97.7607" x="558.37" y="435.2132">__activity : str</text><text fill="#000000" font-family="sans-serif" font-size="14" lengthAdjust="spacing" textLength="123.9287" x="558.37" y="451.5101">__timer_dict : dict</text><text fill="#000000" font-family="sans-serif" font-size="14" lengthAdjust="spacing" textLength="148.8867" x="558.37" y="467.807">__neighbor_dict : dict</text><line style="stroke:#181818;stroke-width:0.5;" x1="553.37" x2="860.6376" y1="475.1088" y2="475.1088"/><text fill="#000000" font-family="sans-serif" font-size="14" lengthAdjust="spacing" textLength="121.5293" x="558.37" y="492.1039">__init__(nid, mac)</text><text fill="#000000" font-family="sans-serif" font-size="14" lengthAdjust="spacing" textLength="111.2617" x="558.37" y="508.4007">@property nid()</text><text fill="#000000" font-family="sans-serif" font-size="14" lengthAdjust="spacing" textLength="119.5264" x="558.37" y="524.6976">@property mac()</text><text fill="#000000" font-family="sans-serif" font-size="14" lengthAdjust="spacing" textLength="187.5371" x="558.37" y="540.9945">@property publisher_dict()</text><text fill="#000000" font-family="sans-serif" font-size="14" lengthAdjust="spacing" textLength="172.7236" x="558.37" y="557.2914">@property service_dict()</text><text fill="#000000" font-family="sans-serif" font-size="14" lengthAdjust="spacing" textLength="165.6689" x="558.37" y="573.5882">@property action_dict()</text><text fill="#000000" font-family="sans-serif" font-size="14" lengthAdjust="spacing" textLength="213.6025" x="558.37" y="589.8851">@property allowed_activities()</text><text fill="#000000" font-family="sans-serif" font-size="14" lengthAdjust="spacing" textLength="159.9609" x="558.37" y="606.182">@property timer_dict()</text><text fill="#000000" font-family="sans-serif" font-size="14" lengthAdjust="spacing" textLength="184.9189" x="558.37" y="622.4789">@property neighbor_dict()</text><text fill="#000000" font-family="sans-serif" font-size="14" lengthAdjust="spacing" textLength="141.2168" x="558.37" y="638.7757">@property activity()</text><text fill="#000000" font-family="sans-serif" font-size="14" lengthAdjust="spacing" textLength="219.0234" x="558.37" y="655.0726">@activity.setter activity(a : str)</text><text fill="#000000" font-family="sans-serif" font-size="14" font-style="italic" lengthAdjust="spacing" textLength="281.5723" x="558.37" y="671.3695">set_activity_callback(request, response)</text><text fill="#000000" font-family="sans-serif" font-size="14" font-style="italic" lengthAdjust="spacing" textLength="284.9766" x="558.37" y="687.6664">service_info_callback(request, response)</text><text fill="#000000" font-family="sans-serif" font-size="14" font-style="italic" lengthAdjust="spacing" textLength="297.2676" x="558.37" y="703.9632">interface_info_callback(request, response)</text></g><!--class Util--><g class="entity" data-entity="Util" data-source-line="41" data-uid="ent0009" id="entity_Util"><rect fill="#F1F1F1" height="145.7813" rx="2.5" ry="2.5" style="stroke:#181818;stroke-width:0.5;" width="168.7891" x="896.61" y="418.81"/><ellipse cx="964.9967" cy="434.81" fill="#ADD1B2" rx="11" ry="11" style="stroke:#181818;stroke-width:1;"/><path d="M967.9655,440.4506 Q967.3873,440.7475 966.7467,440.8881 Q966.1061,441.0444 965.403,441.0444 Q962.903,441.0444 961.5748,439.4038 Q960.2623,437.7475 960.2623,434.6225 Q960.2623,431.4975 961.5748,429.8413 Q962.903,428.185 965.403,428.185 Q966.1061,428.185 966.7467,428.3413 Q967.403,428.4975 967.9655,428.7944 L967.9655,431.5131 Q967.3405,430.935 966.7467,430.6694 Q966.153,430.3881 965.528,430.3881 Q964.1842,430.3881 963.4967,431.4663 Q962.8092,432.5288 962.8092,434.6225 Q962.8092,436.7163 963.4967,437.7944 Q964.1842,438.8569 965.528,438.8569 Q966.153,438.8569 966.7467,438.5913 Q967.3405,438.31 967.9655,437.7319 L967.9655,440.4506 Z " fill="#000000"/><text fill="#000000" font-family="sans-serif" font-size="14" lengthAdjust="spacing" textLength="23.5156" x="985.4967" y="439.6567">Util</text><line style="stroke:#181818;stroke-width:0.5;" x1="897.61" x2="1064.3991" y1="450.81" y2="450.81"/><line style="stroke:#181818;stroke-width:0.5;" x1="897.61" x2="1064.3991" y1="458.81" y2="458.81"/><text fill="#000000" font-family="sans-serif" font-size="14" lengthAdjust="spacing" text-decoration="underline" textLength="102.9834" x="902.61" y="475.8051">get_mac() : str</text><text fill="#000000" font-family="sans-serif" font-size="14" lengthAdjust="spacing" text-decoration="underline" textLength="156.7891" x="902.61" y="492.102">get_nid(mac : str) : str</text><text fill="#000000" font-family="sans-serif" font-size="14" lengthAdjust="spacing" text-decoration="underline" textLength="137.0811" x="902.61" y="508.3989">get_battery() : float</text><text fill="#000000" font-family="sans-serif" font-size="14" lengthAdjust="spacing" text-decoration="underline" textLength="111.4395" x="902.61" y="524.6957">get_cpu() : float</text><text fill="#000000" font-family="sans-serif" font-size="14" lengthAdjust="spacing" text-decoration="underline" textLength="85.8457" x="902.61" y="540.9926">get_ip() : str</text><text fill="#000000" font-family="sans-serif" font-size="14" lengthAdjust="spacing" text-decoration="underline" textLength="150.1309" x="902.61" y="557.2895">get_neighbors() : dict</text></g><!--class MockRobotStatusPub--><g class="entity" data-entity="MockRobotStatusPub" data-source-line="52" data-uid="ent0011" id="entity_MockRobotStatusPub"><rect fill="#F1F1F1" height="162.0781" rx="2.5" ry="2.5" style="stroke:#181818;stroke-width:0.5;" width="309.2676" x="407.37" y="786.26"/><ellipse cx="483.5053" cy="802.26" fill="#ADD1B2" rx="11" ry="11" style="stroke:#181818;stroke-width:1;"/><path d="M486.474,807.9006 Q485.8959,808.1975 485.2553,808.3381 Q484.6146,808.4944 483.9115,808.4944 Q481.4115,808.4944 480.0834,806.8538 Q478.7709,805.1975 478.7709,802.0725 Q478.7709,798.9475 480.0834,797.2913 Q481.4115,795.635 483.9115,795.635 Q484.6146,795.635 485.2553,795.7913 Q485.9115,795.9475 486.474,796.2444 L486.474,798.9631 Q485.849,798.385 485.2553,798.1194 Q484.6615,797.8381 484.0365,797.8381 Q482.6928,797.8381 482.0053,798.9163 Q481.3178,799.9788 481.3178,802.0725 Q481.3178,804.1663 482.0053,805.2444 Q482.6928,806.3069 484.0365,806.3069 Q484.6615,806.3069 485.2553,806.0413 Q485.849,805.76 486.474,805.1819 L486.474,807.9006 Z " fill="#000000"/><text fill="#000000" font-family="sans-serif" font-size="14" lengthAdjust="spacing" textLength="148.4971" x="504.0053" y="807.1067">MockRobotStatusPub</text><line style="stroke:#181818;stroke-width:0.5;" x1="408.37" x2="715.6376" y1="818.26" y2="818.26"/><line style="stroke:#181818;stroke-width:0.5;" x1="408.37" x2="715.6376" y1="826.26" y2="826.26"/><text fill="#000000" font-family="sans-serif" font-size="14" lengthAdjust="spacing" textLength="121.5293" x="413.37" y="843.2551">__init__(nid, mac)</text><text fill="#000000" font-family="sans-serif" font-size="14" lengthAdjust="spacing" textLength="281.5723" x="413.37" y="859.552">set_activity_callback(request, response)</text><text fill="#000000" font-family="sans-serif" font-size="14" lengthAdjust="spacing" textLength="284.9766" x="413.37" y="875.8489">service_info_callback(request, response)</text><text fill="#000000" font-family="sans-serif" font-size="14" lengthAdjust="spacing" textLength="297.2676" x="413.37" y="892.1457">interface_info_callback(request, response)</text><text fill="#000000" font-family="sans-serif" font-size="14" lengthAdjust="spacing" textLength="170.249" x="413.37" y="908.4426">system_timer_callback()</text><text fill="#000000" font-family="sans-serif" font-size="14" lengthAdjust="spacing" textLength="145.7012" x="413.37" y="924.7395">geo_timer_callback()</text><text fill="#000000" font-family="sans-serif" font-size="14" lengthAdjust="spacing" textLength="152.1543" x="413.37" y="941.0364">misc_timer_callback()</text></g><!--class MockPosition--><g class="entity" data-entity="MockPosition" data-source-line="64" data-uid="ent0013" id="entity_MockPosition"><rect fill="#F1F1F1" height="259.8594" rx="2.5" ry="2.5" style="stroke:#181818;stroke-width:0.5;" width="261.4297" x="22.29" y="361.77"/><ellipse cx="103.0258" cy="377.77" fill="#ADD1B2" rx="11" ry="11" style="stroke:#181818;stroke-width:1;"/><path d="M105.9946,383.4106 Q105.4165,383.7075 104.7758,383.8481 Q104.1352,384.0044 103.4321,384.0044 Q100.9321,384.0044 99.604,382.3638 Q98.2915,380.7075 98.2915,377.5825 Q98.2915,374.4575 99.604,372.8013 Q100.9321,371.145 103.4321,371.145 Q104.1352,371.145 104.7758,371.3013 Q105.4321,371.4575 105.9946,371.7544 L105.9946,374.4731 Q105.3696,373.895 104.7758,373.6294 Q104.1821,373.3481 103.5571,373.3481 Q102.2133,373.3481 101.5258,374.4263 Q100.8383,375.4888 100.8383,377.5825 Q100.8383,379.6763 101.5258,380.7544 Q102.2133,381.8169 103.5571,381.8169 Q104.1821,381.8169 104.7758,381.5513 Q105.3696,381.27 105.9946,380.6919 L105.9946,383.4106 Z " fill="#000000"/><text fill="#000000" font-family="sans-serif" font-size="14" lengthAdjust="spacing" textLength="91.458" x="123.5258" y="382.6167">MockPosition</text><line style="stroke:#181818;stroke-width:0.5;" x1="23.29" x2="282.7197" y1="393.77" y2="393.77"/><text fill="#000000" font-family="sans-serif" font-size="14" lengthAdjust="spacing" textLength="75.79" x="28.29" y="410.7651">__goal : int</text><text fill="#000000" font-family="sans-serif" font-size="14" lengthAdjust="spacing" textLength="149.543" x="28.29" y="427.062">__max_vec_len : float</text><text fill="#000000" font-family="sans-serif" font-size="14" lengthAdjust="spacing" textLength="137.7783" x="28.29" y="443.3589">__mock_routes : list</text><text fill="#000000" font-family="sans-serif" font-size="14" lengthAdjust="spacing" textLength="91.1777" x="28.29" y="459.6557">__points : list</text><text fill="#000000" font-family="sans-serif" font-size="14" lengthAdjust="spacing" textLength="115.6299" x="28.29" y="475.9526">__current : array</text><line style="stroke:#181818;stroke-width:0.5;" x1="23.29" x2="282.7197" y1="483.2544" y2="483.2544"/><text fill="#000000" font-family="sans-serif" font-size="14" lengthAdjust="spacing" textLength="179.2109" x="28.29" y="500.2495">@property mock_routes()</text><text fill="#000000" font-family="sans-serif" font-size="14" lengthAdjust="spacing" textLength="119.5332" x="28.29" y="516.5464">@property goal()</text><text fill="#000000" font-family="sans-serif" font-size="14" lengthAdjust="spacing" textLength="175.6768" x="28.29" y="532.8432">@goal.setter goal(g : int)</text><text fill="#000000" font-family="sans-serif" font-size="14" lengthAdjust="spacing" textLength="180.0859" x="28.29" y="549.1401">@property max_vec_len()</text><text fill="#000000" font-family="sans-serif" font-size="14" lengthAdjust="spacing" textLength="249.4297" x="28.29" y="565.437">@goal.setter max_vec_len(g : float)</text><text fill="#000000" font-family="sans-serif" font-size="14" lengthAdjust="spacing" textLength="140.6699" x="28.29" y="581.7339">@property current()</text><text fill="#000000" font-family="sans-serif" font-size="14" lengthAdjust="spacing" textLength="215.209" x="28.29" y="598.0307">@goal.setter current(a : array)</text><text fill="#000000" font-family="sans-serif" font-size="14" lengthAdjust="spacing" textLength="176.415" x="28.29" y="614.3276">advance_position() : bool</text></g><!--class ndarray--><g class="entity" data-entity="ndarray" data-source-line="83" data-uid="ent0015" id="entity_ndarray"><rect fill="#F1F1F1" height="64.2969" rx="2.5" ry="2.5" style="stroke:#181818;stroke-width:0.5;" width="125.2715" x="90.36" y="116.99"/><ellipse cx="122.7105" cy="132.99" fill="#ADD1B2" rx="11" ry="11" style="stroke:#181818;stroke-width:1;"/><path d="M125.6792,138.6306 Q125.1011,138.9275 124.4605,139.0681 Q123.8199,139.2244 123.1167,139.2244 Q120.6167,139.2244 119.2886,137.5838 Q117.9761,135.9275 117.9761,132.8025 Q117.9761,129.6775 119.2886,128.0213 Q120.6167,126.365 123.1167,126.365 Q123.8199,126.365 124.4605,126.5213 Q125.1167,126.6775 125.6792,126.9744 L125.6792,129.6931 Q125.0542,129.115 124.4605,128.8494 Q123.8667,128.5681 123.2417,128.5681 Q121.898,128.5681 121.2105,129.6463 Q120.523,130.7088 120.523,132.8025 Q120.523,134.8963 121.2105,135.9744 Q121.898,137.0369 123.2417,137.0369 Q123.8667,137.0369 124.4605,136.7713 Q125.0542,136.49 125.6792,135.9119 L125.6792,138.6306 Z " fill="#000000"/><text fill="#000000" font-family="sans-serif" font-size="14" lengthAdjust="spacing" textLength="54.7148" x="140.5662" y="137.8367">ndarray</text><line style="stroke:#181818;stroke-width:0.5;" x1="91.36" x2="214.6315" y1="148.99" y2="148.99"/><line style="stroke:#181818;stroke-width:0.5;" x1="91.36" x2="214.6315" y1="156.99" y2="156.99"/><text fill="#000000" font-family="sans-serif" font-size="14" lengthAdjust="spacing" textLength="113.2715" x="96.36" y="173.9851">array(object, ...)</text></g><g class="entity" data-entity="GMN16" data-source-line="87" data-uid="ent0017" id="entity_GMN16"><path d="M16.46,6 L16.46,31.1328 A0,0 0 0 0 16.46,31.1328 L149,31.1328 L153,116.71 L157,31.1328 L289.5381,31.1328 A0,0 0 0 0 289.5381,31.1328 L289.5381,16 L279.5381,6 L16.46,6 A0,0 0 0 0 16.46,6" fill="#FEFFDD" style="stroke:#181818;stroke-width:0.5;"/><path d="M279.5381,6 L279.5381,16 L289.5381,16 L279.5381,6" fill="#FEFFDD" style="stroke:#181818;stroke-width:0.5;"/><text fill="#000000" font-family="sans-serif" font-size="13" lengthAdjust="spacing" textLength="252.0781" x="22.46" y="23.0669">"array() is actually a package method"</text></g><!--reverse link Node to BaseStatusPub--><g class="link" data-entity-1="Node" data-entity-2="BaseStatusPub" data-source-line="89" data-uid="lnk19" id="link_Node_BaseStatusPub"><path codeLine="89" d="M707,191.55 C707,213.86 707,231.91 707,271.85" fill="none" id="Node-backto-BaseStatusPub" style="stroke:#181818;stroke-width:1;"/><polygon fill="none" points="707,173.55,701,191.55,713,191.55,707,173.55" style="stroke:#181818;stroke-width:1;"/></g><!--reverse link BaseStatusPub to MockRobotStatusPub--><g class="link" data-entity-1="BaseStatusPub" data-entity-2="MockRobotStatusPub" data-source-line="90" data-uid="lnk20" id="link_BaseStatusPub_MockRobotStatusPub"><path codeLine="90" d="M615.5061,728.43 C605.2461,754.86 601.85,763.63 593.13,786.09" fill="none" id="BaseStatusPub-backto-MockRobotStatusPub" style="stroke:#181818;stroke-width:1;"/><polygon fill="none" points="622.02,711.65,609.9127,726.2587,621.0994,730.6013,622.02,711.65" style="stroke:#181818;stroke-width:1;"/></g><!--reverse link Util to MockRobotStatusPub--><g class="link" data-entity-1="Util" data-entity-2="MockRobotStatusPub" data-source-line="91" data-uid="lnk21" id="link_Util_MockRobotStatusPub"><path codeLine="91" d="M964.6798,570.8063 C950.4598,623.9763 925.58,688.97 879,735.26 C834.76,779.24 773.65,809.16 716.88,829.18" fill="none" id="Util-backto-MockRobotStatusPub" style="stroke:#181818;stroke-width:1;"/><polygon fill="#181818" points="966.23,565.01,960.0405,572.671,964.9382,569.8402,967.7689,574.7379,966.23,565.01" style="stroke:#181818;stroke-width:1;"/></g><!--reverse link MockPosition to MockRobotStatusPub--><g class="link" data-entity-1="MockPosition" data-entity-2="MockRobotStatusPub" data-source-line="92" data-uid="lnk22" id="link_MockPosition_MockRobotStatusPub"><path codeLine="92" d="M238.3377,636.9169 C265.2377,676.3269 287.81,702.88 324,735.26 C348.69,757.36 377.75,777.2 406.93,794.35" fill="none" id="MockPosition-backto-MockRobotStatusPub" style="stroke:#181818;stroke-width:1;"/><polygon fill="none" points="228.19,622.05,233.382,640.2995,243.2933,633.5343,228.19,622.05" style="stroke:#181818;stroke-width:1;"/></g><!--reverse link TimeUtil to MockRobotStatusPub--><g class="link" data-entity-1="TimeUtil" data-entity-2="MockRobotStatusPub" data-source-line="93" data-uid="lnk23" id="link_TimeUtil_MockRobotStatusPub"><path codeLine="93" d="M435.4286,537.9282 C458.5986,598.0182 500.93,707.86 531.04,785.98" fill="none" id="TimeUtil-backto-MockRobotStatusPub" style="stroke:#181818;stroke-width:1;"/><polygon fill="#181818" points="433.27,532.33,432.7758,542.1664,435.0688,536.9952,440.2401,539.2883,433.27,532.33" style="stroke:#181818;stroke-width:1;"/></g><!--reverse link ndarray to MockPosition--><g class="link" data-entity-1="ndarray" data-entity-2="MockPosition" data-source-line="94" data-uid="lnk24" id="link_ndarray_MockPosition"><path codeLine="94" d="M153,187.57 C153,228.4 153,296.21 153,361.46" fill="none" id="ndarray-backto-MockPosition" style="stroke:#181818;stroke-width:1;"/><polygon fill="#181818" points="153,181.57,149,190.57,153,186.57,157,190.57,153,181.57" style="stroke:#181818;stroke-width:1;"/></g><!--SRC=[bLNBZjem5DtdAwvOWJJ31w1PLDst6lMnjXpd4jn9RDTsQ2FAl_VQYScJqI0XmEVSX-_JXeitNY9ihAXCkrUwm0rSCW1HSUVWAvspQvQP9EPbZQpniXfB_I3m9s4H0hWupxqKLoZHiw10vzfiTmUGoYyb2kuncZq64USjYLmdJgtEjHzvvJb9SU5xzv-vm-zai76lJHu569DAUiQsIXPFK7EnYo2T85s2CO979rCXcM7wZDRA0Y7TX9WchwGxeMM599y723-HSMZFKk02fwj9hPPmLUa_M4JwBBr45xpWe4DWEt8Sah9qgb2MfrpF2VfyCbORj6I30jtk9WW5EqEcOSt8SMGpQXJSd5d4DnCO0feHavXM_8N4T70wxIbl7kt0yYvnGUYI-kCQidlBB1DqmPnwQclnTqDD-GGMdT7AuKAhYrwge_wu5dKIsYF_c1wrTvgUUvCJItPhXnaPAjmrS0ZwdbJEGvBQQEPOQRuoVS8qxz7Il7E7lcekYlHzE9tSMektCE1yl2w-4FWjZFHqQE-CBJnIH7YaTl1OoSXswppM_LpUX3kkHBrErDA9DMObKKOx6OPhdgpN7h-bgTIyWc6TXbtsbvrHi0hLf9R41CDMDpvk6vhuH1XDwZDCDDQY2bk5MylRYCQlqI8PxFK13bouLWB3_pIa4I-x2yzrHZTVKntJPGfjRgE_zff-edYAgPFXnPahAdlAUEpWNEjgKHZLrAOT5qGLqKvVY_X_g_DVAAXTzllz3deJIdi4hmteuqtd09jEOGVIXTtLK4VGYeFahaP_qiKcoyB32o__df-dhrisVUkYm7ASihXINjQvIKFTCt1xqUyOIG4bEXdy3m00]--></g></svg>