<svg xmlns="http://www.w3.org/2000/svg" xmlns:xlink="http://www.w3.org/1999/xlink" contentStyleType="text/css" data-diagram-type="CLASS" height="955px" preserveAspectRatio="none" style="width:844px;height:955px;background:#FFFFFF;" version="1.1" viewBox="0 0 844 955" width="844px" zoomAndPan="magnify"><defs/><g><!--cluster rclpy--><g class="cluster" data-entity="rclpy" data-source-line="2" data-uid="ent0004" id="cluster_rclpy"><path d="M423.5,47.13 L463.6494,47.13 A3.75,3.75 0 0 1 466.1494,49.63 L473.1494,69.4269 L566.5,69.4269 A2.5,2.5 0 0 1 569,71.9269 L569,210.63 A2.5,2.5 0 0 1 566.5,213.13 L423.5,213.13 A2.5,2.5 0 0 1 421,210.63 L421,49.63 A2.5,2.5 0 0 1 423.5,47.13" fill="none" style="stroke:#000000;stroke-width:1.5;"/><line style="stroke:#000000;stroke-width:1.5;" x1="421" x2="473.1494" y1="69.4269" y2="69.4269"/><text fill="#000000" font-family="sans-serif" font-size="14" font-weight="bold" lengthAdjust="spacing" textLength="39.1494" x="425" y="62.1251">rclpy</text></g><!--cluster node--><g class="cluster" data-entity="node" data-source-line="1" data-uid="ent0002" id="cluster_node"><path d="M447.5,90.13 L487.6016,90.13 A3.75,3.75 0 0 1 490.1016,92.63 L497.1016,112.4269 L542.5,112.4269 A2.5,2.5 0 0 1 545,114.9269 L545,186.63 A2.5,2.5 0 0 1 542.5,189.13 L447.5,189.13 A2.5,2.5 0 0 1 445,186.63 L445,92.63 A2.5,2.5 0 0 1 447.5,90.13" fill="none" style="stroke:#000000;stroke-width:1.5;"/><line style="stroke:#000000;stroke-width:1.5;" x1="445" x2="497.1016" y1="112.4269" y2="112.4269"/><text fill="#000000" font-family="sans-serif" font-size="14" font-weight="bold" lengthAdjust="spacing" textLength="39.1016" x="449" y="105.1251">node</text></g><!--cluster robot_util--><g class="cluster" data-entity="robot_util" data-source-line="5" data-uid="ent0005" id="cluster_robot_util"><path d="M326.5,237.13 L403.6113,237.13 A3.75,3.75 0 0 1 406.1113,239.63 L413.1113,259.4269 L834.5,259.4269 A2.5,2.5 0 0 1 837,261.9269 L837,708.46 A2.5,2.5 0 0 1 834.5,710.96 L326.5,710.96 A2.5,2.5 0 0 1 324,708.46 L324,239.63 A2.5,2.5 0 0 1 326.5,237.13" fill="none" style="stroke:#000000;stroke-width:1.5;"/><line style="stroke:#000000;stroke-width:1.5;" x1="324" x2="413.1113" y1="259.4269" y2="259.4269"/><text fill="#000000" font-family="sans-serif" font-size="14" font-weight="bold" lengthAdjust="spacing" textLength="76.1113" x="328" y="252.1251">robot_util</text></g><!--cluster mock_data--><g class="cluster" data-entity="mock_data" data-source-line="42" data-uid="ent0008" id="cluster_mock_data"><path d="M326.5,734.96 L411.9238,734.96 A3.75,3.75 0 0 1 414.4238,737.46 L421.4238,757.2569 L663.5,757.2569 A2.5,2.5 0 0 1 666,759.7569 L666,945.54 A2.5,2.5 0 0 1 663.5,948.04 L326.5,948.04 A2.5,2.5 0 0 1 324,945.54 L324,737.46 A2.5,2.5 0 0 1 326.5,734.96" fill="none" style="stroke:#000000;stroke-width:1.5;"/><line style="stroke:#000000;stroke-width:1.5;" x1="324" x2="421.4238" y1="757.2569" y2="757.2569"/><text fill="#000000" font-family="sans-serif" font-size="14" font-weight="bold" lengthAdjust="spacing" textLength="84.4238" x="328" y="749.9551">mock_data</text></g><!--cluster mock_position--><g class="cluster" data-entity="mock_position" data-source-line="54" data-uid="ent0010" id="cluster_mock_position"><path d="M8.5,318.62 L122.1631,318.62 A3.75,3.75 0 0 1 124.6631,321.12 L131.6631,340.9169 L297.5,340.9169 A2.5,2.5 0 0 1 300,343.4169 L300,626.98 A2.5,2.5 0 0 1 297.5,629.48 L8.5,629.48 A2.5,2.5 0 0 1 6,626.98 L6,321.12 A2.5,2.5 0 0 1 8.5,318.62" fill="none" style="stroke:#000000;stroke-width:1.5;"/><line style="stroke:#000000;stroke-width:1.5;" x1="6" x2="131.6631" y1="340.9169" y2="340.9169"/><text fill="#000000" font-family="sans-serif" font-size="14" font-weight="bold" lengthAdjust="spacing" textLength="112.6631" x="10" y="333.6151">mock_position</text></g><!--cluster numpy--><g class="cluster" data-entity="numpy" data-source-line="73" data-uid="ent0012" id="cluster_numpy"><path d="M76.5,81.99 L131.1689,81.99 A3.75,3.75 0 0 1 133.6689,84.49 L140.6689,104.2869 L229.5,104.2869 A2.5,2.5 0 0 1 232,106.7869 L232,194.78 A2.5,2.5 0 0 1 229.5,197.28 L76.5,197.28 A2.5,2.5 0 0 1 74,194.78 L74,84.49 A2.5,2.5 0 0 1 76.5,81.99" fill="none" style="stroke:#000000;stroke-width:1.5;"/><line style="stroke:#000000;stroke-width:1.5;" x1="74" x2="140.6689" y1="104.2869" y2="104.2869"/><text fill="#000000" font-family="sans-serif" font-size="14" font-weight="bold" lengthAdjust="spacing" textLength="53.6689" x="78" y="96.9851">numpy</text></g><!--class Node--><g class="entity" data-entity="Node" data-source-line="2" data-uid="ent0003" id="entity_Node"><rect fill="#F1F1F1" height="48" rx="2.5" ry="2.5" style="stroke:#181818;stroke-width:0.5;" width="68.5381" x="460.73" y="125.13"/><ellipse cx="475.73" cy="141.13" fill="#ADD1B2" rx="11" ry="11" style="stroke:#181818;stroke-width:1;"/><path d="M478.6988,146.7706 Q478.1206,147.0675 477.48,147.2081 Q476.8394,147.3644 476.1363,147.3644 Q473.6363,147.3644 472.3081,145.7238 Q470.9956,144.0675 470.9956,140.9425 Q470.9956,137.8175 472.3081,136.1613 Q473.6363,134.505 476.1363,134.505 Q476.8394,134.505 477.48,134.6613 Q478.1363,134.8175 478.6988,135.1144 L478.6988,137.8331 Q478.0738,137.255 477.48,136.9894 Q476.8863,136.7081 476.2613,136.7081 Q474.9175,136.7081 474.23,137.7863 Q473.5425,138.8488 473.5425,140.9425 Q473.5425,143.0363 474.23,144.1144 Q474.9175,145.1769 476.2613,145.1769 Q476.8863,145.1769 477.48,144.9113 Q478.0738,144.63 478.6988,144.0519 L478.6988,146.7706 Z " fill="#000000"/><text fill="#000000" font-family="sans-serif" font-size="14" lengthAdjust="spacing" textLength="36.5381" x="489.73" y="145.9767">Node</text><line style="stroke:#181818;stroke-width:0.5;" x1="461.73" x2="528.2681" y1="157.13" y2="157.13"/><line style="stroke:#181818;stroke-width:0.5;" x1="461.73" x2="528.2681" y1="165.13" y2="165.13"/></g><!--class BaseStatusPub--><g class="entity" data-entity="BaseStatusPub" data-source-line="6" data-uid="ent0006" id="entity_BaseStatusPub"><rect fill="#F1F1F1" height="422.8281" rx="2.5" ry="2.5" style="stroke:#181818;stroke-width:0.5;" width="309.2676" x="340.37" y="272.13"/><ellipse cx="438.3016" cy="288.13" fill="#ADD1B2" rx="11" ry="11" style="stroke:#181818;stroke-width:1;"/><path d="M441.2704,293.7706 Q440.6923,294.0675 440.0516,294.2081 Q439.411,294.3644 438.7079,294.3644 Q436.2079,294.3644 434.8798,292.7238 Q433.5673,291.0675 433.5673,287.9425 Q433.5673,284.8175 434.8798,283.1613 Q436.2079,281.505 438.7079,281.505 Q439.411,281.505 440.0516,281.6613 Q440.7079,281.8175 441.2704,282.1144 L441.2704,284.8331 Q440.6454,284.255 440.0516,283.9894 Q439.4579,283.7081 438.8329,283.7081 Q437.4891,283.7081 436.8016,284.7863 Q436.1141,285.8488 436.1141,287.9425 Q436.1141,290.0363 436.8016,291.1144 Q437.4891,292.1769 438.8329,292.1769 Q439.4579,292.1769 440.0516,291.9113 Q440.6454,291.63 441.2704,291.0519 L441.2704,293.7706 Z " fill="#000000"/><text fill="#000000" font-family="sans-serif" font-size="14" lengthAdjust="spacing" textLength="104.9043" x="458.8016" y="292.9767">BaseStatusPub</text><line style="stroke:#181818;stroke-width:0.5;" x1="341.37" x2="648.6376" y1="304.13" y2="304.13"/><text fill="#000000" font-family="sans-serif" font-size="14" lengthAdjust="spacing" textLength="67.5186" x="346.37" y="321.1251">__nid : int</text><text fill="#000000" font-family="sans-serif" font-size="14" lengthAdjust="spacing" textLength="75.7832" x="346.37" y="337.422">__mac : int</text><text fill="#000000" font-family="sans-serif" font-size="14" lengthAdjust="spacing" textLength="157.3975" x="346.37" y="353.7189">__please_override : str</text><text fill="#000000" font-family="sans-serif" font-size="14" lengthAdjust="spacing" textLength="125.8359" x="346.37" y="370.0157">__publishers : dict</text><text fill="#000000" font-family="sans-serif" font-size="14" lengthAdjust="spacing" textLength="111.0225" x="346.37" y="386.3126">__services : dict</text><text fill="#000000" font-family="sans-serif" font-size="14" lengthAdjust="spacing" textLength="103.9678" x="346.37" y="402.6095">__actions : dict</text><text fill="#000000" font-family="sans-serif" font-size="14" lengthAdjust="spacing" textLength="173.0039" x="346.37" y="418.9064">__allowed_activities : set</text><text fill="#000000" font-family="sans-serif" font-size="14" lengthAdjust="spacing" textLength="97.7607" x="346.37" y="435.2032">__activity : str</text><text fill="#000000" font-family="sans-serif" font-size="14" lengthAdjust="spacing" textLength="98.2598" x="346.37" y="451.5001">__timers : dict</text><line style="stroke:#181818;stroke-width:0.5;" x1="341.37" x2="648.6376" y1="458.8019" y2="458.8019"/><text fill="#000000" font-family="sans-serif" font-size="14" lengthAdjust="spacing" textLength="121.5293" x="346.37" y="475.797">__init__(nid, mac)</text><text fill="#000000" font-family="sans-serif" font-size="14" lengthAdjust="spacing" textLength="111.2617" x="346.37" y="492.0939">@property nid()</text><text fill="#000000" font-family="sans-serif" font-size="14" lengthAdjust="spacing" textLength="119.5264" x="346.37" y="508.3907">@property mac()</text><text fill="#000000" font-family="sans-serif" font-size="14" lengthAdjust="spacing" textLength="161.8682" x="346.37" y="524.6876">@property publishers()</text><text fill="#000000" font-family="sans-serif" font-size="14" lengthAdjust="spacing" textLength="147.0547" x="346.37" y="540.9845">@property services()</text><text fill="#000000" font-family="sans-serif" font-size="14" lengthAdjust="spacing" textLength="140" x="346.37" y="557.2814">@property actions()</text><text fill="#000000" font-family="sans-serif" font-size="14" lengthAdjust="spacing" textLength="213.6025" x="346.37" y="573.5782">@property allowed_activities()</text><text fill="#000000" font-family="sans-serif" font-size="14" lengthAdjust="spacing" textLength="134.292" x="346.37" y="589.8751">@property timers()</text><text fill="#000000" font-family="sans-serif" font-size="14" lengthAdjust="spacing" textLength="141.2168" x="346.37" y="606.172">@property activity()</text><text fill="#000000" font-family="sans-serif" font-size="14" lengthAdjust="spacing" textLength="219.0234" x="346.37" y="622.4689">@activity.setter activity(a : str)</text><text fill="#000000" font-family="sans-serif" font-size="14" lengthAdjust="spacing" textLength="4.4502" x="346.37" y="638.7657"> </text><text fill="#000000" font-family="sans-serif" font-size="14" lengthAdjust="spacing" textLength="281.5723" x="346.37" y="655.0626">set_activity_callback(request, response)</text><text fill="#000000" font-family="sans-serif" font-size="14" lengthAdjust="spacing" textLength="284.9766" x="346.37" y="671.3595">service_info_callback(request, response)</text><text fill="#000000" font-family="sans-serif" font-size="14" lengthAdjust="spacing" textLength="297.2676" x="346.37" y="687.6564">interface_info_callback(request, response)</text></g><!--class Util--><g class="entity" data-entity="Util" data-source-line="33" data-uid="ent0007" id="entity_Util"><rect fill="#F1F1F1" height="129.4844" rx="2.5" ry="2.5" style="stroke:#181818;stroke-width:0.5;" width="136.6328" x="684.68" y="418.81"/><ellipse cx="736.9886" cy="434.81" fill="#ADD1B2" rx="11" ry="11" style="stroke:#181818;stroke-width:1;"/><path d="M739.9573,440.4506 Q739.3792,440.7475 738.7386,440.8881 Q738.098,441.0444 737.3948,441.0444 Q734.8948,441.0444 733.5667,439.4037 Q732.2542,437.7475 732.2542,434.6225 Q732.2542,431.4975 733.5667,429.8412 Q734.8948,428.185 737.3948,428.185 Q738.098,428.185 738.7386,428.3412 Q739.3948,428.4975 739.9573,428.7944 L739.9573,431.5131 Q739.3323,430.935 738.7386,430.6694 Q738.1448,430.3881 737.5198,430.3881 Q736.1761,430.3881 735.4886,431.4662 Q734.8011,432.5287 734.8011,434.6225 Q734.8011,436.7162 735.4886,437.7944 Q736.1761,438.8569 737.5198,438.8569 Q738.1448,438.8569 738.7386,438.5912 Q739.3323,438.31 739.9573,437.7319 L739.9573,440.4506 Z " fill="#000000"/><text fill="#000000" font-family="sans-serif" font-size="14" lengthAdjust="spacing" textLength="23.5156" x="757.4886" y="439.6567">Util</text><line style="stroke:#181818;stroke-width:0.5;" x1="685.68" x2="820.3128" y1="450.81" y2="450.81"/><line style="stroke:#181818;stroke-width:0.5;" x1="685.68" x2="820.3128" y1="458.81" y2="458.81"/><text fill="#000000" font-family="sans-serif" font-size="14" lengthAdjust="spacing" text-decoration="underline" textLength="70.8271" x="690.68" y="475.8051">get_mac()</text><text fill="#000000" font-family="sans-serif" font-size="14" lengthAdjust="spacing" text-decoration="underline" textLength="124.6328" x="690.68" y="492.102">get_nid(mac : str)</text><text fill="#000000" font-family="sans-serif" font-size="14" lengthAdjust="spacing" text-decoration="underline" textLength="92.0117" x="690.68" y="508.3989">get_battery()</text><text fill="#000000" font-family="sans-serif" font-size="14" lengthAdjust="spacing" text-decoration="underline" textLength="66.3701" x="690.68" y="524.6957">get_cpu()</text><text fill="#000000" font-family="sans-serif" font-size="14" lengthAdjust="spacing" text-decoration="underline" textLength="53.6895" x="690.68" y="540.9926">get_ip()</text></g><!--class MockRobotStatusPub--><g class="entity" data-entity="MockRobotStatusPub" data-source-line="43" data-uid="ent0009" id="entity_MockRobotStatusPub"><rect fill="#F1F1F1" height="162.0781" rx="2.5" ry="2.5" style="stroke:#181818;stroke-width:0.5;" width="309.2676" x="340.37" y="769.96"/><ellipse cx="416.5053" cy="785.96" fill="#ADD1B2" rx="11" ry="11" style="stroke:#181818;stroke-width:1;"/><path d="M419.474,791.6006 Q418.8959,791.8975 418.2553,792.0381 Q417.6146,792.1944 416.9115,792.1944 Q414.4115,792.1944 413.0834,790.5537 Q411.7709,788.8975 411.7709,785.7725 Q411.7709,782.6475 413.0834,780.9912 Q414.4115,779.335 416.9115,779.335 Q417.6146,779.335 418.2553,779.4912 Q418.9115,779.6475 419.474,779.9444 L419.474,782.6631 Q418.849,782.085 418.2553,781.8194 Q417.6615,781.5381 417.0365,781.5381 Q415.6928,781.5381 415.0053,782.6162 Q414.3178,783.6787 414.3178,785.7725 Q414.3178,787.8662 415.0053,788.9444 Q415.6928,790.0069 417.0365,790.0069 Q417.6615,790.0069 418.2553,789.7412 Q418.849,789.46 419.474,788.8819 L419.474,791.6006 Z " fill="#000000"/><text fill="#000000" font-family="sans-serif" font-size="14" lengthAdjust="spacing" textLength="148.4971" x="437.0053" y="790.8067">MockRobotStatusPub</text><line style="stroke:#181818;stroke-width:0.5;" x1="341.37" x2="648.6376" y1="801.96" y2="801.96"/><line style="stroke:#181818;stroke-width:0.5;" x1="341.37" x2="648.6376" y1="809.96" y2="809.96"/><text fill="#000000" font-family="sans-serif" font-size="14" lengthAdjust="spacing" textLength="121.5293" x="346.37" y="826.9551">__init__(nid, mac)</text><text fill="#000000" font-family="sans-serif" font-size="14" lengthAdjust="spacing" textLength="281.5723" x="346.37" y="843.252">set_activity_callback(request, response)</text><text fill="#000000" font-family="sans-serif" font-size="14" lengthAdjust="spacing" textLength="284.9766" x="346.37" y="859.5489">service_info_callback(request, response)</text><text fill="#000000" font-family="sans-serif" font-size="14" lengthAdjust="spacing" textLength="297.2676" x="346.37" y="875.8457">interface_info_callback(request, response)</text><text fill="#000000" font-family="sans-serif" font-size="14" lengthAdjust="spacing" textLength="170.249" x="346.37" y="892.1426">system_timer_callback()</text><text fill="#000000" font-family="sans-serif" font-size="14" lengthAdjust="spacing" textLength="145.7012" x="346.37" y="908.4395">geo_timer_callback()</text><text fill="#000000" font-family="sans-serif" font-size="14" lengthAdjust="spacing" textLength="152.1543" x="346.37" y="924.7364">misc_timer_callback()</text></g><!--class MockPosition--><g class="entity" data-entity="MockPosition" data-source-line="55" data-uid="ent0011" id="entity_MockPosition"><rect fill="#F1F1F1" height="259.8594" rx="2.5" ry="2.5" style="stroke:#181818;stroke-width:0.5;" width="261.4297" x="22.29" y="353.62"/><ellipse cx="103.0258" cy="369.62" fill="#ADD1B2" rx="11" ry="11" style="stroke:#181818;stroke-width:1;"/><path d="M105.9946,375.2606 Q105.4165,375.5575 104.7758,375.6981 Q104.1352,375.8544 103.4321,375.8544 Q100.9321,375.8544 99.604,374.2138 Q98.2915,372.5575 98.2915,369.4325 Q98.2915,366.3075 99.604,364.6513 Q100.9321,362.995 103.4321,362.995 Q104.1352,362.995 104.7758,363.1513 Q105.4321,363.3075 105.9946,363.6044 L105.9946,366.3231 Q105.3696,365.745 104.7758,365.4794 Q104.1821,365.1981 103.5571,365.1981 Q102.2133,365.1981 101.5258,366.2763 Q100.8383,367.3388 100.8383,369.4325 Q100.8383,371.5263 101.5258,372.6044 Q102.2133,373.6669 103.5571,373.6669 Q104.1821,373.6669 104.7758,373.4013 Q105.3696,373.12 105.9946,372.5419 L105.9946,375.2606 Z " fill="#000000"/><text fill="#000000" font-family="sans-serif" font-size="14" lengthAdjust="spacing" textLength="91.458" x="123.5258" y="374.4667">MockPosition</text><line style="stroke:#181818;stroke-width:0.5;" x1="23.29" x2="282.7197" y1="385.62" y2="385.62"/><text fill="#000000" font-family="sans-serif" font-size="14" lengthAdjust="spacing" textLength="75.79" x="28.29" y="402.6151">__goal : int</text><text fill="#000000" font-family="sans-serif" font-size="14" lengthAdjust="spacing" textLength="149.543" x="28.29" y="418.912">__max_vec_len : float</text><text fill="#000000" font-family="sans-serif" font-size="14" lengthAdjust="spacing" textLength="137.7783" x="28.29" y="435.2089">__mock_routes : list</text><text fill="#000000" font-family="sans-serif" font-size="14" lengthAdjust="spacing" textLength="91.1777" x="28.29" y="451.5057">__points : list</text><text fill="#000000" font-family="sans-serif" font-size="14" lengthAdjust="spacing" textLength="115.6299" x="28.29" y="467.8026">__current : array</text><line style="stroke:#181818;stroke-width:0.5;" x1="23.29" x2="282.7197" y1="475.1044" y2="475.1044"/><text fill="#000000" font-family="sans-serif" font-size="14" lengthAdjust="spacing" textLength="179.2109" x="28.29" y="492.0995">@property mock_routes()</text><text fill="#000000" font-family="sans-serif" font-size="14" lengthAdjust="spacing" textLength="119.5332" x="28.29" y="508.3964">@property goal()</text><text fill="#000000" font-family="sans-serif" font-size="14" lengthAdjust="spacing" textLength="175.6768" x="28.29" y="524.6932">@goal.setter goal(g : int)</text><text fill="#000000" font-family="sans-serif" font-size="14" lengthAdjust="spacing" textLength="180.0859" x="28.29" y="540.9901">@property max_vec_len()</text><text fill="#000000" font-family="sans-serif" font-size="14" lengthAdjust="spacing" textLength="249.4297" x="28.29" y="557.287">@goal.setter max_vec_len(g : float)</text><text fill="#000000" font-family="sans-serif" font-size="14" lengthAdjust="spacing" textLength="140.6699" x="28.29" y="573.5839">@property current()</text><text fill="#000000" font-family="sans-serif" font-size="14" lengthAdjust="spacing" textLength="215.209" x="28.29" y="589.8807">@goal.setter current(a : array)</text><text fill="#000000" font-family="sans-serif" font-size="14" lengthAdjust="spacing" textLength="176.415" x="28.29" y="606.1776">advance_position() : bool</text></g><!--class ndarray--><g class="entity" data-entity="ndarray" data-source-line="74" data-uid="ent0013" id="entity_ndarray"><rect fill="#F1F1F1" height="64.2969" rx="2.5" ry="2.5" style="stroke:#181818;stroke-width:0.5;" width="125.2715" x="90.36" y="116.99"/><ellipse cx="122.7105" cy="132.99" fill="#ADD1B2" rx="11" ry="11" style="stroke:#181818;stroke-width:1;"/><path d="M125.6792,138.6306 Q125.1011,138.9275 124.4605,139.0681 Q123.8199,139.2244 123.1167,139.2244 Q120.6167,139.2244 119.2886,137.5838 Q117.9761,135.9275 117.9761,132.8025 Q117.9761,129.6775 119.2886,128.0213 Q120.6167,126.365 123.1167,126.365 Q123.8199,126.365 124.4605,126.5213 Q125.1167,126.6775 125.6792,126.9744 L125.6792,129.6931 Q125.0542,129.115 124.4605,128.8494 Q123.8667,128.5681 123.2417,128.5681 Q121.898,128.5681 121.2105,129.6463 Q120.523,130.7088 120.523,132.8025 Q120.523,134.8963 121.2105,135.9744 Q121.898,137.0369 123.2417,137.0369 Q123.8667,137.0369 124.4605,136.7713 Q125.0542,136.49 125.6792,135.9119 L125.6792,138.6306 Z " fill="#000000"/><text fill="#000000" font-family="sans-serif" font-size="14" lengthAdjust="spacing" textLength="54.7148" x="140.5662" y="137.8367">ndarray</text><line style="stroke:#181818;stroke-width:0.5;" x1="91.36" x2="214.6315" y1="148.99" y2="148.99"/><line style="stroke:#181818;stroke-width:0.5;" x1="91.36" x2="214.6315" y1="156.99" y2="156.99"/><text fill="#000000" font-family="sans-serif" font-size="14" lengthAdjust="spacing" textLength="113.2715" x="96.36" y="173.9851">array(object, ...)</text></g><g class="entity" data-entity="GMN14" data-source-line="78" data-uid="ent0015" id="entity_GMN14"><path d="M16.46,6 L16.46,31.1328 A0,0 0 0 0 16.46,31.1328 L149,31.1328 L153,116.7 L157,31.1328 L289.5381,31.1328 A0,0 0 0 0 289.5381,31.1328 L289.5381,16 L279.5381,6 L16.46,6 A0,0 0 0 0 16.46,6" fill="#FEFFDD" style="stroke:#181818;stroke-width:0.5;"/><path d="M279.5381,6 L279.5381,16 L289.5381,16 L279.5381,6" fill="#FEFFDD" style="stroke:#181818;stroke-width:0.5;"/><text fill="#000000" font-family="sans-serif" font-size="13" lengthAdjust="spacing" textLength="252.0781" x="22.46" y="23.0669">"array() is actually a package method"</text></g><!--reverse link Node to BaseStatusPub--><g class="link" data-entity-1="Node" data-entity-2="BaseStatusPub" data-source-line="80" data-uid="lnk17" id="link_Node_BaseStatusPub"><path codeLine="80" d="M495,191.51 C495,213.9 495,232.09 495,271.97" fill="none" id="Node-backto-BaseStatusPub" style="stroke:#181818;stroke-width:1;"/><polygon fill="none" points="495,173.51,489,191.51,501,191.51,495,173.51" style="stroke:#181818;stroke-width:1;"/></g><!--reverse link BaseStatusPub to MockRobotStatusPub--><g class="link" data-entity-1="BaseStatusPub" data-entity-2="MockRobotStatusPub" data-source-line="81" data-uid="lnk18" id="link_BaseStatusPub_MockRobotStatusPub"><path codeLine="81" d="M495,713.28 C495,739.59 495,747.1 495,769.56" fill="none" id="BaseStatusPub-backto-MockRobotStatusPub" style="stroke:#181818;stroke-width:1;"/><polygon fill="none" points="495,695.28,489,713.28,501,713.28,495,695.28" style="stroke:#181818;stroke-width:1;"/></g><!--reverse link Util to MockRobotStatusPub--><g class="link" data-entity-1="Util" data-entity-2="MockRobotStatusPub" data-source-line="82" data-uid="lnk19" id="link_Util_MockRobotStatusPub"><path codeLine="82" d="M738.429,554.5494 C725.879,604.5394 704.64,667.95 667,718.96 C653.4,737.39 636.52,754.47 618.69,769.81" fill="none" id="Util-backto-MockRobotStatusPub" style="stroke:#181818;stroke-width:1;"/><polygon fill="#181818" points="739.89,548.73,733.8189,556.4851,738.6725,553.5795,741.5782,558.4331,739.89,548.73" style="stroke:#181818;stroke-width:1;"/></g><!--reverse link MockPosition to MockRobotStatusPub--><g class="link" data-entity-1="MockPosition" data-entity-2="MockRobotStatusPub" data-source-line="83" data-uid="lnk20" id="link_MockPosition_MockRobotStatusPub"><path codeLine="83" d="M247.8228,628.5049 C273.7028,664.2149 293.03,687.25 324,718.96 C341.25,736.62 360.97,753.89 380.74,769.78" fill="none" id="MockPosition-backto-MockRobotStatusPub" style="stroke:#181818;stroke-width:1;"/><polygon fill="none" points="237.26,613.93,242.9645,632.0258,252.6811,624.9839,237.26,613.93" style="stroke:#181818;stroke-width:1;"/></g><!--reverse link ndarray to MockPosition--><g class="link" data-entity-1="ndarray" data-entity-2="MockPosition" data-source-line="84" data-uid="lnk21" id="link_ndarray_MockPosition"><path codeLine="84" d="M153,187.71 C153,227.09 153,290.85 153,353.29" fill="none" id="ndarray-backto-MockPosition" style="stroke:#181818;stroke-width:1;"/><polygon fill="#181818" points="153,181.71,149,190.71,153,186.71,157,190.71,153,181.71" style="stroke:#181818;stroke-width:1;"/></g><!--SRC=[bLNRRjmW47ttLw1zigLaFo3AGzNtLb6hFbiOppeqcA60Dx7I_VUEmVYsZfgLLYjppimmbmCOBbvu0-nWXJBzKMCD1_QUCIOKTuvzftLsoJ8pcM65lkoyL4kphzp1JyzzvvwwAk1bARNqPPbhMT-nbeiYWBHY3qng7rO4BrP60OKfyGpMoXg8STv6fgkKTCzW7O6r5D7UWJrB0IkC2ozHho6by1NgG9sbby71mMnFOB_OpCjsjH7zlXYB1YoPKVvviKAeXWqoPxiXKi8RUCnvYrwblJ68UUx46kg9S5eTgLmFTcPvhBV8o8gugGsbe6qhcdLkuKy7pjyn2yvGTb04qr00ZVQ4_p6beO8zySyPNx99IRz8MK50ZBqxKfGK5zPGXgdD6tYOHrHHAEUAh_XGUB_dAaot1qkJnvIMgczHl9Grztmf-cy4_XYEmrhv7sZ_faRVrEeRcqsnU-UXZKAVZIFN0EuJhNHYZzbfb44d1qblc_KqubER6kHgkW3YXV1Mda6K2ZJX9uLyOeR05ZiVZY-ThqGO9FSD9ZfhGNi2kRMy3sZuMnpRETvOuCmDQILm-4x79-1DJ7ZhiyXyptL9DwcqROmnxJt_HF5KKxJXzPbh6dlgU5uGNo6ggy7ehZNzSY2w3d76MOJl7AlV84Wkn-EnO6C8ZHwOHyFmDFayi4DqA9XqmwtIaIBeyc5fknRyCzQ7B1lU3_Ruz_v-_KHawmSZ65mVfonS1e_xt4fG7mL82QSOoU4V]--></g></svg>