<svg xmlns="http://www.w3.org/2000/svg" xmlns:xlink="http://www.w3.org/1999/xlink" contentStyleType="text/css" data-diagram-type="CLASS" height="557px" preserveAspectRatio="none" style="width:2025px;height:557px;background:#FFFFFF;" version="1.1" viewBox="0 0 2025 557" width="2025px" zoomAndPan="magnify"><defs/><g><!--cluster custom_interfaces--><g class="cluster" data-entity="custom_interfaces" data-source-line="2" data-uid="ent0004" id="cluster_custom_interfaces"><path d="M8.5,6 L153.5195,6 A3.75,3.75 0 0 1 156.0195,8.5 L163.0195,28.2969 L2015.5,28.2969 A2.5,2.5 0 0 1 2018,30.7969 L2018,548.47 A2.5,2.5 0 0 1 2015.5,550.97 L8.5,550.97 A2.5,2.5 0 0 1 6,548.47 L6,8.5 A2.5,2.5 0 0 1 8.5,6" fill="none" style="stroke:#000000;stroke-width:1.5;"/><line style="stroke:#000000;stroke-width:1.5;" x1="6" x2="163.0195" y1="28.2969" y2="28.2969"/><text fill="#000000" font-family="sans-serif" font-size="14" font-weight="bold" lengthAdjust="spacing" textLength="144.0195" x="10" y="20.9951">custom_interfaces</text></g><!--cluster msg--><g class="cluster" data-entity="msg" data-source-line="1" data-uid="ent0002" id="cluster_msg"><path d="M32.5,49 L66.4424,49 A3.75,3.75 0 0 1 68.9424,51.5 L75.9424,71.2969 L1177.5,71.2969 A2.5,2.5 0 0 1 1180,73.7969 L1180,516.32 A2.5,2.5 0 0 1 1177.5,518.82 L32.5,518.82 A2.5,2.5 0 0 1 30,516.32 L30,51.5 A2.5,2.5 0 0 1 32.5,49" fill="none" style="stroke:#000000;stroke-width:1.5;"/><line style="stroke:#000000;stroke-width:1.5;" x1="30" x2="75.9424" y1="71.2969" y2="71.2969"/><text fill="#000000" font-family="sans-serif" font-size="14" font-weight="bold" lengthAdjust="spacing" textLength="32.9424" x="34" y="63.9951">msg</text></g><!--cluster srv--><g class="cluster" data-entity="srv" data-source-line="65" data-uid="ent0021" id="cluster_srv"><path d="M1206.5,73.45 L1231.8633,73.45 A3.75,3.75 0 0 1 1234.3633,75.95 L1241.3633,95.7469 L1991.5,95.7469 A2.5,2.5 0 0 1 1994,98.2469 L1994,524.47 A2.5,2.5 0 0 1 1991.5,526.97 L1206.5,526.97 A2.5,2.5 0 0 1 1204,524.47 L1204,75.95 A2.5,2.5 0 0 1 1206.5,73.45" fill="none" style="stroke:#000000;stroke-width:1.5;"/><line style="stroke:#000000;stroke-width:1.5;" x1="1204" x2="1241.3633" y1="95.7469" y2="95.7469"/><text fill="#000000" font-family="sans-serif" font-size="14" font-weight="bold" lengthAdjust="spacing" textLength="24.3633" x="1208" y="88.4451">srv</text></g><!--class Header--><g class="entity" data-entity="Header" data-source-line="2" data-uid="ent0003" id="entity_Header"><rect fill="#F1F1F1" height="96.8906" rx="2.5" ry="2.5" style="stroke:#181818;stroke-width:0.5;" width="100.9971" x="541.5" y="273.49"/><ellipse cx="564.6097" cy="289.49" fill="#ADD1B2" rx="11" ry="11" style="stroke:#181818;stroke-width:1;"/><path d="M567.5784,295.1306 Q567.0003,295.4275 566.3597,295.5681 Q565.719,295.7244 565.0159,295.7244 Q562.5159,295.7244 561.1878,294.0838 Q559.8753,292.4275 559.8753,289.3025 Q559.8753,286.1775 561.1878,284.5213 Q562.5159,282.865 565.0159,282.865 Q565.719,282.865 566.3597,283.0213 Q567.0159,283.1775 567.5784,283.4744 L567.5784,286.1931 Q566.9534,285.615 566.3597,285.3494 Q565.7659,285.0681 565.1409,285.0681 Q563.7972,285.0681 563.1097,286.1463 Q562.4222,287.2088 562.4222,289.3025 Q562.4222,291.3963 563.1097,292.4744 Q563.7972,293.5369 565.1409,293.5369 Q565.7659,293.5369 566.3597,293.2713 Q566.9534,292.99 567.5784,292.4119 L567.5784,295.1306 Z " fill="#000000"/><text fill="#000000" font-family="sans-serif" font-size="14" lengthAdjust="spacing" textLength="50.9756" x="580.4118" y="294.3367">Header</text><line style="stroke:#181818;stroke-width:0.5;" x1="542.5" x2="641.4971" y1="305.49" y2="305.49"/><text fill="#000000" font-family="sans-serif" font-size="14" lengthAdjust="spacing" textLength="49.3555" x="547.5" y="322.4851">nid: str</text><text fill="#000000" font-family="sans-serif" font-size="14" lengthAdjust="spacing" textLength="88.9971" x="547.5" y="338.782">frame_id: str</text><text fill="#000000" font-family="sans-serif" font-size="14" lengthAdjust="spacing" textLength="75.4893" x="547.5" y="355.0789">time: Time</text><line style="stroke:#181818;stroke-width:0.5;" x1="542.5" x2="641.4971" y1="362.3806" y2="362.3806"/></g><!--class Time--><g class="entity" data-entity="Time" data-source-line="8" data-uid="ent0005" id="entity_Time"><rect fill="#F1F1F1" height="64.2969" rx="2.5" ry="2.5" style="stroke:#181818;stroke-width:0.5;" width="66.6924" x="558.65" y="438.52"/><ellipse cx="573.65" cy="454.52" fill="#ADD1B2" rx="11" ry="11" style="stroke:#181818;stroke-width:1;"/><path d="M576.6188,460.1606 Q576.0406,460.4575 575.4,460.5981 Q574.7594,460.7544 574.0563,460.7544 Q571.5563,460.7544 570.2281,459.1138 Q568.9156,457.4575 568.9156,454.3325 Q568.9156,451.2075 570.2281,449.5513 Q571.5563,447.895 574.0563,447.895 Q574.7594,447.895 575.4,448.0513 Q576.0563,448.2075 576.6188,448.5044 L576.6188,451.2231 Q575.9938,450.645 575.4,450.3794 Q574.8063,450.0981 574.1813,450.0981 Q572.8375,450.0981 572.15,451.1763 Q571.4625,452.2388 571.4625,454.3325 Q571.4625,456.4263 572.15,457.5044 Q572.8375,458.5669 574.1813,458.5669 Q574.8063,458.5669 575.4,458.3013 Q575.9938,458.02 576.6188,457.4419 L576.6188,460.1606 Z " fill="#000000"/><text fill="#000000" font-family="sans-serif" font-size="14" lengthAdjust="spacing" textLength="34.6924" x="587.65" y="459.3667">Time</text><line style="stroke:#181818;stroke-width:0.5;" x1="559.65" x2="624.3424" y1="470.52" y2="470.52"/><text fill="#000000" font-family="sans-serif" font-size="14" lengthAdjust="spacing" textLength="51.0234" x="564.65" y="487.5151">sec: int</text><line style="stroke:#181818;stroke-width:0.5;" x1="559.65" x2="624.3424" y1="494.8169" y2="494.8169"/></g><!--class RobotBattery--><g class="entity" data-entity="RobotBattery" data-source-line="12" data-uid="ent0006" id="entity_RobotBattery"><rect fill="#F1F1F1" height="80.5938" rx="2.5" ry="2.5" style="stroke:#181818;stroke-width:0.5;" width="125.9141" x="46.04" y="108.45"/><ellipse cx="61.4285" cy="124.45" fill="#ADD1B2" rx="11" ry="11" style="stroke:#181818;stroke-width:1;"/><path d="M64.3972,130.0906 Q63.8191,130.3875 63.1785,130.5281 Q62.5379,130.6844 61.8347,130.6844 Q59.3347,130.6844 58.0066,129.0438 Q56.6941,127.3875 56.6941,124.2625 Q56.6941,121.1375 58.0066,119.4813 Q59.3347,117.825 61.8347,117.825 Q62.5379,117.825 63.1785,117.9813 Q63.8347,118.1375 64.3972,118.4344 L64.3972,121.1531 Q63.7722,120.575 63.1785,120.3094 Q62.5847,120.0281 61.9597,120.0281 Q60.616,120.0281 59.9285,121.1063 Q59.241,122.1688 59.241,124.2625 Q59.241,126.3563 59.9285,127.4344 Q60.616,128.4969 61.9597,128.4969 Q62.5847,128.4969 63.1785,128.2313 Q63.7722,127.95 64.3972,127.3719 L64.3972,130.0906 Z " fill="#000000"/><text fill="#000000" font-family="sans-serif" font-size="14" lengthAdjust="spacing" textLength="93.0508" x="75.5148" y="129.2967">RobotBattery</text><line style="stroke:#181818;stroke-width:0.5;" x1="47.04" x2="170.9541" y1="140.45" y2="140.45"/><text fill="#000000" font-family="sans-serif" font-size="14" lengthAdjust="spacing" textLength="113.9141" x="52.04" y="157.4451">header : Header</text><text fill="#000000" font-family="sans-serif" font-size="14" lengthAdjust="spacing" textLength="76.6035" x="52.04" y="173.742">data : float</text><line style="stroke:#181818;stroke-width:0.5;" x1="47.04" x2="170.9541" y1="181.0438" y2="181.0438"/></g><!--class RobotCpu--><g class="entity" data-entity="RobotCpu" data-source-line="17" data-uid="ent0007" id="entity_RobotCpu"><rect fill="#F1F1F1" height="80.5938" rx="2.5" ry="2.5" style="stroke:#181818;stroke-width:0.5;" width="125.9141" x="207.04" y="108.45"/><ellipse cx="233.355" cy="124.45" fill="#ADD1B2" rx="11" ry="11" style="stroke:#181818;stroke-width:1;"/><path d="M236.3238,130.0906 Q235.7457,130.3875 235.105,130.5281 Q234.4644,130.6844 233.7613,130.6844 Q231.2613,130.6844 229.9332,129.0438 Q228.6207,127.3875 228.6207,124.2625 Q228.6207,121.1375 229.9332,119.4813 Q231.2613,117.825 233.7613,117.825 Q234.4644,117.825 235.105,117.9813 Q235.7613,118.1375 236.3238,118.4344 L236.3238,121.1531 Q235.6988,120.575 235.105,120.3094 Q234.5113,120.0281 233.8863,120.0281 Q232.5425,120.0281 231.855,121.1063 Q231.1675,122.1688 231.1675,124.2625 Q231.1675,126.3563 231.855,127.4344 Q232.5425,128.4969 233.8863,128.4969 Q234.5113,128.4969 235.105,128.2313 Q235.6988,127.95 236.3238,127.3719 L236.3238,130.0906 Z " fill="#000000"/><text fill="#000000" font-family="sans-serif" font-size="14" lengthAdjust="spacing" textLength="68.7695" x="249.8695" y="129.2967">RobotCpu</text><line style="stroke:#181818;stroke-width:0.5;" x1="208.04" x2="331.9541" y1="140.45" y2="140.45"/><text fill="#000000" font-family="sans-serif" font-size="14" lengthAdjust="spacing" textLength="113.9141" x="213.04" y="157.4451">header : Header</text><text fill="#000000" font-family="sans-serif" font-size="14" lengthAdjust="spacing" textLength="76.6035" x="213.04" y="173.742">data : float</text><line style="stroke:#181818;stroke-width:0.5;" x1="208.04" x2="331.9541" y1="181.0438" y2="181.0438"/></g><!--class RobotActivity--><g class="entity" data-entity="RobotActivity" data-source-line="22" data-uid="ent0008" id="entity_RobotActivity"><rect fill="#F1F1F1" height="80.5938" rx="2.5" ry="2.5" style="stroke:#181818;stroke-width:0.5;" width="125.9141" x="368.04" y="108.45"/><ellipse cx="383.0747" cy="124.45" fill="#ADD1B2" rx="11" ry="11" style="stroke:#181818;stroke-width:1;"/><path d="M386.0435,130.0906 Q385.4653,130.3875 384.8247,130.5281 Q384.1841,130.6844 383.481,130.6844 Q380.981,130.6844 379.6528,129.0438 Q378.3403,127.3875 378.3403,124.2625 Q378.3403,121.1375 379.6528,119.4813 Q380.981,117.825 383.481,117.825 Q384.1841,117.825 384.8247,117.9813 Q385.481,118.1375 386.0435,118.4344 L386.0435,121.1531 Q385.4185,120.575 384.8247,120.3094 Q384.231,120.0281 383.606,120.0281 Q382.2622,120.0281 381.5747,121.1063 Q380.8872,122.1688 380.8872,124.2625 Q380.8872,126.3563 381.5747,127.4344 Q382.2622,128.4969 383.606,128.4969 Q384.231,128.4969 384.8247,128.2313 Q385.4185,127.95 386.0435,127.3719 L386.0435,130.0906 Z " fill="#000000"/><text fill="#000000" font-family="sans-serif" font-size="14" lengthAdjust="spacing" textLength="93.8369" x="397.0824" y="129.2967">RobotActivity</text><line style="stroke:#181818;stroke-width:0.5;" x1="369.04" x2="492.9541" y1="140.45" y2="140.45"/><text fill="#000000" font-family="sans-serif" font-size="14" lengthAdjust="spacing" textLength="113.9141" x="374.04" y="157.4451">header : Header</text><text fill="#000000" font-family="sans-serif" font-size="14" lengthAdjust="spacing" textLength="83.7607" x="374.04" y="173.742">activity : str</text><line style="stroke:#181818;stroke-width:0.5;" x1="369.04" x2="492.9541" y1="181.0438" y2="181.0438"/></g><!--class RobotPoint--><g class="entity" data-entity="RobotPoint" data-source-line="27" data-uid="ent0009" id="entity_RobotPoint"><rect fill="#F1F1F1" height="113.1875" rx="2.5" ry="2.5" style="stroke:#181818;stroke-width:0.5;" width="125.9141" x="529.04" y="92.15"/><ellipse cx="551.879" cy="108.15" fill="#ADD1B2" rx="11" ry="11" style="stroke:#181818;stroke-width:1;"/><path d="M554.8477,113.7906 Q554.2696,114.0875 553.629,114.2281 Q552.9883,114.3844 552.2852,114.3844 Q549.7852,114.3844 548.4571,112.7438 Q547.1446,111.0875 547.1446,107.9625 Q547.1446,104.8375 548.4571,103.1813 Q549.7852,101.525 552.2852,101.525 Q552.9883,101.525 553.629,101.6813 Q554.2852,101.8375 554.8477,102.1344 L554.8477,104.8531 Q554.2227,104.275 553.629,104.0094 Q553.0352,103.7281 552.4102,103.7281 Q551.0665,103.7281 550.379,104.8063 Q549.6915,105.8688 549.6915,107.9625 Q549.6915,110.0563 550.379,111.1344 Q551.0665,112.1969 552.4102,112.1969 Q553.0352,112.1969 553.629,111.9313 Q554.2227,111.65 554.8477,111.0719 L554.8477,113.7906 Z " fill="#000000"/><text fill="#000000" font-family="sans-serif" font-size="14" lengthAdjust="spacing" textLength="76.4941" x="567.621" y="112.9967">RobotPoint</text><line style="stroke:#181818;stroke-width:0.5;" x1="530.04" x2="653.9541" y1="124.15" y2="124.15"/><text fill="#000000" font-family="sans-serif" font-size="14" lengthAdjust="spacing" textLength="113.9141" x="535.04" y="141.1451">header : Header</text><text fill="#000000" font-family="sans-serif" font-size="14" lengthAdjust="spacing" textLength="53.3545" x="535.04" y="157.442">x : float</text><text fill="#000000" font-family="sans-serif" font-size="14" lengthAdjust="spacing" textLength="53.3545" x="535.04" y="173.7389">y : float</text><text fill="#000000" font-family="sans-serif" font-size="14" lengthAdjust="spacing" textLength="52.418" x="535.04" y="190.0357">z : float</text><line style="stroke:#181818;stroke-width:0.5;" x1="530.04" x2="653.9541" y1="197.3375" y2="197.3375"/></g><!--class RobotQuaternion--><g class="entity" data-entity="RobotQuaternion" data-source-line="34" data-uid="ent0010" id="entity_RobotQuaternion"><rect fill="#F1F1F1" height="129.4844" rx="2.5" ry="2.5" style="stroke:#181818;stroke-width:0.5;" width="151.7656" x="690.12" y="84"/><ellipse cx="705.12" cy="100" fill="#ADD1B2" rx="11" ry="11" style="stroke:#181818;stroke-width:1;"/><path d="M708.0888,105.6406 Q707.5106,105.9375 706.87,106.0781 Q706.2294,106.2344 705.5263,106.2344 Q703.0263,106.2344 701.6981,104.5938 Q700.3856,102.9375 700.3856,99.8125 Q700.3856,96.6875 701.6981,95.0313 Q703.0263,93.375 705.5263,93.375 Q706.2294,93.375 706.87,93.5313 Q707.5263,93.6875 708.0888,93.9844 L708.0888,96.7031 Q707.4638,96.125 706.87,95.8594 Q706.2763,95.5781 705.6513,95.5781 Q704.3075,95.5781 703.62,96.6563 Q702.9325,97.7188 702.9325,99.8125 Q702.9325,101.9063 703.62,102.9844 Q704.3075,104.0469 705.6513,104.0469 Q706.2763,104.0469 706.87,103.7813 Q707.4638,103.5 708.0888,102.9219 L708.0888,105.6406 Z " fill="#000000"/><text fill="#000000" font-family="sans-serif" font-size="14" lengthAdjust="spacing" textLength="119.7656" x="719.12" y="104.8467">RobotQuaternion</text><line style="stroke:#181818;stroke-width:0.5;" x1="691.12" x2="840.8856" y1="116" y2="116"/><text fill="#000000" font-family="sans-serif" font-size="14" lengthAdjust="spacing" textLength="113.9141" x="696.12" y="132.9951">header : Header</text><text fill="#000000" font-family="sans-serif" font-size="14" lengthAdjust="spacing" textLength="53.3545" x="696.12" y="149.292">x : float</text><text fill="#000000" font-family="sans-serif" font-size="14" lengthAdjust="spacing" textLength="53.3545" x="696.12" y="165.5889">y : float</text><text fill="#000000" font-family="sans-serif" font-size="14" lengthAdjust="spacing" textLength="52.418" x="696.12" y="181.8857">z : float</text><text fill="#000000" font-family="sans-serif" font-size="14" lengthAdjust="spacing" textLength="56.5195" x="696.12" y="198.1826">w : float</text><line style="stroke:#181818;stroke-width:0.5;" x1="691.12" x2="840.8856" y1="205.4844" y2="205.4844"/></g><!--class RobotMisc--><g class="entity" data-entity="RobotMisc" data-source-line="42" data-uid="ent0011" id="entity_RobotMisc"><rect fill="#F1F1F1" height="113.1875" rx="2.5" ry="2.5" style="stroke:#181818;stroke-width:0.5;" width="125.9141" x="877.04" y="92.15"/><ellipse cx="901.8139" cy="108.15" fill="#ADD1B2" rx="11" ry="11" style="stroke:#181818;stroke-width:1;"/><path d="M904.7826,113.7906 Q904.2045,114.0875 903.5639,114.2281 Q902.9233,114.3844 902.2201,114.3844 Q899.7201,114.3844 898.392,112.7438 Q897.0795,111.0875 897.0795,107.9625 Q897.0795,104.8375 898.392,103.1813 Q899.7201,101.525 902.2201,101.525 Q902.9233,101.525 903.5639,101.6813 Q904.2201,101.8375 904.7826,102.1344 L904.7826,104.8531 Q904.1576,104.275 903.5639,104.0094 Q902.9701,103.7281 902.3451,103.7281 Q901.0014,103.7281 900.3139,104.8063 Q899.6264,105.8688 899.6264,107.9625 Q899.6264,110.0563 900.3139,111.1344 Q901.0014,112.1969 902.3451,112.1969 Q902.9701,112.1969 903.5639,111.9313 Q904.1576,111.65 904.7826,111.0719 L904.7826,113.7906 Z " fill="#000000"/><text fill="#000000" font-family="sans-serif" font-size="14" lengthAdjust="spacing" textLength="72.1943" x="917.9858" y="112.9967">RobotMisc</text><line style="stroke:#181818;stroke-width:0.5;" x1="878.04" x2="1001.9541" y1="124.15" y2="124.15"/><text fill="#000000" font-family="sans-serif" font-size="14" lengthAdjust="spacing" textLength="113.9141" x="883.04" y="141.1451">header : Header</text><text fill="#000000" font-family="sans-serif" font-size="14" lengthAdjust="spacing" textLength="62.125" x="883.04" y="157.442">ipv4 : str</text><text fill="#000000" font-family="sans-serif" font-size="14" lengthAdjust="spacing" textLength="62.125" x="883.04" y="173.7389">ipv6 : str</text><text fill="#000000" font-family="sans-serif" font-size="14" lengthAdjust="spacing" textLength="62.0703" x="883.04" y="190.0357">mac : str</text><line style="stroke:#181818;stroke-width:0.5;" x1="878.04" x2="1001.9541" y1="197.3375" y2="197.3375"/></g><!--class NeighborList--><g class="entity" data-entity="NeighborList" data-source-line="49" data-uid="ent0012" id="entity_NeighborList"><rect fill="#F1F1F1" height="96.8906" rx="2.5" ry="2.5" style="stroke:#181818;stroke-width:0.5;" width="125.9141" x="1038.04" y="100.3"/><ellipse cx="1055.5141" cy="116.3" fill="#ADD1B2" rx="11" ry="11" style="stroke:#181818;stroke-width:1;"/><path d="M1058.4829,121.9406 Q1057.9047,122.2375 1057.2641,122.3781 Q1056.6235,122.5344 1055.9204,122.5344 Q1053.4204,122.5344 1052.0922,120.8938 Q1050.7797,119.2375 1050.7797,116.1125 Q1050.7797,112.9875 1052.0922,111.3313 Q1053.4204,109.675 1055.9204,109.675 Q1056.6235,109.675 1057.2641,109.8313 Q1057.9204,109.9875 1058.4829,110.2844 L1058.4829,113.0031 Q1057.8579,112.425 1057.2641,112.1594 Q1056.6704,111.8781 1056.0454,111.8781 Q1054.7016,111.8781 1054.0141,112.9563 Q1053.3266,114.0188 1053.3266,116.1125 Q1053.3266,118.2063 1054.0141,119.2844 Q1054.7016,120.3469 1056.0454,120.3469 Q1056.6704,120.3469 1057.2641,120.0813 Q1057.8579,119.8 1058.4829,119.2219 L1058.4829,121.9406 Z " fill="#000000"/><text fill="#000000" font-family="sans-serif" font-size="14" lengthAdjust="spacing" textLength="88.416" x="1070.0639" y="121.1467">NeighborList</text><line style="stroke:#181818;stroke-width:0.5;" x1="1039.04" x2="1162.9541" y1="132.3" y2="132.3"/><text fill="#000000" font-family="sans-serif" font-size="14" lengthAdjust="spacing" textLength="113.9141" x="1044.04" y="149.2951">header : Header</text><text fill="#000000" font-family="sans-serif" font-size="14" lengthAdjust="spacing" textLength="103.8174" x="1044.04" y="165.592">neighbors : list</text><text fill="#000000" font-family="sans-serif" font-size="14" lengthAdjust="spacing" textLength="103.0996" x="1044.04" y="181.8889">indicators : list</text><line style="stroke:#181818;stroke-width:0.5;" x1="1039.04" x2="1162.9541" y1="189.1906" y2="189.1906"/></g><!--class SetRobotActivity_Request--><g class="entity" data-entity="SetRobotActivity_Request" data-source-line="66" data-uid="ent0022" id="entity_SetRobotActivity_Request"><rect fill="#F1F1F1" height="80.5938" rx="2.5" ry="2.5" style="stroke:#181818;stroke-width:0.5;" width="213.3232" x="1225.34" y="108.45"/><ellipse cx="1240.34" cy="124.45" fill="#ADD1B2" rx="11" ry="11" style="stroke:#181818;stroke-width:1;"/><path d="M1243.3088,130.0906 Q1242.7306,130.3875 1242.09,130.5281 Q1241.4494,130.6844 1240.7463,130.6844 Q1238.2463,130.6844 1236.9181,129.0438 Q1235.6056,127.3875 1235.6056,124.2625 Q1235.6056,121.1375 1236.9181,119.4813 Q1238.2463,117.825 1240.7463,117.825 Q1241.4494,117.825 1242.09,117.9813 Q1242.7463,118.1375 1243.3088,118.4344 L1243.3088,121.1531 Q1242.6838,120.575 1242.09,120.3094 Q1241.4963,120.0281 1240.8713,120.0281 Q1239.5275,120.0281 1238.84,121.1063 Q1238.1525,122.1688 1238.1525,124.2625 Q1238.1525,126.3563 1238.84,127.4344 Q1239.5275,128.4969 1240.8713,128.4969 Q1241.4963,128.4969 1242.09,128.2313 Q1242.6838,127.95 1243.3088,127.3719 L1243.3088,130.0906 Z " fill="#000000"/><text fill="#000000" font-family="sans-serif" font-size="14" lengthAdjust="spacing" textLength="181.3232" x="1254.34" y="129.2967">SetRobotActivity_Request</text><line style="stroke:#181818;stroke-width:0.5;" x1="1226.34" x2="1437.6632" y1="140.45" y2="140.45"/><text fill="#000000" font-family="sans-serif" font-size="14" lengthAdjust="spacing" textLength="83.7607" x="1231.34" y="157.4451">activity : str</text><text fill="#000000" font-family="sans-serif" font-size="14" lengthAdjust="spacing" textLength="78.7979" x="1231.34" y="173.742">details : str</text><line style="stroke:#181818;stroke-width:0.5;" x1="1226.34" x2="1437.6632" y1="181.0438" y2="181.0438"/></g><!--class SetRobotActivity_Response--><g class="entity" data-entity="SetRobotActivity_Response" data-source-line="71" data-uid="ent0023" id="entity_SetRobotActivity_Response"><rect fill="#F1F1F1" height="64.2969" rx="2.5" ry="2.5" style="stroke:#181818;stroke-width:0.5;" width="223.6934" x="1220.15" y="438.52"/><ellipse cx="1235.15" cy="454.52" fill="#ADD1B2" rx="11" ry="11" style="stroke:#181818;stroke-width:1;"/><path d="M1238.1188,460.1606 Q1237.5406,460.4575 1236.9,460.5981 Q1236.2594,460.7544 1235.5563,460.7544 Q1233.0563,460.7544 1231.7281,459.1138 Q1230.4156,457.4575 1230.4156,454.3325 Q1230.4156,451.2075 1231.7281,449.5513 Q1233.0563,447.895 1235.5563,447.895 Q1236.2594,447.895 1236.9,448.0513 Q1237.5563,448.2075 1238.1188,448.5044 L1238.1188,451.2231 Q1237.4938,450.645 1236.9,450.3794 Q1236.3063,450.0981 1235.6813,450.0981 Q1234.3375,450.0981 1233.65,451.1763 Q1232.9625,452.2388 1232.9625,454.3325 Q1232.9625,456.4263 1233.65,457.5044 Q1234.3375,458.5669 1235.6813,458.5669 Q1236.3063,458.5669 1236.9,458.3013 Q1237.4938,458.02 1238.1188,457.4419 L1238.1188,460.1606 Z " fill="#000000"/><text fill="#000000" font-family="sans-serif" font-size="14" lengthAdjust="spacing" textLength="191.6934" x="1249.15" y="459.3667">SetRobotActivity_Response</text><line style="stroke:#181818;stroke-width:0.5;" x1="1221.15" x2="1442.8434" y1="470.52" y2="470.52"/><text fill="#000000" font-family="sans-serif" font-size="14" lengthAdjust="spacing" textLength="61.9746" x="1226.15" y="487.5151">msg : str</text><line style="stroke:#181818;stroke-width:0.5;" x1="1221.15" x2="1442.8434" y1="494.8169" y2="494.8169"/></g><!--class RobotServiceInfo_Request--><g class="entity" data-entity="RobotServiceInfo_Request" data-source-line="75" data-uid="ent0024" id="entity_RobotServiceInfo_Request"><rect fill="#F1F1F1" height="64.2969" rx="2.5" ry="2.5" style="stroke:#181818;stroke-width:0.5;" width="215.9688" x="1484.02" y="116.59"/><ellipse cx="1499.02" cy="132.59" fill="#ADD1B2" rx="11" ry="11" style="stroke:#181818;stroke-width:1;"/><path d="M1501.9888,138.2306 Q1501.4106,138.5275 1500.77,138.6681 Q1500.1294,138.8244 1499.4263,138.8244 Q1496.9263,138.8244 1495.5981,137.1838 Q1494.2856,135.5275 1494.2856,132.4025 Q1494.2856,129.2775 1495.5981,127.6213 Q1496.9263,125.965 1499.4263,125.965 Q1500.1294,125.965 1500.77,126.1213 Q1501.4263,126.2775 1501.9888,126.5744 L1501.9888,129.2931 Q1501.3638,128.715 1500.77,128.4494 Q1500.1763,128.1681 1499.5513,128.1681 Q1498.2075,128.1681 1497.52,129.2463 Q1496.8325,130.3088 1496.8325,132.4025 Q1496.8325,134.4963 1497.52,135.5744 Q1498.2075,136.6369 1499.5513,136.6369 Q1500.1763,136.6369 1500.77,136.3713 Q1501.3638,136.09 1501.9888,135.5119 L1501.9888,138.2306 Z " fill="#000000"/><text fill="#000000" font-family="sans-serif" font-size="14" lengthAdjust="spacing" textLength="183.9688" x="1513.02" y="137.4367">RobotServiceInfo_Request</text><line style="stroke:#181818;stroke-width:0.5;" x1="1485.02" x2="1698.9888" y1="148.59" y2="148.59"/><text fill="#000000" font-family="sans-serif" font-size="14" lengthAdjust="spacing" textLength="82.3047" x="1490.02" y="165.5851">service : str</text><line style="stroke:#181818;stroke-width:0.5;" x1="1485.02" x2="1698.9888" y1="172.8869" y2="172.8869"/></g><!--class RobotServiceInfo_Response--><g class="entity" data-entity="RobotServiceInfo_Response" data-source-line="79" data-uid="ent0025" id="entity_RobotServiceInfo_Response"><rect fill="#F1F1F1" height="80.5938" rx="2.5" ry="2.5" style="stroke:#181818;stroke-width:0.5;" width="226.3389" x="1478.83" y="430.38"/><ellipse cx="1493.83" cy="446.38" fill="#ADD1B2" rx="11" ry="11" style="stroke:#181818;stroke-width:1;"/><path d="M1496.7988,452.0206 Q1496.2206,452.3175 1495.58,452.4581 Q1494.9394,452.6144 1494.2363,452.6144 Q1491.7363,452.6144 1490.4081,450.9738 Q1489.0956,449.3175 1489.0956,446.1925 Q1489.0956,443.0675 1490.4081,441.4113 Q1491.7363,439.755 1494.2363,439.755 Q1494.9394,439.755 1495.58,439.9113 Q1496.2363,440.0675 1496.7988,440.3644 L1496.7988,443.0831 Q1496.1738,442.505 1495.58,442.2394 Q1494.9863,441.9581 1494.3613,441.9581 Q1493.0175,441.9581 1492.33,443.0363 Q1491.6425,444.0988 1491.6425,446.1925 Q1491.6425,448.2863 1492.33,449.3644 Q1493.0175,450.4269 1494.3613,450.4269 Q1494.9863,450.4269 1495.58,450.1613 Q1496.1738,449.88 1496.7988,449.3019 L1496.7988,452.0206 Z " fill="#000000"/><text fill="#000000" font-family="sans-serif" font-size="14" lengthAdjust="spacing" textLength="194.3389" x="1507.83" y="451.2267">RobotServiceInfo_Response</text><line style="stroke:#181818;stroke-width:0.5;" x1="1479.83" x2="1704.1689" y1="462.38" y2="462.38"/><text fill="#000000" font-family="sans-serif" font-size="14" lengthAdjust="spacing" textLength="61.9746" x="1484.83" y="479.3751">msg : str</text><text fill="#000000" font-family="sans-serif" font-size="14" lengthAdjust="spacing" textLength="91.6221" x="1484.83" y="495.672">services : list</text><line style="stroke:#181818;stroke-width:0.5;" x1="1479.83" x2="1704.1689" y1="502.9738" y2="502.9738"/></g><!--class RobotInterfaceInfo_Request--><g class="entity" data-entity="RobotInterfaceInfo_Request" data-source-line="84" data-uid="ent0026" id="entity_RobotInterfaceInfo_Request"><rect fill="#F1F1F1" height="64.2969" rx="2.5" ry="2.5" style="stroke:#181818;stroke-width:0.5;" width="226.9063" x="1745.55" y="116.59"/><ellipse cx="1760.55" cy="132.59" fill="#ADD1B2" rx="11" ry="11" style="stroke:#181818;stroke-width:1;"/><path d="M1763.5188,138.2306 Q1762.9406,138.5275 1762.3,138.6681 Q1761.6594,138.8244 1760.9563,138.8244 Q1758.4563,138.8244 1757.1281,137.1838 Q1755.8156,135.5275 1755.8156,132.4025 Q1755.8156,129.2775 1757.1281,127.6213 Q1758.4563,125.965 1760.9563,125.965 Q1761.6594,125.965 1762.3,126.1213 Q1762.9563,126.2775 1763.5188,126.5744 L1763.5188,129.2931 Q1762.8938,128.715 1762.3,128.4494 Q1761.7063,128.1681 1761.0813,128.1681 Q1759.7375,128.1681 1759.05,129.2463 Q1758.3625,130.3088 1758.3625,132.4025 Q1758.3625,134.4963 1759.05,135.5744 Q1759.7375,136.6369 1761.0813,136.6369 Q1761.7063,136.6369 1762.3,136.3713 Q1762.8938,136.09 1763.5188,135.5119 L1763.5188,138.2306 Z " fill="#000000"/><text fill="#000000" font-family="sans-serif" font-size="14" lengthAdjust="spacing" textLength="194.9063" x="1774.55" y="137.4367">RobotInterfaceInfo_Request</text><line style="stroke:#181818;stroke-width:0.5;" x1="1746.55" x2="1971.4563" y1="148.59" y2="148.59"/><text fill="#000000" font-family="sans-serif" font-size="14" lengthAdjust="spacing" textLength="94.5957" x="1751.55" y="165.5851">interface : str</text><line style="stroke:#181818;stroke-width:0.5;" x1="1746.55" x2="1971.4563" y1="172.8869" y2="172.8869"/></g><!--class RobotInterfaceInfo_Response--><g class="entity" data-entity="RobotInterfaceInfo_Response" data-source-line="88" data-uid="ent0027" id="entity_RobotInterfaceInfo_Response"><rect fill="#F1F1F1" height="80.5938" rx="2.5" ry="2.5" style="stroke:#181818;stroke-width:0.5;" width="237.2764" x="1740.36" y="430.38"/><ellipse cx="1755.36" cy="446.38" fill="#ADD1B2" rx="11" ry="11" style="stroke:#181818;stroke-width:1;"/><path d="M1758.3288,452.0206 Q1757.7506,452.3175 1757.11,452.4581 Q1756.4694,452.6144 1755.7663,452.6144 Q1753.2663,452.6144 1751.9381,450.9738 Q1750.6256,449.3175 1750.6256,446.1925 Q1750.6256,443.0675 1751.9381,441.4113 Q1753.2663,439.755 1755.7663,439.755 Q1756.4694,439.755 1757.11,439.9113 Q1757.7663,440.0675 1758.3288,440.3644 L1758.3288,443.0831 Q1757.7038,442.505 1757.11,442.2394 Q1756.5163,441.9581 1755.8913,441.9581 Q1754.5475,441.9581 1753.86,443.0363 Q1753.1725,444.0988 1753.1725,446.1925 Q1753.1725,448.2863 1753.86,449.3644 Q1754.5475,450.4269 1755.8913,450.4269 Q1756.5163,450.4269 1757.11,450.1613 Q1757.7038,449.88 1758.3288,449.3019 L1758.3288,452.0206 Z " fill="#000000"/><text fill="#000000" font-family="sans-serif" font-size="14" lengthAdjust="spacing" textLength="205.2764" x="1769.36" y="451.2267">RobotInterfaceInfo_Response</text><line style="stroke:#181818;stroke-width:0.5;" x1="1741.36" x2="1976.6364" y1="462.38" y2="462.38"/><text fill="#000000" font-family="sans-serif" font-size="14" lengthAdjust="spacing" textLength="98.0547" x="1746.36" y="479.3751">definition : str</text><text fill="#000000" font-family="sans-serif" font-size="14" lengthAdjust="spacing" textLength="103.9131" x="1746.36" y="495.672">interfaces : list</text><line style="stroke:#181818;stroke-width:0.5;" x1="1741.36" x2="1976.6364" y1="502.9738" y2="502.9738"/></g><!--link Header to Time--><g class="link" data-entity-1="Header" data-entity-2="Time" data-source-line="55" data-uid="lnk13" id="link_Header_Time"><path codeLine="55" d="M592,370.57 C592,392.83 592,412.71 592,432.44" fill="none" id="Header-to-Time" style="stroke:#181818;stroke-width:1;"/><polygon fill="#181818" points="592,438.44,596,429.44,592,433.44,588,429.44,592,438.44" style="stroke:#181818;stroke-width:1;"/></g><!--link RobotBattery to Header--><g class="link" data-entity-1="RobotBattery" data-entity-2="Header" data-source-line="56" data-uid="lnk14" id="link_RobotBattery_Header"><path codeLine="56" d="M152.63,189.29 C164.17,198.24 177.04,207 190,213.49 C308.07,272.56 456.4991,301.1423 535.1691,313.1823" fill="none" id="RobotBattery-to-Header" style="stroke:#181818;stroke-width:1;"/><polygon fill="#181818" points="541.1,314.09,532.8087,308.7745,536.1575,313.3336,531.5985,316.6824,541.1,314.09" style="stroke:#181818;stroke-width:1;"/></g><!--link RobotCpu to Header--><g class="link" data-entity-1="RobotCpu" data-entity-2="Header" data-source-line="57" data-uid="lnk15" id="link_RobotCpu_Header"><path codeLine="57" d="M316.12,189.21 C327.18,197.76 339.2,206.37 351,213.49 C413.36,251.12 485.6138,281.3221 535.6738,300.4121" fill="none" id="RobotCpu-to-Header" style="stroke:#181818;stroke-width:1;"/><polygon fill="#181818" points="541.28,302.55,534.296,295.6057,536.6082,300.7684,531.4454,303.0806,541.28,302.55" style="stroke:#181818;stroke-width:1;"/></g><!--link RobotActivity to Header--><g class="link" data-entity-1="RobotActivity" data-entity-2="Header" data-source-line="58" data-uid="lnk16" id="link_RobotActivity_Header"><path codeLine="58" d="M468.34,189.45 C491.84,214.44 518.1994,242.4593 543.0194,268.8493" fill="none" id="RobotActivity-to-Header" style="stroke:#181818;stroke-width:1;"/><polygon fill="#181818" points="547.13,273.22,543.8778,263.9236,543.7045,269.5778,538.0503,269.4044,547.13,273.22" style="stroke:#181818;stroke-width:1;"/></g><!--link RobotPoint to Header--><g class="link" data-entity-1="RobotPoint" data-entity-2="Header" data-source-line="59" data-uid="lnk17" id="link_RobotPoint_Header"><path codeLine="59" d="M592,205.8 C592,227.54 592,246.19 592,267.08" fill="none" id="RobotPoint-to-Header" style="stroke:#181818;stroke-width:1;"/><polygon fill="#181818" points="592,273.08,596,264.08,592,268.08,588,264.08,592,273.08" style="stroke:#181818;stroke-width:1;"/></g><!--link RobotQuaternion to Header--><g class="link" data-entity-1="RobotQuaternion" data-entity-2="Header" data-source-line="60" data-uid="lnk18" id="link_RobotQuaternion_Header"><path codeLine="60" d="M700.71,213.97 C680.75,233.61 663.4369,250.6419 644.7969,268.9819" fill="none" id="RobotQuaternion-to-Header" style="stroke:#181818;stroke-width:1;"/><polygon fill="#181818" points="640.52,273.19,649.7408,269.7292,644.0841,269.6833,644.13,264.0266,640.52,273.19" style="stroke:#181818;stroke-width:1;"/></g><!--link RobotMisc to Header--><g class="link" data-entity-1="RobotMisc" data-entity-2="Header" data-source-line="61" data-uid="lnk19" id="link_RobotMisc_Header"><path codeLine="61" d="M876.63,202.28 C870.81,206.28 864.89,210.08 859,213.49 C787.97,254.6 703.8723,285.3136 648.6323,303.3936" fill="none" id="RobotMisc-to-Header" style="stroke:#181818;stroke-width:1;"/><polygon fill="#181818" points="642.93,305.26,652.7278,306.262,647.6819,303.7047,650.2393,298.6589,642.93,305.26" style="stroke:#181818;stroke-width:1;"/></g><!--link NeighborList to Header--><g class="link" data-entity-1="NeighborList" data-entity-2="Header" data-source-line="62" data-uid="lnk20" id="link_NeighborList_Header"><path codeLine="62" d="M1046.4,197.58 C1037.93,203.54 1029,209.07 1020,213.49 C892.6,276.03 731.4089,303.5383 648.7589,314.3983" fill="none" id="NeighborList-to-Header" style="stroke:#181818;stroke-width:1;"/><polygon fill="#181818" points="642.81,315.18,652.2544,317.9734,647.7674,314.5286,651.2122,310.0416,642.81,315.18" style="stroke:#181818;stroke-width:1;"/></g><!--link SetRobotActivity_Request to SetRobotActivity_Response--><g class="link" data-entity-1="SetRobotActivity_Request" data-entity-2="SetRobotActivity_Response" data-source-line="94" data-uid="lnk28" id="link_SetRobotActivity_Request_SetRobotActivity_Response"><path codeLine="94" d="M1332,189.29 C1332,253.66 1332,379.76 1332,438.36" fill="none" id="SetRobotActivity_Request-SetRobotActivity_Response" style="stroke:#181818;stroke-width:1;"/></g><!--link RobotServiceInfo_Request to RobotServiceInfo_Response--><g class="link" data-entity-1="RobotServiceInfo_Request" data-entity-2="RobotServiceInfo_Response" data-source-line="95" data-uid="lnk29" id="link_RobotServiceInfo_Request_RobotServiceInfo_Response"><path codeLine="95" d="M1592,181.3 C1592,239.94 1592,365.6 1592,429.93" fill="none" id="RobotServiceInfo_Request-RobotServiceInfo_Response" style="stroke:#181818;stroke-width:1;"/></g><!--link RobotInterfaceInfo_Request to RobotInterfaceInfo_Response--><g class="link" data-entity-1="RobotInterfaceInfo_Request" data-entity-2="RobotInterfaceInfo_Response" data-source-line="96" data-uid="lnk30" id="link_RobotInterfaceInfo_Request_RobotInterfaceInfo_Response"><path codeLine="96" d="M1859,181.3 C1859,239.94 1859,365.6 1859,429.93" fill="none" id="RobotInterfaceInfo_Request-RobotInterfaceInfo_Response" style="stroke:#181818;stroke-width:1;"/></g><!--SRC=[hLHDJyCm3BtlLqIxbnFYq0CIS64I8DYuLrxgRX5jKfgqC13_7VShf1-f4EAmINwsd-rdfpdm5pWWM_DI6vL5GXei4k2epp9zMBFF5MCy1QtPBKACHGCm9aKSCcsAnaWAo31o4ICo3Dap_PFvHJ_BKcCTXqOUCgfNXr243TcglJBNOAYHKnTwR6k7NHCD5eC1Gf9KGKCn8hZ9oxydNt4ZAc6MoaCVqayzvdXKDDi2mRjJdx7JmFfOwEsf15962YN_WPonjuLIzqBpXI8YhyxPpzB9l73C3FYSDWye3iUzAkw4Nb97Tc6Qu9H2smeo5XpC06sekziCWil-w0P7LEEMsrx75BLhdxhQRKvnPnjJPwFV01vCxtXeYjp_4dLHkIznXsRGRhJ5rnAjd9FBf7D70oBLS_kO8TEvahf_fVGLy9xu3ejASDp8H8rwqAtdbvdUWfPel727QjFhDDE6rT3Ro3Xxq4gCYP32rCjrpjpknUs9UBrh2OB0B_FAgsITvXLhjJ2xJPmVxXi0]--></g></svg>