<svg xmlns="http://www.w3.org/2000/svg" xmlns:xlink="http://www.w3.org/1999/xlink" contentStyleType="text/css" data-diagram-type="CLASS" height="930px" preserveAspectRatio="none" style="width:647px;height:930px;background:#FFFFFF;" version="1.1" viewBox="0 0 647 930" width="647px" zoomAndPan="magnify"><defs/><g><!--cluster rclpy--><g class="cluster" data-entity="rclpy" data-source-line="2" data-uid="ent0004" id="cluster_rclpy"><path d="M258.83,6 L298.9794,6 A3.75,3.75 0 0 1 301.4794,8.5 L308.4794,28.2969 L401.83,28.2969 A2.5,2.5 0 0 1 404.33,30.7969 L404.33,169.5 A2.5,2.5 0 0 1 401.83,172 L258.83,172 A2.5,2.5 0 0 1 256.33,169.5 L256.33,8.5 A2.5,2.5 0 0 1 258.83,6" fill="none" style="stroke:#000000;stroke-width:1.5;"/><line style="stroke:#000000;stroke-width:1.5;" x1="256.33" x2="308.4794" y1="28.2969" y2="28.2969"/><text fill="#000000" font-family="sans-serif" font-size="14" font-weight="bold" lengthAdjust="spacing" textLength="39.1494" x="260.33" y="20.9951">rclpy</text></g><!--cluster node--><g class="cluster" data-entity="node" data-source-line="1" data-uid="ent0002" id="cluster_node"><path d="M282.83,49 L322.9316,49 A3.75,3.75 0 0 1 325.4316,51.5 L332.4316,71.2969 L377.83,71.2969 A2.5,2.5 0 0 1 380.33,73.7969 L380.33,145.5 A2.5,2.5 0 0 1 377.83,148 L282.83,148 A2.5,2.5 0 0 1 280.33,145.5 L280.33,51.5 A2.5,2.5 0 0 1 282.83,49" fill="none" style="stroke:#000000;stroke-width:1.5;"/><line style="stroke:#000000;stroke-width:1.5;" x1="280.33" x2="332.4316" y1="71.2969" y2="71.2969"/><text fill="#000000" font-family="sans-serif" font-size="14" font-weight="bold" lengthAdjust="spacing" textLength="39.1016" x="284.33" y="63.9951">node</text></g><!--cluster time_util--><g class="cluster" data-entity="time_util" data-source-line="5" data-uid="ent0005" id="cluster_time_util"><path d="M454.83,350.82 L524.6611,350.82 A3.75,3.75 0 0 1 527.1611,353.32 L534.1611,373.1169 L637.83,373.1169 A2.5,2.5 0 0 1 640.33,375.6169 L640.33,479.91 A2.5,2.5 0 0 1 637.83,482.41 L454.83,482.41 A2.5,2.5 0 0 1 452.33,479.91 L452.33,353.32 A2.5,2.5 0 0 1 454.83,350.82" fill="none" style="stroke:#000000;stroke-width:1.5;"/><line style="stroke:#000000;stroke-width:1.5;" x1="452.33" x2="534.1611" y1="373.1169" y2="373.1169"/><text fill="#000000" font-family="sans-serif" font-size="14" font-weight="bold" lengthAdjust="spacing" textLength="68.8311" x="456.33" y="365.8151">time_util</text></g><!--cluster sw_util--><g class="cluster" data-entity="sw_util" data-source-line="12" data-uid="ent0007" id="cluster_sw_util"><path d="M28.83,196 L84.3534,196 A3.75,3.75 0 0 1 86.8534,198.5 L93.8534,218.2969 L425.83,218.2969 A2.5,2.5 0 0 1 428.33,220.7969 L428.33,634.73 A2.5,2.5 0 0 1 425.83,637.23 L28.83,637.23 A2.5,2.5 0 0 1 26.33,634.73 L26.33,198.5 A2.5,2.5 0 0 1 28.83,196" fill="none" style="stroke:#000000;stroke-width:1.5;"/><line style="stroke:#000000;stroke-width:1.5;" x1="26.33" x2="93.8534" y1="218.2969" y2="218.2969"/><text fill="#000000" font-family="sans-serif" font-size="14" font-weight="bold" lengthAdjust="spacing" textLength="54.5234" x="30.33" y="210.9951">sw_util</text></g><!--cluster data_sink--><g class="cluster" data-entity="data_sink" data-source-line="41" data-uid="ent0012" id="cluster_data_sink"><path d="M257.83,661.23 L333.8476,661.23 A3.75,3.75 0 0 1 336.3476,663.73 L343.3476,683.5269 L490.83,683.5269 A2.5,2.5 0 0 1 493.33,686.0269 L493.33,920.7 A2.5,2.5 0 0 1 490.83,923.2 L257.83,923.2 A2.5,2.5 0 0 1 255.33,920.7 L255.33,663.73 A2.5,2.5 0 0 1 257.83,661.23" fill="none" style="stroke:#000000;stroke-width:1.5;"/><line style="stroke:#000000;stroke-width:1.5;" x1="255.33" x2="343.3476" y1="683.5269" y2="683.5269"/><text fill="#000000" font-family="sans-serif" font-size="14" font-weight="bold" lengthAdjust="spacing" textLength="75.0176" x="259.33" y="676.2251">data_sink</text></g><!--class Node--><g class="entity" data-entity="Node" data-source-line="2" data-uid="ent0003" id="entity_Node"><rect fill="#F1F1F1" height="48" rx="2.5" ry="2.5" style="stroke:#181818;stroke-width:0.5;" width="68.5381" x="296.06" y="84"/><ellipse cx="311.06" cy="100" fill="#ADD1B2" rx="11" ry="11" style="stroke:#181818;stroke-width:1;"/><path d="M314.0288,105.6406 Q313.4506,105.9375 312.81,106.0781 Q312.1694,106.2344 311.4663,106.2344 Q308.9663,106.2344 307.6381,104.5938 Q306.3256,102.9375 306.3256,99.8125 Q306.3256,96.6875 307.6381,95.0313 Q308.9663,93.375 311.4663,93.375 Q312.1694,93.375 312.81,93.5313 Q313.4663,93.6875 314.0288,93.9844 L314.0288,96.7031 Q313.4038,96.125 312.81,95.8594 Q312.2163,95.5781 311.5913,95.5781 Q310.2475,95.5781 309.56,96.6563 Q308.8725,97.7188 308.8725,99.8125 Q308.8725,101.9063 309.56,102.9844 Q310.2475,104.0469 311.5913,104.0469 Q312.2163,104.0469 312.81,103.7813 Q313.4038,103.5 314.0288,102.9219 L314.0288,105.6406 Z " fill="#000000"/><text fill="#000000" font-family="sans-serif" font-size="14" lengthAdjust="spacing" textLength="36.5381" x="325.06" y="104.8467">Node</text><line style="stroke:#181818;stroke-width:0.5;" x1="297.06" x2="363.5981" y1="116" y2="116"/><line style="stroke:#181818;stroke-width:0.5;" x1="297.06" x2="363.5981" y1="124" y2="124"/></g><!--class TimeUtil--><g class="entity" data-entity="TimeUtil" data-source-line="6" data-uid="ent0006" id="entity_TimeUtil"><rect fill="#F1F1F1" height="80.5938" rx="2.5" ry="2.5" style="stroke:#181818;stroke-width:0.5;" width="155.8486" x="468.41" y="385.82"/><ellipse cx="512.9803" cy="401.82" fill="#ADD1B2" rx="11" ry="11" style="stroke:#181818;stroke-width:1;"/><path d="M515.9491,407.4606 Q515.3709,407.7575 514.7303,407.8981 Q514.0897,408.0544 513.3866,408.0544 Q510.8866,408.0544 509.5584,406.4138 Q508.2459,404.7575 508.2459,401.6325 Q508.2459,398.5075 509.5584,396.8513 Q510.8866,395.195 513.3866,395.195 Q514.0897,395.195 514.7303,395.3513 Q515.3866,395.5075 515.9491,395.8044 L515.9491,398.5231 Q515.3241,397.945 514.7303,397.6794 Q514.1366,397.3981 513.5116,397.3981 Q512.1678,397.3981 511.4803,398.4763 Q510.7928,399.5388 510.7928,401.6325 Q510.7928,403.7263 511.4803,404.8044 Q512.1678,405.8669 513.5116,405.8669 Q514.1366,405.8669 514.7303,405.6013 Q515.3241,405.32 515.9491,404.7419 L515.9491,407.4606 Z " fill="#000000"/><text fill="#000000" font-family="sans-serif" font-size="14" lengthAdjust="spacing" textLength="58.208" x="533.4803" y="406.6667">TimeUtil</text><line style="stroke:#181818;stroke-width:0.5;" x1="469.41" x2="623.2586" y1="417.82" y2="417.82"/><line style="stroke:#181818;stroke-width:0.5;" x1="469.41" x2="623.2586" y1="425.82" y2="425.82"/><text fill="#000000" font-family="sans-serif" font-size="14" lengthAdjust="spacing" text-decoration="underline" textLength="143.8486" x="474.41" y="442.8151">get_timestamp(): int</text><text fill="#000000" font-family="sans-serif" font-size="14" lengthAdjust="spacing" text-decoration="underline" textLength="143.7461" x="474.41" y="459.112">get_datetime_f(): str</text></g><!--class BaseStatusSub--><g class="entity" data-entity="BaseStatusSub" data-source-line="13" data-uid="ent0008" id="entity_BaseStatusSub"><rect fill="#F1F1F1" height="390.2344" rx="2.5" ry="2.5" style="stroke:#181818;stroke-width:0.5;" width="369.8613" x="42.4" y="231"/><ellipse cx="170.4063" cy="247" fill="#ADD1B2" rx="11" ry="11" style="stroke:#181818;stroke-width:1;"/><path d="M173.3751,252.6406 Q172.797,252.9375 172.1563,253.0781 Q171.5157,253.2344 170.8126,253.2344 Q168.3126,253.2344 166.9845,251.5938 Q165.672,249.9375 165.672,246.8125 Q165.672,243.6875 166.9845,242.0313 Q168.3126,240.375 170.8126,240.375 Q171.5157,240.375 172.1563,240.5313 Q172.8126,240.6875 173.3751,240.9844 L173.3751,243.7031 Q172.7501,243.125 172.1563,242.8594 Q171.5626,242.5781 170.9376,242.5781 Q169.5938,242.5781 168.9063,243.6563 Q168.2188,244.7188 168.2188,246.8125 Q168.2188,248.9063 168.9063,249.9844 Q169.5938,251.0469 170.9376,251.0469 Q171.5626,251.0469 172.1563,250.7813 Q172.7501,250.5 173.3751,249.9219 L173.3751,252.6406 Z " fill="#000000"/><text fill="#000000" font-family="sans-serif" font-size="14" lengthAdjust="spacing" textLength="105.3486" x="190.9063" y="251.8467">BaseStatusSub</text><line style="stroke:#181818;stroke-width:0.5;" x1="43.4" x2="411.2613" y1="263" y2="263"/><text fill="#000000" font-family="sans-serif" font-size="14" lengthAdjust="spacing" textLength="157.3975" x="48.4" y="279.9951">__please_override : str</text><text fill="#000000" font-family="sans-serif" font-size="14" lengthAdjust="spacing" textLength="167.4873" x="48.4" y="296.292">__subscription_dict: dict</text><text fill="#000000" font-family="sans-serif" font-size="14" lengthAdjust="spacing" textLength="232.7773" x="48.4" y="312.5889">__batch_timer : rclpy.timer.Timer</text><text fill="#000000" font-family="sans-serif" font-size="14" lengthAdjust="spacing" textLength="95.8125" x="48.4" y="328.8857">__nodes : dict</text><text fill="#000000" font-family="sans-serif" font-size="14" lengthAdjust="spacing" textLength="138.7627" x="48.4" y="345.1826">__conn : connection</text><line style="stroke:#181818;stroke-width:0.5;" x1="43.4" x2="411.2613" y1="352.4844" y2="352.4844"/><text fill="#000000" font-family="sans-serif" font-size="14" lengthAdjust="spacing" textLength="131.8447" x="48.4" y="369.4795">@property nodes()</text><text fill="#000000" font-family="sans-serif" font-size="14" lengthAdjust="spacing" textLength="123.6211" x="48.4" y="385.7764">@property conn()</text><text fill="#000000" font-family="sans-serif" font-size="14" lengthAdjust="spacing" textLength="145.9063" x="48.4" y="402.0732">getSubscription(key)</text><text fill="#000000" font-family="sans-serif" font-size="14" lengthAdjust="spacing" textLength="357.8613" x="48.4" y="418.3701">createSubscription(key, cls, topic, callback, queue)</text><text fill="#000000" font-family="sans-serif" font-size="14" lengthAdjust="spacing" textLength="135.0303" x="48.4" y="434.667">connect_db() : bool</text><text fill="#000000" font-family="sans-serif" font-size="14" lengthAdjust="spacing" textLength="145.7354" x="48.4" y="450.9639">check_nid(nid) : bool</text><text fill="#000000" font-family="sans-serif" font-size="14" lengthAdjust="spacing" textLength="189.0684" x="48.4" y="467.2607">validate_point(point) : bool</text><text fill="#000000" font-family="sans-serif" font-size="14" lengthAdjust="spacing" textLength="225.8867" x="48.4" y="483.5576">validate_quaternion(quat) : bool</text><text fill="#000000" font-family="sans-serif" font-size="14" lengthAdjust="spacing" textLength="160.4053" x="48.4" y="499.8545">validate_ipv4(ip) : bool</text><text fill="#000000" font-family="sans-serif" font-size="14" lengthAdjust="spacing" textLength="160.4053" x="48.4" y="516.1514">validate_ipv6(ip) : bool</text><text fill="#000000" font-family="sans-serif" font-size="14" lengthAdjust="spacing" textLength="177.4883" x="48.4" y="532.4482">validate_mac(mac) : bool</text><text fill="#000000" font-family="sans-serif" font-size="14" lengthAdjust="spacing" textLength="242.3477" x="48.4" y="548.7451">validate_neighbor(neighbor) : bool</text><text fill="#000000" font-family="sans-serif" font-size="14" lengthAdjust="spacing" textLength="240.9121" x="48.4" y="565.042">validate_indicator(indicator) : bool</text><text fill="#000000" font-family="sans-serif" font-size="14" font-style="italic" lengthAdjust="spacing" textLength="190.4629" x="48.4" y="581.3389">subscription_callback(msg)</text><text fill="#000000" font-family="sans-serif" font-size="14" font-style="italic" lengthAdjust="spacing" textLength="111.3711" x="48.4" y="597.6357">forward_batch()</text><text fill="#000000" font-family="sans-serif" font-size="14" font-style="italic" lengthAdjust="spacing" textLength="159.1611" x="48.4" y="613.9326">batch_timer_callback()</text></g><!--class RobotStatusSub--><g class="entity" data-entity="RobotStatusSub" data-source-line="42" data-uid="ent0013" id="entity_RobotStatusSub"><rect fill="#F1F1F1" height="210.9688" rx="2.5" ry="2.5" style="stroke:#181818;stroke-width:0.5;" width="206.332" x="271.17" y="696.23"/><ellipse cx="313.9979" cy="712.23" fill="#ADD1B2" rx="11" ry="11" style="stroke:#181818;stroke-width:1;"/><path d="M316.9667,717.8706 Q316.3886,718.1675 315.7479,718.3081 Q315.1073,718.4644 314.4042,718.4644 Q311.9042,718.4644 310.5761,716.8238 Q309.2636,715.1675 309.2636,712.0425 Q309.2636,708.9175 310.5761,707.2613 Q311.9042,705.605 314.4042,705.605 Q315.1073,705.605 315.7479,705.7613 Q316.4042,705.9175 316.9667,706.2144 L316.9667,708.9331 Q316.3417,708.355 315.7479,708.0894 Q315.1542,707.8081 314.5292,707.8081 Q313.1854,707.8081 312.4979,708.8863 Q311.8104,709.9488 311.8104,712.0425 Q311.8104,714.1363 312.4979,715.2144 Q313.1854,716.2769 314.5292,716.2769 Q315.1542,716.2769 315.7479,716.0113 Q316.3417,715.73 316.9667,715.1519 L316.9667,717.8706 Z " fill="#000000"/><text fill="#000000" font-family="sans-serif" font-size="14" lengthAdjust="spacing" textLength="112.4922" x="334.1819" y="717.0767">RobotStatusSub</text><line style="stroke:#181818;stroke-width:0.5;" x1="272.17" x2="476.502" y1="728.23" y2="728.23"/><text fill="#000000" font-family="sans-serif" font-size="14" lengthAdjust="spacing" textLength="113.333" x="277.17" y="745.2251">__nid_map : dict</text><text fill="#000000" font-family="sans-serif" font-size="14" lengthAdjust="spacing" textLength="127.1484" x="277.17" y="761.522">__state_map : dict</text><line style="stroke:#181818;stroke-width:0.5;" x1="272.17" x2="476.502" y1="768.8238" y2="768.8238"/><text fill="#000000" font-family="sans-serif" font-size="14" lengthAdjust="spacing" textLength="149.3652" x="277.17" y="785.8189">@property nid_map()</text><text fill="#000000" font-family="sans-serif" font-size="14" lengthAdjust="spacing" textLength="163.1807" x="277.17" y="802.1157">@property state_map()</text><text fill="#000000" font-family="sans-serif" font-size="14" lengthAdjust="spacing" textLength="194.332" x="277.17" y="818.4126">register_new_nodes(cursor)</text><text fill="#000000" font-family="sans-serif" font-size="14" lengthAdjust="spacing" textLength="190.4629" x="277.17" y="834.7095">subscription_callback(msg)</text><text fill="#000000" font-family="sans-serif" font-size="14" lengthAdjust="spacing" textLength="111.3711" x="277.17" y="851.0064">forward_batch()</text><text fill="#000000" font-family="sans-serif" font-size="14" lengthAdjust="spacing" textLength="145.2568" x="277.17" y="867.3032">forward_batch_test()</text><text fill="#000000" font-family="sans-serif" font-size="14" lengthAdjust="spacing" textLength="145.7354" x="277.17" y="883.6001">check_nid(nid) : bool</text><text fill="#000000" font-family="sans-serif" font-size="14" lengthAdjust="spacing" textLength="159.1611" x="277.17" y="899.897">batch_timer_callback()</text></g><g class="entity" data-entity="GMN9" data-source-line="39" data-uid="ent0010" id="entity_GMN9"><path d="M6,87.86 L6,128.1256 A0,0 0 0 0 6,128.1256 L125.68,128.1256 L163.34,230.62 L133.68,128.1256 L240.6621,128.1256 A0,0 0 0 0 240.6621,128.1256 L240.6621,97.86 L230.6621,87.86 L6,87.86 A0,0 0 0 0 6,87.86" fill="#FEFFDD" style="stroke:#181818;stroke-width:0.5;"/><path d="M230.6621,87.86 L230.6621,97.86 L240.6621,97.86 L230.6621,87.86" fill="#FEFFDD" style="stroke:#181818;stroke-width:0.5;"/><text fill="#000000" font-family="sans-serif" font-size="13" lengthAdjust="spacing" textLength="213.6621" x="12" y="104.9269">"connect_db returns True if conn</text><text fill="#000000" font-family="sans-serif" font-size="13" lengthAdjust="spacing" textLength="172.5103" x="16.1323" y="120.0597">has a working connection"</text></g><!--reverse link Node to BaseStatusSub--><g class="link" data-entity-1="Node" data-entity-2="BaseStatusSub" data-source-line="57" data-uid="lnk14" id="link_Node_BaseStatusSub"><path codeLine="57" d="M317.1823,149.354 C309.8623,171.814 303.59,191.05 290.7,230.63" fill="none" id="Node-backto-BaseStatusSub" style="stroke:#181818;stroke-width:1;"/><polygon fill="none" points="322.76,132.24,311.4777,147.4948,322.887,151.2132,322.76,132.24" style="stroke:#181818;stroke-width:1;"/></g><!--reverse link BaseStatusSub to RobotStatusSub--><g class="link" data-entity-1="BaseStatusSub" data-entity-2="RobotStatusSub" data-source-line="58" data-uid="lnk15" id="link_BaseStatusSub_RobotStatusSub"><path codeLine="58" d="M310.4328,638.3192 C320.5528,664.0292 324,672.8 333.19,696.17" fill="none" id="BaseStatusSub-backto-RobotStatusSub" style="stroke:#181818;stroke-width:1;"/><polygon fill="none" points="303.84,621.57,304.8498,640.5168,316.0159,636.1216,303.84,621.57" style="stroke:#181818;stroke-width:1;"/></g><!--reverse link TimeUtil to RobotStatusSub--><g class="link" data-entity-1="TimeUtil" data-entity-2="RobotStatusSub" data-source-line="59" data-uid="lnk16" id="link_TimeUtil_RobotStatusSub"><path codeLine="59" d="M525.581,472.1902 C500.681,526.2802 457.65,619.74 422.57,695.93" fill="none" id="TimeUtil-backto-RobotStatusSub" style="stroke:#181818;stroke-width:1;"/><polygon fill="#181818" points="528.09,466.74,520.693,473.2427,525.9992,471.2819,527.96,476.588,528.09,466.74" style="stroke:#181818;stroke-width:1;"/></g><!--SRC=[XLHDZziW4BtxLunomb9sJrKFqHwg_e0UclPM2M4ySL0SOFb85ANvxnsmdVL7qZqOmxoP0UQzmGfv40t2oidMNbwrgN45rm90ji9x-47hubOKTd0BweWy1jMElNwHyJVPiWdWweC8IjwWmS1J0AsFbfKRK3eiFMeHCAVT9HSV7BdS9flwysBBxyBZbf94lurLlo_djaMoStD2vrIDCAHBc8-LbqxPe8pcjP9X0sdiqKe4kS-7THJL5IElNjFbXXofF1ucWT9eJPRqGvboPtiUlbbdBBfmWHp7ofarnVH6giDsT3vsm4i7I8TKdZcsfYhuDGHZbQIvQDkAQhM6zuWH-y3kGBokM4ddgunfE_iUvO5hLJFw9iX9j2fnmQqXdbWU7pkyHngTJeT9qyTEofw-C6MVWb-VWaSX6NsFGOsgsLV6iM7oP0DD78b0VlVPnF4gAfA6aE464s4CjMH7tvHppvrnP-7gJYni0Oyqz96d7DIiJS3469ZTJBqRM7sm1Gv3T9gQoaK4jSj4_j6m5nu4d8qxADsCvBOQzGdTN72lz67SAJzDPSAoLOXzAhITYZcr9SxDSortWGirtsDxn66ZFCc463jtZSDaT9vuoF0dLNzKwecD1tfMUk2vflzFINhTuEtloykKa69AJtQOLh6ultXl2-mV]--></g></svg>