<svg xmlns="http://www.w3.org/2000/svg" xmlns:xlink="http://www.w3.org/1999/xlink" contentStyleType="text/css" data-diagram-type="CLASS" height="1085px" preserveAspectRatio="none" style="width:1166px;height:1085px;background:#FFFFFF;" version="1.1" viewBox="0 0 1166 1085" width="1166px" zoomAndPan="magnify"><defs/><g><!--cluster rclpy--><g class="cluster" data-entity="rclpy" data-source-line="2" data-uid="ent0004" id="cluster_rclpy"><path d="M674.5,47.13 L714.6494,47.13 A3.75,3.75 0 0 1 717.1494,49.63 L724.1494,69.4269 L817.5,69.4269 A2.5,2.5 0 0 1 820,71.9269 L820,210.63 A2.5,2.5 0 0 1 817.5,213.13 L674.5,213.13 A2.5,2.5 0 0 1 672,210.63 L672,49.63 A2.5,2.5 0 0 1 674.5,47.13" fill="none" style="stroke:#000000;stroke-width:1.5;"/><line style="stroke:#000000;stroke-width:1.5;" x1="672" x2="724.1494" y1="69.4269" y2="69.4269"/><text fill="#000000" font-family="sans-serif" font-size="14" font-weight="bold" lengthAdjust="spacing" textLength="39.1494" x="676" y="62.1251">rclpy</text></g><!--cluster node--><g class="cluster" data-entity="node" data-source-line="1" data-uid="ent0002" id="cluster_node"><path d="M698.5,90.13 L738.6016,90.13 A3.75,3.75 0 0 1 741.1016,92.63 L748.1016,112.4269 L793.5,112.4269 A2.5,2.5 0 0 1 796,114.9269 L796,186.63 A2.5,2.5 0 0 1 793.5,189.13 L698.5,189.13 A2.5,2.5 0 0 1 696,186.63 L696,92.63 A2.5,2.5 0 0 1 698.5,90.13" fill="none" style="stroke:#000000;stroke-width:1.5;"/><line style="stroke:#000000;stroke-width:1.5;" x1="696" x2="748.1016" y1="112.4269" y2="112.4269"/><text fill="#000000" font-family="sans-serif" font-size="14" font-weight="bold" lengthAdjust="spacing" textLength="39.1016" x="700" y="105.1251">node</text></g><!--cluster time_util--><g class="cluster" data-entity="time_util" data-source-line="5" data-uid="ent0005" id="cluster_time_util"><path d="M326.5,473.43 L396.3311,473.43 A3.75,3.75 0 0 1 398.8311,475.93 L405.8311,495.7269 L509.5,495.7269 A2.5,2.5 0 0 1 512,498.2269 L512,602.53 A2.5,2.5 0 0 1 509.5,605.03 L326.5,605.03 A2.5,2.5 0 0 1 324,602.53 L324,475.93 A2.5,2.5 0 0 1 326.5,473.43" fill="none" style="stroke:#000000;stroke-width:1.5;"/><line style="stroke:#000000;stroke-width:1.5;" x1="324" x2="405.8311" y1="495.7269" y2="495.7269"/><text fill="#000000" font-family="sans-serif" font-size="14" font-weight="bold" lengthAdjust="spacing" textLength="68.8311" x="328" y="488.4251">time_util</text></g><!--cluster robot_util--><g class="cluster" data-entity="robot_util" data-source-line="12" data-uid="ent0007" id="cluster_robot_util"><path d="M538.5,237.13 L615.6113,237.13 A3.75,3.75 0 0 1 618.1113,239.63 L625.1113,259.4269 L1156.5,259.4269 A2.5,2.5 0 0 1 1159,261.9269 L1159,838.83 A2.5,2.5 0 0 1 1156.5,841.33 L538.5,841.33 A2.5,2.5 0 0 1 536,838.83 L536,239.63 A2.5,2.5 0 0 1 538.5,237.13" fill="none" style="stroke:#000000;stroke-width:1.5;"/><line style="stroke:#000000;stroke-width:1.5;" x1="536" x2="625.1113" y1="259.4269" y2="259.4269"/><text fill="#000000" font-family="sans-serif" font-size="14" font-weight="bold" lengthAdjust="spacing" textLength="76.1113" x="540" y="252.1251">robot_util</text></g><!--cluster mock_data--><g class="cluster" data-entity="mock_data" data-source-line="58" data-uid="ent0010" id="cluster_mock_data"><path d="M413.5,865.33 L498.9238,865.33 A3.75,3.75 0 0 1 501.4238,867.83 L508.4238,887.6269 L750.5,887.6269 A2.5,2.5 0 0 1 753,890.1269 L753,1075.91 A2.5,2.5 0 0 1 750.5,1078.41 L413.5,1078.41 A2.5,2.5 0 0 1 411,1075.91 L411,867.83 A2.5,2.5 0 0 1 413.5,865.33" fill="none" style="stroke:#000000;stroke-width:1.5;"/><line style="stroke:#000000;stroke-width:1.5;" x1="411" x2="508.4238" y1="887.6269" y2="887.6269"/><text fill="#000000" font-family="sans-serif" font-size="14" font-weight="bold" lengthAdjust="spacing" textLength="84.4238" x="415" y="880.3251">mock_data</text></g><!--cluster mock_position--><g class="cluster" data-entity="mock_position" data-source-line="70" data-uid="ent0012" id="cluster_mock_position"><path d="M8.5,383.8 L122.1631,383.8 A3.75,3.75 0 0 1 124.6631,386.3 L131.6631,406.0969 L297.5,406.0969 A2.5,2.5 0 0 1 300,408.5969 L300,692.16 A2.5,2.5 0 0 1 297.5,694.66 L8.5,694.66 A2.5,2.5 0 0 1 6,692.16 L6,386.3 A2.5,2.5 0 0 1 8.5,383.8" fill="none" style="stroke:#000000;stroke-width:1.5;"/><line style="stroke:#000000;stroke-width:1.5;" x1="6" x2="131.6631" y1="406.0969" y2="406.0969"/><text fill="#000000" font-family="sans-serif" font-size="14" font-weight="bold" lengthAdjust="spacing" textLength="112.6631" x="10" y="398.7951">mock_position</text></g><!--cluster numpy--><g class="cluster" data-entity="numpy" data-source-line="89" data-uid="ent0014" id="cluster_numpy"><path d="M76.5,81.98 L131.1689,81.98 A3.75,3.75 0 0 1 133.6689,84.48 L140.6689,104.2769 L229.5,104.2769 A2.5,2.5 0 0 1 232,106.7769 L232,194.78 A2.5,2.5 0 0 1 229.5,197.28 L76.5,197.28 A2.5,2.5 0 0 1 74,194.78 L74,84.48 A2.5,2.5 0 0 1 76.5,81.98" fill="none" style="stroke:#000000;stroke-width:1.5;"/><line style="stroke:#000000;stroke-width:1.5;" x1="74" x2="140.6689" y1="104.2769" y2="104.2769"/><text fill="#000000" font-family="sans-serif" font-size="14" font-weight="bold" lengthAdjust="spacing" textLength="53.6689" x="78" y="96.9751">numpy</text></g><!--class Node--><g class="entity" data-entity="Node" data-source-line="2" data-uid="ent0003" id="entity_Node"><rect fill="#F1F1F1" height="48" rx="2.5" ry="2.5" style="stroke:#181818;stroke-width:0.5;" width="68.5381" x="711.73" y="125.13"/><ellipse cx="726.73" cy="141.13" fill="#ADD1B2" rx="11" ry="11" style="stroke:#181818;stroke-width:1;"/><path d="M729.6988,146.7706 Q729.1206,147.0675 728.48,147.2081 Q727.8394,147.3644 727.1363,147.3644 Q724.6363,147.3644 723.3081,145.7238 Q721.9956,144.0675 721.9956,140.9425 Q721.9956,137.8175 723.3081,136.1613 Q724.6363,134.505 727.1363,134.505 Q727.8394,134.505 728.48,134.6613 Q729.1363,134.8175 729.6988,135.1144 L729.6988,137.8331 Q729.0738,137.255 728.48,136.9894 Q727.8863,136.7081 727.2613,136.7081 Q725.9175,136.7081 725.23,137.7863 Q724.5425,138.8488 724.5425,140.9425 Q724.5425,143.0363 725.23,144.1144 Q725.9175,145.1769 727.2613,145.1769 Q727.8863,145.1769 728.48,144.9113 Q729.0738,144.63 729.6988,144.0519 L729.6988,146.7706 Z " fill="#000000"/><text fill="#000000" font-family="sans-serif" font-size="14" lengthAdjust="spacing" textLength="36.5381" x="740.73" y="145.9767">Node</text><line style="stroke:#181818;stroke-width:0.5;" x1="712.73" x2="779.2681" y1="157.13" y2="157.13"/><line style="stroke:#181818;stroke-width:0.5;" x1="712.73" x2="779.2681" y1="165.13" y2="165.13"/></g><!--class TimeUtil--><g class="entity" data-entity="TimeUtil" data-source-line="6" data-uid="ent0006" id="entity_TimeUtil"><rect fill="#F1F1F1" height="80.5938" rx="2.5" ry="2.5" style="stroke:#181818;stroke-width:0.5;" width="155.8486" x="340.08" y="508.43"/><ellipse cx="384.6503" cy="524.43" fill="#ADD1B2" rx="11" ry="11" style="stroke:#181818;stroke-width:1;"/><path d="M387.6191,530.0706 Q387.0409,530.3675 386.4003,530.5081 Q385.7597,530.6644 385.0566,530.6644 Q382.5566,530.6644 381.2284,529.0238 Q379.9159,527.3675 379.9159,524.2425 Q379.9159,521.1175 381.2284,519.4613 Q382.5566,517.805 385.0566,517.805 Q385.7597,517.805 386.4003,517.9613 Q387.0566,518.1175 387.6191,518.4144 L387.6191,521.1331 Q386.9941,520.555 386.4003,520.2894 Q385.8066,520.0081 385.1816,520.0081 Q383.8378,520.0081 383.1503,521.0863 Q382.4628,522.1488 382.4628,524.2425 Q382.4628,526.3363 383.1503,527.4144 Q383.8378,528.4769 385.1816,528.4769 Q385.8066,528.4769 386.4003,528.2113 Q386.9941,527.93 387.6191,527.3519 L387.6191,530.0706 Z " fill="#000000"/><text fill="#000000" font-family="sans-serif" font-size="14" lengthAdjust="spacing" textLength="58.208" x="405.1503" y="529.2767">TimeUtil</text><line style="stroke:#181818;stroke-width:0.5;" x1="341.08" x2="494.9286" y1="540.43" y2="540.43"/><line style="stroke:#181818;stroke-width:0.5;" x1="341.08" x2="494.9286" y1="548.43" y2="548.43"/><text fill="#000000" font-family="sans-serif" font-size="14" lengthAdjust="spacing" text-decoration="underline" textLength="143.8486" x="346.08" y="565.4251">get_timestamp(): int</text><text fill="#000000" font-family="sans-serif" font-size="14" lengthAdjust="spacing" text-decoration="underline" textLength="143.7461" x="346.08" y="581.722">get_datetime_f(): str</text></g><!--class BaseStatusPub--><g class="entity" data-entity="BaseStatusPub" data-source-line="13" data-uid="ent0008" id="entity_BaseStatusPub"><rect fill="#F1F1F1" height="553.2031" rx="2.5" ry="2.5" style="stroke:#181818;stroke-width:0.5;" width="387.7031" x="552.15" y="272.13"/><ellipse cx="689.2994" cy="288.13" fill="#A9DCDF" rx="11" ry="11" style="stroke:#181818;stroke-width:1;"/><path d="M689.4088,283.4738 L688.2525,288.5519 L690.5807,288.5519 L689.4088,283.4738 Z M687.9244,281.2394 L690.9088,281.2394 L694.2682,293.63 L691.815,293.63 L691.0494,290.5675 L687.7682,290.5675 L687.0182,293.63 L684.5807,293.63 L687.9244,281.2394 Z " fill="#000000"/><text fill="#000000" font-family="sans-serif" font-size="14" font-style="italic" lengthAdjust="spacing" textLength="104.9043" x="709.7994" y="292.9767">BaseStatusPub</text><line style="stroke:#181818;stroke-width:0.5;" x1="553.15" x2="938.8531" y1="304.13" y2="304.13"/><text fill="#000000" font-family="sans-serif" font-size="14" lengthAdjust="spacing" textLength="157.3975" x="558.15" y="321.1251">__please_override : str</text><text fill="#000000" font-family="sans-serif" font-size="14" lengthAdjust="spacing" textLength="67.5186" x="558.15" y="337.422">__nid : int</text><text fill="#000000" font-family="sans-serif" font-size="14" lengthAdjust="spacing" textLength="75.7832" x="558.15" y="353.7189">__mac : int</text><text fill="#000000" font-family="sans-serif" font-size="14" lengthAdjust="spacing" textLength="151.5049" x="558.15" y="370.0157">__publisher_dict : dict</text><text fill="#000000" font-family="sans-serif" font-size="14" lengthAdjust="spacing" textLength="136.6914" x="558.15" y="386.3126">__service_dict : dict</text><text fill="#000000" font-family="sans-serif" font-size="14" lengthAdjust="spacing" textLength="129.6367" x="558.15" y="402.6095">__action_dict : dict</text><text fill="#000000" font-family="sans-serif" font-size="14" lengthAdjust="spacing" textLength="173.0039" x="558.15" y="418.9064">__allowed_activities : set</text><text fill="#000000" font-family="sans-serif" font-size="14" lengthAdjust="spacing" textLength="97.7607" x="558.15" y="435.2032">__activity : str</text><text fill="#000000" font-family="sans-serif" font-size="14" lengthAdjust="spacing" textLength="123.9287" x="558.15" y="451.5001">__timer_dict : dict</text><text fill="#000000" font-family="sans-serif" font-size="14" lengthAdjust="spacing" textLength="148.8867" x="558.15" y="467.797">__neighbor_dict : dict</text><line style="stroke:#181818;stroke-width:0.5;" x1="553.15" x2="938.8531" y1="475.0988" y2="475.0988"/><text fill="#000000" font-family="sans-serif" font-size="14" lengthAdjust="spacing" textLength="121.5293" x="558.15" y="492.0939">__init__(nid, mac)</text><text fill="#000000" font-family="sans-serif" font-size="14" lengthAdjust="spacing" textLength="123.4365" x="558.15" y="508.3907">getPublisher(key)</text><text fill="#000000" font-family="sans-serif" font-size="14" lengthAdjust="spacing" textLength="110.6602" x="558.15" y="524.6876">getService(key)</text><text fill="#000000" font-family="sans-serif" font-size="14" lengthAdjust="spacing" textLength="103.0107" x="558.15" y="540.9845">getAction(key)</text><text fill="#000000" font-family="sans-serif" font-size="14" lengthAdjust="spacing" textLength="99.3672" x="558.15" y="557.2814">getTimer(key)</text><text fill="#000000" font-family="sans-serif" font-size="14" lengthAdjust="spacing" textLength="312.6895" x="558.15" y="573.5782">createPublisher(key, cls, topic, queue) : bool</text><text fill="#000000" font-family="sans-serif" font-size="14" lengthAdjust="spacing" textLength="375.7031" x="558.15" y="589.8751">createService(key, cls, service_name, callback) : bool</text><text fill="#000000" font-family="sans-serif" font-size="14" lengthAdjust="spacing" textLength="360.999" x="558.15" y="606.172">createAction(key, cls, action_name, callback) : bool</text><text fill="#000000" font-family="sans-serif" font-size="14" lengthAdjust="spacing" textLength="263.3818" x="558.15" y="622.4689">createTimer(key, sec, callback) : bool</text><text fill="#000000" font-family="sans-serif" font-size="14" lengthAdjust="spacing" textLength="261.6865" x="558.15" y="638.7657">updateAllowedActivities(items) : bool</text><text fill="#000000" font-family="sans-serif" font-size="14" lengthAdjust="spacing" textLength="111.2617" x="558.15" y="655.0626">@property nid()</text><text fill="#000000" font-family="sans-serif" font-size="14" lengthAdjust="spacing" textLength="119.5264" x="558.15" y="671.3595">@property mac()</text><text fill="#000000" font-family="sans-serif" font-size="14" lengthAdjust="spacing" textLength="213.6025" x="558.15" y="687.6564">@property allowed_activities()</text><text fill="#000000" font-family="sans-serif" font-size="14" lengthAdjust="spacing" textLength="141.2168" x="558.15" y="703.9532">@property activity()</text><text fill="#000000" font-family="sans-serif" font-size="14" lengthAdjust="spacing" textLength="186.8672" x="558.15" y="720.2501">@activity.setter activity(a)</text><text fill="#000000" font-family="sans-serif" font-size="14" lengthAdjust="spacing" textLength="184.9189" x="558.15" y="736.547">@property neighbor_dict()</text><text fill="#000000" font-family="sans-serif" font-size="14" lengthAdjust="spacing" textLength="274.5791" x="558.15" y="752.8439">@neighbor_dict.setter neighbor_dict(d)</text><text fill="#000000" font-family="sans-serif" font-size="14" font-style="italic" lengthAdjust="spacing" textLength="281.5723" x="558.15" y="769.1407">set_activity_callback(request, response)</text><text fill="#000000" font-family="sans-serif" font-size="14" font-style="italic" lengthAdjust="spacing" textLength="284.9766" x="558.15" y="785.4376">service_info_callback(request, response)</text><text fill="#000000" font-family="sans-serif" font-size="14" font-style="italic" lengthAdjust="spacing" textLength="297.2676" x="558.15" y="801.7345">interface_info_callback(request, response)</text><text fill="#000000" font-family="sans-serif" font-size="14" lengthAdjust="spacing" textLength="161.5947" x="558.15" y="818.0314">addHeader(msg) : bool</text></g><!--class Util--><g class="entity" data-entity="Util" data-source-line="48" data-uid="ent0009" id="entity_Util"><rect fill="#F1F1F1" height="145.7813" rx="2.5" ry="2.5" style="stroke:#181818;stroke-width:0.5;" width="168.7891" x="974.61" y="475.84"/><ellipse cx="1042.9967" cy="491.84" fill="#ADD1B2" rx="11" ry="11" style="stroke:#181818;stroke-width:1;"/><path d="M1045.9655,497.4806 Q1045.3873,497.7775 1044.7467,497.9181 Q1044.1061,498.0744 1043.403,498.0744 Q1040.903,498.0744 1039.5748,496.4338 Q1038.2623,494.7775 1038.2623,491.6525 Q1038.2623,488.5275 1039.5748,486.8713 Q1040.903,485.215 1043.403,485.215 Q1044.1061,485.215 1044.7467,485.3713 Q1045.403,485.5275 1045.9655,485.8244 L1045.9655,488.5431 Q1045.3405,487.965 1044.7467,487.6994 Q1044.153,487.4181 1043.528,487.4181 Q1042.1842,487.4181 1041.4967,488.4963 Q1040.8092,489.5588 1040.8092,491.6525 Q1040.8092,493.7463 1041.4967,494.8244 Q1042.1842,495.8869 1043.528,495.8869 Q1044.153,495.8869 1044.7467,495.6213 Q1045.3405,495.34 1045.9655,494.7619 L1045.9655,497.4806 Z " fill="#000000"/><text fill="#000000" font-family="sans-serif" font-size="14" lengthAdjust="spacing" textLength="23.5156" x="1063.4967" y="496.6867">Util</text><line style="stroke:#181818;stroke-width:0.5;" x1="975.61" x2="1142.3991" y1="507.84" y2="507.84"/><line style="stroke:#181818;stroke-width:0.5;" x1="975.61" x2="1142.3991" y1="515.84" y2="515.84"/><text fill="#000000" font-family="sans-serif" font-size="14" lengthAdjust="spacing" text-decoration="underline" textLength="102.9834" x="980.61" y="532.8351">get_mac() : str</text><text fill="#000000" font-family="sans-serif" font-size="14" lengthAdjust="spacing" text-decoration="underline" textLength="156.7891" x="980.61" y="549.132">get_nid(mac : str) : str</text><text fill="#000000" font-family="sans-serif" font-size="14" lengthAdjust="spacing" text-decoration="underline" textLength="137.0811" x="980.61" y="565.4289">get_battery() : float</text><text fill="#000000" font-family="sans-serif" font-size="14" lengthAdjust="spacing" text-decoration="underline" textLength="111.4395" x="980.61" y="581.7257">get_cpu() : float</text><text fill="#000000" font-family="sans-serif" font-size="14" lengthAdjust="spacing" text-decoration="underline" textLength="85.8457" x="980.61" y="598.0226">get_ip() : str</text><text fill="#000000" font-family="sans-serif" font-size="14" lengthAdjust="spacing" text-decoration="underline" textLength="150.1309" x="980.61" y="614.3195">get_neighbors() : dict</text></g><!--class MockRobotStatusPub--><g class="entity" data-entity="MockRobotStatusPub" data-source-line="59" data-uid="ent0011" id="entity_MockRobotStatusPub"><rect fill="#F1F1F1" height="162.0781" rx="2.5" ry="2.5" style="stroke:#181818;stroke-width:0.5;" width="309.2676" x="427.37" y="900.33"/><ellipse cx="503.5053" cy="916.33" fill="#ADD1B2" rx="11" ry="11" style="stroke:#181818;stroke-width:1;"/><path d="M506.474,921.9706 Q505.8959,922.2675 505.2553,922.4081 Q504.6146,922.5644 503.9115,922.5644 Q501.4115,922.5644 500.0834,920.9238 Q498.7709,919.2675 498.7709,916.1425 Q498.7709,913.0175 500.0834,911.3613 Q501.4115,909.705 503.9115,909.705 Q504.6146,909.705 505.2553,909.8613 Q505.9115,910.0175 506.474,910.3144 L506.474,913.0331 Q505.849,912.455 505.2553,912.1894 Q504.6615,911.9081 504.0365,911.9081 Q502.6928,911.9081 502.0053,912.9863 Q501.3178,914.0488 501.3178,916.1425 Q501.3178,918.2363 502.0053,919.3144 Q502.6928,920.3769 504.0365,920.3769 Q504.6615,920.3769 505.2553,920.1113 Q505.849,919.83 506.474,919.2519 L506.474,921.9706 Z " fill="#000000"/><text fill="#000000" font-family="sans-serif" font-size="14" lengthAdjust="spacing" textLength="148.4971" x="524.0053" y="921.1767">MockRobotStatusPub</text><line style="stroke:#181818;stroke-width:0.5;" x1="428.37" x2="735.6376" y1="932.33" y2="932.33"/><line style="stroke:#181818;stroke-width:0.5;" x1="428.37" x2="735.6376" y1="940.33" y2="940.33"/><text fill="#000000" font-family="sans-serif" font-size="14" lengthAdjust="spacing" textLength="121.5293" x="433.37" y="957.3251">__init__(nid, mac)</text><text fill="#000000" font-family="sans-serif" font-size="14" lengthAdjust="spacing" textLength="281.5723" x="433.37" y="973.622">set_activity_callback(request, response)</text><text fill="#000000" font-family="sans-serif" font-size="14" lengthAdjust="spacing" textLength="284.9766" x="433.37" y="989.9189">service_info_callback(request, response)</text><text fill="#000000" font-family="sans-serif" font-size="14" lengthAdjust="spacing" textLength="297.2676" x="433.37" y="1006.2157">interface_info_callback(request, response)</text><text fill="#000000" font-family="sans-serif" font-size="14" lengthAdjust="spacing" textLength="170.249" x="433.37" y="1022.5126">system_timer_callback()</text><text fill="#000000" font-family="sans-serif" font-size="14" lengthAdjust="spacing" textLength="145.7012" x="433.37" y="1038.8095">geo_timer_callback()</text><text fill="#000000" font-family="sans-serif" font-size="14" lengthAdjust="spacing" textLength="152.1543" x="433.37" y="1055.1064">misc_timer_callback()</text></g><!--class MockPosition--><g class="entity" data-entity="MockPosition" data-source-line="71" data-uid="ent0013" id="entity_MockPosition"><rect fill="#F1F1F1" height="259.8594" rx="2.5" ry="2.5" style="stroke:#181818;stroke-width:0.5;" width="261.4297" x="22.29" y="418.8"/><ellipse cx="103.0258" cy="434.8" fill="#ADD1B2" rx="11" ry="11" style="stroke:#181818;stroke-width:1;"/><path d="M105.9946,440.4406 Q105.4165,440.7375 104.7758,440.8781 Q104.1352,441.0344 103.4321,441.0344 Q100.9321,441.0344 99.604,439.3938 Q98.2915,437.7375 98.2915,434.6125 Q98.2915,431.4875 99.604,429.8313 Q100.9321,428.175 103.4321,428.175 Q104.1352,428.175 104.7758,428.3313 Q105.4321,428.4875 105.9946,428.7844 L105.9946,431.5031 Q105.3696,430.925 104.7758,430.6594 Q104.1821,430.3781 103.5571,430.3781 Q102.2133,430.3781 101.5258,431.4563 Q100.8383,432.5188 100.8383,434.6125 Q100.8383,436.7063 101.5258,437.7844 Q102.2133,438.8469 103.5571,438.8469 Q104.1821,438.8469 104.7758,438.5813 Q105.3696,438.3 105.9946,437.7219 L105.9946,440.4406 Z " fill="#000000"/><text fill="#000000" font-family="sans-serif" font-size="14" lengthAdjust="spacing" textLength="91.458" x="123.5258" y="439.6467">MockPosition</text><line style="stroke:#181818;stroke-width:0.5;" x1="23.29" x2="282.7197" y1="450.8" y2="450.8"/><text fill="#000000" font-family="sans-serif" font-size="14" lengthAdjust="spacing" textLength="75.79" x="28.29" y="467.7951">__goal : int</text><text fill="#000000" font-family="sans-serif" font-size="14" lengthAdjust="spacing" textLength="149.543" x="28.29" y="484.092">__max_vec_len : float</text><text fill="#000000" font-family="sans-serif" font-size="14" lengthAdjust="spacing" textLength="137.7783" x="28.29" y="500.3889">__mock_routes : list</text><text fill="#000000" font-family="sans-serif" font-size="14" lengthAdjust="spacing" textLength="91.1777" x="28.29" y="516.6857">__points : list</text><text fill="#000000" font-family="sans-serif" font-size="14" lengthAdjust="spacing" textLength="115.6299" x="28.29" y="532.9826">__current : array</text><line style="stroke:#181818;stroke-width:0.5;" x1="23.29" x2="282.7197" y1="540.2844" y2="540.2844"/><text fill="#000000" font-family="sans-serif" font-size="14" lengthAdjust="spacing" textLength="179.2109" x="28.29" y="557.2795">@property mock_routes()</text><text fill="#000000" font-family="sans-serif" font-size="14" lengthAdjust="spacing" textLength="119.5332" x="28.29" y="573.5764">@property goal()</text><text fill="#000000" font-family="sans-serif" font-size="14" lengthAdjust="spacing" textLength="175.6768" x="28.29" y="589.8732">@goal.setter goal(g : int)</text><text fill="#000000" font-family="sans-serif" font-size="14" lengthAdjust="spacing" textLength="180.0859" x="28.29" y="606.1701">@property max_vec_len()</text><text fill="#000000" font-family="sans-serif" font-size="14" lengthAdjust="spacing" textLength="249.4297" x="28.29" y="622.467">@goal.setter max_vec_len(g : float)</text><text fill="#000000" font-family="sans-serif" font-size="14" lengthAdjust="spacing" textLength="140.6699" x="28.29" y="638.7639">@property current()</text><text fill="#000000" font-family="sans-serif" font-size="14" lengthAdjust="spacing" textLength="215.209" x="28.29" y="655.0607">@goal.setter current(a : array)</text><text fill="#000000" font-family="sans-serif" font-size="14" lengthAdjust="spacing" textLength="176.415" x="28.29" y="671.3576">advance_position() : bool</text></g><!--class ndarray--><g class="entity" data-entity="ndarray" data-source-line="90" data-uid="ent0015" id="entity_ndarray"><rect fill="#F1F1F1" height="64.2969" rx="2.5" ry="2.5" style="stroke:#181818;stroke-width:0.5;" width="125.2715" x="90.36" y="116.98"/><ellipse cx="122.7105" cy="132.98" fill="#ADD1B2" rx="11" ry="11" style="stroke:#181818;stroke-width:1;"/><path d="M125.6792,138.6206 Q125.1011,138.9175 124.4605,139.0581 Q123.8199,139.2144 123.1167,139.2144 Q120.6167,139.2144 119.2886,137.5738 Q117.9761,135.9175 117.9761,132.7925 Q117.9761,129.6675 119.2886,128.0113 Q120.6167,126.355 123.1167,126.355 Q123.8199,126.355 124.4605,126.5113 Q125.1167,126.6675 125.6792,126.9644 L125.6792,129.6831 Q125.0542,129.105 124.4605,128.8394 Q123.8667,128.5581 123.2417,128.5581 Q121.898,128.5581 121.2105,129.6363 Q120.523,130.6988 120.523,132.7925 Q120.523,134.8863 121.2105,135.9644 Q121.898,137.0269 123.2417,137.0269 Q123.8667,137.0269 124.4605,136.7613 Q125.0542,136.48 125.6792,135.9019 L125.6792,138.6206 Z " fill="#000000"/><text fill="#000000" font-family="sans-serif" font-size="14" lengthAdjust="spacing" textLength="54.7148" x="140.5662" y="137.8267">ndarray</text><line style="stroke:#181818;stroke-width:0.5;" x1="91.36" x2="214.6315" y1="148.98" y2="148.98"/><line style="stroke:#181818;stroke-width:0.5;" x1="91.36" x2="214.6315" y1="156.98" y2="156.98"/><text fill="#000000" font-family="sans-serif" font-size="14" lengthAdjust="spacing" textLength="113.2715" x="96.36" y="173.9751">array(object, ...)</text></g><g class="entity" data-entity="GMN16" data-source-line="94" data-uid="ent0017" id="entity_GMN16"><path d="M16.46,6 L16.46,31.1328 A0,0 0 0 0 16.46,31.1328 L149,31.1328 L153,116.7 L157,31.1328 L289.5381,31.1328 A0,0 0 0 0 289.5381,31.1328 L289.5381,16 L279.5381,6 L16.46,6 A0,0 0 0 0 16.46,6" fill="#FEFFDD" style="stroke:#181818;stroke-width:0.5;"/><path d="M279.5381,6 L279.5381,16 L289.5381,16 L279.5381,6" fill="#FEFFDD" style="stroke:#181818;stroke-width:0.5;"/><text fill="#000000" font-family="sans-serif" font-size="13" lengthAdjust="spacing" textLength="252.0781" x="22.46" y="23.0669">"array() is actually a package method"</text></g><!--reverse link Node to BaseStatusPub--><g class="link" data-entity-1="Node" data-entity-2="BaseStatusPub" data-source-line="96" data-uid="lnk19" id="link_Node_BaseStatusPub"><path codeLine="96" d="M746,191.52 C746,213.57 746,231.27 746,272.08" fill="none" id="Node-backto-BaseStatusPub" style="stroke:#181818;stroke-width:1;"/><polygon fill="none" points="746,173.52,740,191.52,752,191.52,746,173.52" style="stroke:#181818;stroke-width:1;"/></g><!--reverse link BaseStatusPub to MockRobotStatusPub--><g class="link" data-entity-1="BaseStatusPub" data-entity-2="MockRobotStatusPub" data-source-line="97" data-uid="lnk20" id="link_BaseStatusPub_MockRobotStatusPub"><path codeLine="97" d="M634.4557,842.6322 C624.2757,869.3722 621.01,877.93 612.57,900.11" fill="none" id="BaseStatusPub-backto-MockRobotStatusPub" style="stroke:#181818;stroke-width:1;"/><polygon fill="none" points="640.86,825.81,628.8484,840.4974,640.0631,844.7669,640.86,825.81" style="stroke:#181818;stroke-width:1;"/></g><!--reverse link Util to MockRobotStatusPub--><g class="link" data-entity-1="Util" data-entity-2="MockRobotStatusPub" data-source-line="98" data-uid="lnk21" id="link_Util_MockRobotStatusPub"><path codeLine="98" d="M1051.4128,627.9555 C1041.4728,695.2155 1017.75,788.09 957,849.33 C898.47,908.33 811.96,940.82 736.77,958.68" fill="none" id="Util-backto-MockRobotStatusPub" style="stroke:#181818;stroke-width:1;"/><polygon fill="#181818" points="1052.29,622.02,1047.0172,630.3385,1051.559,626.9663,1054.9313,631.5081,1052.29,622.02" style="stroke:#181818;stroke-width:1;"/></g><!--reverse link MockPosition to MockRobotStatusPub--><g class="link" data-entity-1="MockPosition" data-entity-2="MockRobotStatusPub" data-source-line="99" data-uid="lnk22" id="link_MockPosition_MockRobotStatusPub"><path codeLine="99" d="M214.0758,695.1715 C242.5458,752.6815 274.13,801.83 324,849.33 C353.65,877.57 390.57,901.11 427.12,920.08" fill="none" id="MockPosition-backto-MockRobotStatusPub" style="stroke:#181818;stroke-width:1;"/><polygon fill="none" points="206.09,679.04,208.6986,697.8335,219.453,692.5096,206.09,679.04" style="stroke:#181818;stroke-width:1;"/></g><!--reverse link TimeUtil to MockRobotStatusPub--><g class="link" data-entity-1="TimeUtil" data-entity-2="MockRobotStatusPub" data-source-line="100" data-uid="lnk23" id="link_TimeUtil_MockRobotStatusPub"><path codeLine="100" d="M435.2659,595.077 C462.0759,665.457 516.23,807.66 551.39,900" fill="none" id="TimeUtil-backto-MockRobotStatusPub" style="stroke:#181818;stroke-width:1;"/><polygon fill="#181818" points="433.13,589.47,432.5958,599.3044,434.9099,594.1425,440.0718,596.4565,433.13,589.47" style="stroke:#181818;stroke-width:1;"/></g><!--reverse link ndarray to MockPosition--><g class="link" data-entity-1="ndarray" data-entity-2="MockPosition" data-source-line="101" data-uid="lnk24" id="link_ndarray_MockPosition"><path codeLine="101" d="M153,187.66 C153,238.35 153,334.77 153,418.41" fill="none" id="ndarray-backto-MockPosition" style="stroke:#181818;stroke-width:1;"/><polygon fill="#181818" points="153,181.66,149,190.66,153,186.66,157,190.66,153,181.66" style="stroke:#181818;stroke-width:1;"/></g><!--SRC=[bLPDSziW4BthLp0-oJEEVq0cXwQdNjh9DErPWz1QeP600dAhIVtVko2GXONJ-cJhxGVBljqdASfUQGjaercdnhsG3Mp8Mq48wwWnv0i-5wUYKD7DyXwgmV9kwVKDmU-8UOYGDsEfvUn4Mh2L2y3dNfNRUyA5NNiqr89FUt0kncfqEIM7QbbBkpYLrkX5cGt7VwG6dZ7XO9w6EjHGLQe3n2jv1Arv0oIcTZR16tAkfgfwof9dDTGTDo-WguRZCVV4_GIR0Nta338Mh8XBaJDqdVm5ZNSuSil1k6fW6OVmc9JeEf8xNW1lNsgvDWKx5znMLOatt16yrjR3sEQdUANo5SOPVPukas2F_Xe9v0XU138Do5cISOTSc1snKd6s8py7662BrTLITekGnN4X87PJq1uGmaxLo7ecz5nLY0pT_cVWNBixZ5rn7PIRmiU9fyUPff9Rw4tY-K5fgK0ZMzZYSdk1OSTNs9hzjKkOW6Y8ptiS4WlwRAUNaSaunF04Z3bIpsPoVOkhT7BpE4zY5PjKQa0kZTqH3KP9OI0JDp78nK7U4eVR1lf0_pUIDiqde0rIsPjsmGZgH9IXQnBaILaiLs9qB4xhZ-QhNZLrFHnzcaCdQKR6c1hUCtFrJWs16kDTmaQd4jXBzkgKaYvrzpE2NvqshjKlAmCtKNmJhpUIQKQ3YnKqRdQESYFpXfuRbhDa6gMauKuTBflr5F2vJQsatSMRu7Tr15Pr818kqU8IQpbOhzweVFFBGcBu1SO6hK4uVQPQq_4iq0kfEETRwO4hAuBkVznXZxTJmMlfcIlFXIxDRRpQPOvGTYu-ccYyKrpB8nL8U-nucQpcaXWnz6fS4Y8QdoTmuV-Nilu13CTblzzlIKWXf0NtOY7oCCVSayqKi2NSE7aSS29GHqayhWVx8fjDKRWl6FBmv-uk_Kmeqey6xx1Ufy9BoaFUbWpKjGJpfz6L9F52qHmJ_WK0]--></g></svg>