<svg xmlns="http://www.w3.org/2000/svg" xmlns:xlink="http://www.w3.org/1999/xlink" contentStyleType="text/css" data-diagram-type="CLASS" height="557px" preserveAspectRatio="none" style="width:1798px;height:557px;background:#FFFFFF;" version="1.1" viewBox="0 0 1798 557" width="1798px" zoomAndPan="magnify"><defs/><g><!--cluster custom_interfaces--><g class="cluster" data-entity="custom_interfaces" data-source-line="2" data-uid="ent0004" id="cluster_custom_interfaces"><path d="M8.5,6 L153.5195,6 A3.75,3.75 0 0 1 156.0195,8.5 L163.0195,28.2969 L1788.5,28.2969 A2.5,2.5 0 0 1 1791,30.7969 L1791,548.47 A2.5,2.5 0 0 1 1788.5,550.97 L8.5,550.97 A2.5,2.5 0 0 1 6,548.47 L6,8.5 A2.5,2.5 0 0 1 8.5,6" fill="none" style="stroke:#000000;stroke-width:1.5;"/><line style="stroke:#000000;stroke-width:1.5;" x1="6" x2="163.0195" y1="28.2969" y2="28.2969"/><text fill="#000000" font-family="sans-serif" font-size="14" font-weight="bold" lengthAdjust="spacing" textLength="144.0195" x="10" y="20.9951">custom_interfaces</text></g><!--cluster msg--><g class="cluster" data-entity="msg" data-source-line="1" data-uid="ent0002" id="cluster_msg"><path d="M32.5,49 L66.4424,49 A3.75,3.75 0 0 1 68.9424,51.5 L75.9424,71.2969 L950.5,71.2969 A2.5,2.5 0 0 1 953,73.7969 L953,516.32 A2.5,2.5 0 0 1 950.5,518.82 L32.5,518.82 A2.5,2.5 0 0 1 30,516.32 L30,51.5 A2.5,2.5 0 0 1 32.5,49" fill="none" style="stroke:#000000;stroke-width:1.5;"/><line style="stroke:#000000;stroke-width:1.5;" x1="30" x2="75.9424" y1="71.2969" y2="71.2969"/><text fill="#000000" font-family="sans-serif" font-size="14" font-weight="bold" lengthAdjust="spacing" textLength="32.9424" x="34" y="63.9951">msg</text></g><!--cluster srv--><g class="cluster" data-entity="srv" data-source-line="56" data-uid="ent0019" id="cluster_srv"><path d="M979.5,73.45 L1004.8633,73.45 A3.75,3.75 0 0 1 1007.3633,75.95 L1014.3633,95.7469 L1764.5,95.7469 A2.5,2.5 0 0 1 1767,98.2469 L1767,524.47 A2.5,2.5 0 0 1 1764.5,526.97 L979.5,526.97 A2.5,2.5 0 0 1 977,524.47 L977,75.95 A2.5,2.5 0 0 1 979.5,73.45" fill="none" style="stroke:#000000;stroke-width:1.5;"/><line style="stroke:#000000;stroke-width:1.5;" x1="977" x2="1014.3633" y1="95.7469" y2="95.7469"/><text fill="#000000" font-family="sans-serif" font-size="14" font-weight="bold" lengthAdjust="spacing" textLength="24.3633" x="981" y="88.4451">srv</text></g><!--class Header--><g class="entity" data-entity="Header" data-source-line="2" data-uid="ent0003" id="entity_Header"><rect fill="#F1F1F1" height="96.8906" rx="2.5" ry="2.5" style="stroke:#181818;stroke-width:0.5;" width="100.9971" x="430.5" y="273.49"/><ellipse cx="453.6097" cy="289.49" fill="#ADD1B2" rx="11" ry="11" style="stroke:#181818;stroke-width:1;"/><path d="M456.5784,295.1306 Q456.0003,295.4275 455.3597,295.5681 Q454.719,295.7244 454.0159,295.7244 Q451.5159,295.7244 450.1878,294.0838 Q448.8753,292.4275 448.8753,289.3025 Q448.8753,286.1775 450.1878,284.5213 Q451.5159,282.865 454.0159,282.865 Q454.719,282.865 455.3597,283.0213 Q456.0159,283.1775 456.5784,283.4744 L456.5784,286.1931 Q455.9534,285.615 455.3597,285.3494 Q454.7659,285.0681 454.1409,285.0681 Q452.7972,285.0681 452.1097,286.1463 Q451.4222,287.2088 451.4222,289.3025 Q451.4222,291.3963 452.1097,292.4744 Q452.7972,293.5369 454.1409,293.5369 Q454.7659,293.5369 455.3597,293.2713 Q455.9534,292.99 456.5784,292.4119 L456.5784,295.1306 Z " fill="#000000"/><text fill="#000000" font-family="sans-serif" font-size="14" lengthAdjust="spacing" textLength="50.9756" x="469.4118" y="294.3367">Header</text><line style="stroke:#181818;stroke-width:0.5;" x1="431.5" x2="530.4971" y1="305.49" y2="305.49"/><text fill="#000000" font-family="sans-serif" font-size="14" lengthAdjust="spacing" textLength="49.3555" x="436.5" y="322.4851">nid: str</text><text fill="#000000" font-family="sans-serif" font-size="14" lengthAdjust="spacing" textLength="88.9971" x="436.5" y="338.782">frame_id: str</text><text fill="#000000" font-family="sans-serif" font-size="14" lengthAdjust="spacing" textLength="75.4893" x="436.5" y="355.0789">time: Time</text><line style="stroke:#181818;stroke-width:0.5;" x1="431.5" x2="530.4971" y1="362.3806" y2="362.3806"/></g><!--class Time--><g class="entity" data-entity="Time" data-source-line="8" data-uid="ent0005" id="entity_Time"><rect fill="#F1F1F1" height="64.2969" rx="2.5" ry="2.5" style="stroke:#181818;stroke-width:0.5;" width="66.6924" x="447.65" y="438.52"/><ellipse cx="462.65" cy="454.52" fill="#ADD1B2" rx="11" ry="11" style="stroke:#181818;stroke-width:1;"/><path d="M465.6188,460.1606 Q465.0406,460.4575 464.4,460.5981 Q463.7594,460.7544 463.0563,460.7544 Q460.5563,460.7544 459.2281,459.1138 Q457.9156,457.4575 457.9156,454.3325 Q457.9156,451.2075 459.2281,449.5513 Q460.5563,447.895 463.0563,447.895 Q463.7594,447.895 464.4,448.0513 Q465.0563,448.2075 465.6188,448.5044 L465.6188,451.2231 Q464.9938,450.645 464.4,450.3794 Q463.8063,450.0981 463.1813,450.0981 Q461.8375,450.0981 461.15,451.1763 Q460.4625,452.2388 460.4625,454.3325 Q460.4625,456.4263 461.15,457.5044 Q461.8375,458.5669 463.1813,458.5669 Q463.8063,458.5669 464.4,458.3013 Q464.9938,458.02 465.6188,457.4419 L465.6188,460.1606 Z " fill="#000000"/><text fill="#000000" font-family="sans-serif" font-size="14" lengthAdjust="spacing" textLength="34.6924" x="476.65" y="459.3667">Time</text><line style="stroke:#181818;stroke-width:0.5;" x1="448.65" x2="513.3424" y1="470.52" y2="470.52"/><text fill="#000000" font-family="sans-serif" font-size="14" lengthAdjust="spacing" textLength="51.0234" x="453.65" y="487.5151">sec: int</text><line style="stroke:#181818;stroke-width:0.5;" x1="448.65" x2="513.3424" y1="494.8169" y2="494.8169"/></g><!--class RobotBattery--><g class="entity" data-entity="RobotBattery" data-source-line="12" data-uid="ent0006" id="entity_RobotBattery"><rect fill="#F1F1F1" height="80.5938" rx="2.5" ry="2.5" style="stroke:#181818;stroke-width:0.5;" width="125.0508" x="46.47" y="108.45"/><ellipse cx="61.47" cy="124.45" fill="#ADD1B2" rx="11" ry="11" style="stroke:#181818;stroke-width:1;"/><path d="M64.4388,130.0906 Q63.8606,130.3875 63.22,130.5281 Q62.5794,130.6844 61.8763,130.6844 Q59.3763,130.6844 58.0481,129.0438 Q56.7356,127.3875 56.7356,124.2625 Q56.7356,121.1375 58.0481,119.4813 Q59.3763,117.825 61.8763,117.825 Q62.5794,117.825 63.22,117.9813 Q63.8763,118.1375 64.4388,118.4344 L64.4388,121.1531 Q63.8138,120.575 63.22,120.3094 Q62.6263,120.0281 62.0013,120.0281 Q60.6575,120.0281 59.97,121.1063 Q59.2825,122.1688 59.2825,124.2625 Q59.2825,126.3563 59.97,127.4344 Q60.6575,128.4969 62.0013,128.4969 Q62.6263,128.4969 63.22,128.2313 Q63.8138,127.95 64.4388,127.3719 L64.4388,130.0906 Z " fill="#000000"/><text fill="#000000" font-family="sans-serif" font-size="14" lengthAdjust="spacing" textLength="93.0508" x="75.47" y="129.2967">RobotBattery</text><line style="stroke:#181818;stroke-width:0.5;" x1="47.47" x2="170.5208" y1="140.45" y2="140.45"/><text fill="#000000" font-family="sans-serif" font-size="14" lengthAdjust="spacing" textLength="53.8057" x="52.47" y="157.4451">nid : str</text><text fill="#000000" font-family="sans-serif" font-size="14" lengthAdjust="spacing" textLength="76.6035" x="52.47" y="173.742">data : float</text><line style="stroke:#181818;stroke-width:0.5;" x1="47.47" x2="170.5208" y1="181.0438" y2="181.0438"/></g><!--class RobotCpu--><g class="entity" data-entity="RobotCpu" data-source-line="17" data-uid="ent0007" id="entity_RobotCpu"><rect fill="#F1F1F1" height="80.5938" rx="2.5" ry="2.5" style="stroke:#181818;stroke-width:0.5;" width="100.7695" x="206.62" y="108.45"/><ellipse cx="221.62" cy="124.45" fill="#ADD1B2" rx="11" ry="11" style="stroke:#181818;stroke-width:1;"/><path d="M224.5888,130.0906 Q224.0106,130.3875 223.37,130.5281 Q222.7294,130.6844 222.0263,130.6844 Q219.5263,130.6844 218.1981,129.0438 Q216.8856,127.3875 216.8856,124.2625 Q216.8856,121.1375 218.1981,119.4813 Q219.5263,117.825 222.0263,117.825 Q222.7294,117.825 223.37,117.9813 Q224.0263,118.1375 224.5888,118.4344 L224.5888,121.1531 Q223.9638,120.575 223.37,120.3094 Q222.7763,120.0281 222.1513,120.0281 Q220.8075,120.0281 220.12,121.1063 Q219.4325,122.1688 219.4325,124.2625 Q219.4325,126.3563 220.12,127.4344 Q220.8075,128.4969 222.1513,128.4969 Q222.7763,128.4969 223.37,128.2313 Q223.9638,127.95 224.5888,127.3719 L224.5888,130.0906 Z " fill="#000000"/><text fill="#000000" font-family="sans-serif" font-size="14" lengthAdjust="spacing" textLength="68.7695" x="235.62" y="129.2967">RobotCpu</text><line style="stroke:#181818;stroke-width:0.5;" x1="207.62" x2="306.3895" y1="140.45" y2="140.45"/><text fill="#000000" font-family="sans-serif" font-size="14" lengthAdjust="spacing" textLength="53.8057" x="212.62" y="157.4451">nid : str</text><text fill="#000000" font-family="sans-serif" font-size="14" lengthAdjust="spacing" textLength="76.6035" x="212.62" y="173.742">data : float</text><line style="stroke:#181818;stroke-width:0.5;" x1="207.62" x2="306.3895" y1="181.0438" y2="181.0438"/></g><!--class RobotActivity--><g class="entity" data-entity="RobotActivity" data-source-line="22" data-uid="ent0008" id="entity_RobotActivity"><rect fill="#F1F1F1" height="80.5938" rx="2.5" ry="2.5" style="stroke:#181818;stroke-width:0.5;" width="125.8369" x="342.08" y="108.45"/><ellipse cx="357.08" cy="124.45" fill="#ADD1B2" rx="11" ry="11" style="stroke:#181818;stroke-width:1;"/><path d="M360.0488,130.0906 Q359.4706,130.3875 358.83,130.5281 Q358.1894,130.6844 357.4863,130.6844 Q354.9863,130.6844 353.6581,129.0438 Q352.3456,127.3875 352.3456,124.2625 Q352.3456,121.1375 353.6581,119.4813 Q354.9863,117.825 357.4863,117.825 Q358.1894,117.825 358.83,117.9813 Q359.4863,118.1375 360.0488,118.4344 L360.0488,121.1531 Q359.4238,120.575 358.83,120.3094 Q358.2363,120.0281 357.6113,120.0281 Q356.2675,120.0281 355.58,121.1063 Q354.8925,122.1688 354.8925,124.2625 Q354.8925,126.3563 355.58,127.4344 Q356.2675,128.4969 357.6113,128.4969 Q358.2363,128.4969 358.83,128.2313 Q359.4238,127.95 360.0488,127.3719 L360.0488,130.0906 Z " fill="#000000"/><text fill="#000000" font-family="sans-serif" font-size="14" lengthAdjust="spacing" textLength="93.8369" x="371.08" y="129.2967">RobotActivity</text><line style="stroke:#181818;stroke-width:0.5;" x1="343.08" x2="466.9169" y1="140.45" y2="140.45"/><text fill="#000000" font-family="sans-serif" font-size="14" lengthAdjust="spacing" textLength="53.8057" x="348.08" y="157.4451">nid : str</text><text fill="#000000" font-family="sans-serif" font-size="14" lengthAdjust="spacing" textLength="83.7607" x="348.08" y="173.742">activity : str</text><line style="stroke:#181818;stroke-width:0.5;" x1="343.08" x2="466.9169" y1="181.0438" y2="181.0438"/></g><!--class RobotPoint--><g class="entity" data-entity="RobotPoint" data-source-line="27" data-uid="ent0009" id="entity_RobotPoint"><rect fill="#F1F1F1" height="113.1875" rx="2.5" ry="2.5" style="stroke:#181818;stroke-width:0.5;" width="108.4941" x="502.75" y="92.15"/><ellipse cx="517.75" cy="108.15" fill="#ADD1B2" rx="11" ry="11" style="stroke:#181818;stroke-width:1;"/><path d="M520.7188,113.7906 Q520.1406,114.0875 519.5,114.2281 Q518.8594,114.3844 518.1563,114.3844 Q515.6563,114.3844 514.3281,112.7438 Q513.0156,111.0875 513.0156,107.9625 Q513.0156,104.8375 514.3281,103.1813 Q515.6563,101.525 518.1563,101.525 Q518.8594,101.525 519.5,101.6813 Q520.1563,101.8375 520.7188,102.1344 L520.7188,104.8531 Q520.0938,104.275 519.5,104.0094 Q518.9063,103.7281 518.2813,103.7281 Q516.9375,103.7281 516.25,104.8063 Q515.5625,105.8688 515.5625,107.9625 Q515.5625,110.0563 516.25,111.1344 Q516.9375,112.1969 518.2813,112.1969 Q518.9063,112.1969 519.5,111.9313 Q520.0938,111.65 520.7188,111.0719 L520.7188,113.7906 Z " fill="#000000"/><text fill="#000000" font-family="sans-serif" font-size="14" lengthAdjust="spacing" textLength="76.4941" x="531.75" y="112.9967">RobotPoint</text><line style="stroke:#181818;stroke-width:0.5;" x1="503.75" x2="610.2441" y1="124.15" y2="124.15"/><text fill="#000000" font-family="sans-serif" font-size="14" lengthAdjust="spacing" textLength="53.8057" x="508.75" y="141.1451">nid : str</text><text fill="#000000" font-family="sans-serif" font-size="14" lengthAdjust="spacing" textLength="53.3545" x="508.75" y="157.442">x : float</text><text fill="#000000" font-family="sans-serif" font-size="14" lengthAdjust="spacing" textLength="53.3545" x="508.75" y="173.7389">y : float</text><text fill="#000000" font-family="sans-serif" font-size="14" lengthAdjust="spacing" textLength="52.418" x="508.75" y="190.0357">z : float</text><line style="stroke:#181818;stroke-width:0.5;" x1="503.75" x2="610.2441" y1="197.3375" y2="197.3375"/></g><!--class RobotQuaternion--><g class="entity" data-entity="RobotQuaternion" data-source-line="34" data-uid="ent0010" id="entity_RobotQuaternion"><rect fill="#F1F1F1" height="129.4844" rx="2.5" ry="2.5" style="stroke:#181818;stroke-width:0.5;" width="151.7656" x="646.12" y="84"/><ellipse cx="661.12" cy="100" fill="#ADD1B2" rx="11" ry="11" style="stroke:#181818;stroke-width:1;"/><path d="M664.0888,105.6406 Q663.5106,105.9375 662.87,106.0781 Q662.2294,106.2344 661.5263,106.2344 Q659.0263,106.2344 657.6981,104.5938 Q656.3856,102.9375 656.3856,99.8125 Q656.3856,96.6875 657.6981,95.0313 Q659.0263,93.375 661.5263,93.375 Q662.2294,93.375 662.87,93.5313 Q663.5263,93.6875 664.0888,93.9844 L664.0888,96.7031 Q663.4638,96.125 662.87,95.8594 Q662.2763,95.5781 661.6513,95.5781 Q660.3075,95.5781 659.62,96.6563 Q658.9325,97.7188 658.9325,99.8125 Q658.9325,101.9063 659.62,102.9844 Q660.3075,104.0469 661.6513,104.0469 Q662.2763,104.0469 662.87,103.7813 Q663.4638,103.5 664.0888,102.9219 L664.0888,105.6406 Z " fill="#000000"/><text fill="#000000" font-family="sans-serif" font-size="14" lengthAdjust="spacing" textLength="119.7656" x="675.12" y="104.8467">RobotQuaternion</text><line style="stroke:#181818;stroke-width:0.5;" x1="647.12" x2="796.8856" y1="116" y2="116"/><text fill="#000000" font-family="sans-serif" font-size="14" lengthAdjust="spacing" textLength="53.8057" x="652.12" y="132.9951">nid : str</text><text fill="#000000" font-family="sans-serif" font-size="14" lengthAdjust="spacing" textLength="53.3545" x="652.12" y="149.292">x : float</text><text fill="#000000" font-family="sans-serif" font-size="14" lengthAdjust="spacing" textLength="53.3545" x="652.12" y="165.5889">y : float</text><text fill="#000000" font-family="sans-serif" font-size="14" lengthAdjust="spacing" textLength="52.418" x="652.12" y="181.8857">z : float</text><text fill="#000000" font-family="sans-serif" font-size="14" lengthAdjust="spacing" textLength="56.5195" x="652.12" y="198.1826">w : float</text><line style="stroke:#181818;stroke-width:0.5;" x1="647.12" x2="796.8856" y1="205.4844" y2="205.4844"/></g><!--class RobotMisc--><g class="entity" data-entity="RobotMisc" data-source-line="42" data-uid="ent0011" id="entity_RobotMisc"><rect fill="#F1F1F1" height="80.5938" rx="2.5" ry="2.5" style="stroke:#181818;stroke-width:0.5;" width="104.1943" x="832.9" y="108.45"/><ellipse cx="847.9" cy="124.45" fill="#ADD1B2" rx="11" ry="11" style="stroke:#181818;stroke-width:1;"/><path d="M850.8688,130.0906 Q850.2906,130.3875 849.65,130.5281 Q849.0094,130.6844 848.3063,130.6844 Q845.8063,130.6844 844.4781,129.0438 Q843.1656,127.3875 843.1656,124.2625 Q843.1656,121.1375 844.4781,119.4813 Q845.8063,117.825 848.3063,117.825 Q849.0094,117.825 849.65,117.9813 Q850.3063,118.1375 850.8688,118.4344 L850.8688,121.1531 Q850.2438,120.575 849.65,120.3094 Q849.0563,120.0281 848.4313,120.0281 Q847.0875,120.0281 846.4,121.1063 Q845.7125,122.1688 845.7125,124.2625 Q845.7125,126.3563 846.4,127.4344 Q847.0875,128.4969 848.4313,128.4969 Q849.0563,128.4969 849.65,128.2313 Q850.2438,127.95 850.8688,127.3719 L850.8688,130.0906 Z " fill="#000000"/><text fill="#000000" font-family="sans-serif" font-size="14" lengthAdjust="spacing" textLength="72.1943" x="861.9" y="129.2967">RobotMisc</text><line style="stroke:#181818;stroke-width:0.5;" x1="833.9" x2="936.0943" y1="140.45" y2="140.45"/><text fill="#000000" font-family="sans-serif" font-size="14" lengthAdjust="spacing" textLength="53.8057" x="838.9" y="157.4451">nid : str</text><text fill="#000000" font-family="sans-serif" font-size="14" lengthAdjust="spacing" textLength="63.6904" x="838.9" y="173.742">data : str</text><line style="stroke:#181818;stroke-width:0.5;" x1="833.9" x2="936.0943" y1="181.0438" y2="181.0438"/></g><!--class SetRobotActivity_Request--><g class="entity" data-entity="SetRobotActivity_Request" data-source-line="57" data-uid="ent0020" id="entity_SetRobotActivity_Request"><rect fill="#F1F1F1" height="80.5938" rx="2.5" ry="2.5" style="stroke:#181818;stroke-width:0.5;" width="213.3232" x="998.34" y="108.45"/><ellipse cx="1013.34" cy="124.45" fill="#ADD1B2" rx="11" ry="11" style="stroke:#181818;stroke-width:1;"/><path d="M1016.3088,130.0906 Q1015.7306,130.3875 1015.09,130.5281 Q1014.4494,130.6844 1013.7463,130.6844 Q1011.2463,130.6844 1009.9181,129.0438 Q1008.6056,127.3875 1008.6056,124.2625 Q1008.6056,121.1375 1009.9181,119.4813 Q1011.2463,117.825 1013.7463,117.825 Q1014.4494,117.825 1015.09,117.9813 Q1015.7463,118.1375 1016.3088,118.4344 L1016.3088,121.1531 Q1015.6838,120.575 1015.09,120.3094 Q1014.4963,120.0281 1013.8713,120.0281 Q1012.5275,120.0281 1011.84,121.1063 Q1011.1525,122.1688 1011.1525,124.2625 Q1011.1525,126.3563 1011.84,127.4344 Q1012.5275,128.4969 1013.8713,128.4969 Q1014.4963,128.4969 1015.09,128.2313 Q1015.6838,127.95 1016.3088,127.3719 L1016.3088,130.0906 Z " fill="#000000"/><text fill="#000000" font-family="sans-serif" font-size="14" lengthAdjust="spacing" textLength="181.3232" x="1027.34" y="129.2967">SetRobotActivity_Request</text><line style="stroke:#181818;stroke-width:0.5;" x1="999.34" x2="1210.6632" y1="140.45" y2="140.45"/><text fill="#000000" font-family="sans-serif" font-size="14" lengthAdjust="spacing" textLength="83.7607" x="1004.34" y="157.4451">activity : str</text><text fill="#000000" font-family="sans-serif" font-size="14" lengthAdjust="spacing" textLength="78.7979" x="1004.34" y="173.742">details : str</text><line style="stroke:#181818;stroke-width:0.5;" x1="999.34" x2="1210.6632" y1="181.0438" y2="181.0438"/></g><!--class SetRobotActivity_Response--><g class="entity" data-entity="SetRobotActivity_Response" data-source-line="62" data-uid="ent0021" id="entity_SetRobotActivity_Response"><rect fill="#F1F1F1" height="64.2969" rx="2.5" ry="2.5" style="stroke:#181818;stroke-width:0.5;" width="223.6934" x="993.15" y="438.52"/><ellipse cx="1008.15" cy="454.52" fill="#ADD1B2" rx="11" ry="11" style="stroke:#181818;stroke-width:1;"/><path d="M1011.1188,460.1606 Q1010.5406,460.4575 1009.9,460.5981 Q1009.2594,460.7544 1008.5563,460.7544 Q1006.0563,460.7544 1004.7281,459.1138 Q1003.4156,457.4575 1003.4156,454.3325 Q1003.4156,451.2075 1004.7281,449.5513 Q1006.0563,447.895 1008.5563,447.895 Q1009.2594,447.895 1009.9,448.0513 Q1010.5563,448.2075 1011.1188,448.5044 L1011.1188,451.2231 Q1010.4938,450.645 1009.9,450.3794 Q1009.3063,450.0981 1008.6813,450.0981 Q1007.3375,450.0981 1006.65,451.1763 Q1005.9625,452.2388 1005.9625,454.3325 Q1005.9625,456.4263 1006.65,457.5044 Q1007.3375,458.5669 1008.6813,458.5669 Q1009.3063,458.5669 1009.9,458.3013 Q1010.4938,458.02 1011.1188,457.4419 L1011.1188,460.1606 Z " fill="#000000"/><text fill="#000000" font-family="sans-serif" font-size="14" lengthAdjust="spacing" textLength="191.6934" x="1022.15" y="459.3667">SetRobotActivity_Response</text><line style="stroke:#181818;stroke-width:0.5;" x1="994.15" x2="1215.8434" y1="470.52" y2="470.52"/><text fill="#000000" font-family="sans-serif" font-size="14" lengthAdjust="spacing" textLength="61.9746" x="999.15" y="487.5151">msg : str</text><line style="stroke:#181818;stroke-width:0.5;" x1="994.15" x2="1215.8434" y1="494.8169" y2="494.8169"/></g><!--class RobotServiceInfo_Request--><g class="entity" data-entity="RobotServiceInfo_Request" data-source-line="66" data-uid="ent0022" id="entity_RobotServiceInfo_Request"><rect fill="#F1F1F1" height="64.2969" rx="2.5" ry="2.5" style="stroke:#181818;stroke-width:0.5;" width="215.9688" x="1257.02" y="116.59"/><ellipse cx="1272.02" cy="132.59" fill="#ADD1B2" rx="11" ry="11" style="stroke:#181818;stroke-width:1;"/><path d="M1274.9888,138.2306 Q1274.4106,138.5275 1273.77,138.6681 Q1273.1294,138.8244 1272.4263,138.8244 Q1269.9263,138.8244 1268.5981,137.1838 Q1267.2856,135.5275 1267.2856,132.4025 Q1267.2856,129.2775 1268.5981,127.6213 Q1269.9263,125.965 1272.4263,125.965 Q1273.1294,125.965 1273.77,126.1213 Q1274.4263,126.2775 1274.9888,126.5744 L1274.9888,129.2931 Q1274.3638,128.715 1273.77,128.4494 Q1273.1763,128.1681 1272.5513,128.1681 Q1271.2075,128.1681 1270.52,129.2463 Q1269.8325,130.3088 1269.8325,132.4025 Q1269.8325,134.4963 1270.52,135.5744 Q1271.2075,136.6369 1272.5513,136.6369 Q1273.1763,136.6369 1273.77,136.3713 Q1274.3638,136.09 1274.9888,135.5119 L1274.9888,138.2306 Z " fill="#000000"/><text fill="#000000" font-family="sans-serif" font-size="14" lengthAdjust="spacing" textLength="183.9688" x="1286.02" y="137.4367">RobotServiceInfo_Request</text><line style="stroke:#181818;stroke-width:0.5;" x1="1258.02" x2="1471.9888" y1="148.59" y2="148.59"/><text fill="#000000" font-family="sans-serif" font-size="14" lengthAdjust="spacing" textLength="82.3047" x="1263.02" y="165.5851">service : str</text><line style="stroke:#181818;stroke-width:0.5;" x1="1258.02" x2="1471.9888" y1="172.8869" y2="172.8869"/></g><!--class RobotServiceInfo_Response--><g class="entity" data-entity="RobotServiceInfo_Response" data-source-line="70" data-uid="ent0023" id="entity_RobotServiceInfo_Response"><rect fill="#F1F1F1" height="80.5938" rx="2.5" ry="2.5" style="stroke:#181818;stroke-width:0.5;" width="226.3389" x="1251.83" y="430.38"/><ellipse cx="1266.83" cy="446.38" fill="#ADD1B2" rx="11" ry="11" style="stroke:#181818;stroke-width:1;"/><path d="M1269.7988,452.0206 Q1269.2206,452.3175 1268.58,452.4581 Q1267.9394,452.6144 1267.2363,452.6144 Q1264.7363,452.6144 1263.4081,450.9738 Q1262.0956,449.3175 1262.0956,446.1925 Q1262.0956,443.0675 1263.4081,441.4113 Q1264.7363,439.755 1267.2363,439.755 Q1267.9394,439.755 1268.58,439.9113 Q1269.2363,440.0675 1269.7988,440.3644 L1269.7988,443.0831 Q1269.1738,442.505 1268.58,442.2394 Q1267.9863,441.9581 1267.3613,441.9581 Q1266.0175,441.9581 1265.33,443.0363 Q1264.6425,444.0988 1264.6425,446.1925 Q1264.6425,448.2863 1265.33,449.3644 Q1266.0175,450.4269 1267.3613,450.4269 Q1267.9863,450.4269 1268.58,450.1613 Q1269.1738,449.88 1269.7988,449.3019 L1269.7988,452.0206 Z " fill="#000000"/><text fill="#000000" font-family="sans-serif" font-size="14" lengthAdjust="spacing" textLength="194.3389" x="1280.83" y="451.2267">RobotServiceInfo_Response</text><line style="stroke:#181818;stroke-width:0.5;" x1="1252.83" x2="1477.1689" y1="462.38" y2="462.38"/><text fill="#000000" font-family="sans-serif" font-size="14" lengthAdjust="spacing" textLength="61.9746" x="1257.83" y="479.3751">msg : str</text><text fill="#000000" font-family="sans-serif" font-size="14" lengthAdjust="spacing" textLength="91.6221" x="1257.83" y="495.672">services : list</text><line style="stroke:#181818;stroke-width:0.5;" x1="1252.83" x2="1477.1689" y1="502.9738" y2="502.9738"/></g><!--class RobotInterfaceInfo_Request--><g class="entity" data-entity="RobotInterfaceInfo_Request" data-source-line="75" data-uid="ent0024" id="entity_RobotInterfaceInfo_Request"><rect fill="#F1F1F1" height="64.2969" rx="2.5" ry="2.5" style="stroke:#181818;stroke-width:0.5;" width="226.9063" x="1518.55" y="116.59"/><ellipse cx="1533.55" cy="132.59" fill="#ADD1B2" rx="11" ry="11" style="stroke:#181818;stroke-width:1;"/><path d="M1536.5188,138.2306 Q1535.9406,138.5275 1535.3,138.6681 Q1534.6594,138.8244 1533.9563,138.8244 Q1531.4563,138.8244 1530.1281,137.1838 Q1528.8156,135.5275 1528.8156,132.4025 Q1528.8156,129.2775 1530.1281,127.6213 Q1531.4563,125.965 1533.9563,125.965 Q1534.6594,125.965 1535.3,126.1213 Q1535.9563,126.2775 1536.5188,126.5744 L1536.5188,129.2931 Q1535.8938,128.715 1535.3,128.4494 Q1534.7063,128.1681 1534.0813,128.1681 Q1532.7375,128.1681 1532.05,129.2463 Q1531.3625,130.3088 1531.3625,132.4025 Q1531.3625,134.4963 1532.05,135.5744 Q1532.7375,136.6369 1534.0813,136.6369 Q1534.7063,136.6369 1535.3,136.3713 Q1535.8938,136.09 1536.5188,135.5119 L1536.5188,138.2306 Z " fill="#000000"/><text fill="#000000" font-family="sans-serif" font-size="14" lengthAdjust="spacing" textLength="194.9063" x="1547.55" y="137.4367">RobotInterfaceInfo_Request</text><line style="stroke:#181818;stroke-width:0.5;" x1="1519.55" x2="1744.4563" y1="148.59" y2="148.59"/><text fill="#000000" font-family="sans-serif" font-size="14" lengthAdjust="spacing" textLength="94.5957" x="1524.55" y="165.5851">interface : str</text><line style="stroke:#181818;stroke-width:0.5;" x1="1519.55" x2="1744.4563" y1="172.8869" y2="172.8869"/></g><!--class RobotInterfaceInfo_Response--><g class="entity" data-entity="RobotInterfaceInfo_Response" data-source-line="79" data-uid="ent0025" id="entity_RobotInterfaceInfo_Response"><rect fill="#F1F1F1" height="80.5938" rx="2.5" ry="2.5" style="stroke:#181818;stroke-width:0.5;" width="237.2764" x="1513.36" y="430.38"/><ellipse cx="1528.36" cy="446.38" fill="#ADD1B2" rx="11" ry="11" style="stroke:#181818;stroke-width:1;"/><path d="M1531.3288,452.0206 Q1530.7506,452.3175 1530.11,452.4581 Q1529.4694,452.6144 1528.7663,452.6144 Q1526.2663,452.6144 1524.9381,450.9738 Q1523.6256,449.3175 1523.6256,446.1925 Q1523.6256,443.0675 1524.9381,441.4113 Q1526.2663,439.755 1528.7663,439.755 Q1529.4694,439.755 1530.11,439.9113 Q1530.7663,440.0675 1531.3288,440.3644 L1531.3288,443.0831 Q1530.7038,442.505 1530.11,442.2394 Q1529.5163,441.9581 1528.8913,441.9581 Q1527.5475,441.9581 1526.86,443.0363 Q1526.1725,444.0988 1526.1725,446.1925 Q1526.1725,448.2863 1526.86,449.3644 Q1527.5475,450.4269 1528.8913,450.4269 Q1529.5163,450.4269 1530.11,450.1613 Q1530.7038,449.88 1531.3288,449.3019 L1531.3288,452.0206 Z " fill="#000000"/><text fill="#000000" font-family="sans-serif" font-size="14" lengthAdjust="spacing" textLength="205.2764" x="1542.36" y="451.2267">RobotInterfaceInfo_Response</text><line style="stroke:#181818;stroke-width:0.5;" x1="1514.36" x2="1749.6364" y1="462.38" y2="462.38"/><text fill="#000000" font-family="sans-serif" font-size="14" lengthAdjust="spacing" textLength="98.0547" x="1519.36" y="479.3751">definition : str</text><text fill="#000000" font-family="sans-serif" font-size="14" lengthAdjust="spacing" textLength="103.9131" x="1519.36" y="495.672">interfaces : list</text><line style="stroke:#181818;stroke-width:0.5;" x1="1514.36" x2="1749.6364" y1="502.9738" y2="502.9738"/></g><!--link Header to Time--><g class="link" data-entity-1="Header" data-entity-2="Time" data-source-line="47" data-uid="lnk12" id="link_Header_Time"><path codeLine="47" d="M481,370.57 C481,392.83 481,412.71 481,432.44" fill="none" id="Header-to-Time" style="stroke:#181818;stroke-width:1;"/><polygon fill="#181818" points="481,438.44,485,429.44,481,433.44,477,429.44,481,438.44" style="stroke:#181818;stroke-width:1;"/></g><!--link RobotBattery to Header--><g class="link" data-entity-1="RobotBattery" data-entity-2="Header" data-source-line="48" data-uid="lnk13" id="link_RobotBattery_Header"><path codeLine="48" d="M153.74,189.48 C164.79,198.12 176.93,206.69 189,213.49 C268.44,258.2 364.2553,289.0211 424.2753,305.9511" fill="none" id="RobotBattery-to-Header" style="stroke:#181818;stroke-width:1;"/><polygon fill="#181818" points="430.05,307.58,422.4739,301.2869,425.2378,306.2226,420.3021,308.9865,430.05,307.58" style="stroke:#181818;stroke-width:1;"/></g><!--link RobotCpu to Header--><g class="link" data-entity-1="RobotCpu" data-entity-2="Header" data-source-line="49" data-uid="lnk14" id="link_RobotCpu_Header"><path codeLine="49" d="M297.46,189.53 C306.32,197.71 315.8,206.08 325,213.49 C358.68,240.61 393.9026,264.9298 425.0726,285.3698" fill="none" id="RobotCpu-to-Header" style="stroke:#181818;stroke-width:1;"/><polygon fill="#181818" points="430.09,288.66,424.7574,280.3797,425.9088,285.9182,420.3704,287.0696,430.09,288.66" style="stroke:#181818;stroke-width:1;"/></g><!--link RobotActivity to Header--><g class="link" data-entity-1="RobotActivity" data-entity-2="Header" data-source-line="50" data-uid="lnk15" id="link_RobotActivity_Header"><path codeLine="50" d="M422.63,189.45 C433.72,214.44 445.6647,241.3464 457.3847,267.7364" fill="none" id="RobotActivity-to-Header" style="stroke:#181818;stroke-width:1;"/><polygon fill="#181818" points="459.82,273.22,459.8228,263.3711,457.7906,268.6504,452.5114,266.6182,459.82,273.22" style="stroke:#181818;stroke-width:1;"/></g><!--link RobotPoint to Header--><g class="link" data-entity-1="RobotPoint" data-entity-2="Header" data-source-line="51" data-uid="lnk16" id="link_RobotPoint_Header"><path codeLine="51" d="M532.11,205.8 C522.46,227.54 513.9559,246.7067 504.6759,267.5967" fill="none" id="RobotPoint-to-Header" style="stroke:#181818;stroke-width:1;"/><polygon fill="#181818" points="502.24,273.08,509.5493,266.479,504.2699,268.5106,502.2383,263.2311,502.24,273.08" style="stroke:#181818;stroke-width:1;"/></g><!--link RobotQuaternion to Header--><g class="link" data-entity-1="RobotQuaternion" data-entity-2="Header" data-source-line="52" data-uid="lnk17" id="link_RobotQuaternion_Header"><path codeLine="52" d="M645.75,203.91 C608.51,230.36 569.6211,257.9748 536.5611,281.4648" fill="none" id="RobotQuaternion-to-Header" style="stroke:#181818;stroke-width:1;"/><polygon fill="#181818" points="531.67,284.94,541.3235,282.9879,535.7459,282.044,536.6898,276.4664,531.67,284.94" style="stroke:#181818;stroke-width:1;"/></g><!--link RobotMisc to Header--><g class="link" data-entity-1="RobotMisc" data-entity-2="Header" data-source-line="53" data-uid="lnk18" id="link_RobotMisc_Header"><path codeLine="53" d="M847.37,189.36 C837.48,198.2 826.38,206.9 815,213.49 C722.49,267.06 605.7275,296.4739 537.7475,310.4239" fill="none" id="RobotMisc-to-Header" style="stroke:#181818;stroke-width:1;"/><polygon fill="#181818" points="531.87,311.63,541.4904,313.7392,536.7679,310.6249,539.8822,305.9025,531.87,311.63" style="stroke:#181818;stroke-width:1;"/></g><!--link SetRobotActivity_Request to SetRobotActivity_Response--><g class="link" data-entity-1="SetRobotActivity_Request" data-entity-2="SetRobotActivity_Response" data-source-line="85" data-uid="lnk26" id="link_SetRobotActivity_Request_SetRobotActivity_Response"><path codeLine="85" d="M1105,189.29 C1105,253.66 1105,379.76 1105,438.36" fill="none" id="SetRobotActivity_Request-SetRobotActivity_Response" style="stroke:#181818;stroke-width:1;"/></g><!--link RobotServiceInfo_Request to RobotServiceInfo_Response--><g class="link" data-entity-1="RobotServiceInfo_Request" data-entity-2="RobotServiceInfo_Response" data-source-line="86" data-uid="lnk27" id="link_RobotServiceInfo_Request_RobotServiceInfo_Response"><path codeLine="86" d="M1365,181.3 C1365,239.94 1365,365.6 1365,429.93" fill="none" id="RobotServiceInfo_Request-RobotServiceInfo_Response" style="stroke:#181818;stroke-width:1;"/></g><!--link RobotInterfaceInfo_Request to RobotInterfaceInfo_Response--><g class="link" data-entity-1="RobotInterfaceInfo_Request" data-entity-2="RobotInterfaceInfo_Response" data-source-line="87" data-uid="lnk28" id="link_RobotInterfaceInfo_Request_RobotInterfaceInfo_Response"><path codeLine="87" d="M1632,181.3 C1632,239.94 1632,365.6 1632,429.93" fill="none" id="RobotInterfaceInfo_Request-RobotInterfaceInfo_Response" style="stroke:#181818;stroke-width:1;"/></g><!--SRC=[fLF1JiCm3BtlAwpTomViW0HSs049DkvLIDqfearAdHO6ujz9sgLDswH2S5Ybs7xsytjUnVWhEo5iUKDQbQcG6kkSSQIhaavR-De0y88HmJso3Eik0215jWFITVV8QrPYwaUqA747p-Phdj_cDtIniKiFGhu3Cy-Mc8gXvA1UbBvbsX0vZ-DWx9unpSmpBnJhm3FeNTNy1NR3jMY53ezaBkb2S_IZCfi4eH_UJ83pvFMvmkUfOKO1APJyLrk0zvKX3uBucbZUiXV_a-JQ6JinoiRx4fUnFYoZWypBLA_XCkufiKns6tXXmxMAtpJLhN_JHzGJKka1tneaP-J2TQCBQYOA2jr1e1bLIfAxT_D_YfxF4UjMSDpBNCquK9_v9J8wS6XagHU2GiUmTpe5Q0mQHedCqHCg6UP22cqj71cDllYSJD-eBKcIn6NUH9MqiAXOcvNT1s1ukHy0]--></g></svg>