<svg xmlns="http://www.w3.org/2000/svg" xmlns:xlink="http://www.w3.org/1999/xlink" contentStyleType="text/css" data-diagram-type="CLASS" height="767px" preserveAspectRatio="none" style="width:584px;height:767px;background:#FFFFFF;" version="1.1" viewBox="0 0 584 767" width="584px" zoomAndPan="magnify"><defs/><g><!--cluster rclpy--><g class="cluster" data-entity="rclpy" data-source-line="2" data-uid="ent0004" id="cluster_rclpy"><path d="M258.83,6 L298.9794,6 A3.75,3.75 0 0 1 301.4794,8.5 L308.4794,28.2969 L401.83,28.2969 A2.5,2.5 0 0 1 404.33,30.7969 L404.33,169.5 A2.5,2.5 0 0 1 401.83,172 L258.83,172 A2.5,2.5 0 0 1 256.33,169.5 L256.33,8.5 A2.5,2.5 0 0 1 258.83,6" fill="none" style="stroke:#000000;stroke-width:1.5;"/><line style="stroke:#000000;stroke-width:1.5;" x1="256.33" x2="308.4794" y1="28.2969" y2="28.2969"/><text fill="#000000" font-family="sans-serif" font-size="14" font-weight="bold" lengthAdjust="spacing" textLength="39.1494" x="260.33" y="20.9951">rclpy</text></g><!--cluster node--><g class="cluster" data-entity="node" data-source-line="1" data-uid="ent0002" id="cluster_node"><path d="M282.83,49 L322.9316,49 A3.75,3.75 0 0 1 325.4316,51.5 L332.4316,71.2969 L377.83,71.2969 A2.5,2.5 0 0 1 380.33,73.7969 L380.33,145.5 A2.5,2.5 0 0 1 377.83,148 L282.83,148 A2.5,2.5 0 0 1 280.33,145.5 L280.33,51.5 A2.5,2.5 0 0 1 282.83,49" fill="none" style="stroke:#000000;stroke-width:1.5;"/><line style="stroke:#000000;stroke-width:1.5;" x1="280.33" x2="332.4316" y1="71.2969" y2="71.2969"/><text fill="#000000" font-family="sans-serif" font-size="14" font-weight="bold" lengthAdjust="spacing" textLength="39.1016" x="284.33" y="63.9951">node</text></g><!--cluster time_util--><g class="cluster" data-entity="time_util" data-source-line="5" data-uid="ent0005" id="cluster_time_util"><path d="M391.83,293.78 L461.6611,293.78 A3.75,3.75 0 0 1 464.1611,296.28 L471.1611,316.0769 L574.83,316.0769 A2.5,2.5 0 0 1 577.33,318.5769 L577.33,422.87 A2.5,2.5 0 0 1 574.83,425.37 L391.83,425.37 A2.5,2.5 0 0 1 389.33,422.87 L389.33,296.28 A2.5,2.5 0 0 1 391.83,293.78" fill="none" style="stroke:#000000;stroke-width:1.5;"/><line style="stroke:#000000;stroke-width:1.5;" x1="389.33" x2="471.1611" y1="316.0769" y2="316.0769"/><text fill="#000000" font-family="sans-serif" font-size="14" font-weight="bold" lengthAdjust="spacing" textLength="68.8311" x="393.33" y="308.7751">time_util</text></g><!--cluster sw_util--><g class="cluster" data-entity="sw_util" data-source-line="12" data-uid="ent0007" id="cluster_sw_util"><path d="M91.83,196 L147.3534,196 A3.75,3.75 0 0 1 149.8534,198.5 L156.8534,218.2969 L362.83,218.2969 A2.5,2.5 0 0 1 365.33,220.7969 L365.33,520.65 A2.5,2.5 0 0 1 362.83,523.15 L91.83,523.15 A2.5,2.5 0 0 1 89.33,520.65 L89.33,198.5 A2.5,2.5 0 0 1 91.83,196" fill="none" style="stroke:#000000;stroke-width:1.5;"/><line style="stroke:#000000;stroke-width:1.5;" x1="89.33" x2="156.8534" y1="218.2969" y2="218.2969"/><text fill="#000000" font-family="sans-serif" font-size="14" font-weight="bold" lengthAdjust="spacing" textLength="54.5234" x="93.33" y="210.9951">sw_util</text></g><!--cluster data_sink--><g class="cluster" data-entity="data_sink" data-source-line="34" data-uid="ent0012" id="cluster_data_sink"><path d="M248.83,547.15 L324.8476,547.15 A3.75,3.75 0 0 1 327.3476,549.65 L334.3476,569.4469 L451.83,569.4469 A2.5,2.5 0 0 1 454.33,571.9469 L454.33,757.73 A2.5,2.5 0 0 1 451.83,760.23 L248.83,760.23 A2.5,2.5 0 0 1 246.33,757.73 L246.33,549.65 A2.5,2.5 0 0 1 248.83,547.15" fill="none" style="stroke:#000000;stroke-width:1.5;"/><line style="stroke:#000000;stroke-width:1.5;" x1="246.33" x2="334.3476" y1="569.4469" y2="569.4469"/><text fill="#000000" font-family="sans-serif" font-size="14" font-weight="bold" lengthAdjust="spacing" textLength="75.0176" x="250.33" y="562.1451">data_sink</text></g><!--class Node--><g class="entity" data-entity="Node" data-source-line="2" data-uid="ent0003" id="entity_Node"><rect fill="#F1F1F1" height="48" rx="2.5" ry="2.5" style="stroke:#181818;stroke-width:0.5;" width="68.5381" x="296.06" y="84"/><ellipse cx="311.06" cy="100" fill="#ADD1B2" rx="11" ry="11" style="stroke:#181818;stroke-width:1;"/><path d="M314.0288,105.6406 Q313.4506,105.9375 312.81,106.0781 Q312.1694,106.2344 311.4663,106.2344 Q308.9663,106.2344 307.6381,104.5938 Q306.3256,102.9375 306.3256,99.8125 Q306.3256,96.6875 307.6381,95.0313 Q308.9663,93.375 311.4663,93.375 Q312.1694,93.375 312.81,93.5313 Q313.4663,93.6875 314.0288,93.9844 L314.0288,96.7031 Q313.4038,96.125 312.81,95.8594 Q312.2163,95.5781 311.5913,95.5781 Q310.2475,95.5781 309.56,96.6563 Q308.8725,97.7188 308.8725,99.8125 Q308.8725,101.9063 309.56,102.9844 Q310.2475,104.0469 311.5913,104.0469 Q312.2163,104.0469 312.81,103.7813 Q313.4038,103.5 314.0288,102.9219 L314.0288,105.6406 Z " fill="#000000"/><text fill="#000000" font-family="sans-serif" font-size="14" lengthAdjust="spacing" textLength="36.5381" x="325.06" y="104.8467">Node</text><line style="stroke:#181818;stroke-width:0.5;" x1="297.06" x2="363.5981" y1="116" y2="116"/><line style="stroke:#181818;stroke-width:0.5;" x1="297.06" x2="363.5981" y1="124" y2="124"/></g><!--class TimeUtil--><g class="entity" data-entity="TimeUtil" data-source-line="6" data-uid="ent0006" id="entity_TimeUtil"><rect fill="#F1F1F1" height="80.5938" rx="2.5" ry="2.5" style="stroke:#181818;stroke-width:0.5;" width="155.8486" x="405.41" y="328.78"/><ellipse cx="449.9803" cy="344.78" fill="#ADD1B2" rx="11" ry="11" style="stroke:#181818;stroke-width:1;"/><path d="M452.9491,350.4206 Q452.3709,350.7175 451.7303,350.8581 Q451.0897,351.0144 450.3866,351.0144 Q447.8866,351.0144 446.5584,349.3738 Q445.2459,347.7175 445.2459,344.5925 Q445.2459,341.4675 446.5584,339.8113 Q447.8866,338.155 450.3866,338.155 Q451.0897,338.155 451.7303,338.3113 Q452.3866,338.4675 452.9491,338.7644 L452.9491,341.4831 Q452.3241,340.905 451.7303,340.6394 Q451.1366,340.3581 450.5116,340.3581 Q449.1678,340.3581 448.4803,341.4363 Q447.7928,342.4988 447.7928,344.5925 Q447.7928,346.6863 448.4803,347.7644 Q449.1678,348.8269 450.5116,348.8269 Q451.1366,348.8269 451.7303,348.5613 Q452.3241,348.28 452.9491,347.7019 L452.9491,350.4206 Z " fill="#000000"/><text fill="#000000" font-family="sans-serif" font-size="14" lengthAdjust="spacing" textLength="58.208" x="470.4803" y="349.6267">TimeUtil</text><line style="stroke:#181818;stroke-width:0.5;" x1="406.41" x2="560.2586" y1="360.78" y2="360.78"/><line style="stroke:#181818;stroke-width:0.5;" x1="406.41" x2="560.2586" y1="368.78" y2="368.78"/><text fill="#000000" font-family="sans-serif" font-size="14" lengthAdjust="spacing" text-decoration="underline" textLength="143.8486" x="411.41" y="385.7751">get_timestamp(): int</text><text fill="#000000" font-family="sans-serif" font-size="14" lengthAdjust="spacing" text-decoration="underline" textLength="143.7461" x="411.41" y="402.072">get_datetime_f(): str</text></g><!--class BaseStatusSub--><g class="entity" data-entity="BaseStatusSub" data-source-line="13" data-uid="ent0008" id="entity_BaseStatusSub"><rect fill="#F1F1F1" height="276.1563" rx="2.5" ry="2.5" style="stroke:#181818;stroke-width:0.5;" width="244.7773" x="104.94" y="231"/><ellipse cx="170.4044" cy="247" fill="#A9DCDF" rx="11" ry="11" style="stroke:#181818;stroke-width:1;"/><path d="M170.5137,242.3438 L169.3575,247.4219 L171.6856,247.4219 L170.5137,242.3438 Z M169.0294,240.1094 L172.0137,240.1094 L175.3731,252.5 L172.92,252.5 L172.1544,249.4375 L168.8731,249.4375 L168.1231,252.5 L165.6856,252.5 L169.0294,240.1094 Z " fill="#000000"/><text fill="#000000" font-family="sans-serif" font-size="14" font-style="italic" lengthAdjust="spacing" textLength="105.3486" x="190.9044" y="251.8467">BaseStatusSub</text><line style="stroke:#181818;stroke-width:0.5;" x1="105.94" x2="348.7173" y1="263" y2="263"/><text fill="#000000" font-family="sans-serif" font-size="14" lengthAdjust="spacing" textLength="157.3975" x="110.94" y="279.9951">__please_override : str</text><text fill="#000000" font-family="sans-serif" font-size="14" lengthAdjust="spacing" textLength="167.4873" x="110.94" y="296.292">__subscription_dict: dict</text><text fill="#000000" font-family="sans-serif" font-size="14" lengthAdjust="spacing" textLength="232.7773" x="110.94" y="312.5889">__batch_timer : rclpy.timer.Timer</text><text fill="#000000" font-family="sans-serif" font-size="14" lengthAdjust="spacing" textLength="95.8125" x="110.94" y="328.8857">__nodes : dict</text><text fill="#000000" font-family="sans-serif" font-size="14" lengthAdjust="spacing" textLength="98.1504" x="110.94" y="345.1826">__conn : None</text><line style="stroke:#181818;stroke-width:0.5;" x1="105.94" x2="348.7173" y1="352.4844" y2="352.4844"/><text fill="#000000" font-family="sans-serif" font-size="14" lengthAdjust="spacing" textLength="207.9697" x="110.94" y="369.4795">@property subscription_dict()</text><text fill="#000000" font-family="sans-serif" font-size="14" lengthAdjust="spacing" textLength="131.8447" x="110.94" y="385.7764">@property nodes()</text><text fill="#000000" font-family="sans-serif" font-size="14" lengthAdjust="spacing" textLength="123.6211" x="110.94" y="402.0732">@property conn()</text><text fill="#000000" font-family="sans-serif" font-size="14" lengthAdjust="spacing" textLength="4.4502" x="110.94" y="418.3701"> </text><text fill="#000000" font-family="sans-serif" font-size="14" lengthAdjust="spacing" textLength="135.0303" x="110.94" y="434.667">connect_db() : bool</text><text fill="#000000" font-family="sans-serif" font-size="14" font-style="italic" lengthAdjust="spacing" textLength="190.4629" x="110.94" y="450.9639">subscription_callback(msg)</text><text fill="#000000" font-family="sans-serif" font-size="14" font-style="italic" lengthAdjust="spacing" textLength="159.1611" x="110.94" y="467.2607">batch_timer_callback()</text><text fill="#000000" font-family="sans-serif" font-size="14" font-style="italic" lengthAdjust="spacing" textLength="111.3711" x="110.94" y="483.5576">forward_batch()</text><text fill="#000000" font-family="sans-serif" font-size="14" lengthAdjust="spacing" textLength="177.6045" x="110.94" y="499.8545">check_nid(nid : int) : bool</text></g><!--class RobotStatusSub--><g class="entity" data-entity="RobotStatusSub" data-source-line="35" data-uid="ent0013" id="entity_RobotStatusSub"><rect fill="#F1F1F1" height="162.0781" rx="2.5" ry="2.5" style="stroke:#181818;stroke-width:0.5;" width="175.1807" x="262.74" y="582.15"/><ellipse cx="291.5498" cy="598.15" fill="#ADD1B2" rx="11" ry="11" style="stroke:#181818;stroke-width:1;"/><path d="M294.5186,603.7906 Q293.9404,604.0875 293.2998,604.2281 Q292.6592,604.3844 291.9561,604.3844 Q289.4561,604.3844 288.1279,602.7438 Q286.8154,601.0875 286.8154,597.9625 Q286.8154,594.8375 288.1279,593.1813 Q289.4561,591.525 291.9561,591.525 Q292.6592,591.525 293.2998,591.6813 Q293.9561,591.8375 294.5186,592.1344 L294.5186,594.8531 Q293.8936,594.275 293.2998,594.0094 Q292.7061,593.7281 292.0811,593.7281 Q290.7373,593.7281 290.0498,594.8063 Q289.3623,595.8688 289.3623,597.9625 Q289.3623,600.0563 290.0498,601.1344 Q290.7373,602.1969 292.0811,602.1969 Q292.7061,602.1969 293.2998,601.9313 Q293.8936,601.65 294.5186,601.0719 L294.5186,603.7906 Z " fill="#000000"/><text fill="#000000" font-family="sans-serif" font-size="14" lengthAdjust="spacing" textLength="112.4922" x="308.6187" y="602.9967">RobotStatusSub</text><line style="stroke:#181818;stroke-width:0.5;" x1="263.74" x2="436.9207" y1="614.15" y2="614.15"/><text fill="#000000" font-family="sans-serif" font-size="14" lengthAdjust="spacing" textLength="108.8828" x="268.74" y="631.1451">__nid_map: dict</text><text fill="#000000" font-family="sans-serif" font-size="14" lengthAdjust="spacing" textLength="122.6982" x="268.74" y="647.442">__state_map: dict</text><line style="stroke:#181818;stroke-width:0.5;" x1="263.74" x2="436.9207" y1="654.7438" y2="654.7438"/><text fill="#000000" font-family="sans-serif" font-size="14" lengthAdjust="spacing" textLength="149.3652" x="268.74" y="671.7389">@property nid_map()</text><text fill="#000000" font-family="sans-serif" font-size="14" lengthAdjust="spacing" textLength="163.1807" x="268.74" y="688.0357">@property state_map()</text><text fill="#000000" font-family="sans-serif" font-size="14" lengthAdjust="spacing" textLength="145.2568" x="268.74" y="704.3326">forward_batch_test()</text><text fill="#000000" font-family="sans-serif" font-size="14" lengthAdjust="spacing" textLength="111.3711" x="268.74" y="720.6295">forward_batch()</text><text fill="#000000" font-family="sans-serif" font-size="14" lengthAdjust="spacing" textLength="150.3906" x="268.74" y="736.9264">register_new_nodes()</text></g><g class="entity" data-entity="GMN9" data-source-line="32" data-uid="ent0010" id="entity_GMN9"><path d="M6,87.86 L6,128.1256 A0,0 0 0 0 6,128.1256 L127.15,128.1256 L172.21,230.76 L135.15,128.1256 L240.6621,128.1256 A0,0 0 0 0 240.6621,128.1256 L240.6621,97.86 L230.6621,87.86 L6,87.86 A0,0 0 0 0 6,87.86" fill="#FEFFDD" style="stroke:#181818;stroke-width:0.5;"/><path d="M230.6621,87.86 L230.6621,97.86 L240.6621,97.86 L230.6621,87.86" fill="#FEFFDD" style="stroke:#181818;stroke-width:0.5;"/><text fill="#000000" font-family="sans-serif" font-size="13" lengthAdjust="spacing" textLength="213.6621" x="12" y="104.9269">"connect_db returns True if conn</text><text fill="#000000" font-family="sans-serif" font-size="13" lengthAdjust="spacing" textLength="172.5103" x="16.1323" y="120.0597">has a working connection"</text></g><!--reverse link Node to BaseStatusSub--><g class="link" data-entity-1="Node" data-entity-2="BaseStatusSub" data-source-line="46" data-uid="lnk14" id="link_Node_BaseStatusSub"><path codeLine="46" d="M314.3625,149.1676 C305.2025,172.2176 297.08,192.64 281.95,230.7" fill="none" id="Node-backto-BaseStatusSub" style="stroke:#181818;stroke-width:1;"/><polygon fill="none" points="321.01,132.44,308.7867,146.9517,319.9384,151.3834,321.01,132.44" style="stroke:#181818;stroke-width:1;"/></g><!--reverse link BaseStatusSub to RobotStatusSub--><g class="link" data-entity-1="BaseStatusSub" data-entity-2="RobotStatusSub" data-source-line="47" data-uid="lnk15" id="link_BaseStatusSub_RobotStatusSub"><path codeLine="47" d="M292.2174,524.1685 C302.9374,549.6185 306.81,558.83 316.51,581.87" fill="none" id="BaseStatusSub-backto-RobotStatusSub" style="stroke:#181818;stroke-width:1;"/><polygon fill="none" points="285.23,507.58,286.6879,526.4976,297.7468,521.8393,285.23,507.58" style="stroke:#181818;stroke-width:1;"/></g><!--reverse link TimeUtil to RobotStatusSub--><g class="link" data-entity-1="TimeUtil" data-entity-2="RobotStatusSub" data-source-line="48" data-uid="lnk16" id="link_TimeUtil_RobotStatusSub"><path codeLine="48" d="M462.7741,415.2308 C442.7441,459.2308 412.4,525.87 386.94,581.78" fill="none" id="TimeUtil-backto-RobotStatusSub" style="stroke:#181818;stroke-width:1;"/><polygon fill="#181818" points="465.26,409.77,457.8906,416.3039,463.1884,414.3207,465.1717,419.6185,465.26,409.77" style="stroke:#181818;stroke-width:1;"/></g><!--SRC=[RLFDRi8m3BxtAInEvG0FW3XCUm0EOxjDYjBKBL5B4YNkAiHuzpcXXPRkq4Z-_Fdli-kaQcIDiFAgTPUjiIMku9e1g5Q600UsirkMkP56-eoY8zrEMPyCVZ6M881h84bQtQ164Z60xRFBrplGXfQCKXAcj5Ma1F9CkSsAXdvIKXPCaOg6skyou96pTU7O5KC3GhWM6HVs1xtN9SAOD_f2LmJbjIDjZIYreXt4T_0MajGfTUqvwgvAihPnoZ57r2d0B51POnWvM8C9IS-RyzQXfmiigkRh5qRAkK1ZsW5CJxHHiMf5lkPoXRNjNT9Hbzkyb99jMx2G-JdKwrVcPDWdSS6ghE-bB-_I36vrGjK8eykSFqYRdRIJrcSi8P1rOAkNBUrWzHm3F5Bd3L-Hxn1qbIRyDd2I0IJqrZVQrEFOFD5gSXXyEb84RPhfDNxOmjBo9BXFSPPkjhDuXlY2JXPoZrYiv14rU6Rw2E9p_yynO1vh7OZrDjYBvygJOl5lW_tlPZFNAvkhbmZp8RF77xXV-Fu0]--></g></svg>