<svg xmlns="http://www.w3.org/2000/svg" xmlns:xlink="http://www.w3.org/1999/xlink" contentStyleType="text/css" data-diagram-type="SEQUENCE" height="960px" preserveAspectRatio="none" style="width:531px;height:960px;background:#FFFFFF;" version="1.1" viewBox="0 0 531 960" width="531px" zoomAndPan="magnify"><defs/><g><g><title>Robot</title><rect fill="#FFFFFF" height="300.7969" style="stroke:#181818;stroke-width:1;" width="10" x="38.6172" y="97.2969"/></g><g><title>Data Sink</title><rect fill="#FFFFFF" height="226.5313" style="stroke:#181818;stroke-width:1;" width="10" x="171.1157" y="150.5625"/></g><g><title>Data Sink</title><rect fill="#FFFFFF" height="25" style="stroke:#181818;stroke-width:1;" width="10" x="176.1157" y="187.6953"/></g><g><title>Data Sink</title><rect fill="#FFFFFF" height="25" style="stroke:#181818;stroke-width:1;" width="10" x="176.1157" y="256.8281"/></g><g><title>Data Sink</title><rect fill="#FFFFFF" height="449.3281" style="stroke:#181818;stroke-width:1;" width="10" x="171.1157" y="412.0938"/></g><g><title>Data Sink</title><rect fill="#FFFFFF" height="360.0625" style="stroke:#181818;stroke-width:1;" width="10" x="176.1157" y="473.3594"/></g><g><title>Data Sink</title><rect fill="#FFFFFF" height="173.5313" style="stroke:#181818;stroke-width:1;" width="10" x="181.1157" y="515.4922"/></g><g><title>Database</title><rect fill="#FFFFFF" height="14" style="stroke:#181818;stroke-width:1;" width="10" x="389.1914" y="342.0938"/></g><g><title>Database</title><rect fill="#FFFFFF" height="14" style="stroke:#181818;stroke-width:1;" width="10" x="389.1914" y="597.8906"/></g><g><title>Database</title><rect fill="#FFFFFF" height="14" style="stroke:#181818;stroke-width:1;" width="10" x="389.1914" y="648.0234"/></g><g><title>Database</title><rect fill="#FFFFFF" height="14" style="stroke:#181818;stroke-width:1;" width="10" x="389.1914" y="749.2891"/></g><g><title>Database</title><rect fill="#FFFFFF" height="14" style="stroke:#181818;stroke-width:1;" width="10" x="389.1914" y="792.4219"/></g><rect fill="none" height="272.7969" style="stroke:#000000;stroke-width:1.5;" width="440.5918" x="10" y="112.2969"/><rect fill="none" height="60.2656" style="stroke:#000000;stroke-width:1.5;" width="311.2935" x="129.2983" y="303.8281"/><rect fill="none" height="421.3281" style="stroke:#000000;stroke-width:1.5;" width="416.3315" x="109.2983" y="427.0938"/><rect fill="none" height="134.5313" style="stroke:#000000;stroke-width:1.5;" width="396.3315" x="119.2983" y="535.4922"/><rect fill="none" height="60.2656" style="stroke:#000000;stroke-width:1.5;" width="311.2935" x="129.2983" y="559.625"/><rect fill="none" height="103.3984" style="stroke:#000000;stroke-width:1.5;" width="311.2935" x="129.2983" y="711.0234"/><g><title>Robot</title><rect fill="#000000" fill-opacity="0.00000" height="798.125" width="8" x="39.6172" y="81.2969"/><line style="stroke:#181818;stroke-width:0.5;stroke-dasharray:5,5;" x1="43" x2="43" y1="81.2969" y2="879.4219"/></g><g><title>Data Sink</title><rect fill="#000000" fill-opacity="0.00000" height="798.125" width="8" x="172.1157" y="81.2969"/><line style="stroke:#181818;stroke-width:0.5;stroke-dasharray:5,5;" x1="175.2983" x2="175.2983" y1="81.2969" y2="879.4219"/></g><g><title>Database</title><rect fill="#000000" fill-opacity="0.00000" height="798.125" width="8" x="390.1914" y="81.2969"/><line style="stroke:#181818;stroke-width:0.5;stroke-dasharray:5,5;" x1="393.791" x2="393.791" y1="81.2969" y2="879.4219"/></g><g class="participant participant-head" data-participant="robot"><text fill="#000000" font-family="sans-serif" font-size="14" lengthAdjust="spacing" textLength="41.2344" x="20" y="77.9951">Robot</text><ellipse cx="43.6172" cy="13.5" fill="#E2E2F0" rx="8" ry="8" style="stroke:#181818;stroke-width:0.5;"/><path d="M43.6172,21.5 L43.6172,48.5 M30.6172,29.5 L56.6172,29.5 M43.6172,48.5 L30.6172,63.5 M43.6172,48.5 L56.6172,63.5" fill="none" style="stroke:#181818;stroke-width:0.5;"/></g><g class="participant participant-tail" data-participant="robot"><text fill="#000000" font-family="sans-serif" font-size="14" lengthAdjust="spacing" textLength="41.2344" x="20" y="891.417">Robot</text><ellipse cx="43.6172" cy="903.2188" fill="#E2E2F0" rx="8" ry="8" style="stroke:#181818;stroke-width:0.5;"/><path d="M43.6172,911.2188 L43.6172,938.2188 M30.6172,919.2188 L56.6172,919.2188 M43.6172,938.2188 L30.6172,953.2188 M43.6172,938.2188 L56.6172,953.2188" fill="none" style="stroke:#181818;stroke-width:0.5;"/></g><g class="participant participant-head" data-participant="datasink"><text fill="#000000" font-family="sans-serif" font-size="14" lengthAdjust="spacing" textLength="67.6348" x="139.2983" y="77.9951">Data Sink</text><ellipse cx="176.1157" cy="13.5" fill="#E2E2F0" rx="8" ry="8" style="stroke:#181818;stroke-width:0.5;"/><path d="M176.1157,21.5 L176.1157,48.5 M163.1157,29.5 L189.1157,29.5 M176.1157,48.5 L163.1157,63.5 M176.1157,48.5 L189.1157,63.5" fill="none" style="stroke:#181818;stroke-width:0.5;"/></g><g class="participant participant-tail" data-participant="datasink"><text fill="#000000" font-family="sans-serif" font-size="14" lengthAdjust="spacing" textLength="67.6348" x="139.2983" y="891.417">Data Sink</text><ellipse cx="176.1157" cy="903.2188" fill="#E2E2F0" rx="8" ry="8" style="stroke:#181818;stroke-width:0.5;"/><path d="M176.1157,911.2188 L176.1157,938.2188 M163.1157,919.2188 L189.1157,919.2188 M176.1157,938.2188 L163.1157,953.2188 M176.1157,938.2188 L189.1157,953.2188" fill="none" style="stroke:#181818;stroke-width:0.5;"/></g><g class="participant participant-head" data-participant="db"><text fill="#000000" font-family="sans-serif" font-size="14" lengthAdjust="spacing" textLength="66.8008" x="357.791" y="77.9951">Database</text><path d="M376.1914,29 C376.1914,19 394.1914,19 394.1914,19 C394.1914,19 412.1914,19 412.1914,29 L412.1914,55 C412.1914,65 394.1914,65 394.1914,65 C394.1914,65 376.1914,65 376.1914,55 L376.1914,29" fill="#E2E2F0" style="stroke:#181818;stroke-width:0.5;"/><path d="M376.1914,29 C376.1914,39 394.1914,39 394.1914,39 C394.1914,39 412.1914,39 412.1914,29" fill="none" style="stroke:#181818;stroke-width:0.5;"/></g><g class="participant participant-tail" data-participant="db"><text fill="#000000" font-family="sans-serif" font-size="14" lengthAdjust="spacing" textLength="66.8008" x="357.791" y="891.417">Database</text><path d="M376.1914,904.7188 C376.1914,894.7188 394.1914,894.7188 394.1914,894.7188 C394.1914,894.7188 412.1914,894.7188 412.1914,904.7188 L412.1914,930.7188 C412.1914,940.7188 394.1914,940.7188 394.1914,940.7188 C394.1914,940.7188 376.1914,940.7188 376.1914,930.7188 L376.1914,904.7188" fill="#E2E2F0" style="stroke:#181818;stroke-width:0.5;"/><path d="M376.1914,904.7188 C376.1914,914.7188 394.1914,914.7188 394.1914,914.7188 C394.1914,914.7188 412.1914,914.7188 412.1914,904.7188" fill="none" style="stroke:#181818;stroke-width:0.5;"/></g><g><title>Robot</title><rect fill="#FFFFFF" height="300.7969" style="stroke:#181818;stroke-width:1;" width="10" x="38.6172" y="97.2969"/></g><g><title>Data Sink</title><rect fill="#FFFFFF" height="226.5313" style="stroke:#181818;stroke-width:1;" width="10" x="171.1157" y="150.5625"/></g><g><title>Data Sink</title><rect fill="#FFFFFF" height="25" style="stroke:#181818;stroke-width:1;" width="10" x="176.1157" y="187.6953"/></g><g><title>Data Sink</title><rect fill="#FFFFFF" height="25" style="stroke:#181818;stroke-width:1;" width="10" x="176.1157" y="256.8281"/></g><g><title>Data Sink</title><rect fill="#FFFFFF" height="449.3281" style="stroke:#181818;stroke-width:1;" width="10" x="171.1157" y="412.0938"/></g><g><title>Data Sink</title><rect fill="#FFFFFF" height="360.0625" style="stroke:#181818;stroke-width:1;" width="10" x="176.1157" y="473.3594"/></g><g><title>Data Sink</title><rect fill="#FFFFFF" height="173.5313" style="stroke:#181818;stroke-width:1;" width="10" x="181.1157" y="515.4922"/></g><g><title>Database</title><rect fill="#FFFFFF" height="14" style="stroke:#181818;stroke-width:1;" width="10" x="389.1914" y="342.0938"/></g><g><title>Database</title><rect fill="#FFFFFF" height="14" style="stroke:#181818;stroke-width:1;" width="10" x="389.1914" y="597.8906"/></g><g><title>Database</title><rect fill="#FFFFFF" height="14" style="stroke:#181818;stroke-width:1;" width="10" x="389.1914" y="648.0234"/></g><g><title>Database</title><rect fill="#FFFFFF" height="14" style="stroke:#181818;stroke-width:1;" width="10" x="389.1914" y="749.2891"/></g><g><title>Database</title><rect fill="#FFFFFF" height="14" style="stroke:#181818;stroke-width:1;" width="10" x="389.1914" y="792.4219"/></g><g class="message" data-participant-1="robot" data-participant-2="robot"><polygon fill="#181818" points="26.6172,93.2969,36.6172,97.2969,26.6172,101.2969,30.6172,97.2969" style="stroke:#181818;stroke-width:1;"/><line style="stroke:#181818;stroke-width:1;" x1="0" x2="32.6172" y1="97.2969" y2="97.2969"/></g><path d="M10,112.2969 L86.624,112.2969 L86.624,119.4297 L76.624,129.4297 L10,129.4297 L10,112.2969" fill="#EEEEEE" style="stroke:#000000;stroke-width:1.5;"/><rect fill="none" height="272.7969" style="stroke:#000000;stroke-width:1.5;" width="440.5918" x="10" y="112.2969"/><text fill="#000000" font-family="sans-serif" font-size="13" font-weight="bold" lengthAdjust="spacing" textLength="31.624" x="25" y="125.3638">loop</text><text fill="#000000" font-family="sans-serif" font-size="11" font-weight="bold" lengthAdjust="spacing" textLength="43.4307" x="101.624" y="124.5073">[timer]</text><g class="message" data-participant-1="robot" data-participant-2="datasink"><polygon fill="#181818" points="159.1157,146.5625,169.1157,150.5625,159.1157,154.5625,163.1157,150.5625" style="stroke:#181818;stroke-width:1;"/><line style="stroke:#181818;stroke-width:1;" x1="48.6172" x2="165.1157" y1="150.5625" y2="150.5625"/><text fill="#000000" font-family="sans-serif" font-size="13" lengthAdjust="spacing" textLength="103.4985" x="55.6172" y="145.4966">publish on topic</text></g><g class="message" data-participant-1="datasink" data-participant-2="datasink"><line style="stroke:#181818;stroke-width:1;" x1="181.1157" x2="228.1157" y1="174.6953" y2="174.6953"/><line style="stroke:#181818;stroke-width:1;" x1="228.1157" x2="228.1157" y1="174.6953" y2="187.6953"/><line style="stroke:#181818;stroke-width:1;" x1="187.1157" x2="228.1157" y1="187.6953" y2="187.6953"/><polygon fill="#181818" points="197.1157,183.6953,187.1157,187.6953,197.1157,191.6953,193.1157,187.6953" style="stroke:#181818;stroke-width:1;"/><text fill="#000000" font-family="sans-serif" font-size="13" lengthAdjust="spacing" textLength="91.1333" x="193.1157" y="169.6294">call check_nid</text></g><g class="message" data-participant-1="datasink" data-participant-2="datasink"><line style="stroke:#181818;stroke-width:1;stroke-dasharray:2,2;" x1="186.1157" x2="228.1157" y1="211.6953" y2="211.6953"/><line style="stroke:#181818;stroke-width:1;stroke-dasharray:2,2;" x1="228.1157" x2="228.1157" y1="211.6953" y2="224.6953"/><line style="stroke:#181818;stroke-width:1;stroke-dasharray:2,2;" x1="181.1157" x2="228.1157" y1="224.6953" y2="224.6953"/><polygon fill="#181818" points="191.1157,220.6953,181.1157,224.6953,191.1157,228.6953,187.1157,224.6953" style="stroke:#181818;stroke-width:1;"/></g><g class="message" data-participant-1="datasink" data-participant-2="datasink"><line style="stroke:#181818;stroke-width:1;" x1="181.1157" x2="228.1157" y1="243.8281" y2="243.8281"/><line style="stroke:#181818;stroke-width:1;" x1="228.1157" x2="228.1157" y1="243.8281" y2="256.8281"/><line style="stroke:#181818;stroke-width:1;" x1="187.1157" x2="228.1157" y1="256.8281" y2="256.8281"/><polygon fill="#181818" points="197.1157,252.8281,187.1157,256.8281,197.1157,260.8281,193.1157,256.8281" style="stroke:#181818;stroke-width:1;"/><text fill="#000000" font-family="sans-serif" font-size="13" lengthAdjust="spacing" textLength="184.0757" x="193.1157" y="238.7622">match topic and update dict</text></g><g class="message" data-participant-1="datasink" data-participant-2="datasink"><line style="stroke:#181818;stroke-width:1;stroke-dasharray:2,2;" x1="186.1157" x2="228.1157" y1="280.8281" y2="280.8281"/><line style="stroke:#181818;stroke-width:1;stroke-dasharray:2,2;" x1="228.1157" x2="228.1157" y1="280.8281" y2="293.8281"/><line style="stroke:#181818;stroke-width:1;stroke-dasharray:2,2;" x1="181.1157" x2="228.1157" y1="293.8281" y2="293.8281"/><polygon fill="#181818" points="191.1157,289.8281,181.1157,293.8281,191.1157,297.8281,187.1157,293.8281" style="stroke:#181818;stroke-width:1;"/></g><path d="M129.2983,303.8281 L193.7412,303.8281 L193.7412,310.9609 L183.7412,320.9609 L129.2983,320.9609 L129.2983,303.8281" fill="#EEEEEE" style="stroke:#000000;stroke-width:1.5;"/><rect fill="none" height="60.2656" style="stroke:#000000;stroke-width:1.5;" width="311.2935" x="129.2983" y="303.8281"/><text fill="#000000" font-family="sans-serif" font-size="13" font-weight="bold" lengthAdjust="spacing" textLength="19.4429" x="144.2983" y="316.895">alt</text><text fill="#000000" font-family="sans-serif" font-size="11" font-weight="bold" lengthAdjust="spacing" textLength="167.3955" x="208.7412" y="316.0386">[received on topic activity]</text><g class="message" data-participant-1="datasink" data-participant-2="db"><polygon fill="#181818" points="377.1914,338.0938,387.1914,342.0938,377.1914,346.0938,381.1914,342.0938" style="stroke:#181818;stroke-width:1;"/><line style="stroke:#181818;stroke-width:1;" x1="181.1157" x2="383.1914" y1="342.0938" y2="342.0938"/><text fill="#000000" font-family="sans-serif" font-size="13" lengthAdjust="spacing" textLength="182.6729" x="188.1157" y="337.0278">update state on table Robot</text></g><g class="message" data-participant-1="db" data-participant-2="datasink"><polygon fill="#181818" points="192.1157,352.0938,182.1157,356.0938,192.1157,360.0938,188.1157,356.0938" style="stroke:#181818;stroke-width:1;"/><line style="stroke:#181818;stroke-width:1;stroke-dasharray:2,2;" x1="186.1157" x2="393.1914" y1="356.0938" y2="356.0938"/></g><g class="message" data-participant-1="datasink" data-participant-2="robot"><polygon fill="#181818" points="59.6172,373.0938,49.6172,377.0938,59.6172,381.0938,55.6172,377.0938" style="stroke:#181818;stroke-width:1;"/><line style="stroke:#181818;stroke-width:1;stroke-dasharray:2,2;" x1="53.6172" x2="175.1157" y1="377.0938" y2="377.0938"/></g><g class="message" data-participant-1="robot" data-participant-2="robot"><polygon fill="#181818" points="11,394.0938,1,398.0938,11,402.0938,7,398.0938" style="stroke:#181818;stroke-width:1;"/><line style="stroke:#181818;stroke-width:1;stroke-dasharray:2,2;" x1="5" x2="42.6172" y1="398.0938" y2="398.0938"/></g><g class="message" data-participant-1="datasink" data-participant-2="datasink"><polygon fill="#181818" points="159.1157,408.0938,169.1157,412.0938,159.1157,416.0938,163.1157,412.0938" style="stroke:#181818;stroke-width:1;"/><line style="stroke:#181818;stroke-width:1;" x1="0" x2="165.1157" y1="412.0938" y2="412.0938"/></g><path d="M109.2983,427.0938 L185.9224,427.0938 L185.9224,434.2266 L175.9224,444.2266 L109.2983,444.2266 L109.2983,427.0938" fill="#EEEEEE" style="stroke:#000000;stroke-width:1.5;"/><rect fill="none" height="421.3281" style="stroke:#000000;stroke-width:1.5;" width="416.3315" x="109.2983" y="427.0938"/><text fill="#000000" font-family="sans-serif" font-size="13" font-weight="bold" lengthAdjust="spacing" textLength="31.624" x="124.2983" y="440.1606">loop</text><text fill="#000000" font-family="sans-serif" font-size="11" font-weight="bold" lengthAdjust="spacing" textLength="43.4307" x="200.9224" y="439.3042">[timer]</text><g class="message" data-participant-1="datasink" data-participant-2="datasink"><line style="stroke:#181818;stroke-width:1;" x1="181.1157" x2="228.1157" y1="460.3594" y2="460.3594"/><line style="stroke:#181818;stroke-width:1;" x1="228.1157" x2="228.1157" y1="460.3594" y2="473.3594"/><line style="stroke:#181818;stroke-width:1;" x1="187.1157" x2="228.1157" y1="473.3594" y2="473.3594"/><polygon fill="#181818" points="197.1157,469.3594,187.1157,473.3594,197.1157,477.3594,193.1157,473.3594" style="stroke:#181818;stroke-width:1;"/><text fill="#000000" font-family="sans-serif" font-size="13" lengthAdjust="spacing" textLength="119.7422" x="193.1157" y="455.2935">call forward_batch</text></g><g class="message" data-participant-1="datasink" data-participant-2="datasink"><line style="stroke:#181818;stroke-width:1;" x1="186.1157" x2="233.1157" y1="502.4922" y2="502.4922"/><line style="stroke:#181818;stroke-width:1;" x1="233.1157" x2="233.1157" y1="502.4922" y2="515.4922"/><line style="stroke:#181818;stroke-width:1;" x1="192.1157" x2="233.1157" y1="515.4922" y2="515.4922"/><polygon fill="#181818" points="202.1157,511.4922,192.1157,515.4922,202.1157,519.4922,198.1157,515.4922" style="stroke:#181818;stroke-width:1;"/><text fill="#000000" font-family="sans-serif" font-size="13" lengthAdjust="spacing" textLength="155.9746" x="198.1157" y="497.4263">call register_new_nodes</text></g><path d="M119.2983,535.4922 L183.7412,535.4922 L183.7412,542.625 L173.7412,552.625 L119.2983,552.625 L119.2983,535.4922" fill="#EEEEEE" style="stroke:#000000;stroke-width:1.5;"/><rect fill="none" height="134.5313" style="stroke:#000000;stroke-width:1.5;" width="396.3315" x="119.2983" y="535.4922"/><text fill="#000000" font-family="sans-serif" font-size="13" font-weight="bold" lengthAdjust="spacing" textLength="19.4429" x="134.2983" y="548.5591">alt</text><text fill="#000000" font-family="sans-serif" font-size="11" font-weight="bold" lengthAdjust="spacing" textLength="311.8887" x="198.7412" y="547.7026">[unregistered nodes present (nid not in nid_map)]</text><path d="M129.2983,559.625 L205.9224,559.625 L205.9224,566.7578 L195.9224,576.7578 L129.2983,576.7578 L129.2983,559.625" fill="#EEEEEE" style="stroke:#000000;stroke-width:1.5;"/><rect fill="none" height="60.2656" style="stroke:#000000;stroke-width:1.5;" width="311.2935" x="129.2983" y="559.625"/><text fill="#000000" font-family="sans-serif" font-size="13" font-weight="bold" lengthAdjust="spacing" textLength="31.624" x="144.2983" y="572.6919">loop</text><text fill="#000000" font-family="sans-serif" font-size="11" font-weight="bold" lengthAdjust="spacing" textLength="179.4858" x="220.9224" y="571.8354">[for each unregistered node]</text><g class="message" data-participant-1="datasink" data-participant-2="db"><polygon fill="#181818" points="377.1914,593.8906,387.1914,597.8906,377.1914,601.8906,381.1914,597.8906" style="stroke:#181818;stroke-width:1;"/><line style="stroke:#181818;stroke-width:1;" x1="191.1157" x2="383.1914" y1="597.8906" y2="597.8906"/><text fill="#000000" font-family="sans-serif" font-size="13" lengthAdjust="spacing" textLength="169.8125" x="198.1157" y="592.8247">insert nid into table Robot</text></g><g class="message" data-participant-1="db" data-participant-2="datasink"><polygon fill="#181818" points="202.1157,607.8906,192.1157,611.8906,202.1157,615.8906,198.1157,611.8906" style="stroke:#181818;stroke-width:1;"/><line style="stroke:#181818;stroke-width:1;stroke-dasharray:2,2;" x1="196.1157" x2="393.1914" y1="611.8906" y2="611.8906"/></g><g class="message" data-participant-1="datasink" data-participant-2="db"><polygon fill="#181818" points="377.1914,644.0234,387.1914,648.0234,377.1914,652.0234,381.1914,648.0234" style="stroke:#181818;stroke-width:1;"/><line style="stroke:#181818;stroke-width:1;" x1="191.1157" x2="383.1914" y1="648.0234" y2="648.0234"/><text fill="#000000" font-family="sans-serif" font-size="13" lengthAdjust="spacing" textLength="154.7178" x="198.1157" y="642.9575">query nids and robotIds</text></g><g class="message" data-participant-1="db" data-participant-2="datasink"><polygon fill="#181818" points="202.1157,658.0234,192.1157,662.0234,202.1157,666.0234,198.1157,662.0234" style="stroke:#181818;stroke-width:1;"/><line style="stroke:#181818;stroke-width:1;stroke-dasharray:2,2;" x1="196.1157" x2="393.1914" y1="662.0234" y2="662.0234"/></g><g class="message" data-participant-1="datasink" data-participant-2="datasink"><line style="stroke:#181818;stroke-width:1;stroke-dasharray:2,2;" x1="191.1157" x2="233.1157" y1="688.0234" y2="688.0234"/><line style="stroke:#181818;stroke-width:1;stroke-dasharray:2,2;" x1="233.1157" x2="233.1157" y1="688.0234" y2="701.0234"/><line style="stroke:#181818;stroke-width:1;stroke-dasharray:2,2;" x1="186.1157" x2="233.1157" y1="701.0234" y2="701.0234"/><polygon fill="#181818" points="196.1157,697.0234,186.1157,701.0234,196.1157,705.0234,192.1157,701.0234" style="stroke:#181818;stroke-width:1;"/></g><path d="M129.2983,711.0234 L205.9224,711.0234 L205.9224,718.1563 L195.9224,728.1563 L129.2983,728.1563 L129.2983,711.0234" fill="#EEEEEE" style="stroke:#000000;stroke-width:1.5;"/><rect fill="none" height="103.3984" style="stroke:#000000;stroke-width:1.5;" width="311.2935" x="129.2983" y="711.0234"/><text fill="#000000" font-family="sans-serif" font-size="13" font-weight="bold" lengthAdjust="spacing" textLength="31.624" x="144.2983" y="724.0903">loop</text><text fill="#000000" font-family="sans-serif" font-size="11" font-weight="bold" lengthAdjust="spacing" textLength="95.439" x="220.9224" y="723.2339">[for each node]</text><g class="message" data-participant-1="datasink" data-participant-2="db"><polygon fill="#181818" points="377.1914,745.2891,387.1914,749.2891,377.1914,753.2891,381.1914,749.2891" style="stroke:#181818;stroke-width:1;"/><line style="stroke:#181818;stroke-width:1;" x1="186.1157" x2="383.1914" y1="749.2891" y2="749.2891"/><text fill="#000000" font-family="sans-serif" font-size="13" lengthAdjust="spacing" textLength="111.6553" x="193.1157" y="744.2231">insert into Status</text></g><g class="message" data-participant-1="db" data-participant-2="datasink"><polygon fill="#181818" points="197.1157,759.2891,187.1157,763.2891,197.1157,767.2891,193.1157,763.2891" style="stroke:#181818;stroke-width:1;"/><line style="stroke:#181818;stroke-width:1;stroke-dasharray:2,2;" x1="191.1157" x2="393.1914" y1="763.2891" y2="763.2891"/></g><g class="message" data-participant-1="datasink" data-participant-2="db"><polygon fill="#181818" points="377.1914,788.4219,387.1914,792.4219,377.1914,796.4219,381.1914,792.4219" style="stroke:#181818;stroke-width:1;"/><line style="stroke:#181818;stroke-width:1;" x1="186.1157" x2="383.1914" y1="792.4219" y2="792.4219"/><text fill="#000000" font-family="sans-serif" font-size="13" lengthAdjust="spacing" textLength="129.6064" x="193.1157" y="787.356">insert into Neighbor</text></g><g class="message" data-participant-1="db" data-participant-2="datasink"><polygon fill="#181818" points="197.1157,802.4219,187.1157,806.4219,197.1157,810.4219,193.1157,806.4219" style="stroke:#181818;stroke-width:1;"/><line style="stroke:#181818;stroke-width:1;stroke-dasharray:2,2;" x1="191.1157" x2="393.1914" y1="806.4219" y2="806.4219"/></g><g class="message" data-participant-1="datasink" data-participant-2="datasink"><line style="stroke:#181818;stroke-width:1;stroke-dasharray:2,2;" x1="186.1157" x2="228.1157" y1="832.4219" y2="832.4219"/><line style="stroke:#181818;stroke-width:1;stroke-dasharray:2,2;" x1="228.1157" x2="228.1157" y1="832.4219" y2="845.4219"/><line style="stroke:#181818;stroke-width:1;stroke-dasharray:2,2;" x1="181.1157" x2="228.1157" y1="845.4219" y2="845.4219"/><polygon fill="#181818" points="191.1157,841.4219,181.1157,845.4219,191.1157,849.4219,187.1157,845.4219" style="stroke:#181818;stroke-width:1;"/></g><g class="message" data-participant-1="datasink" data-participant-2="datasink"><polygon fill="#181818" points="11,857.4219,1,861.4219,11,865.4219,7,861.4219" style="stroke:#181818;stroke-width:1;"/><line style="stroke:#181818;stroke-width:1;stroke-dasharray:2,2;" x1="5" x2="175.1157" y1="861.4219" y2="861.4219"/></g><!--SRC=[hLGzSy8m3DtpAtHCxS0VwFKwTUdIeOmCEN-en4UmKrk1uzzNjaC899I3ikHa-KbwqNk9KEGyV3df24G07uD2fEJiNP20XR7hMRpIV0fyA68WHS0CY56-bqMndByTMvYj8EoEHUrS0sGsw0l8EM3ieIUyGDFAseGAd0LoZL4CwtlqepdPbvoMAr7Ne2fKwz8QFLayh1qKnppUCceZI5MP90YheMrqgZIA7ZDNr0GU5PejwduVkR6XFGFEg4acrP4859-nHiWQiwwfu3X8vWRodCmfdOX2gy_9-wxX5FC8BvQlytc76c0w4oo74ySDJZpobyxVpk-4rwMCIjnZ58yh4mXzQN5NMgSnN50kIj7Q0vpbI61eF0Qq14_iDKuH60iSbXlHFATLfbTXci0xgCOT4cP2HMC3UegjE2GtKd6iuxIIOospcjFU-MdHx-FGaFoSnFhGuP6-kMxwqutrIxgqehIU1RkzlPydmFKHdsXMbNJ-dykuSH-nA7r9nv_k6FKB]--></g></svg>