<svg id="contourPlot" width="500px" height="500px" version="1.1" xmlns="http://www.w3.org/2000/svg"><polyline fill="none" stroke="rgb(0,0,255)" stroke-width="1" points="500,413.26021934197405 495.9670848948998,417.01971647384715 491.32542788714295,421.05263157894734 485.59484135591873,432.9632624085503 482.0659971305595,438.98663444838786 477.4195719477722,447.36842105263156 477.9798761609907,451.6640866873065 473.6842105263158,460.58585377470826 469.1434468524251,469.1434468524251 452.3993808049536,473.6842105263158 448.4416924664603,474.75748194014454 447.36842105263156,474.4029190623618 446.1487944460081,474.9038371329393 429.7839774585174,482.41555640588587 421.05263157894734,485.45829815179655 412.040872687103,490.9882411081556 401.46584949769374,500 "></polyline><polyline fill="none" stroke="rgb(0,68,255)" stroke-width="1" points="500,380.54695562435506 496.04003167974656,390.77687378500974 494.0253109554071,394.7368421052632 483.5099963268091,404.5626279057564 473.6842105263158,413.14069487444107 470.1863016674814,417.55472272011303 466.85610076763226,421.05263157894734 459.4243585034371,433.10856902975286 447.36842105263156,444.3739532050957 446.0447794678512,446.0447794678512 444.5582281495594,447.36842105263156 432.8508074638105,459.1665969374947 421.05263157894734,465.7764183669663 415.53711267788856,468.1686916252569 400.54179566563477,473.6842105263158 396.8123562274072,475.75972464845984 394.7368421052632,477.4752006065585 389.78328173374604,478.63777089783287 377.9805551029276,483.24371299766443 368.4210526315789,484.7293113546984 359.52317105872606,491.10211842714705 347.8519021162899,494.25336104160476 342.10526315789474,496.6705980637869 338.3428896694387,496.23762651154397 319.2022463820289,496.58722730218165 315.7894736842105,496.0551283331669 312.48431093632337,496.69483725211285 292.85990712074323,500 "></polyline><polyline fill="none" stroke="rgb(0,68,255)" stroke-width="1" points="444.6638909647343,105.26315789473684 446.0755962303951,106.55598271697342 447.36842105263156,106.51472235030629 448.9422947492675,106.83703159137268 452.3746788749094,105.26315789473684 452.48351056669804,100.14806838067037 447.36842105263156,99.07120743034058 445.05025240586264,102.9449892479678 444.6638909647343,105.26315789473684 "></polyline><polyline fill="none" stroke="rgb(0,68,255)" stroke-width="1" points="446.05557079594,0 445.9573303005412,1.411090752090297 447.36842105263156,3.841302602912477 456.632713350507,17.051497175808834 457.4819401444789,26.31578947368421 464.24599476990596,35.75400523009406 473.6842105263158,46.15530422695388 481.42414860681123,44.891640866873004 489.5510835913314,52.63157894736842 480.89642555586835,59.84379397692096 473.6842105263158,75.29854046881923 472.7293770434884,77.99253493822519 472.03635274143613,78.94736842105263 472.08784829721367,80.54373065015474 473.6842105263158,80.22445820433433 483.407977396375,95.53939102467761 485.33011735906115,105.26315789473684 487.19177759268285,118.071380302054 487.2595928323483,118.83854020076933 488.93596219651295,131.57894736842104 491.59133126934984,139.98761609907118 491.6685544564424,149.5632912985477 493.30217122968907,157.89473684210526 494.8113022690755,163.08343457302973 500,182.2939702196668 "></polyline><polyline fill="none" stroke="rgb(0,68,255)" stroke-width="1" points="482.5726555477878,0 488.12642465893236,11.873575341067605 500,25.72607990564647 "></polyline><polyline fill="none" stroke="rgb(0,136,255)" stroke-width="1" points="219.17168058881938,500 216.9347680183593,493.5915477711143 210.52631578947367,488.2511709137097 200.7312907013985,483.4792356143909 192.2356200097768,481.70930422030307 184.21052631578945,479.03427298897395 179.0418219027129,478.8529149393923 172.48154322457728,473.6842105263158 160.55618923469663,471.0227581337244 157.89473684210526,471.37166805104584 155.77004795726342,471.5595216414739 155.02157800919414,473.6842105263158 155.65723261824527,475.92171475017574 154.608875128999,496.7141382868937 155.15651874785001,500 "></polyline><polyline fill="none" stroke="rgb(0,136,255)" stroke-width="1" points="262.0964175143742,473.6842105263158 262.40735528661224,474.4347499765456 263.1578947368421,475.06019951840386 266.53532226287643,477.06163805235013 263.9655404495894,473.6842105263158 263.3479290221944,473.4941762409635 263.1578947368421,473.4562859693442 262.9537645017521,473.4800802912258 262.0964175143742,473.6842105263158 "></polyline><polyline fill="none" stroke="rgb(0,136,255)" stroke-width="1" points="500,290.8219314890642 491.1543564794339,306.94383016364446 480.6501547987616,315.7894736842105 481.53316181921247,323.6384249771072 482.509519234191,333.27995445001955 483.5278240850996,342.10526315789474 482.40923163523786,350.8302842668167 483.6961949465694,358.4090682113253 482.94903193013266,368.4210526315789 480.15028379772974,374.88712590299275 473.6842105263158,386.6782006920415 471.0240764675824,392.07670804652975 470.4982360141119,394.7368421052632 460.16047305705155,407.5288941096831 447.36842105263156,420.91005377220137 447.2939474216165,420.9781579479323 447.2466692176575,421.05263157894746 446.6911764705882,421.7298761609907 435.65755821779516,435.65755821779516 422.5053584186711,447.36842105263156 421.7817994907778,448.097588964462 421.05263157894734,448.5060986981983 419.04354126869106,449.3775113628878 403.76880134565226,456.40038029302065 394.7368421052632,459.97346306943837 384.118305776958,463.06567419801075 377.2857874690959,464.8194756887988 368.4210526315789,467.2665118679051 364.85978632402157,470.1229442187584 360.62233021123177,473.6842105263158 350.2776000138368,481.85654738225776 342.10526315789474,485.29411764705884 331.69353150512876,484.09594217908176 324.03226124509473,481.9269980872001 315.7894736842105,480.6418322846966 307.16202270381837,482.31166150670794 299.67694171490103,483.88746803069057 289.4736842105263,485.780856021193 277.2678703526125,487.79418614208606 271.7909025958562,500 "></polyline><polyline fill="none" stroke="rgb(0,136,255)" stroke-width="1" points="427.91080456166475,0 427.4644146042097,6.411783025262434 421.05263157894734,14.257780674596745 416.1520504627407,21.41520835747754 413.41589267285866,26.31578947368421 414.45976345858304,32.90865759404858 421.05263157894734,38.37379827277167 431.3725490196079,42.31166150670793 440.8324733402132,46.09563123495008 447.36842105263156,48.657016149276195 448.98445208042733,51.01554791957268 450.43214654282764,52.63157894736842 449.45436181191405,54.71751970665087 447.36842105263156,57.37541196444623 435.9371278875923,67.51607525601332 430.65015479876155,78.94736842105263 428.09668531826054,85.99142216036581 429.61460446247463,96.70118501120957 428.18760898188674,105.26315789473684 438.1995713265063,114.4320076208621 447.36842105263156,114.13938475726238 458.53049898008845,116.4252358221937 465.9024349426826,113.04493347837001 473.6842105263158,130.66836641777448 473.828209374325,131.4349485204118 473.84715659116836,131.57894736842104 473.9223624672541,131.8170993093594 482.25312558155275,149.32582178686832 483.9333050041483,157.89473684210526 487.55339577536546,170.3413410667398 488.0798134231666,172.2903397389561 491.43708116157865,184.21052631578945 491.8742271683449,192.33629914744466 493.79520316534564,204.32151895481934 494.204046367629,210.52631578947367 493.5265972417675,216.99971854770615 494.76065729935704,231.60276256251493 493.9186200796108,236.8421052631579 495.3348318418933,241.50727342126464 496.5798388796136,259.7377336164557 497.30061663638924,263.1578947368421 497.05742894597387,266.10046579086827 500,286.48827952233523 "></polyline><polyline fill="none" stroke="rgb(0,204,255)" stroke-width="1" points="30.224458204334365,500 28.95455317370119,497.36123629998303 26.31578947368421,497.13125230777973 23.66584457154851,497.35005509786436 20.30245296499166,500 "></polyline><polyline fill="none" stroke="rgb(0,204,255)" stroke-width="1" points="125.97272194795408,447.36842105263156 129.83583526289772,449.111533158155 131.57894736842104,450.2899751449875 135.2502808296118,451.0397545138223 133.59283416994802,447.36842105263156 132.78493772049825,446.16243070055435 131.57894736842104,445.01125809175346 130.13845889232886,445.9279325765393 125.97272194795408,447.36842105263156 "></polyline><polyline fill="none" stroke="rgb(0,204,255)" stroke-width="1" points="403.56947732653435,0 400.067781706267,5.330939601003884 394.7368421052632,15.53325504430445 387.2020590100339,18.78100637845497 368.6790505675952,26.31578947368421 368.6790505675952,26.573787409700486 378.4829721362229,42.569659442724486 378.4829721362229,52.63157894736842 384.8860118209963,62.48240923163525 392.71498072913374,76.92550704492324 393.8677964260496,78.94736842105263 393.8972556016162,79.78695492469957 390.3353351486441,100.86165093811779 390.4389000182117,105.26315789473684 392.07023570088813,107.9297642991119 394.7368421052632,117.04783781084593 401.94427244582045,124.3715170278638 404.52954637232466,131.57894736842104 408.98815666617526,143.6434222811932 421.05263157894734,151.06771453520685 426.78894795256736,137.315263742041 428.7300247052569,131.57894736842104 437.8570744629919,122.06760077878141 447.36842105263156,121.76404716421844 455.5150048865834,123.43236353446922 462.2490762009388,131.57894736842104 465.2187976526038,140.044360242133 473.6842105263158,155.61211103531517 474.4201390651169,157.15880830330408 474.5644387786074,157.89473684210526 474.9254540525888,159.13598036837823 480.45713412070484,177.43760272140048 482.36469804444096,184.21052631578945 482.85823746854845,193.3845532580221 482.51055446101884,201.69997185477064 483.0921352629179,210.52631578947367 482.20085818260816,219.04296344576613 477.46086116417456,233.06545462529917 476.8538994545186,236.8421052631579 478.23555873091465,241.39345346775687 483.4053614260506,253.43674383710734 485.45403372310216,263.1578947368421 484.5555739370879,274.0292581476142 482.08757187085354,281.07032286598854 480.93642648119084,289.4736842105263 478.07766915458035,293.86714283879087 473.6842105263158,297.7457430340557 465.907787889212,308.0130510471067 461.6550567595458,315.7894736842105 460.3072609381389,328.7283135697179 460.12597416462046,329.34771004590584 458.24986341285734,342.10526315789474 458.41227300032347,353.1491151055866 457.85384660318937,357.9356270810211 458.05548940223855,368.4210526315789 455.4224435769731,376.4750751559205 455.4224435769731,386.6828195809216 453.83036935704513,394.7368421052632 450.9422316904423,398.31065274307394 447.36842105263156,402.04904676552053 437.4421499473364,411.12636047365226 431.14064076251435,421.05263157894734 426.59480946374657,426.59480946374657 421.05263157894734,431.6153706064469 409.6568078519201,435.97259732560434 402.373581011352,439.7316821465427 394.7368421052632,443.2773109243697 392.121520562082,444.7530995094505 384.8617486922173,447.36842105263156 372.3131357806281,451.2605042016807 368.4210526315789,452.3348813209494 356.57402602050865,461.8371839152454 342.47756397695656,473.6842105263157 342.26957469256445,473.8485220609855 342.10526315789474,473.9176372303307 341.8959267542941,473.8935469299162 341.1564965544792,473.6842105263158 321.46729107755584,468.00639313297046 315.7894736842105,467.2908958191749 310.5294221191381,468.4241589612433 291.84867890919884,471.30921582764324 289.4736842105263,471.77199052995803 286.96100865975677,471.17153497554625 270.6800851987046,466.1620200644532 263.1578947368421,464.662196812855 255.0777395978634,465.6040553873371 241.74867315347194,468.77764263600176 236.8421052631579,469.48928225368087 229.75132327973634,466.5934285428943 219.05168601015723,465.1588403056321 210.52631578947367,455.65660474716196 202.15088805605347,455.7438487860518 194.09982849633604,457.25772323317807 184.21052631578945,457.3293848431821 171.74110120931186,461.21478541983817 170.61539297159308,460.9635543968279 157.89473684210526,462.6312013894132 147.73959119251415,463.5290648767247 144.16221033868092,473.6842105263158 147.20037991908453,484.3785674493366 146.96388028895768,489.0691434468524 148.78568971448226,500 "></polyline><polyline fill="none" stroke="rgb(0,255,239)" stroke-width="1" points="0,483.57787050747083 7.111068111455162,480.795278637771 15.092879256965931,484.90712074303406 26.31578947368421,483.9804584315619 37.595096224154844,484.9635172767865 44.71400294371417,473.6842105263158 49.28921122264241,470.34184280158973 52.63157894736842,467.64705882352945 64.70588235294113,461.60990712074306 66.37519872813992,461.11204083340306 73.01341589267322,453.302373581011 78.3822300850165,447.36842105263156 78.66591612721646,447.0869687587953 78.94736842105263,446.8999511161806 79.40975433235491,446.90603514132926 99.92569659442725,442.030959752322 105.26315789473684,442.0733205562927 114.79433878814682,437.8372401592216 120.18403852769177,435.97351221190235 131.57894736842104,428.7222065859837 141.11887104903158,437.82849737202093 147.5096937088581,447.36842105263156 150.739824181741,454.52333371299585 157.89473684210526,453.89073472778074 163.66109502390827,453.1347792344345 173.39704760622786,447.36842105263156 180.57972324542573,443.73761798226786 184.21052631578945,444.02254647433676 187.64891355523534,443.93003381318573 206.1932458515227,443.0353511146806 210.52631578947367,442.92376991456166 213.65976122115381,444.2349756209515 221.4274075281082,447.36842105263156 228.9049980283084,455.30552828748097 236.8421052631579,458.5470186467516 246.6047471620227,457.1310629514964 253.53672170622633,456.98959408324737 263.1578947368421,455.86810765636574 273.77436152924565,457.98488784503513 278.28407639801196,458.5580288651459 289.4736842105263,461.23201602622476 301.07644677304125,458.9711836151465 305.25032483677955,457.9075699000625 315.7894736842105,455.63694027033154 325.25019799841596,456.82914536683705 332.64453884368925,456.82914536683705 342.10526315789474,458.4230717458608 348.1231795116053,453.3863374063422 355.66563467492267,447.36842105263156 361.0621576565849,440.00952607763753 368.4210526315789,436.85571394549726 379.44082654235325,432.0724054897216 390.72730041110486,425.06217327310566 394.7368421052632,422.7996461742592 395.92992524352496,422.2457147172091 399.6284829721363,421.05263157894734 411.6560751724513,411.6560751724513 421.05263157894734,406.57685549326425 425.1660634602247,398.85027398654057 429.81424148606817,394.7368421052632 431.36040794026593,384.4290657439446 432.53976726806883,379.90818832070033 433.865206001429,368.4210526315789 434.7395148896363,355.79214646858367 434.8729534488049,354.6007307617214 435.8101135190919,342.10526315789474 438.75353344999326,333.49037555525643 445.46320552512503,317.69468921171705 446.20012851217945,315.7894736842105 446.66479031804107,315.08584294962003 447.36842105263156,314.2792418636261 455.47222873213036,297.57749189002504 461.30030959752327,289.4736842105263 464.3160782174882,280.1055519016988 473.35831839661074,263.4837868665471 473.5055965706121,263.1578947368421 473.44907316690836,262.92275737743466 464.5298367024829,245.99647908699083 463.5347960694575,236.8421052631579 465.6898087281055,228.84770346494759 470.71374780353113,213.4967785122584 471.5907415597818,210.52631578947367 470.88402910611103,207.726134369269 472.7530901557299,185.1416466863754 472.1362229102167,184.21052631578945 470.5088513138049,181.03516710327858 462.24137695885213,169.3375704095689 459.71903192516396,157.89473684210526 455.7831229657855,149.48003492895134 452.483510566698,136.69403688248755 450.689104164586,131.57894736842104 449.1863667739664,129.76100164708618 447.36842105263156,129.3887095711745 445.2459225687019,129.4564488844914 443.2091815992745,131.57894736842104 441.081936993359,137.8654314276936 437.9148670514339,148.44118284090766 434.31607092597807,157.89473684210526 431.4739053516144,168.31601061477218 421.05263157894734,179.5092305928219 414.6255437551436,177.78343849198572 405.05124087349554,173.89612754755714 394.7368421052632,172.0029784065525 389.1501198817477,163.4814590656207 387.7708978328173,157.89473684210526 387.2314476029646,150.38934233980675 387.63957036358147,138.6762191101027 386.9969040247678,131.57894736842104 381.63054695562437,118.47265221878227 381.60719531762,118.39280468238006 373.57494081223825,105.26315789473684 373.4564606241771,100.22774990213868 368.73065015479875,79.25696594427245 368.71978708380857,78.94736842105263 368.61130809277546,78.7571129598561 368.4210526315789,78.47437220502238 359.7262810682562,61.326350510691235 354.5353726722425,52.63157894736842 352.7824085099627,41.95443359530045 352.5756793945649,36.78620571035434 351.18803386922303,26.31578947368421 352.95231307214294,15.468739559436033 352.7339655298506,10.62870237195583 355.60371517027863,0 "></polyline><polyline fill="none" stroke="rgb(0,255,239)" stroke-width="1" points="142.41486068111453,500 140.86687306501548,490.71207430340564 133.98692810457518,476.0921912624699 133.30284266816778,473.6842105263158 134.24039976101247,471.0227581337244 131.57894736842104,470.4792220817162 121.68528738726607,463.7905505451608 117.88858880618318,461.0587796148694 105.26315789473684,454.54242817670365 92.7924539220509,459.8391250253175 85.42077117928478,453.8418238108637 91.60506307786271,461.0265158695057 87.97980101596082,473.6842105263158 83.42015956180042,478.1570016670635 78.94736842105263,480.8406763515123 69.45409742844508,483.17748151892334 60.17801857585137,481.2306501547987 52.63157894736842,488.77708978328167 43.97776865977838,491.34618971240997 48.142414860681086,500 "></polyline><polyline fill="none" stroke="rgb(0,255,170)" stroke-width="1" points="304.6668959981654,0 310.0142891164563,5.77518456775423 315.7894736842105,11.776846961694902 324.94362267324084,17.16164048465391 329.520697167756,26.31578947368421 331.65039295070255,36.77065968087639 331.9252768011754,42.4515925906491 333.5249889429456,52.63157894736842 336.7185439198101,58.018298185453084 342.10526315789474,66.28201519842389 346.9511374343788,74.10149414456859 349.5356037151702,78.94736842105263 353.14042240137326,89.98252766453115 354.34300216585393,93.02541888677766 357.60196527123435,105.26315789473684 361.18209963411203,112.50211089220379 368.4210526315789,118.89817210229441 373.5925419859211,126.4074580140789 375.7100021939982,131.57894736842104 376.4357417608191,139.59363649766124 378.1151558367707,148.2006336369134 378.8119195046439,157.89473684210526 381.9649743553931,170.6666045919753 383.4346674624193,172.90835167294563 388.9462217635592,184.21052631578945 392.15969788725215,186.78767053380054 394.7368421052632,187.51362665155017 398.797796630614,188.27148084114032 414.09353680922766,191.16962108550925 421.05263157894734,192.45924354283488 430.19655842753264,193.35445316437466 441.30370244709275,190.2752449213283 447.36842105263156,191.71433069213415 455.8087793852782,202.08595745682706 457.93896505970804,210.52631578947367 455.52950282280096,218.68739755964305 452.43623765295587,231.77428866283358 451.07013056939024,236.8421052631579 451.5215585592388,240.9952427697651 447.36842105263156,259.2471891803813 445.99243206054354,261.78190574475406 443.45771549617075,263.1578947368421 442.9976324895283,267.5286832999453 437.6844985240118,279.7897616819065 437.21211205920105,289.4736842105263 429.7702460485579,298.19129868013687 421.05263157894734,312.319846268816 419.9707047504911,314.7075468557542 418.656936458794,315.7894736842105 415.892672858617,320.9494324045408 410.8098723995254,331.86250397847283 403.37561170478375,342.10526315789474 402.38832375055284,349.75674480318446 399.51541257235164,363.64248216449045 398.807476206857,368.4210526315789 397.0265737874097,370.7107843137256 394.7368421052632,372.49168673317286 387.22910216718265,387.22910216718265 384.5568557485438,394.7368421052632 378.94052648683777,405.2563159605221 368.67207765040575,420.8016065601205 368.5139318885449,421.05263157894734 368.4566385537882,421.0882175011565 368.421052631579,421.1036641377199 368.3317456537271,421.14193855679923 343.5464930073662,422.4938614284188 342.10526315789474,425.4521753299657 336.55314757481943,441.81630546955626 321.34158926728577,441.81630546955626 315.78947368421046,444.1897289249167 313.70221218681377,445.28115955523486 303.17102917722116,447.36842105263156 292.2552988806859,450.1500357227912 289.4736842105263,450.69204152249137 286.7911181339629,450.05098712919494 265.68355874205645,447.36842105263156 263.36473790968296,447.1615778797908 263.1578947368421,447.15419062361775 262.95281945436744,447.163345770157 247.16202270381783,447.36842105263156 237.04850361197117,447.57481940144476 236.8421052631579,447.60475503982235 236.67430172753737,447.536224588252 236.51621313345285,447.36842105263156 217.9969368111924,439.89780003091295 210.52631578947367,436.7716817922109 200.1956034560928,437.0377087192507 194.25461186172262,437.3243355066984 184.21052631578945,437.5945799608491 173.60436298991357,436.76225772675576 163.28402706111686,441.97913083361993 157.89473684210526,440.09287925696594 150.7901668129939,428.1572016080587 143.24839247439868,421.05263157894734 141.69246646026835,410.93911248710015 131.57894736842104,409.5599962473027 125.89719506963046,415.3708792801567 121.46542827657375,421.05263157894734 111.93991766747185,427.7293913516823 105.26315789473684,430.6968401395646 95.6948879842032,430.62090148948096 86.0268317853457,428.1320949432404 78.94736842105263,428.03894410949977 67.33440203624616,435.7554546678251 55.629269251560274,447.36842105263156 54.20536635706915,448.9422084623323 52.63157894736842,449.72910216718265 40.447418356137035,459.55258164386294 39.3740612451338,460.42669282408116 26.31578947368421,470.1078253442938 23.057721297391915,470.4261423500235 7.3754272351142305,466.30878329120145 0,466.6732666138671 "></polyline><polyline fill="none" stroke="rgb(0,255,170)" stroke-width="1" points="136.0440316477468,500 135.40616246498595,496.172784903435 131.57894736842104,488.0399528232346 123.02659025536308,482.2365676393739 111.14026342026551,473.6842105263158 107.72237226357507,471.2249961574776 105.26315789473684,469.9557242251739 102.6461826041241,471.067235235703 101.8966605548709,473.6842105263158 90.31168135270302,485.04852345796616 78.94736842105263,491.86711121695646 72.42097618774605,493.4736077666934 65.89458395443948,500 "></polyline><polyline fill="none" stroke="rgb(0,255,170)" stroke-width="1" points="152.39444041894473,394.7368421052632 150.90787381809054,401.72370512927796 157.89473684210526,400.35671018979673 158.96297623007445,395.80508149323236 158.79235466116273,394.7368421052632 158.9456064839286,393.6859724634398 157.89473684210526,378.579721362229 154.87118208317492,391.7132873463328 152.39444041894473,394.7368421052632 "></polyline><polyline fill="none" stroke="rgb(0,255,170)" stroke-width="1" points="211.32015559260137,0 227.08371274206274,9.758392521095134 236.8421052631579,11.849476632758376 246.74614543382162,9.90404017066371 256.47549275051347,6.682401986328664 263.1578947368421,5.036735825516377 266.4663388575244,3.3084441206823247 270.8274697438784,0 "></polyline><polyline fill="none" stroke="rgb(0,255,102)" stroke-width="1" points="0,458.3393332853337 10.454276476591495,457.82269752922303 19.374494685571204,454.30971584074456 26.31578947368421,453.6315433614462 29.912433967854984,450.9650655468024 34.328901839373486,447.36842105263156 43.13095266230235,437.8677947675655 52.63157894736842,422.964851575305 53.59239884701609,422.0134514785951 55.197979468795765,421.05263157894734 71.20078661688301,413.30604977477776 78.94736842105263,403.00309597523216 90.74445051498412,409.25554948501593 96.35433120616659,412.1438048903771 105.26315789473684,416.77290111090866 114.74703139083746,404.2207156013637 123.99380804953559,394.7368421052632 127.89385944021758,391.05175417705965 131.57894736842104,387.2760493325889 140.3923941022265,377.2344993653844 144.0806299636559,368.42105263157896 150.5696772869621,361.0959930764358 157.89473684210526,356.86743596960315 164.95528035775718,361.360509115927 165.28367773057818,368.4210526315789 163.83351176181247,374.3598275512861 164.77258425835035,387.85899468901806 163.76956484348125,394.7368421052632 164.886267686718,401.7283729498759 161.1042311661507,417.84313725490193 162.52381519409386,421.05263157894734 174.83248907397515,430.43066882076164 184.21052631578945,431.1666134473615 194.05951302607917,430.90161828923715 200.70648245386727,430.8724649145538 210.52631578947367,430.61959366986 222.33411240123087,435.56062444087434 226.86006412304573,437.3863799125194 236.8421052631579,441.4756614720191 242.99331921134106,441.2172071044484 256.82702230689847,441.0375486226879 263.1578947368421,440.75492038920834 269.54334365325076,440.9829721362229 284.41479684657367,442.30953368867887 289.4736842105263,442.509885663489 296.82517596039,440.0169293027678 306.5170666604592,438.0960140288803 315.7894736842105,433.24746531798735 324.33237860300324,429.59553649774006 330.0530738611234,421.05263157894734 332.8913027398852,411.83867116093785 342.10526315789474,397.77943845414745 344.55624355005153,397.18782249742 349.16408668730634,394.7368421052632 358.4947815262838,384.81057099996804 363.73525228014375,373.10685298301416 366.3570691434468,368.4210526315789 367.62209128133424,367.62209128133424 368.4210526315789,364.80908152734764 375.2321981424148,348.91640866873064 376.80400095260774,342.10526315789474 384.3293896505971,331.6978107032287 387.07983193277306,323.44648385670064 390.57380744837536,315.7894736842106 392.5322530581709,313.58488463711825 394.7368421052632,309.91560286695784 405.6292513163544,300.36609342161756 412.0887032903736,289.4736842105263 414.1387496702716,282.55980230185065 413.27085599531426,270.9396703204753 414.5510835913312,263.1578947368421 415.7487371679973,257.8540003258921 421.05263157894734,243.39828810781276 424.9406004751962,240.73007415940674 427.6088144236022,236.8421052631579 434.69244698872586,224.1661311992523 435.6037151702786,222.29102167182668 441.59111012826173,210.52631578947367 428.37845832265174,203.2004890457692 421.05263157894734,202.4832752386932 411.18005819901947,200.6537424095457 405.6232832036454,199.63987469109145 394.7368421052632,197.60825011991457 384.2836729833634,194.66369543768926 371.2494744486488,184.21052631578945 370.3223154297753,182.30926351759314 370.3223154297753,159.7959996403016 369.8529411764706,157.89473684210526 369.7569253265215,156.5588641471626 368.4210526315789,149.7125165855817 361.696020339122,138.30397966087799 354.69835160237636,131.57894736842104 347.7530725208744,125.93113800544143 342.10526315789474,105.6931544547644 341.9740777666999,105.3943432859317 341.9534996661203,105.26315789473684 341.79566563467495,104.953560371517 332.477120402817,88.5755111761304 328.62586330078585,78.94736842105263 323.62388988212035,71.1129522231428 315.7894736842105,57.55338572676038 312.98727712368077,55.433775507898154 310.3051747014595,52.63157894736842 307.95476085170907,44.79686611486694 304.71826625387,37.38699690402479 302.48273398428194,26.31578947368421 296.1057488010684,19.683724883142133 289.4736842105263,12.510267264800715 281.42046292201087,18.262568185168828 263.455584663015,26.31578947368421 263.3960466777804,26.55394141462254 263.1578947368421,27.019420208274738 250.35181536729533,39.82549957782166 243.0340557275544,52.63157894736842 237.99028150821155,53.77975519242209 236.8421052631579,53.887916722753225 236.2421931074378,53.2314911030885 235.39731682146538,52.63157894736842 233.1532837099004,48.94275739411092 230.32669469987513,32.83120003696696 218.05071129051228,33.84018497472281 210.52631578947367,30.686578036787513 206.83422110262862,30.007884160529233 203.27720305066825,26.31578947368421 202.03449800973013,17.823971693940678 198.7407966282488,11.78551916122488 198.1150168497767,0 "></polyline><polyline fill="none" stroke="rgb(0,255,102)" stroke-width="1" points="123.78271882915843,500 112.69801812388421,492.5651397708525 105.26315789473684,487.26780185758514 98.81647529098251,493.5533173962456 86.04474560429935,500 "></polyline><polyline fill="none" stroke="rgb(0,255,34)" stroke-width="1" points="185.42973780103566,0 185.49810480020838,1.2875784844188674 184.21052631578945,4.59236326109397 178.36565827652754,20.470921434422262 178.00383311219227,26.31578947368421 179.21663523243538,31.30968055703829 180.8720092451242,49.29306187670315 181.5073240608105,52.63157894736842 182.18123162577723,54.66087363738065 184.21052631578945,56.1483663470498 187.29332718529741,55.71437981687635 206.84984520123848,52.63157894736842 209.46643237664912,51.571695534543856 210.52631578947367,51.766527044254254 211.13588604244535,52.02200869439678 211.5067079463364,52.63157894736842 226.32221710392406,63.151467106602254 236.8421052631579,74.66235922286535 241.57275541795667,74.21671826625386 258.7058311797968,74.49530486400735 263.1578947368421,73.95940832473337 268.54489164086687,73.56037151702783 288.4578173374613,77.9315015479876 289.4736842105263,77.7863777089783 290.0390362094494,78.3820164221295 290.828173374613,78.94736842105263 304.4862433553361,90.25059874992697 309.1847265221879,98.65841073271416 313.53785533352095,105.26315789473684 314.2769361661901,106.7756954127573 313.6066997794953,129.39617346370582 314.1224100976423,131.57894736842104 314.4349845201239,132.93343653250776 315.7894736842105,137.41366992140985 327.4929404960365,146.19127003027933 331.19063861048437,146.98011229469486 342.10526315789474,151.32368736968473 345.4418582267922,154.5581417732078 347.6566670225259,157.89473684210526 349.5071349774029,165.29660866161345 352.7962909301651,173.51949854351903 354.57812889221026,184.21052631578945 358.8247628680325,193.8068160793359 368.4210526315789,204.28276573787412 372.1671826625387,206.78018575851397 390.80616766830565,206.59564135251625 394.7368421052632,207.70287358827892 397.1162414676943,208.14691642704244 410.1571802810193,210.52631578947367 414.5404078146685,217.03853955375254 410.6348950156267,226.42436869983715 412.117093307156,236.8421052631579 408.5631860399663,249.33155080213905 408.204334365325,250.3095975232198 405.3031059622491,263.1578947368421 403.81036508494645,272.2314177165253 395.70913184760633,288.50139446818315 395.420836633307,289.4736842105263 395.16621093308623,289.9030530383494 394.7368421052632,290.27948598329016 385.162399420599,306.21503099954634 376.6569479094653,315.7894736842106 374.07636738906086,321.4447884416924 368.4210526315789,328.6424617693968 363.69475001646794,337.3789605427837 361.42463616196585,342.10526315789474 354.78516171870626,354.78516171870626 342.10526315789474,364.6149913369501 340.57441193606985,366.890201409754 339.46283843741986,368.42105263157896 336.85386213112827,373.6724536583454 333.31529151962593,385.9468704669943 322.76732555370324,394.7368421052632 320.34786937784895,399.2952377989016 317.90672126235893,418.93538400079893 317.25453339230427,421.05263157894734 316.66694260028805,421.93010049502493 315.7894736842105,422.3052017110581 313.1640866873065,423.6780185758514 300.1980050703032,431.7769524387243 289.4736842105263,435.41366520552987 277.02594874086367,434.920685582969 275.7219493968187,434.8043663926551 263.1578947368421,434.3556501547987 250.70122515942944,434.911751475219 249.2803215469013,434.93020476888825 236.8421052631579,435.4528188984573 226.62677118851306,431.2679656535923 216.39838689408566,426.92470268355936 210.52631578947367,424.4675055475093 207.0211808349586,424.5577665334624 187.7999648491895,424.64207011234737 184.21052631578945,424.73864693387384 180.7927241363774,424.47043375835955 176.30685877589903,421.05263157894734 170.66047471620226,408.2868937048504 170.80955914336158,407.6516644065194 168.7467750257998,394.7368421052632 170.59956203277204,382.0320169145964 170.53181331558696,381.05812910506063 173.61761105911154,368.4210526315789 173.10088348561507,357.3114098014045 184.21052631578945,349.03827152361504 186.15011794191355,344.0448547840188 186.7074718574665,342.10526315789474 187.4528287355791,338.8629607381052 184.21052631578945,321.7395510835913 174.02767027863777,331.92240712074306 163.84481424148606,342.10526315789474 162.65479876160987,346.86532507739935 157.89473684210526,343.8361947649873 153.8000599221013,346.1999400778987 141.11933456463677,351.6456503541105 131.57894736842104,363.07611425901047 129.33067964027714,366.172784903435 127.22076684924983,368.4210526315789 116.37011962270061,379.5280143595427 105.26315789473684,390.0459705413266 100.01574224694339,389.4894264574697 87.9750130140552,385.70919751226063 78.94736842105263,385.1130323032888 74.01923393308506,389.80870761729557 68.20922274727066,394.7368421052632 61.16112454385667,403.2663877017514 52.63157894736842,408.5674604322791 44.48576606509099,412.90681869667 38.110782070265174,421.05263157894734 33.316688305203236,428.0535304104664 26.31578947368421,435.5211558307534 18.589312155067976,439.64194373401534 8.893340617980925,447.36842105263156 2.5127998421995947,449.88122089483113 0,450.0053999568003 "></polyline><polyline fill="none" stroke="rgb(33,255,0)" stroke-width="1" points="161.87146364898052,0 161.47070823433418,3.5759713922289182 164.77817416039358,19.432352155395915 164.3520566121186,26.31578947368421 166.42327238740586,34.844325018984804 168.7452080320662,41.78110775740751 170.8100365047826,52.63157894736842 174.15077486102803,62.69133040212987 184.21052631578945,70.06522588595989 194.54793514194262,68.60995959489951 199.548447280544,67.96949991212297 210.52631578947367,66.37770897832816 217.68851490213717,71.78516930838911 224.3391283638962,78.94736842105263 226.15881044782626,89.63066323638424 234.4411448790043,102.86219751058321 235.3715170278638,105.26315789473684 236.0975036250343,106.00775953286043 236.8421052631579,106.35248251347322 237.83073600957408,106.25178864115303 263.04632806180797,105.37472456977099 263.1578947368421,105.36466527939903 263.3166626974676,105.42192585536233 283.88244535834764,110.85439674691553 289.4736842105263,113.58789129686953 296.67010663914687,124.38252493980045 298.37036028986495,131.57894736842104 301.0393631136666,143.1446262715613 301.53888180659266,145.82953924603896 304.6668959981654,157.89473684210526 306.95683846293934,166.7273720633764 315.7894736842105,174.578603371173 322.7710017246037,177.22899827539632 331.5508021390375,184.21052631578945 337.23397345688375,189.0818160168005 342.10526315789474,204.69859770533583 343.3061262782625,209.32545266910586 344.35688150858437,210.52631578947367 359.67044495049,219.2769234705626 368.4210526315789,222.55840135097102 381.24723573639983,224.01592215833696 382.15944272445813,224.2647058823529 394.7368421052632,226.1703724552021 399.7498980862246,231.82904928219648 400.4631377583126,236.8421052631579 399.1946545440295,241.29991770192427 396.4396284829721,261.4551083591331 396.0551283331669,263.1578947368421 395.8688884505544,264.2899410821334 394.7368421052632,266.56346749226014 386.74490604075163,281.48174814601487 384.91817779743474,289.4736842105263 378.3977157988351,299.4503473777825 368.4210526315789,310.47002533070645 365.51713541626657,312.88555646889813 363.4198618718743,315.7894736842105 357.97213622291025,326.23839009287923 356.0700876095119,329.7542981358277 350.13773433119627,342.10526315789474 347.3772209822322,347.3772209822322 342.10526315789474,351.46419746073224 335.2849782367793,361.6007677104635 330.33266944055526,368.42105263157896 325.5055661682366,378.13714511560505 315.7894736842105,386.83461500049935 312.6387464784526,391.5861148995052 310.91446790813734,394.7368421052632 308.8645538185518,401.66176197092193 308.02586606830084,413.2890239630376 303.58418671112173,421.05263157894734 294.8987942292395,426.4777415976606 289.4736842105263,428.31744474757073 282.48562582927906,428.0406899601947 270.3173374613003,428.21207430340564 263.1578947368421,427.9563799203892 255.93154133271605,428.27898498307337 244.88165384999502,429.0921801657845 236.8421052631579,429.42997632489534 230.89930928838706,426.9954275537182 216.9040247678018,421.05263157894734 212.28811384978536,419.29083351863574 210.52631578947367,418.58065135478915 207.3214369058917,417.8477526953654 187.31435935314545,417.9487985415913 184.21052631578945,416.6217974604029 175.1682393726479,403.77912904840474 173.72398520811834,394.7368421052632 175.05863589454918,385.5849516840229 181.22171945701356,371.4098594903549 181.95154438764484,368.4210526315789 181.84135014724757,366.0518764630371 184.21052631578945,364.28759633752713 190.41629809818667,348.3110349402919 192.199565851749,342.10526315789474 194.58435377293102,331.73143570075325 193.2837675984723,324.8627149668934 200.35382574082263,315.7894736842105 196.89454729260126,303.10545270739874 184.21052631578945,294.3578520337355 172.02391792630368,303.6028652947247 168.44549454130677,305.23871598500904 157.89473684210526,310.90009816506836 155.70386912314538,313.5986059652506 153.0053613229631,315.7894736842105 144.3568815085843,328.5674078243738 131.57894736842104,338.0295489281656 129.89318074984197,340.4194965393157 127.60386805794444,342.10526315789474 118.00680242445385,354.84890768761176 105.26315789473684,368.33131421905154 105.21420966972187,368.37210440656395 104.78685401286035,368.4210526315789 82.34043218563343,371.81411639615976 78.94736842105263,371.59004614755537 67.09441976638102,382.88389345059153 53.12041714192605,394.7368421052632 52.89924251211179,395.0045056700065 52.63157894736842,395.17085732473015 51.70278637770892,395.6656346749227 32.968842632237696,401.3898952638166 26.31578947368421,411.6391933729396 22.31237322515216,417.0492153304154 14.305540728088083,421.05263157894734 4.46086753886618,425.5134991178136 0,428.8801915999767 "></polyline><polyline fill="none" stroke="rgb(101,255,0)" stroke-width="1" points="148.71316143974667,0 147.70163194626645,10.193104895838777 148.90166592952974,17.322718561108683 147.25504731173422,26.31578947368421 150.7681523453473,33.442373970442176 157.89473684210526,45.20123839009281 159.75814513233112,50.76817065714256 160.1127489487547,52.63157894736842 161.2155594375357,55.95240154279886 157.89473684210526,73.86112339672721 156.91256538913206,77.96519696807944 156.6231755860239,78.94736842105263 156.6000562904588,80.2420489726991 157.89473684210526,93.18885448916384 160.0900647340276,103.06783000281449 160.0508624502433,105.26315789473684 169.9690402476784,117.33746130031 170.9463971347053,118.527287075821 181.66740380362677,131.57894736842104 182.11619012930254,133.673283554908 184.21052631578945,134.4272445820433 187.05882352941168,134.4272445820433 191.3312693498451,131.57894736842104 204.79645118062936,125.8490827595767 210.52631578947367,123.58101135190914 214.44367220572443,127.66159095217033 229.72136222910228,131.57894736842104 234.46852425180603,133.95252837977293 236.8421052631579,133.61344537815123 240.49376835754538,135.23061046280856 244.75404196766408,131.57894736842104 260.66714774552474,129.08820037710373 263.1578947368421,128.86362482870626 265.1534932298855,129.58334887537762 268.67905056759554,131.57894736842104 268.8694352514146,137.29048788299357 263.1578947368421,143.40999557717836 256.28378023823274,151.02062234349586 258.0882352941177,157.89473684210526 248.7280521336249,169.78068371257226 236.8421052631579,183.64762172811717 236.35961561658158,183.7280366692132 236.24288425047445,184.21052631578945 235.8380051878505,185.21462639109686 232.16893510134943,205.8531456276652 227.99646174259175,210.52631578947367 226.5221878224975,220.8462332301341 224.45820433436535,224.45820433436535 223.86849476632764,236.8421052631579 217.99793601651194,244.3137254901961 210.52631578947367,246.02852357509008 200.8647379096829,246.5036831429487 194.09767302506745,246.72925197243586 184.21052631578945,247.23198824578898 174.86098917178813,253.80835759284076 169.75470350083356,263.1578947368421 167.84180565265154,273.10496354738837 165.33219458382268,282.03622646880893 163.67204776647503,289.4736842105263 160.46243058626962,292.04137795469063 157.89473684210526,293.41916484180325 147.87088260670964,305.7656194488149 135.52442799969796,315.7894736842105 133.93188854489165,318.1424148606811 131.57894736842104,319.8847826938904 122.38827743828313,332.9145932277568 109.90712074303403,342.10526315789474 107.91217895608946,344.75428421924744 105.26315789473684,347.55687171893925 93.8826955787516,357.04059031559365 89.86799747393064,357.5004235787009 78.94736842105263,361.4747031390838 74.36480800429172,363.8384922148181 68.69014206764852,368.4210526315789 60.477543576911664,376.2670172611222 52.63157894736842,382.98263105420585 41.309155241043804,383.4144183989386 36.60941413105636,384.4432174478911 26.31578947368421,385.0013055317245 21.11932943764747,389.54038206922644 14.934810098984038,394.7368421052632 8.219934240526097,402.95677634578925 0,408.1592663714387 "></polyline><polyline fill="none" stroke="rgb(101,255,0)" stroke-width="1" points="172.686618507052,184.21052631578945 175.7783986508596,192.64265398071936 184.21052631578945,197.8572592471892 193.0750707840491,193.0750707840491 194.58204334365323,184.21052631578945 192.57465295116347,175.84639968041546 184.21052631578945,171.86348223499928 175.49496578817286,175.49496578817286 172.686618507052,184.21052631578945 "></polyline><polyline fill="none" stroke="rgb(101,255,0)" stroke-width="1" points="178.70119539043685,394.7368421052632 179.45996551788062,399.48740290317204 184.21052631578945,406.2345762103469 194.59068692932686,410.67247096540996 200.11823825007397,410.64455403954764 210.52631578947373,413.02469580243365 216.24788327660224,415.33106409181875 231.23839009287923,421.05263157894734 235.17184738826114,422.72288945384406 236.8421052631579,423.40713375133345 239.10166783181865,423.3121941476081 262.6298428864906,421.58068342929886 263.1578947368421,421.55710968597975 263.6810572182089,421.57579406031414 289.31151407931594,421.2148017101579 289.4736842105263,421.22122428961165 289.59958338817574,421.1785307565968 289.80114312931653,421.0526315789473 290.2389814589349,420.28733433053884 300.51460931882605,405.7777672135629 303.78294287078546,394.7368421052632 308.029625795148,386.9769942162006 315.7894736842105,375.2746429641466 319.40583624267174,372.0374151900402 321.2025004436907,368.42105263157896 329.9955445374887,356.3113340111729 334.3069104503768,349.9036158654127 339.6303368495208,342.10526315789474 340.2885040655939,340.2885040655939 342.10526315789474,334.72467934542243 348.0624065119839,321.74661703829963 351.1682675769364,315.7894736842105 358.4033064708187,305.7717275234503 368.4210526315789,297.4387841260906 372.20576533443887,293.2583969133862 374.67934542237947,289.4736842105263 376.53365439743146,281.3610824446738 376.8816056368101,271.6184477420733 380.10467344832665,263.1578947368421 378.5912510627376,252.98769630568347 368.4210526315789,240.85280045032368 366.11424755660784,239.14891033812904 360.3996622572474,236.8421052631579 346.17068517997313,232.7766832410795 342.10526315789474,230.74397223004027 331.6513208154074,226.38816292067057 322.939702196668,236.8421052631579 317.44864273130014,238.50127431024748 315.7894736842105,238.87122416534183 308.2817337461301,244.34984520123834 301.28630399528225,248.6547250479139 297.92311661506704,254.70846233230142 292.1419260224866,263.1578947368421 290.78198342155196,264.46619394786774 289.4736842105263,265.0014072614692 286.82288188753313,265.8086970598353 271.0450185250977,271.0450185250977 263.15789473684214,273.2653432890184 253.33923042901375,272.97655904467047 245.041748756919,271.3575382306032 236.8421052631579,271.02383180934555 225.78505086245025,278.41662980981863 221.13232995126134,289.4736842105263 217.76420383231533,296.71157225336793 216.1310985374186,310.18469093626555 214.5149955364774,315.7894736842105 212.70804330209657,317.9712011968333 210.52631578947364,320.0668078865895 200.09066095695533,331.6696083253763 197.6916598460316,342.10526315789474 194.68247825445968,352.57721509656494 191.27060497029538,361.36097397707306 188.8961390551028,368.42105263157896 188.06621502747532,372.2767413432648 184.21052631578945,378.8699690402476 179.40238296275447,389.92869875222806 178.70119539043685,394.7368421052632 "></polyline><polyline fill="none" stroke="rgb(101,255,0)" stroke-width="1" points="297.2996216030271,210.52631578947367 305.54894022386276,220.76684924982146 315.7894736842105,231.99840207729957 327.167844195708,221.90468630097118 324.54782467003423,210.52631578947367 321.6028769586437,204.71291251504047 315.7894736842105,199.4324045407636 306.3478470895637,201.08468919482684 297.2996216030271,210.52631578947367 "></polyline><polyline fill="none" stroke="rgb(170,255,0)" stroke-width="1" points="137.77089783281738,0 137.21190230478155,5.632954936360524 131.57894736842104,18.8638490892073 128.98434464346147,23.721186748724634 128.01857585139317,26.31578947368421 128.40633908592096,29.488397756184288 131.57894736842104,36.99690402476781 136.46478328173376,47.74574303405573 139.2681317565853,52.63157894736842 137.6310795965245,58.683711175471885 131.57894736842104,77.3179077725272 131.14289451881564,78.51131557144724 130.98356751607523,78.94736842105263 130.54695562435495,79.97936016511872 126.68871376301719,100.37292428933299 121.7984801576133,105.26315789473684 118.25519681556828,118.25519681556828 118.29884308293951,118.54326218021838 116.52124964818458,131.57894736842104 114.97602136829961,141.29181084198385 113.67249602543721,149.4853987114049 112.33464677737126,157.89473684210526 114.55108359133129,167.1826625386997 115.44073164656064,174.03295256396567 118.67905056759547,184.21052631578945 120.52189296771341,195.2675807164971 120.76546865885946,199.71283707991208 122.25232198142422,210.52631578947367 125.51284955574016,216.59241360215455 128.93058301316728,234.19374090790416 129.83438989630943,236.8421052631579 129.40256873984617,239.01848389173279 127.9008229472626,259.47977031568365 126.90133261542604,263.1578947368421 130.2669334742883,264.4699086309749 131.57894736842104,265.6598747210022 143.874391862008,275.4533392304291 145.02990772190327,276.0227238570441 144.9133670088534,276.49231437727445 148.6455108359133,289.4736842105263 140.84585965846208,298.7405965005674 131.57894736842104,306.54024767801855 127.07628156418969,311.28680787997916 123.81735911147678,315.7894736842105 115.75031510419856,326.2766308936722 105.26315789473684,334.60685506005314 99.6542690788447,336.49637434200264 94.89771140654402,342.10526315789474 86.49695071580958,349.65484545265167 78.94736842105263,352.40232002194614 68.37968678296502,357.8533709934913 55.29353896009956,368.4210526315789 53.93217128235578,369.72164496656626 52.63157894736842,370.8348638295639 50.122065983824534,370.93056559512286 30.721600381043093,368.4210526315789 26.759785921712634,367.97705618355053 26.31578947368421,367.96284829721367 25.903735216161433,368.00899837405615 25.541795665634673,368.4210526315789 11.924876209823136,380.34592884140204 0,390.39887680898556 "></polyline><polyline fill="none" stroke="rgb(170,255,0)" stroke-width="1" points="183.67840557275542,394.7368421052632 183.75169166311338,395.1956767579393 184.21052631578945,395.8473549602908 186.15040953090102,396.6767253203747 200.16407692082313,405.0990809739138 210.52631578947367,407.468740250078 220.20765270341926,411.3712946650018 231.4528150441463,415.6633413599358 236.8421052631579,417.77043227263204 240.42024057250163,417.47449626960366 258.4081341737756,416.3028710158808 263.1578947368421,415.8946884674923 270.53461784596226,413.6759084698272 281.9094636432098,413.4884110116309 289.4736842105263,408.09540190345143 295.01197387733765,400.2751317720745 296.65141783343347,394.7368421052632 303.4205051118434,382.367873532896 306.52611921961767,377.6844070961718 312.4161133878559,368.4210526315789 313.73457463044525,366.3661535778136 315.7894736842105,363.5169237973828 324.85704527175176,351.1728347454359 331.04688455905523,342.10526315789474 333.9876841424829,333.9876841424829 338.8752630238698,319.01947381823544 339.9855755699409,315.7894736842105 339.7061312255483,313.390341751864 342.10526315789474,309.46633782861943 349.94291474239634,297.31133579502796 359.9774838164931,289.4736842105263 358.8949749940462,279.94760657299355 359.47031235631306,272.10863501210804 357.90913672690624,263.1578947368421 349.07517662935624,256.18798126538064 342.10526315789474,252.70302452964987 333.7670231153488,254.8196546942962 322.116031767398,256.8313366536546 315.7894736842105,258.24198811814915 312.94746517027863,260.31588622291025 311.00293302916737,263.1578947368421 300.0299610506342,273.7141715769499 289.4736842105263,278.032648466085 280.7035522809894,280.7035522809894 268.95153259826554,283.6800463491029 263.15789473684214,285.31102843614224 258.8690978783858,285.18488735207 238.55440441392673,287.7613850597575 236.8421052631579,287.6916984664122 235.77415561860175,288.40573456597014 235.32477086717958,289.4736842105263 234.00412796697623,292.311661506708 226.3379035824856,305.2852720035383 223.30908469296665,315.7894736842105 217.5182330084983,322.7813909032352 210.52631578947364,329.49731138992996 204.55619532613832,336.13514269455936 203.18375384031413,342.10526315789474 200.22304337694328,352.4085355704251 199.15016518794025,357.04490203004553 195.32410556859045,368.4210526315789 193.35564872676593,377.56617504255536 184.21052631578945,393.2043343653251 183.74613003095976,394.2724458204334 183.67840557275542,394.7368421052632 "></polyline><polyline fill="none" stroke="rgb(238,255,0)" stroke-width="1" points="0,83.8696211778621 3.6056007848233915,82.55296920587601 11.528434088316876,78.94736842105263 9.320861603320049,69.62650681773258 0,73.2580113385066 "></polyline><polyline fill="none" stroke="rgb(238,255,0)" stroke-width="1" points="122.81428509135303,0 117.1878471862177,11.92468929148084 116.14016822378687,15.438779144634177 112.09150326797379,26.31578947368421 113.04228553513336,34.09491711408074 111.67624944714716,46.218487394958096 113.03286496784933,52.63157894736842 110.95364758208686,58.32206863471842 105.26315789473684,73.8960404106239 103.7397415106393,77.4239520369551 103.6084125120102,78.94736842105263 100.07530750564787,84.1352188101416 93.69927202744533,93.69927202744533 85.08090425842623,105.26315789473684 85.38454464641501,111.70033412009921 85.38454464641501,125.14177114305869 85.71981424148596,131.57894736842104 84.02670278637765,136.65828173374607 78.94736842105263,144.5820433436531 75.55127314083525,154.49864156188787 74.4498368337377,157.89473684210526 74.56819292814072,162.27391233501714 78.14470817566783,183.40786607040468 78.173374613003,184.21052631578945 78.43442577903157,184.72346895781052 78.94736842105263,184.95783068218222 91.46190121618264,198.01178299434366 96.3940994354398,210.52631578947367 99.35045225520545,216.4390214290051 105.26315789473684,233.37086030584504 106.61879202007796,235.48647113781675 107.08142906285312,236.8421052631579 106.78039078998617,238.35933815840724 105.26315789473684,242.2969187675067 101.51888015665101,259.41361699875625 100.2849704475091,263.1578947368421 102.24191309917792,266.179139532401 105.26315789473684,266.07843137254906 111.34760921912633,269.2423460612316 121.52646681265573,273.21037529260747 131.57894736842104,282.32774137806905 135.55662428486974,285.4960072940776 136.70020639834877,289.4736842105263 134.35972150231845,292.2544583444237 131.57894736842104,294.59494324045403 121.26112321730227,305.4716495330918 113.7933274156184,315.7894736842105 110.08455805871337,320.61087384818705 105.26315789473684,324.44063851744505 92.21701627456505,328.8356153043823 91.97383024709382,328.8159355102517 91.43113951862544,329.62149206032194 80.84441206823283,342.10526315789474 79.84527307076206,343.0031678076042 78.94736842105263,343.3299369048085 76.41797689147904,344.63465468746836 61.47604930566388,350.9497335161902 52.63157894736842,357.68640953676106 41.48005650906244,357.269530193273 37.87169702642383,356.8651450788393 26.31578947368421,356.4953560371517 15.59124217653737,357.6965053344321 6.17103171282732,368.4210526315789 2.8811125977868888,371.3021652293658 0,373.7310101519187 "></polyline><polyline fill="none" stroke="rgb(238,255,0)" stroke-width="1" points="77.9153766769875,0 63.215494276046016,10.583915328677598 64.79234652609276,14.155021894959873 62.5569113094155,26.31578947368421 60.25782302216166,33.94203354847745 52.63157894736842,44.07691054261053 46.49804310999484,46.49804310999484 46.1300309597524,52.63157894736842 34.96829667284062,61.284086146524835 26.31578947368421,69.42330902030756 15.184193133196452,63.76317528785617 16.20648259303716,52.63157894736842 18.838717214790545,45.154506688474754 24.1463469752095,28.485231972158918 24.873004899455886,26.31578947368421 25.22709488653756,25.22709488653756 26.31578947368421,23.956951201533137 33.74613003096004,18.885448916408375 41.382868937048414,15.067079463364205 43.87949511788506,8.752083829483372 49.183788347874994,0 "></polyline><polyline fill="none" stroke="rgb(238,255,0)" stroke-width="1" points="194.9683898327133,394.7368421052632 204.68595872684125,400.5771991678955 210.52631578947367,401.91278469772243 222.54834948333394,406.7588757991235 224.1569743117731,407.42197305664797 236.8421052631579,412.3815731278661 246.29498045982848,411.5997563822767 253.2518876539635,411.1466244960688 263.1578947368421,410.29532701238384 275.11877202279675,406.69771939121784 289.1740737041849,395.03645261160466 289.4736842105263,394.8228414172686 289.5093384358491,394.7724963305859 289.5198927960815,394.7368421052632 289.57574932807125,394.6347769877183 298.43341465282407,377.3807830738767 304.1303530843429,368.4210526315789 308.68726289626306,361.3188418436314 315.7894736842105,351.47123865025884 319.755847647169,346.0716371208532 322.46343226858977,342.10526315789474 326.25474207473945,331.6399947673658 327.7348326667932,327.7348326667932 331.841049817056,315.7894736842105 330.487889858939,304.1721003852548 335.33539731682134,296.24355005159975 327.1717355672916,289.4736842105263 319.6211261993072,285.64203169542975 315.7894736842105,285.44246646026846 313.7088451679483,287.39305569426415 301.9681556833263,289.4736842105263 290.5402854338141,290.5402854338141 289.4736842105263,290.34829721362235 288.34878002648003,290.59858839457263 267.5517143872217,293.86750386090586 263.1578947368421,295.0244563723964 254.66847848927608,297.9631004580923 246.2207555086812,298.8523344560496 236.8421052631579,305.8863221401922 233.1637918325225,312.1111602535751 232.10317384945589,315.7894736842105 222.32842271490017,327.59158060963705 210.52631578947364,338.92781489327035 209.0217296953213,340.60067706374235 208.67584783459665,342.10526315789474 207.92969140117847,344.70188754618994 203.96035489434206,361.8550917364473 201.75207208207806,368.42105263157896 199.34542237947818,379.6019460415745 199.44012902986603,383.65065534565554 194.9683898327133,394.7368421052632 "></polyline><polyline fill="none" stroke="rgb(255,205,0)" stroke-width="1" points="0,329.67583318156977 8.20583726592326,333.8994258919715 18.373939965002073,342.10526315789474 23.024572560176306,345.39648007140266 26.31578947368421,345.02786377708975 29.335004989381545,345.1244786735921 50.52575795609854,344.2110841491646 52.63157894736842,344.2898064292121 53.87161146742654,343.34529567795283 56.80561698363551,342.10526315789474 57.71301655673705,337.02382554852613 52.63157894736842,322.6264189886482 50.84802799838471,317.5730246331943 51.329303651285066,315.7894736842105 51.811145510835914,314.9690402476781 52.63157894736842,313.96628826969385 62.28373702422169,306.13731560735727 66.70635865682297,303.54846391998086 66.52524557581309,301.89580705576583 70.69989341724603,289.4736842105263 75.09222684839206,285.6185426378658 78.94736842105263,275.49879600963186 91.21800196330145,277.2030506682775 84.08100082138124,289.4736842105263 87.85172196498542,298.37803775445917 87.15010692285604,307.58673518240715 99.07120743034051,309.59752321981415 105.26315789473684,313.3340450517775 114.98611523988369,299.1966415556732 124.13453419645366,289.4736842105263 114.36776926837216,280.369072836891 105.26315789473684,275.63467492260065 92.35614390946938,276.0649087221095 83.99591894173938,263.1578947368421 86.47740987563623,255.6278532822585 89.60869666426125,247.5034335063665 92.58156703977133,236.8421052631579 88.6262534473103,227.16322023690026 80.11291203788016,211.6918594063012 79.5301402294664,210.52631578947367 79.36539039333256,210.10829381719378 78.94736842105263,209.67225365645353 77.374809572952,208.95375694137306 62.435500515996566,210.52631578947367 53.117723818540085,211.01246066064536 52.63157894736842,210.99316919750362 52.12006999596172,211.0378247408804 50.53073861123375,210.52631578947367 50.53073861123375,208.425475453339 52.373581011351526,184.46852425180634 52.373581011351526,184.21052631578945 52.55116400627225,184.13011137469329 52.63157894736842,183.7682441397605 55.147058823529406,160.41021671826624 55.07907288093047,157.89473684210526 56.25386996904024,154.27244582043346 60.82301341589264,139.77038183694526 63.55349157206737,131.57894736842104 64.63734549665583,119.57318081913364 64.96472618382985,117.59630513119828 65.90784920779456,105.26315789473684 67.69499143499236,94.01078090867658 78.73385288779725,79.16088395430798 78.8367978770454,78.94736842105263 63.50189198486407,68.07705538355698 52.63157894736842,68.4652808491818 46.78499623795839,73.1007857116426 40.602953864893685,78.94736842105263 34.42292461660308,87.0545035639715 26.31578947368421,90.12066365007544 15.626970006864406,94.57433842791703 8.3289953149401,96.93416257979675 0,99.9756496330052 "></polyline><polyline fill="none" stroke="rgb(255,205,0)" stroke-width="1" points="27.465053006848642,0 27.031368654711127,0.715579181026914 26.31578947368421,1.2039903680770276 14.725728348019352,14.725728348019352 10.956145360545824,26.31578947368421 8.207148888263418,34.52293836194763 2.4377757733842733,50.19380317398414 1.5795792001010358,52.63157894736842 1.4467173982233763,54.078296345591795 0,54.64195247476973 "></polyline><polyline fill="none" stroke="rgb(255,205,0)" stroke-width="1" points="207.0140749798372,394.7368421052632 209.20784053285936,396.05531736187754 210.52631578947367,396.3568291453668 213.24032005146555,397.450846367255 228.03112710233452,403.5478202660865 236.8421052631579,406.99271398310015 248.16176470588238,406.05650154798764 252.26244343891403,405.6322934031912 263.1578947368421,404.69596555727554 270.8141578110618,402.3931051794829 280.0422364833002,394.7368421052632 283.9856356293658,389.2487935241026 289.4736842105263,379.9019607843137 293.3682678948462,372.31563631589887 295.84459278083,368.4210526315789 303.6399511620808,356.27153010944926 308.85718131646246,349.0375555256428 313.7583561751888,342.10526315789474 314.0796321350609,340.3954216087451 315.7894736842105,337.19933317456537 321.6737902460417,321.6737902460417 323.6965240641712,315.7894736842105 322.8716155003584,308.7073318680626 315.7894736842105,301.8730650154799 306.6722819158623,298.5908759788745 299.28075209544664,299.28075209544664 289.4736842105263,297.515479876161 279.13053865987075,299.81682976118185 274.2657028298809,300.58149230356514 263.1578947368421,303.50632934581495 254.0332732283197,306.6648521756881 243.19778518694935,315.7894736842105 239.97476266635368,318.92213108740634 236.8421052631579,321.39108988823006 227.58349751383807,332.8466554085749 217.89425684594525,342.10526315789474 215.62263963014306,347.2015869985641 210.52631578947367,359.07784166298103 208.77054460074388,366.66528144284916 208.18003859556566,368.42105263157896 207.5364882795224,371.4108801415303 208.0235813203315,392.234107636121 207.0140749798372,394.7368421052632 "></polyline><polyline fill="none" stroke="rgb(255,137,0)" stroke-width="1" points="0,223.75055285272 7.103943168454681,229.73816209470323 13.091552410437917,236.8421052631579 20.265484934944073,242.89240980189805 26.31578947368421,245.10725342768686 31.21365505266433,241.73997084213804 44.82972136222902,236.8421052631579 49.78418566812047,233.99471198390995 52.63157894736842,233.7461300309597 55.60938718597125,233.86429702455507 77.01238390092871,236.8421052631579 78.44801757714968,237.34145610706085 69.52675807164972,253.7372843874392 71.21952399380805,263.1578947368421 64.6784496610103,275.204765450484 52.63157894736842,286.25747693047583 49.335366511097774,286.17747177425565 45.58329490810884,289.4736842105263 37.09641751437417,300.2543122512162 31.793284115265482,310.3119790426293 28.576342817828856,315.7894736842105 28.095975232198114,317.5696594427244 26.31578947368421,318.8854489164086 24.55758131712727,317.5476818407675 20.381836945304553,315.7894736842105 5.6225757090495305,310.166897975161 0,310.7465449554754 "></polyline><polyline fill="none" stroke="rgb(255,137,0)" stroke-width="1" points="0,137.3906903481614 6.9740915756884245,138.5530389441095 15.057697720236403,131.57894736842104 20.622041920216372,125.88519981495322 26.31578947368421,118.54326218021843 33.009789975734215,124.88494686637104 33.600437078856274,131.57894736842104 31.422552743289387,136.68571063802622 28.775605411595073,155.4349209041944 28.076245978267487,157.89473684210526 27.474283431539007,159.05323079996006 26.31578947368421,159.846547314578 14.820989124394703,172.71572596649995 8.239288924398286,184.21052631578945 6.385448916408669,190.59597523219813 0,198.01690235126767 "></polyline><polyline fill="none" stroke="rgb(255,137,0)" stroke-width="1" points="98.70790421431732,289.4736842105263 100.65803344540986,294.0788086598533 105.26315789473684,296.8577630689299 108.2721267972245,292.48265311301395 111.10329299183788,289.4736842105263 108.08076693281193,286.65607517245127 105.26315789473684,285.1909184726522 101.11854589034257,285.329072206132 98.70790421431732,289.4736842105263 "></polyline><polyline fill="none" stroke="rgb(255,137,0)" stroke-width="1" points="219.92890723540884,394.7368421052632 231.905279892896,399.67366747552506 236.8421052631579,401.6038548383342 243.18455452356378,401.07929136566906 258.388240586383,399.50649625572225 263.1578947368421,399.09660410216713 266.5095435993269,398.08849096774793 270.5492793143747,394.7368421052632 278.46179542702384,383.7249533217607 284.5659901387456,373.3287467033597 287.59147199549676,368.4210526315789 287.8655805705011,366.8129489915537 289.4736842105263,365.2048453515285 298.35150871031834,350.9830876576868 304.62818717832425,342.10526315789474 306.3936453655824,332.7094348392666 315.04972738979154,316.52921997862956 315.3034775721794,315.7894736842105 298.88623602875583,306.376921865981 289.4736842105263,304.6826625386997 280.3883581201289,306.7041475938131 268.31785345717236,310.62951496388024 263.1578947368421,311.9882023192335 260.33409315143064,312.9656720987991 256.9808287687545,315.7894736842105 246.76830073511073,325.7156691561633 236.8421052631579,333.53885711287194 233.01318134909462,338.27633924383156 229.00616795065636,342.10526315789474 223.30862639962155,354.88757376804256 222.74398986016166,356.20337856089094 217.42189698846045,368.4210526315789 218.37301163659657,376.2677484787019 218.7156696294817,386.54748826525514 219.92890723540884,394.7368421052632 "></polyline><polyline fill="none" stroke="rgb(255,69,0)" stroke-width="1" points="0,295.96884874405544 5.888139810769381,295.36182402129566 14.318885448916458,289.4736842105263 10.678490843259734,278.7951933672666 0,270.9433618648697 "></polyline><polyline fill="none" stroke="rgb(255,69,0)" stroke-width="1" points="34.442724458204296,263.1578947368421 43.66645635555293,272.12301732865757 52.63157894736842,272.34061739156573 57.420543167300224,267.9468589567739 60.020801083591344,263.1578947368421 58.89529042708056,256.89418325712995 52.63157894736842,251.76246782796818 44.847048631018346,255.373364420492 34.442724458204296,263.1578947368421 "></polyline><polyline fill="none" stroke="rgb(255,69,0)" stroke-width="1" points="233.20146772159154,394.7368421052632 235.77943268345743,395.7995146849636 236.8421052631579,396.21499569356826 238.2073443412453,396.10208118335055 251.40465542942337,394.7368421052632 260.0314172856076,391.6103646540286 263.1578947368421,392.1142184581532 273.23477721492816,378.49793510966504 279.4469462426119,368.4210526315789 280.90715080104604,359.8545192220987 289.4736842105263,351.2879858126184 293.0028649323044,345.63444387967286 295.49801818145966,342.10526315789474 296.8918836884599,334.68706367996117 296.29555171350836,322.61134118719264 298.6356109151127,315.7894736842105 292.81235241643486,312.45080547830196 289.4736842105263,311.8498452012384 286.25108422445504,312.56687369813926 276.3415892672859,315.7894736842105 270.28421610464954,322.9157950520179 263.1578947368421,324.02928276573783 253.97644437892114,332.9238127999738 241.99577135090237,342.10526315789474 240.01955352778225,345.28271142251907 236.8421052631579,349.2679855171328 230.87888120114033,362.45782856956146 228.2812646589736,368.4210526315789 229.20676094050705,376.0563969542298 232.56831336653656,390.4630502086418 233.20146772159154,394.7368421052632 "></polyline><polyline fill="none" stroke="rgb(255,0,0)" stroke-width="1" points="241.4391593958156,368.4210526315789 252.95549948767666,378.62344788074444 263.1578947368421,380.2676355448661 268.1963359758852,373.459493870622 271.302420489727,368.4210526315789 272.97595317867604,358.6029941897451 268.18885448916416,347.13622291021676 273.2198142414861,342.10526315789474 266.884531590414,338.37862630432284 263.1578947368421,338.96091331269344 261.5607646567399,340.50813307779254 259.4767046741674,342.10526315789474 253.42055328073494,351.8426046140019 250.9063004419041,356.1694583366409 241.4391593958156,368.4210526315789 "></polyline></svg>