<svg class="diagram-root" style="background: #f5f6f6" xmlns="http://www.w3.org/2000/svg" xmlns:xlink="http://www.w3.org/1999/xlink"><style>.diagram-root { font-family: "Helvetica Neue", sans-serif; font-size: 12px; } .t { overflow: visible; } .t-bg { y: 40; fill: #fff;   } .th { fill: #005aa0;   } .tht { fill: #fff; font-size: 14px;  } .tf { fill: #323c46; overflow: visible; } .tf.pk { fill: #005aa0; font-weight: bold; } .tf.fk { font-weight: bold; } .ty { fill: #adb1b5; font-weight: normal; text-anchor: end; } .r { fill: transparent; stroke: #c3c3c3; stroke-width: 1; } .l { stroke: 1; } .i { fill: #c2c7ce; stroke: #c2c7ce; } .i.ix { fill: #afb3b6; stroke: #000; } .fa { fill: transparent; overflow: visible; } .fa .bg.hover { fill: #f7f7f7; } .c { cy: 12; r: 4; stroke: #d2d2dc; fill: #d2d2dc; } .hr { fill: transparent; stroke: #323c46; stroke-opacity: 0.035; stroke-width: 13; } .dc { stroke: #fa5a3c; fill: #fa5a3c; } .x { stroke: white; stroke-width: 1; } .hl .th { fill: #1b9bff; } .hl .tht {  } .fhl .bg { fill: #e7f4ff; } .fhls .bg {  } .r.hl { stroke: #1b9bff; } .dim { opacity: 0.25; }</style><g class="drawing-wrapper" transform="translate(103, 15) scale(1,1)"><g class="rs"><path d="M 102.43 281 m -1, 0 a 1,1 0 1,0 2,0 a 1,1 0 1,0 -2,0 M 102.43 281 m -0.5, 0 a 0.5,0.5 0 1,0 1,0 a 0.5,0.5 0 1,0 -1,0  M102.43 281 L102.43 281 114.43 281 M 102.43 287 m -1, 0 a 1,1 0 1,0 2,0 a 1,1 0 1,0 -2,0 M 102.43 287 m -0.5, 0 a 0.5,0.5 0 1,0 1,0 a 0.5,0.5 0 1,0 -1,0  M102.43 287 L102.43 287 109.43 281 102.43 275 M 102.43 275 m -1, 0 a 1,1 0 1,0 2,0 a 1,1 0 1,0 -2,0 M 102.43 275 m -0.5, 0 a 0.5,0.5 0 1,0 1,0 a 0.5,0.5 0 1,0 -1,0  M114.43 281 Q 147.57 281, 180.72 268.5 T 247 256 M 259 256 m -1, 0 a 1,1 0 1,0 2,0 a 1,1 0 1,0 -2,0 M 259 256 m -0.5, 0 a 0.5,0.5 0 1,0 1,0 a 0.5,0.5 0 1,0 -1,0  M259 256 L259 256 247 256 M253 262 L253 262 253 250" id="h3043468246" class="r"></path><path d="M 453.75 306 m -1, 0 a 1,1 0 1,0 2,0 a 1,1 0 1,0 -2,0 M 453.75 306 m -0.5, 0 a 0.5,0.5 0 1,0 1,0 a 0.5,0.5 0 1,0 -1,0  M453.75 306 L453.75 306 465.75 306 M 453.75 312 m -1, 0 a 1,1 0 1,0 2,0 a 1,1 0 1,0 -2,0 M 453.75 312 m -0.5, 0 a 0.5,0.5 0 1,0 1,0 a 0.5,0.5 0 1,0 -1,0  M453.75 312 L453.75 312 460.75 306 453.75 300 M 453.75 300 m -1, 0 a 1,1 0 1,0 2,0 a 1,1 0 1,0 -2,0 M 453.75 300 m -0.5, 0 a 0.5,0.5 0 1,0 1,0 a 0.5,0.5 0 1,0 -1,0  M465.75 306 Q 504.57 306, 543.38 342 T 621 378 M 633 378 m -1, 0 a 1,1 0 1,0 2,0 a 1,1 0 1,0 -2,0 M 633 378 m -0.5, 0 a 0.5,0.5 0 1,0 1,0 a 0.5,0.5 0 1,0 -1,0  M633 378 L633 378 621 378 M627 384 L627 384 627 372" id="h286918845" class="r"></path><path d="M 782.06 232 m -1, 0 a 1,1 0 1,0 2,0 a 1,1 0 1,0 -2,0 M 782.06 232 m -0.5, 0 a 0.5,0.5 0 1,0 1,0 a 0.5,0.5 0 1,0 -1,0  M782.06 232 L782.06 232 794.06 232 M 782.06 238 m -1, 0 a 1,1 0 1,0 2,0 a 1,1 0 1,0 -2,0 M 782.06 238 m -0.5, 0 a 0.5,0.5 0 1,0 1,0 a 0.5,0.5 0 1,0 -1,0  M782.06 238 L782.06 238 789.06 232 782.06 226 M 782.06 226 m -1, 0 a 1,1 0 1,0 2,0 a 1,1 0 1,0 -2,0 M 782.06 226 m -0.5, 0 a 0.5,0.5 0 1,0 1,0 a 0.5,0.5 0 1,0 -1,0  M794.06 232 C 843.2227763697394 232, 843.0367763697394 378, 794.37 378 M 782.37 378 m -1, 0 a 1,1 0 1,0 2,0 a 1,1 0 1,0 -2,0 M 782.37 378 m -0.5, 0 a 0.5,0.5 0 1,0 1,0 a 0.5,0.5 0 1,0 -1,0  M782.37 378 L782.37 378 794.37 378 M788.37 384 L788.37 384 788.37 372" id="h1227587506" class="r"></path><path d="M 632 257 m -1, 0 a 1,1 0 1,0 2,0 a 1,1 0 1,0 -2,0 M 632 257 m -0.5, 0 a 0.5,0.5 0 1,0 1,0 a 0.5,0.5 0 1,0 -1,0  M632 257 L632 257 620 257 M 632 263 m -1, 0 a 1,1 0 1,0 2,0 a 1,1 0 1,0 -2,0 M 632 263 m -0.5, 0 a 0.5,0.5 0 1,0 1,0 a 0.5,0.5 0 1,0 -1,0  M632 263 L632 263 625 257 632 251 M 632 251 m -1, 0 a 1,1 0 1,0 2,0 a 1,1 0 1,0 -2,0 M 632 251 m -0.5, 0 a 0.5,0.5 0 1,0 1,0 a 0.5,0.5 0 1,0 -1,0  M620 257 Q 581.44 257, 542.88 256.5 T 465.75 256 M 453.75 256 m -1, 0 a 1,1 0 1,0 2,0 a 1,1 0 1,0 -2,0 M 453.75 256 m -0.5, 0 a 0.5,0.5 0 1,0 1,0 a 0.5,0.5 0 1,0 -1,0  M453.75 256 L453.75 256 465.75 256 M459.75 262 L459.75 262 459.75 250" id="h1627391197" class="r"></path><path d="M 220 72 m -1, 0 a 1,1 0 1,0 2,0 a 1,1 0 1,0 -2,0 M 220 72 m -0.5, 0 a 0.5,0.5 0 1,0 1,0 a 0.5,0.5 0 1,0 -1,0  M220 72 L220 72 208 72 M 220 78 m -1, 0 a 1,1 0 1,0 2,0 a 1,1 0 1,0 -2,0 M 220 78 m -0.5, 0 a 0.5,0.5 0 1,0 1,0 a 0.5,0.5 0 1,0 -1,0  M220 78 L220 78 213 72 220 66 M 220 66 m -1, 0 a 1,1 0 1,0 2,0 a 1,1 0 1,0 -2,0 M 220 66 m -0.5, 0 a 0.5,0.5 0 1,0 1,0 a 0.5,0.5 0 1,0 -1,0  M208 72 C 158 72, 134.6 256, 247 256 M 259 256 m -1, 0 a 1,1 0 1,0 2,0 a 1,1 0 1,0 -2,0 M 259 256 m -0.5, 0 a 0.5,0.5 0 1,0 1,0 a 0.5,0.5 0 1,0 -1,0  M259 256 L259 256 247 256 M253 262 L253 262 253 250" id="h1695406735" class="r"></path><path d="M 220 97 m -1, 0 a 1,1 0 1,0 2,0 a 1,1 0 1,0 -2,0 M 220 97 m -0.5, 0 a 0.5,0.5 0 1,0 1,0 a 0.5,0.5 0 1,0 -1,0  M220 97 L220 97 208 97 M 220 103 m -1, 0 a 1,1 0 1,0 2,0 a 1,1 0 1,0 -2,0 M 220 103 m -0.5, 0 a 0.5,0.5 0 1,0 1,0 a 0.5,0.5 0 1,0 -1,0  M220 103 L220 103 213 97 220 91 M 220 91 m -1, 0 a 1,1 0 1,0 2,0 a 1,1 0 1,0 -2,0 M 220 91 m -0.5, 0 a 0.5,0.5 0 1,0 1,0 a 0.5,0.5 0 1,0 -1,0  M208 97 C 158 97, 134.6 256, 247 256 M 259 256 m -1, 0 a 1,1 0 1,0 2,0 a 1,1 0 1,0 -2,0 M 259 256 m -0.5, 0 a 0.5,0.5 0 1,0 1,0 a 0.5,0.5 0 1,0 -1,0  M259 256 L259 256 247 256 M253 262 L253 262 253 250" id="h3153001718" class="r"></path></g><g class="hrs"></g><g class="ts"><svg width="194.75" height="225" x="259" y="199" id="h3663955443" class="t"><rect height="40" width="194.75" class="th"></rect><text x="13" y="25" class="tht">Robot</text><rect height="185" width="194.75" class="t-bg"></rect><text x="13" y="61" class="tf pk">robot_id<tspan x="181.75" class="ty">serial</tspan></text><path d="M7,14A2,2 0 0,1 5,12A2,2 0 0,1 7,10A2,2 0 0,1 9,12A2,2 0 0,1 7,14M12.65,10C11.83,7.67 9.61,6 7, 6A6, 6 0 0, 0 1, 12A6, 6 0 0, 0 7, 18C9.61, 18 11.83, 16.33 12.65, 14H17V18H21V14H23V10H12.65Z" class="i pk" transform="translate(133.07421875, 48) scale(0.65)"></path><text x="13" y="86" class="tf">nid<tspan x="181.75" class="ty">varchar(64)</tspan></text><path d="M22,18V22H18V19H15V16H12L9.74,13.74C9.19,13.91 8.61,14 8,14A6,6 0 0,1 2,8A6,6 0 0,1 8,2A6,6 0 0,1 14,8C14,8.61 13.91, 9.19 13.74, 9.74L22, 18M7, 5A2, 2 0 0, 0 5, 7A2, 2 0 0, 0 7, 9A2, 2 0 0, 0 9, 7A2, 2 0 0, 0 7, 5Z" class="i uq" transform="translate(104.396484375, 75.5) scale(0.5)"></path><text x="13" y="111" class="tf fk">state_id<tspan x="181.75" class="ty">int?</tspan></text><text x="13" y="136" class="tf">display_name<tspan x="181.75" class="ty">varchar(64)?</tspan></text><text x="13" y="161" class="tf">ipv4<tspan x="181.75" class="ty">varchar(16)?</tspan></text><text x="13" y="186" class="tf">ipv6<tspan x="181.75" class="ty">varchar(40)?</tspan></text><text x="13" y="211" class="tf">mac<tspan x="181.75" class="ty">varchar(24)?</tspan></text></svg><svg width="150.06" height="150" x="632" y="150" id="h2861018059" class="t"><rect height="40" width="150.06" class="th"></rect><text x="13" y="25" class="tht">StateChange</text><rect height="110" width="150.06" class="t-bg"></rect><text x="13" y="61" class="tf pk">change_id<tspan x="137.06" class="ty">serial</tspan></text><path d="M7,14A2,2 0 0,1 5,12A2,2 0 0,1 7,10A2,2 0 0,1 9,12A2,2 0 0,1 7,14M12.65,10C11.83,7.67 9.61,6 7, 6A6, 6 0 0, 0 1, 12A6, 6 0 0, 0 7, 18C9.61, 18 11.83, 16.33 12.65, 14H17V18H21V14H23V10H12.65Z" class="i pk" transform="translate(88.38421875, 48) scale(0.65)"></path><text x="13" y="86" class="tf fk">state_id<tspan x="137.06" class="ty">int</tspan></text><text x="13" y="111" class="tf fk">robot_id<tspan x="137.06" class="ty">int</tspan></text><text x="13" y="136" class="tf">begin<tspan x="137.06" class="ty">bigint</tspan></text></svg><svg width="149.37" height="100" x="633" y="321" id="h1416103745" class="t"><rect height="40" width="149.37" class="th"></rect><text x="13" y="25" class="tht">State</text><rect height="60" width="149.37" class="t-bg"></rect><text x="13" y="61" class="tf pk">state_id<tspan x="136.37" class="ty">serial</tspan></text><path d="M7,14A2,2 0 0,1 5,12A2,2 0 0,1 7,10A2,2 0 0,1 9,12A2,2 0 0,1 7,14M12.65,10C11.83,7.67 9.61,6 7, 6A6, 6 0 0, 0 1, 12A6, 6 0 0, 0 7, 18C9.61, 18 11.83, 16.33 12.65, 14H17V18H21V14H23V10H12.65Z" class="i pk" transform="translate(87.69421875, 48) scale(0.65)"></path><text x="13" y="86" class="tf">state<tspan x="136.37" class="ty">varchar(64)</tspan></text><path d="M22,18V22H18V19H15V16H12L9.74,13.74C9.19,13.91 8.61,14 8,14A6,6 0 0,1 2,8A6,6 0 0,1 8,2A6,6 0 0,1 14,8C14,8.61 13.91, 9.19 13.74, 9.74L22, 18M7, 5A2, 2 0 0, 0 5, 7A2, 2 0 0, 0 7, 9A2, 2 0 0, 0 9, 7A2, 2 0 0, 0 7, 5Z" class="i uq" transform="translate(59.016484375000005, 75.5) scale(0.5)"></path></svg><svg width="183.43" height="225" x="-81" y="199" id="h2620375483" class="t"><rect height="40" width="183.43" class="th"></rect><text x="13" y="25" class="tht">Status</text><rect height="185" width="183.43" class="t-bg"></rect><text x="13" y="61" class="tf pk">status_id<tspan x="170.43" class="ty">serial</tspan></text><path d="M7,14A2,2 0 0,1 5,12A2,2 0 0,1 7,10A2,2 0 0,1 9,12A2,2 0 0,1 7,14M12.65,10C11.83,7.67 9.61,6 7, 6A6, 6 0 0, 0 1, 12A6, 6 0 0, 0 7, 18C9.61, 18 11.83, 16.33 12.65, 14H17V18H21V14H23V10H12.65Z" class="i pk" transform="translate(121.75421875, 48) scale(0.65)"></path><text x="13" y="86" class="tf fk">robot_id<tspan x="170.43" class="ty">int</tspan></text><text x="13" y="111" class="tf">battery<tspan x="170.43" class="ty">double precision?</tspan></text><text x="13" y="136" class="tf">cpu_1<tspan x="170.43" class="ty">double precision?</tspan></text><text x="13" y="161" class="tf">point<tspan x="170.43" class="ty">jsonb?</tspan></text><text x="13" y="186" class="tf">orientation<tspan x="170.43" class="ty">jsonb?</tspan></text><text x="13" y="211" class="tf">last_heard<tspan x="170.43" class="ty">bigint</tspan></text></svg><svg width="125.38" height="125" x="220" y="15" id="h3621199482" class="t"><rect height="40" width="125.38" class="th"></rect><text x="13" y="25" class="tht">Neighbor</text><rect height="85" width="125.38" class="t-bg"></rect><text x="13" y="61" class="tf pk">robot_id<tspan x="112.38" class="ty">int</tspan></text><path d="M7,14A2,2 0 0,1 5,12A2,2 0 0,1 7,10A2,2 0 0,1 9,12A2,2 0 0,1 7,14M12.65,10C11.83,7.67 9.61,6 7, 6A6, 6 0 0, 0 1, 12A6, 6 0 0, 0 7, 18C9.61, 18 11.83, 16.33 12.65, 14H17V18H21V14H23V10H12.65Z" class="i pk" transform="translate(79.706171875, 48) scale(0.65)"></path><text x="13" y="86" class="tf pk">neighbor<tspan x="112.38" class="ty">int</tspan></text><path d="M7,14A2,2 0 0,1 5,12A2,2 0 0,1 7,10A2,2 0 0,1 9,12A2,2 0 0,1 7,14M12.65,10C11.83,7.67 9.61,6 7, 6A6, 6 0 0, 0 1, 12A6, 6 0 0, 0 7, 18C9.61, 18 11.83, 16.33 12.65, 14H17V18H21V14H23V10H12.65Z" class="i pk" transform="translate(79.706171875, 73) scale(0.65)"></path><text x="13" y="111" class="tf">strength<tspan x="112.38" class="ty">real</tspan></text></svg></g></g><text class="qdbd-link" x="10" y="20">www.quickdatabasediagrams.com</text></svg>